<svg width="34" height="34" viewBox="0 0 34 34" fill="none" xmlns="http://www.w3.org/2000/svg">
<path d="M17.0016 0.333374C7.80163 0.333374 0.334961 7.80004 0.334961 17C0.334961 26.2 7.80163 33.6667 17.0016 33.6667C26.2016 33.6667 33.6683 26.2 33.6683 17C33.6683 7.80004 26.2016 0.333374 17.0016 0.333374ZM17.0016 5.33337C19.7683 5.33337 22.0016 7.5667 22.0016 10.3334C22.0016 13.1 19.7683 15.3334 17.0016 15.3334C14.235 15.3334 12.0016 13.1 12.0016 10.3334C12.0016 7.5667 14.235 5.33337 17.0016 5.33337ZM17.0016 29C12.835 29 9.15163 26.8667 7.00163 23.6334C7.05163 20.3167 13.6683 18.5 17.0016 18.5C20.3183 18.5 26.9516 20.3167 27.0016 23.6334C24.8516 26.8667 21.1683 29 17.0016 29Z" fill="#3B5C9F"/>
</svg>
