<svg width="22" height="22" viewBox="0 0 22 22" fill="none" xmlns="http://www.w3.org/2000/svg">
<path d="M14.254 11.9168C14.9415 11.9168 15.5465 11.541 15.8582 10.9727L19.1398 5.0235C19.479 4.4185 19.039 3.66683 18.3423 3.66683H4.77567L3.914 1.8335H0.916504V3.66683H2.74984L6.04984 10.6243L4.81234 12.861C4.14317 14.0893 5.02317 15.5835 6.4165 15.5835H17.4165V13.7502H6.4165L7.42484 11.9168H14.254ZM5.6465 5.50016H16.784L14.254 10.0835H7.819L5.6465 5.50016ZM6.4165 16.5002C5.40817 16.5002 4.59234 17.3252 4.59234 18.3335C4.59234 19.3418 5.40817 20.1668 6.4165 20.1668C7.42484 20.1668 8.24984 19.3418 8.24984 18.3335C8.24984 17.3252 7.42484 16.5002 6.4165 16.5002ZM15.5832 16.5002C14.5748 16.5002 13.759 17.3252 13.759 18.3335C13.759 19.3418 14.5748 20.1668 15.5832 20.1668C16.5915 20.1668 17.4165 19.3418 17.4165 18.3335C17.4165 17.3252 16.5915 16.5002 15.5832 16.5002Z" fill="#325294"/>
</svg>
