<svg width="12" height="10" viewBox="0 0 12 10" fill="none" xmlns="http://www.w3.org/2000/svg">
<path d="M10.6329 0.637024C10.2879 0.647081 9.96023 0.791037 9.71942 1.03842C7.6462 3.11613 6.04787 4.85828 4.14837 6.80325L2.21754 5.17C2.08529 5.05105 1.9305 4.95987 1.76235 4.90184C1.59421 4.84382 1.41612 4.82014 1.23866 4.83222C1.06119 4.8443 0.88796 4.89188 0.729225 4.97214C0.570489 5.05241 0.429483 5.16372 0.314565 5.29949C0.199647 5.43526 0.113155 5.59272 0.0602168 5.76253C0.00727858 5.93235 -0.0110289 6.11107 0.00637976 6.28809C0.0237884 6.46511 0.0765589 6.63684 0.161563 6.79309C0.246567 6.94934 0.362075 7.08693 0.50124 7.19771L3.38019 9.63375C3.6349 9.84927 3.96137 9.96108 4.29472 9.94698C4.62808 9.93288 4.94394 9.79389 5.17954 9.55763C7.5692 7.16283 9.26704 5.25371 11.6018 2.9139C11.7925 2.72679 11.9224 2.48656 11.9745 2.22453C12.0266 1.96251 11.9985 1.69086 11.8939 1.44504C11.7893 1.19921 11.613 0.990615 11.3881 0.846479C11.1631 0.702342 10.9 0.629347 10.6329 0.637024V0.637024Z" fill="#3B5C9F"/>
</svg>
