<svg width="13" height="10" viewBox="0 0 13 10" fill="none" xmlns="http://www.w3.org/2000/svg">
<path d="M11.1788 0.637024C10.8337 0.647081 10.5061 0.791037 10.2653 1.03842C8.1921 3.11613 6.59377 4.85828 4.69427 6.80325L2.76344 5.17C2.63118 5.05105 2.4764 4.95987 2.30825 4.90184C2.14011 4.84382 1.96202 4.82014 1.78456 4.83222C1.60709 4.8443 1.43386 4.89188 1.27512 4.97214C1.11639 5.05241 0.975382 5.16372 0.860463 5.29949C0.745545 5.43526 0.659053 5.59272 0.606115 5.76253C0.553177 5.93235 0.53487 6.11107 0.552278 6.28809C0.569687 6.46511 0.622457 6.63684 0.707461 6.79309C0.792466 6.94934 0.907973 7.08693 1.04714 7.19771L3.92609 9.63375C4.1808 9.84927 4.50726 9.96108 4.84062 9.94698C5.17398 9.93288 5.48983 9.79389 5.72543 9.55763C8.1151 7.16283 9.81294 5.25371 12.1477 2.9139C12.3384 2.72679 12.4683 2.48656 12.5204 2.22453C12.5725 1.96251 12.5444 1.69086 12.4398 1.44504C12.3352 1.19921 12.1589 0.990615 11.934 0.846479C11.709 0.702342 11.4459 0.629347 11.1788 0.637024Z" fill="white"/>
</svg>
