<svg width="14" height="16" viewBox="0 0 14 16" fill="none" xmlns="http://www.w3.org/2000/svg">
<path d="M14 14.486V16H2.84038e-05V14.486C-0.00121988 14.1044 0.0386797 13.7237 0.119036 13.3506C0.659446 10.8514 2.99667 9.4486 5.80212 9.4486H8.19788C11.0033 9.4486 13.3425 10.8592 13.881 13.3506C13.9613 13.7237 14.0012 14.1044 14 14.486V14.486ZM7 7.90538C7.78183 7.90538 8.54611 7.67351 9.19615 7.23909C9.8462 6.80468 10.3528 6.18724 10.6519 5.46487C10.951 4.74249 11.0292 3.94764 10.8765 3.18084C10.7238 2.41404 10.3472 1.70974 9.79422 1.15703C9.24124 0.604312 8.53678 0.228009 7.76992 0.0757139C7.00306 -0.0765811 6.20826 0.0019737 5.48605 0.301442C4.76384 0.600911 4.14666 1.10784 3.71258 1.75811C3.2785 2.40839 3.04701 3.17279 3.0474 3.95464C3.04791 5.00262 3.46458 6.0075 4.20578 6.74835C4.94698 7.4892 5.95204 7.90538 7 7.90538V7.90538Z" fill="white" fill-opacity="0.32"/>
</svg>
