<svg width="16" height="14" viewBox="0 0 16 14" fill="none" xmlns="http://www.w3.org/2000/svg">
<path d="M8.00033 3.00003C10.527 3.00003 12.7803 4.42003 13.8803 6.6667C13.487 7.48003 12.9337 8.18003 12.2737 8.7467L13.2137 9.6867C14.1403 8.8667 14.8737 7.84003 15.3337 6.6667C14.1803 3.74003 11.3337 1.6667 8.00033 1.6667C7.15366 1.6667 6.34032 1.80003 5.57366 2.0467L6.67366 3.1467C7.10699 3.06003 7.54699 3.00003 8.00033 3.00003ZM7.28699 3.76003L8.66699 5.14003C9.04699 5.3067 9.35366 5.61336 9.52032 5.99336L10.9003 7.37336C10.9537 7.1467 10.9937 6.9067 10.9937 6.66003C11.0003 5.0067 9.65366 3.6667 8.00033 3.6667C7.75366 3.6667 7.52033 3.70003 7.28699 3.76003ZM1.34033 1.58003L3.12699 3.3667C2.04033 4.22003 1.18033 5.35336 0.666992 6.6667C1.82033 9.59336 4.66699 11.6667 8.00033 11.6667C9.01366 11.6667 9.98699 11.4734 10.8803 11.12L13.1603 13.4L14.1003 12.46L2.28033 0.633362L1.34033 1.58003ZM6.34033 6.58003L8.08033 8.32003C8.05366 8.32669 8.02699 8.33336 8.00033 8.33336C7.08033 8.33336 6.33366 7.5867 6.33366 6.6667C6.33366 6.63336 6.34033 6.61336 6.34033 6.58003ZM4.07366 4.31336L5.24033 5.48003C5.08699 5.8467 5.00033 6.2467 5.00033 6.6667C5.00033 8.32003 6.34699 9.6667 8.00033 9.6667C8.42033 9.6667 8.82032 9.58003 9.18033 9.4267L9.83366 10.08C9.24699 10.24 8.63366 10.3334 8.00033 10.3334C5.47366 10.3334 3.22033 8.91336 2.12033 6.6667C2.58699 5.71336 3.26699 4.92669 4.07366 4.31336Z" fill="#325294"/>
</svg>
