<svg width="16" height="11" viewBox="0 0 16 11" fill="none" xmlns="http://www.w3.org/2000/svg">
<path d="M8.00033 2.00002C10.527 2.00002 12.7803 3.42002 13.8803 5.66669C12.7803 7.91335 10.527 9.33335 8.00033 9.33335C5.47366 9.33335 3.22033 7.91335 2.12033 5.66669C3.22033 3.42002 5.47366 2.00002 8.00033 2.00002ZM8.00033 0.666687C4.66699 0.666687 1.82033 2.74002 0.666992 5.66669C1.82033 8.59335 4.66699 10.6667 8.00033 10.6667C11.3337 10.6667 14.1803 8.59335 15.3337 5.66669C14.1803 2.74002 11.3337 0.666687 8.00033 0.666687ZM8.00033 4.00002C8.92033 4.00002 9.66699 4.74669 9.66699 5.66669C9.66699 6.58669 8.92033 7.33335 8.00033 7.33335C7.08033 7.33335 6.33366 6.58669 6.33366 5.66669C6.33366 4.74669 7.08033 4.00002 8.00033 4.00002ZM8.00033 2.66669C6.34699 2.66669 5.00033 4.01335 5.00033 5.66669C5.00033 7.32002 6.34699 8.66669 8.00033 8.66669C9.65366 8.66669 11.0003 7.32002 11.0003 5.66669C11.0003 4.01335 9.65366 2.66669 8.00033 2.66669Z" fill="#325294"/>
</svg>
