<svg width="2088" height="355" viewBox="0 0 2088 355" fill="none" xmlns="http://www.w3.org/2000/svg">
<mask id="mask0" mask-type="alpha" maskUnits="userSpaceOnUse" x="0" y="0" width="2088" height="355">
<rect width="2088" height="355" fill="#3B5C9F"/>
</mask>
<g mask="url(#mask0)">
<g opacity="0.5">
<path d="M920.018 231.876C920.018 231.876 840.694 234.387 843.394 316.902C843.394 316.902 921.672 311.707 920.018 231.876Z" fill="#3B5C9F"/>
<path d="M976.702 344.35C976.702 344.35 915.751 319.846 890.238 383.14C890.151 383.14 951.103 405.306 976.702 344.35Z" fill="#3B5C9F"/>
<path d="M444.947 360.974C444.947 360.974 387.217 330.583 355 391.02C355 391.02 413.339 419.073 444.947 360.974Z" fill="#3B5C9F"/>
<path d="M523.923 99.4C523.923 99.4 471.679 139.316 513.996 193.258C514.083 193.258 563.976 152.044 523.923 99.4Z" fill="#3B5C9F"/>
<path d="M1042.36 110.57C1042.36 110.57 978.096 156.893 1026.86 223.65C1026.77 223.65 1088.77 175.768 1042.36 110.57Z" fill="#3B5C9F"/>
<path d="M908.348 184.34C908.348 184.34 843.043 139.402 795.85 207.372C795.937 207.285 861.938 249.539 908.348 184.34Z" fill="#3B5C9F"/>
<path d="M920.105 40.5219C920.105 40.5219 846.267 69.2682 876.83 146.329C876.83 146.329 948.839 115.158 920.105 40.5219Z" fill="#3B5C9F"/>
<path d="M802.817 253.955C802.817 253.955 732.2 289.974 770.338 363.659C770.338 363.659 838.691 325.474 802.817 253.955Z" fill="#3B5C9F"/>
<path d="M1038.87 340.973C1038.87 340.973 1118.28 341.666 1118.89 259.15C1118.63 259.063 1040.27 261.055 1038.87 340.973Z" fill="#3B5C9F"/>
<path d="M583.916 331.968C583.916 331.968 622.925 400.717 695.196 360.109C695.196 360.022 654.358 293.438 583.916 331.968Z" fill="#3B5C9F"/>
<path d="M528.797 212.913C528.797 212.913 533.412 291.706 615.87 286.857C616.305 286.857 608.991 209.19 528.797 212.913Z" fill="#3B5C9F"/>
<path d="M410.726 195.25C410.726 195.25 379.815 267.982 456.352 300.018C456.352 300.018 484.39 227.113 410.726 195.25Z" fill="#3B5C9F"/>
<path d="M433.104 412.32C433.104 412.32 494.055 463.318 547.256 400.198C547.256 400.198 485.609 351.883 433.104 412.32Z" fill="#3B5C9F"/>
<path d="M648.437 139.835C648.437 139.835 624.056 214.991 703.118 240.274C702.944 240.188 724.451 165.118 648.437 139.835Z" fill="#3B5C9F"/>
<path d="M583.305 59.0512C583.305 59.0512 603.419 135.42 683.7 114.379C683.787 114.379 661.235 39.6561 583.305 59.0512Z" fill="#3B5C9F"/>
<path d="M772.08 0C772.08 0 730.111 67.0171 800.727 110.57C800.727 110.57 839.997 43.2927 772.08 0Z" fill="#3B5C9F"/>
<path d="M843.306 4.24274C843.306 4.24274 873.956 92.5598 785.751 168.755C697.546 244.95 719.314 389.634 753.708 438.728C788.102 487.822 807.084 632.679 723.668 710" stroke="#3B5C9F" stroke-width="7" stroke-miterlimit="10" stroke-linecap="round" stroke-linejoin="round"/>
<path d="M791.063 710C707.647 632.679 726.803 487.649 761.023 438.728C761.023 438.728 784.62 368.161 912.791 324.868C1040.96 281.576 1077.53 223.131 1090.42 169.707" stroke="#3B5C9F" stroke-width="7" stroke-miterlimit="10" stroke-linecap="round" stroke-linejoin="round"/>
<path d="M955.979 47.0157C955.979 47.0157 1033.65 206.852 927.07 320.366" stroke="#3B5C9F" stroke-width="7" stroke-miterlimit="10" stroke-linecap="round" stroke-linejoin="round"/>
<path d="M896.682 418.554C896.682 418.554 985.148 422.796 1009.01 353.355" stroke="#3B5C9F" stroke-width="7" stroke-miterlimit="10" stroke-linecap="round" stroke-linejoin="round"/>
<path d="M468.542 117.15C468.542 117.15 452.869 342.705 633.981 414.744" stroke="#3B5C9F" stroke-width="7" stroke-miterlimit="10" stroke-linecap="round" stroke-linejoin="round"/>
<path d="M375.201 270.233C375.201 270.233 417.606 358.983 539.508 348.766" stroke="#3B5C9F" stroke-width="7" stroke-miterlimit="10" stroke-linecap="round" stroke-linejoin="round"/>
<path d="M675.256 55.1548C675.256 55.1548 776.348 77.9267 776.783 177.327" stroke="#3B5C9F" stroke-width="7" stroke-miterlimit="10" stroke-linecap="round" stroke-linejoin="round"/>
<path d="M565.891 117.15C565.891 117.15 597.324 253.176 726.018 285.732" stroke="#3B5C9F" stroke-width="7" stroke-miterlimit="10" stroke-linecap="round" stroke-linejoin="round"/>
</g>
</g>
</svg>
