<svg width="1404" height="387" viewBox="0 0 1404 387" fill="none" xmlns="http://www.w3.org/2000/svg">
<mask id="mask0" mask-type="alpha" maskUnits="userSpaceOnUse" x="0" y="0" width="1404" height="387">
<rect width="1404" height="387" fill="#325294"/>
</mask>
<g mask="url(#mask0)">
<path d="M914.018 231.876C914.018 231.876 834.694 234.387 837.394 316.902C837.394 316.902 915.672 311.707 914.018 231.876Z" fill="#3B5C9F"/>
<path d="M970.702 344.35C970.702 344.35 909.751 319.846 884.238 383.14C884.151 383.14 945.103 405.306 970.702 344.35Z" fill="#3B5C9F"/>
<path d="M438.947 360.974C438.947 360.974 381.217 330.583 349 391.02C349 391.02 407.339 419.073 438.947 360.974Z" fill="#3B5C9F"/>
<path d="M517.923 99.4C517.923 99.4 465.679 139.316 507.996 193.258C508.083 193.258 557.976 152.044 517.923 99.4Z" fill="#3B5C9F"/>
<path d="M1036.36 110.57C1036.36 110.57 972.096 156.893 1020.86 223.65C1020.77 223.65 1082.77 175.768 1036.36 110.57Z" fill="#3B5C9F"/>
<path d="M902.348 184.34C902.348 184.34 837.043 139.402 789.85 207.372C789.937 207.285 855.938 249.539 902.348 184.34Z" fill="#3B5C9F"/>
<path d="M914.105 40.5219C914.105 40.5219 840.267 69.2682 870.83 146.329C870.83 146.329 942.839 115.158 914.105 40.5219Z" fill="#3B5C9F"/>
<path d="M796.817 253.955C796.817 253.955 726.2 289.974 764.338 363.659C764.338 363.659 832.691 325.474 796.817 253.955Z" fill="#3B5C9F"/>
<path d="M1003.01 428.598C1003.01 428.598 1075.89 459.855 1108.71 384.006C1108.71 384.093 1035.66 355.606 1003.01 428.598Z" fill="#3B5C9F"/>
<path d="M1032.87 340.973C1032.87 340.973 1112.28 341.666 1112.89 259.15C1112.63 259.063 1034.27 261.055 1032.87 340.973Z" fill="#3B5C9F"/>
<path d="M577.916 331.968C577.916 331.968 616.925 400.717 689.196 360.109C689.196 360.022 648.358 293.438 577.916 331.968Z" fill="#3B5C9F"/>
<path d="M522.797 212.913C522.797 212.913 527.412 291.706 609.87 286.857C610.305 286.857 602.991 209.19 522.797 212.913Z" fill="#3B5C9F"/>
<path d="M404.726 195.25C404.726 195.25 373.815 267.982 450.352 300.018C450.352 300.018 478.39 227.113 404.726 195.25Z" fill="#3B5C9F"/>
<path d="M427.104 412.32C427.104 412.32 488.055 463.318 541.256 400.198C541.256 400.198 479.609 351.883 427.104 412.32Z" fill="#3B5C9F"/>
<path d="M642.437 139.835C642.437 139.835 618.056 214.991 697.118 240.274C696.944 240.188 718.451 165.118 642.437 139.835Z" fill="#3B5C9F"/>
<path d="M577.305 59.0512C577.305 59.0512 597.419 135.419 677.7 114.379C677.787 114.379 655.235 39.6561 577.305 59.0512Z" fill="#3B5C9F"/>
<path d="M766.08 0C766.08 0 724.111 67.0171 794.727 110.57C794.727 110.57 833.997 43.2927 766.08 0Z" fill="#3B5C9F"/>
<path d="M837.306 4.24274C837.306 4.24274 867.956 92.5598 779.751 168.755C691.546 244.95 713.314 389.634 747.708 438.728C782.102 487.822 801.084 632.679 717.668 710" stroke="#3B5C9F" stroke-width="7" stroke-miterlimit="10" stroke-linecap="round" stroke-linejoin="round"/>
<path d="M785.063 710C701.647 632.679 720.803 487.649 755.023 438.728C755.023 438.728 778.62 368.161 906.791 324.868C1034.96 281.576 1071.53 223.131 1084.42 169.707" stroke="#3B5C9F" stroke-width="7" stroke-miterlimit="10" stroke-linecap="round" stroke-linejoin="round"/>
<path d="M949.979 47.0157C949.979 47.0157 1027.65 206.852 921.07 320.366" stroke="#3B5C9F" stroke-width="7" stroke-miterlimit="10" stroke-linecap="round" stroke-linejoin="round"/>
<path d="M890.682 418.554C890.682 418.554 979.148 422.796 1003.01 353.355" stroke="#3B5C9F" stroke-width="7" stroke-miterlimit="10" stroke-linecap="round" stroke-linejoin="round"/>
<path d="M462.542 117.15C462.542 117.15 446.869 342.705 627.981 414.744" stroke="#3B5C9F" stroke-width="7" stroke-miterlimit="10" stroke-linecap="round" stroke-linejoin="round"/>
<path d="M369.201 270.233C369.201 270.233 411.606 358.983 533.508 348.766" stroke="#3B5C9F" stroke-width="7" stroke-miterlimit="10" stroke-linecap="round" stroke-linejoin="round"/>
<path d="M669.256 55.1548C669.256 55.1548 770.348 77.9268 770.783 177.327" stroke="#3B5C9F" stroke-width="7" stroke-miterlimit="10" stroke-linecap="round" stroke-linejoin="round"/>
<path d="M559.891 117.15C559.891 117.15 591.324 253.176 720.018 285.732" stroke="#3B5C9F" stroke-width="7" stroke-miterlimit="10" stroke-linecap="round" stroke-linejoin="round"/>
</g>
</svg>
