<svg width="1404" height="622" viewBox="0 0 1404 622" fill="none" xmlns="http://www.w3.org/2000/svg">
<mask id="mask0" mask-type="alpha" maskUnits="userSpaceOnUse" x="0" y="0" width="1404" height="622">
<rect width="1404" height="622" fill="#325294"/>
</mask>
<g mask="url(#mask0)">
<path d="M668.891 242.128C668.891 242.128 586.216 244.749 589.029 330.875C589.029 330.875 670.616 325.453 668.891 242.128Z" fill="#3B5C9F"/>
<path d="M727.971 359.524C727.971 359.524 664.444 333.948 637.854 400.011C637.763 400.011 701.29 423.147 727.971 359.524Z" fill="#3B5C9F"/>
<path d="M173.747 376.876C173.747 376.876 113.578 345.155 80 408.235C80 408.235 140.804 437.516 173.747 376.876Z" fill="#3B5C9F"/>
<path d="M256.061 103.856C256.061 103.856 201.609 145.519 245.715 201.821C245.806 201.821 297.807 158.803 256.061 103.856Z" fill="#3B5C9F"/>
<path d="M407.073 480.715C407.073 480.715 350.625 442.215 310.24 501.049C310.24 501.049 367.686 537.108 407.073 480.715Z" fill="#3B5C9F"/>
<path d="M796.4 115.515C796.4 115.515 729.425 163.865 780.246 233.543C780.156 233.543 844.771 183.566 796.4 115.515Z" fill="#3B5C9F"/>
<path d="M656.731 192.513C656.731 192.513 588.666 145.609 539.479 216.553C539.569 216.462 608.36 260.565 656.731 192.513Z" fill="#3B5C9F"/>
<path d="M668.983 42.4025C668.983 42.4025 592.025 72.4065 623.879 152.839C623.879 152.839 698.931 120.305 668.983 42.4025Z" fill="#3B5C9F"/>
<path d="M546.739 265.173C546.739 265.173 473.139 302.769 512.888 379.677C512.888 379.677 584.129 339.822 546.739 265.173Z" fill="#3B5C9F"/>
<path d="M540.113 474.57C540.113 474.57 579.863 546.869 655.732 505.297C655.913 505.297 614.167 435.257 540.113 474.57Z" fill="#3B5C9F"/>
<path d="M761.643 447.457C761.643 447.457 837.602 480.082 871.816 400.915C871.816 401.005 795.675 371.272 761.643 447.457Z" fill="#3B5C9F"/>
<path d="M792.77 355.999C792.77 355.999 875.536 356.722 876.171 270.596C875.899 270.506 794.222 272.584 792.77 355.999Z" fill="#3B5C9F"/>
<path d="M318.588 346.601C318.588 346.601 359.245 418.357 434.569 375.972C434.569 375.882 392.007 306.384 318.588 346.601Z" fill="#3B5C9F"/>
<path d="M261.141 222.337C261.141 222.337 265.95 304.577 351.893 299.516C352.347 299.516 344.724 218.45 261.141 222.337Z" fill="#3B5C9F"/>
<path d="M138.081 203.901C138.081 203.901 105.863 279.814 185.635 313.253C185.635 313.253 214.857 237.158 138.081 203.901Z" fill="#3B5C9F"/>
<path d="M161.404 430.467C161.404 430.467 224.931 483.697 280.381 417.815C280.381 417.815 216.128 367.387 161.404 430.467Z" fill="#3B5C9F"/>
<path d="M385.834 146.061C385.834 146.061 360.424 224.505 442.827 250.895C442.645 250.804 465.061 172.45 385.834 146.061Z" fill="#3B5C9F"/>
<path d="M317.953 61.7426C317.953 61.7426 338.917 141.452 422.591 119.491C422.681 119.491 399.176 41.499 317.953 61.7426Z" fill="#3B5C9F"/>
<path d="M514.703 0.107788C514.703 0.107788 470.96 70.057 544.56 115.515C544.56 115.515 585.49 45.2946 514.703 0.107788Z" fill="#3B5C9F"/>
<path d="M588.94 4.53589C588.94 4.53589 620.885 96.717 528.953 176.246C437.02 255.775 459.708 406.789 495.556 458.031C531.403 509.272 551.187 660.468 464.246 741.171" stroke="#3B5C9F" stroke-width="7" stroke-miterlimit="10" stroke-linecap="round" stroke-linejoin="round"/>
<path d="M534.488 741.171C447.547 660.467 467.512 509.092 503.178 458.03C503.178 458.03 527.772 384.376 661.359 339.189C794.947 294.002 833.063 233 846.494 177.24" stroke="#3B5C9F" stroke-width="7" stroke-miterlimit="10" stroke-linecap="round" stroke-linejoin="round"/>
<path d="M706.372 49.1807C706.372 49.1807 787.323 216.01 676.242 334.49" stroke="#3B5C9F" stroke-width="7" stroke-miterlimit="10" stroke-linecap="round" stroke-linejoin="round"/>
<path d="M508.26 447.367C533.687 435.357 561.477 429.127 589.619 429.127C617.761 429.127 645.552 435.357 670.979 447.367C755.741 488.848 831.973 510.628 919.731 438.329" stroke="#3B5C9F" stroke-width="7" stroke-miterlimit="10" stroke-linecap="round" stroke-linejoin="round"/>
<path d="M644.57 436.974C644.57 436.974 736.775 441.402 761.641 368.922" stroke="#3B5C9F" stroke-width="7" stroke-miterlimit="10" stroke-linecap="round" stroke-linejoin="round"/>
<path d="M491.471 447.367C466.044 435.357 438.254 429.127 410.112 429.127C381.97 429.127 354.179 435.357 328.752 447.367C243.99 488.848 167.758 510.628 80 438.329" stroke="#3B5C9F" stroke-width="7" stroke-miterlimit="10" stroke-linecap="round" stroke-linejoin="round"/>
<path d="M198.34 122.383C198.34 122.383 182.005 357.807 370.769 432.998" stroke="#3B5C9F" stroke-width="7" stroke-miterlimit="10" stroke-linecap="round" stroke-linejoin="round"/>
<path d="M101.055 282.164C101.055 282.164 145.251 374.797 272.304 364.133" stroke="#3B5C9F" stroke-width="7" stroke-miterlimit="10" stroke-linecap="round" stroke-linejoin="round"/>
<path d="M413.787 57.6756C413.787 57.6756 519.151 81.4439 519.604 185.193" stroke="#3B5C9F" stroke-width="7" stroke-miterlimit="10" stroke-linecap="round" stroke-linejoin="round"/>
<path d="M299.803 122.383C299.803 122.383 332.564 264.36 466.696 298.341" stroke="#3B5C9F" stroke-width="7" stroke-miterlimit="10" stroke-linecap="round" stroke-linejoin="round"/>
</g>
</svg>
