<svg width="254" height="254" viewBox="0 0 254 254" fill="none" xmlns="http://www.w3.org/2000/svg">
<g clip-path="url(#clip0)">
<path opacity="0.2" d="M203.083 41.831L202.3 42.0714C201.943 42.2018 201.552 42.2002 201.197 42.0669C200.842 41.9336 200.547 41.6774 200.365 41.3448C198.088 37.2155 193.046 35.7982 187.991 37.3514C183.426 38.7503 179.243 42.8474 177.382 47.5676C177.162 48.1807 176.808 48.7375 176.347 49.1978C175.886 49.6581 175.328 50.0105 174.715 50.2299L170.822 51.4256C170.295 51.605 169.723 51.6102 169.192 51.4404C168.662 51.2706 168.199 50.9348 167.874 50.4825C165.374 47.0966 160.76 45.7018 156.19 47.1019C151.124 48.6525 146.55 53.0158 145.027 58.3133C144.908 58.7387 144.689 59.1293 144.387 59.4518C144.085 59.7744 143.71 60.0194 143.293 60.1662L142.51 60.4066C142.328 60.4719 142.173 60.5943 142.066 60.7554C141.96 60.9165 141.909 61.1078 141.92 61.3005L142.083 63.3511C142.08 63.4219 142.092 63.4926 142.117 63.5587C142.143 63.6247 142.183 63.6846 142.233 63.7345C142.283 63.7844 142.344 63.8232 142.41 63.8485C142.476 63.8737 142.547 63.8848 142.618 63.881L143.646 63.9423C144.044 63.9637 144.423 64.1229 144.716 64.3928C145.01 64.6626 145.2 65.0262 145.255 65.4212C146.438 71.8295 152.02 75.4056 158.283 73.4891C164.322 71.6371 168.967 65.287 169.41 58.7288C169.452 58.1962 169.626 57.6825 169.916 57.2337C170.206 56.7848 170.602 56.4149 171.07 56.1569C172.343 55.4725 173.733 55.0325 175.168 54.8596C175.625 54.8046 176.086 54.9237 176.46 55.1931C176.833 55.4626 177.091 55.8627 177.184 56.3139C178.624 62.3155 184.025 65.5955 190.074 63.7411C196.348 61.8272 201.117 55.0975 201.264 48.2704C201.279 47.7967 201.405 47.3329 201.63 46.916C201.856 46.4991 202.175 46.1406 202.563 45.8688L203.537 45.2015C203.674 45.1145 203.786 44.9924 203.861 44.8477C203.935 44.7031 203.97 44.5412 203.961 44.3787L203.803 42.3269C203.809 42.2389 203.792 42.1509 203.754 42.0714C203.715 41.992 203.657 41.9239 203.584 41.8739C203.512 41.8238 203.427 41.7936 203.339 41.7861C203.251 41.7785 203.163 41.794 203.083 41.831ZM158.154 71.7543C152.314 73.5429 147.191 69.8516 146.688 63.5359C146.186 57.2202 150.511 50.6022 156.342 48.8418C162.173 47.0815 167.305 50.7446 167.802 57.0615C168.3 63.3783 163.979 69.9693 158.154 71.7543ZM169.258 55.3538C169.202 55.0189 169.13 54.6757 169.042 54.3242C169.014 54.1819 169.038 54.0345 169.109 53.9082C169.18 53.782 169.294 53.6853 169.43 53.6353L176.399 51.5024C176.459 51.4819 176.524 51.4773 176.586 51.4891C176.648 51.5009 176.707 51.5287 176.755 51.5698C176.803 51.6109 176.84 51.6638 176.862 51.7234C176.883 51.7831 176.889 51.8473 176.879 51.9098C176.852 52.2768 176.835 52.6413 176.829 53.0084C173.574 52.8548 170.727 54.3794 169.258 55.3538ZM189.935 62.0086C184.095 63.7972 178.972 60.1059 178.474 53.789C177.976 47.4721 182.291 40.8565 188.122 39.0961C193.953 37.3358 199.085 40.9989 199.588 47.3146C200.091 53.6303 195.774 60.22 189.935 62.0086Z" fill="black" fill-opacity="0.7"/>
<path d="M198.305 44.2789L154.423 61.1773C153.387 61.5763 152.446 62.1881 151.661 62.9732C150.876 63.7583 150.264 64.6993 149.865 65.7354L145.548 76.9801C145.509 77.0844 145.494 77.1963 145.504 77.3073C145.514 77.4183 145.548 77.5257 145.606 77.6214C145.663 77.7171 145.741 77.7987 145.834 77.8602C145.927 77.9216 146.032 77.9613 146.143 77.9763C146.628 78.0405 147.121 77.939 147.541 77.6883C147.962 77.4375 148.286 77.0521 148.46 76.5946L152.46 66.2303C152.697 65.6104 153.061 65.0466 153.528 64.5748C153.995 64.1029 154.555 63.7334 155.172 63.4896L198.937 46.191L198.305 44.2789Z" fill="#263238"/>
<path d="M138.073 62.7724L183.603 51.0423C184.681 50.7676 185.804 50.7221 186.9 50.909C187.996 51.0958 189.04 51.5108 189.966 52.127L200.014 58.7735C200.107 58.8351 200.185 58.917 200.241 59.0129C200.298 59.1088 200.332 59.2163 200.341 59.3272C200.35 59.4382 200.334 59.5498 200.293 59.6535C200.253 59.7573 200.19 59.8506 200.108 59.9265C199.751 60.2615 199.292 60.4662 198.804 60.5075C198.316 60.5488 197.828 60.4242 197.42 60.1539L188.138 54.0234C187.582 53.6559 186.956 53.4081 186.3 53.2959C185.643 53.1836 184.97 53.2095 184.324 53.3716L138.647 64.7036L138.073 62.7724Z" fill="#263238"/>
<path d="M166.478 59.0304C167.066 58.9989 167.965 62.8528 167.002 64.4579C166.04 66.063 163.977 63.2147 164.035 61.9992C164.093 60.7836 164.634 59.1179 166.478 59.0304Z" fill="#2A4B8E" stroke="#263238" stroke-linecap="round" stroke-linejoin="round"/>
<path d="M174.302 56.6295C173.801 56.9378 175.206 60.5919 176.91 61.421C178.614 62.2502 178.721 58.6928 177.992 57.7237C177.263 56.7545 175.875 55.6721 174.302 56.6295Z" fill="#2A4B8E" stroke="#263238" stroke-linecap="round" stroke-linejoin="round"/>
<path opacity="0.5" d="M143.94 54.9171C145.84 52.2981 150.067 47.6001 156.405 49.584C162.743 51.5679 165.519 54.71 165.553 59.8582C165.588 65.0064 163.661 72.3651 155.173 73.2011C146.686 74.0372 138.041 63.0519 143.94 54.9171Z" fill="#2A4B8E"/>
<path opacity="0.5" d="M175.882 45.582C177.781 42.963 182.002 38.2613 188.34 40.2452C194.678 42.2291 197.459 45.37 197.489 50.5193C197.518 55.6687 195.601 63.0251 187.109 63.8623C178.617 64.6995 169.971 53.6933 175.882 45.582Z" fill="#2A4B8E"/>
<path d="M199.083 43.3608L198.299 43.6012C197.911 43.7218 197.497 43.7267 197.107 43.6154C196.716 43.5041 196.367 43.2813 196.101 42.9744C192.868 39.2157 187.249 38.0258 182.182 39.5765C179.947 40.2699 177.926 41.5238 176.312 43.219C174.698 44.9141 173.544 46.9941 172.962 49.261C172.831 49.8453 172.551 50.3853 172.147 50.8276C171.744 51.27 171.232 51.5992 170.662 51.7826L166.769 52.9734C166.193 53.1439 165.583 53.1602 164.999 53.0207C164.416 52.8811 163.879 52.5907 163.443 52.1783C161.689 50.6278 159.568 49.5518 157.281 49.0529C154.994 48.554 152.617 48.6487 150.377 49.3281C145.312 50.8837 141.326 55.0172 140.758 59.9441C140.709 60.347 140.544 60.7269 140.283 61.0374C140.022 61.3478 139.675 61.5754 139.287 61.6923L138.503 61.9326C138.333 61.9857 138.19 62.1043 138.106 62.2624C138.023 62.4205 138.006 62.6052 138.058 62.7761L138.64 64.6791C138.685 64.8211 138.775 64.9445 138.897 65.0304C139.018 65.1164 139.165 65.1601 139.313 65.1548L140.417 65.1824C140.844 65.1877 141.26 65.3153 141.617 65.5501C141.973 65.785 142.255 66.1172 142.428 66.5073C143.614 69.373 145.808 71.7055 148.596 73.0649C151.383 74.4243 154.572 74.7166 157.561 73.8867C160.549 73.0568 163.13 71.162 164.818 68.5598C166.505 65.9576 167.182 62.8278 166.721 59.7608C166.663 59.2813 166.753 58.7956 166.978 58.3683C167.203 57.941 167.552 57.5923 167.98 57.3687C169.25 56.6852 170.637 56.246 172.069 56.0738C172.554 56.0211 173.044 56.1178 173.473 56.3507C173.903 56.5837 174.251 56.9419 174.471 57.3777C175.798 60.1946 178.112 62.4263 180.976 63.6486C183.839 64.8709 187.052 64.9987 190.004 64.0077C192.956 63.0166 195.44 60.9759 196.986 58.2731C198.532 55.5704 199.031 52.394 198.388 49.3474C198.311 48.9293 198.356 48.4979 198.517 48.1045C198.679 47.7111 198.949 47.3723 199.297 47.1282L200.188 46.486C200.314 46.407 200.41 46.289 200.463 46.15C200.515 46.011 200.521 45.8586 200.479 45.7162L199.892 43.8144C199.842 43.6484 199.73 43.5082 199.579 43.4235C199.428 43.3388 199.25 43.3163 199.083 43.3608ZM157.342 72.0486C155.252 72.6898 153.02 72.6968 150.927 72.0687C148.834 71.4406 146.974 70.2056 145.583 68.5201C144.192 66.8345 143.333 64.7742 143.113 62.6C142.894 60.4257 143.324 58.2351 144.35 56.3056C145.376 54.3761 146.951 52.7944 148.877 51.7606C150.802 50.7269 152.991 50.2875 155.166 50.4983C157.341 50.709 159.405 51.5604 161.096 52.9445C162.787 54.3287 164.03 56.1835 164.666 58.2741C165.514 61.072 165.219 64.0917 163.847 66.6729C162.474 69.2542 160.135 71.1869 157.342 72.0486ZM165.869 56.6478C165.734 56.325 165.591 56.0094 165.434 55.7073C165.404 55.6475 165.387 55.5816 165.385 55.5144C165.382 55.4472 165.395 55.3803 165.422 55.3185C165.448 55.2568 165.488 55.2016 165.538 55.1571C165.589 55.1125 165.648 55.0795 165.713 55.0606L172.681 52.9228C172.746 52.8988 172.815 52.8898 172.884 52.8966C172.953 52.9034 173.019 52.9256 173.078 52.9618C173.137 52.9979 173.187 53.047 173.224 53.1052C173.262 53.1635 173.285 53.2294 173.293 53.2981C173.337 53.6324 173.393 53.9743 173.456 54.3038C170.751 54.2808 168.105 55.0986 165.884 56.6443L165.869 56.6478ZM189.137 62.2993C187.048 62.9405 184.815 62.9475 182.722 62.3194C180.629 61.6913 178.769 60.4563 177.378 58.7708C175.987 57.0853 175.128 55.025 174.908 52.8507C174.689 50.6764 175.119 48.4859 176.145 46.5564C177.171 44.6269 178.747 43.0451 180.672 42.0114C182.598 40.9776 184.786 40.5383 186.962 40.7491C189.137 40.9598 191.2 41.8111 192.892 43.1953C194.583 44.5795 195.825 46.4342 196.462 48.5248C197.31 51.3203 197.018 54.338 195.648 56.9184C194.278 59.4989 191.943 61.4321 189.152 62.2957L189.137 62.2993Z" fill="#757575" stroke="#263238" stroke-linecap="round" stroke-linejoin="round"/>
<path opacity="0.4" d="M148.526 70.1474C148.526 70.1474 143.319 65.8651 144.646 59.1205C145.849 53.0536 151.582 51.0188 154.648 51.4947L151.129 63.5823C151.065 60.8518 151.294 58.1221 151.813 55.4406C151.813 55.4406 147.753 62.1621 148.526 70.1474Z" fill="white"/>
<path opacity="0.4" d="M180.173 60.1256C180.173 60.1256 174.966 55.8482 176.294 49.1036C177.495 43.0318 183.229 40.997 186.291 41.479L182.748 53.5516C182.293 49.6328 183.458 45.4138 183.458 45.4138C183.458 45.4138 179.392 52.1316 180.173 60.1256Z" fill="white"/>
<path d="M62.1038 180.927L101.786 64.2784L63.9507 43.476L53.8947 70.6826L54.3899 69.0896L52.1027 67.8148C51.8745 67.6884 51.6217 67.6127 51.3615 67.5932C51.1013 67.5736 50.84 67.6105 50.5954 67.7014C50.3509 67.7923 50.1289 67.9351 49.9447 68.1198C49.7604 68.3046 49.6184 68.527 49.5282 68.7718L44.57 82.1864C44.252 83.0433 44.2151 83.979 44.4644 84.8583C44.7138 85.7375 45.2366 86.5145 45.957 87.0768L47.4061 88.2095L23.2535 153.552L62.1038 180.927Z" fill="#2E353A"/>
<path d="M202.012 104.591C201.326 104.357 200.761 103.86 200.44 103.21C200.12 102.56 200.071 101.809 200.303 101.122L201.32 98.1341L101.787 64.2783L62.1044 180.927L161.637 214.79L183.24 151.285C183.474 150.6 183.97 150.035 184.62 149.715C185.269 149.395 186.02 149.346 186.705 149.579C187.045 149.695 187.405 149.742 187.763 149.719C188.122 149.696 188.472 149.602 188.794 149.443C189.116 149.285 189.404 149.064 189.641 148.794C189.878 148.524 190.059 148.21 190.175 147.87L203.718 108.057C203.951 107.371 203.902 106.621 203.582 105.971C203.262 105.321 202.698 104.825 202.012 104.591Z" fill="#325294" stroke="#2E353A" stroke-linecap="round" stroke-linejoin="round"/>
<path d="M202.171 110.666L131.898 73.49L82.1038 167.614L152.377 204.79L202.171 110.666Z" fill="white" stroke="#2E353A" stroke-linecap="round" stroke-linejoin="round"/>
<path d="M202.171 110.672L131.898 73.4958L113.554 108.171L183.827 145.348L202.171 110.672Z" fill="white" stroke="#2E353A" stroke-linecap="round" stroke-linejoin="round"/>
<path d="M170.266 132.045C176.661 133.77 183.243 129.983 184.968 123.588C186.692 117.193 182.906 110.611 176.511 108.887C170.116 107.162 163.534 110.949 161.809 117.344C160.085 123.739 163.871 130.321 170.266 132.045Z" fill="#2E353A" stroke="#2E353A" stroke-linecap="round" stroke-linejoin="round"/>
<path d="M167.768 131.076C169.327 131.902 171.05 132.374 172.812 132.457C174.574 132.54 176.333 132.233 177.963 131.556C179.993 126.871 178.347 121.477 174.053 119.197C169.759 116.916 164.366 118.601 161.638 122.914C161.995 124.643 162.73 126.27 163.79 127.681C164.85 129.092 166.208 130.251 167.768 131.076Z" fill="white" stroke="#2E353A" stroke-linecap="round" stroke-linejoin="round"/>
<path d="M173.849 124.414C177.187 124.768 180.18 122.348 180.533 119.009C180.886 115.671 178.466 112.678 175.128 112.325C171.79 111.972 168.797 114.392 168.444 117.73C168.09 121.069 170.51 124.061 173.849 124.414Z" fill="white" stroke="#2E353A" stroke-linecap="round" stroke-linejoin="round"/>
<path d="M156.142 102.117L131.549 89.1064L130.054 91.9313L154.647 104.942L156.142 102.117Z" fill="white" stroke="#2E353A" stroke-linecap="round" stroke-linejoin="round"/>
<path d="M152.553 108.906L127.96 95.896L126.466 98.7208L151.059 111.731L152.553 108.906Z" fill="white" stroke="#2E353A" stroke-linecap="round" stroke-linejoin="round"/>
<path d="M149.562 114.553L124.969 101.542L124.221 102.957L148.814 115.967L149.562 114.553Z" fill="#2E353A"/>
<path d="M147.766 117.947L123.173 104.937L122.425 106.351L147.018 119.361L147.766 117.947Z" fill="#2E353A"/>
<path d="M138.644 135.19L114.051 122.18L113.303 123.595L137.896 136.605L138.644 135.19Z" fill="#2E353A"/>
<path d="M136.995 138.3L112.402 125.29L111.653 126.704L136.246 139.714L136.995 138.3Z" fill="#2E353A"/>
<path d="M135.353 141.41L110.76 128.4L110.011 129.814L134.604 142.825L135.353 141.41Z" fill="#2E353A"/>
<path d="M172.001 152.835L147.408 139.824L146.66 141.239L171.253 154.249L172.001 152.835Z" fill="#2E353A"/>
<path d="M170.355 155.948L145.762 142.938L145.014 144.353L169.607 157.363L170.355 155.948Z" fill="#2E353A"/>
<path d="M168.709 159.056L144.116 146.046L143.367 147.46L167.96 160.471L168.709 159.056Z" fill="#2E353A"/>
<path d="M114.968 119.058L174.33 150.47" stroke="#2E353A" stroke-linecap="round" stroke-linejoin="round"/>
<path d="M130.12 151.303L105.527 138.293L104.779 139.707L129.372 152.718L130.12 151.303Z" fill="#2E353A"/>
<path d="M128.47 154.414L103.877 141.404L103.128 142.818L127.721 155.829L128.47 154.414Z" fill="#2E353A"/>
<path d="M126.828 157.524L102.235 144.514L101.486 145.929L126.079 158.939L126.828 157.524Z" fill="#2E353A"/>
<path d="M163.476 168.949L138.883 155.939L138.135 157.353L162.728 170.364L163.476 168.949Z" fill="#2E353A"/>
<path d="M161.83 172.063L137.237 159.052L136.489 160.467L161.082 173.477L161.83 172.063Z" fill="#2E353A"/>
<path d="M160.184 175.17L135.591 162.16L134.843 163.575L159.436 176.585L160.184 175.17Z" fill="#2E353A"/>
<path d="M106.441 135.17L165.803 166.582" stroke="#2E353A" stroke-linecap="round" stroke-linejoin="round"/>
<path d="M156.897 181.385L98.6609 150.576L91.1843 164.709L149.42 195.518L156.897 181.385Z" fill="#2E353A" stroke="#2E353A" stroke-linecap="round" stroke-linejoin="round"/>
<path d="M190.973 107.634L118.51 74.9307L74.707 171.988L147.17 204.691L190.973 107.634Z" fill="white" stroke="#2E353A" stroke-linecap="round" stroke-linejoin="round"/>
<path d="M190.974 107.637L118.51 74.9343L102.374 110.69L174.837 143.393L190.974 107.637Z" fill="white" stroke="#2E353A" stroke-linecap="round" stroke-linejoin="round"/>
<path d="M164.98 131.022C171.498 129.845 175.827 123.606 174.65 117.089C173.473 110.571 167.234 106.241 160.716 107.419C154.198 108.596 149.869 114.835 151.047 121.353C152.224 127.87 158.462 132.2 164.98 131.022Z" fill="#2E353A" stroke="#2E353A" stroke-linecap="round" stroke-linejoin="round"/>
<path d="M157.913 130.157C159.521 130.883 161.269 131.246 163.034 131.218C164.798 131.189 166.534 130.771 168.118 129.994C169.85 125.197 167.872 119.912 163.439 117.914C159.006 115.915 153.737 117.926 151.283 122.399C151.749 124.101 152.584 125.678 153.731 127.019C154.877 128.36 156.305 129.432 157.913 130.157Z" fill="white" stroke="#2E353A" stroke-linecap="round" stroke-linejoin="round"/>
<path d="M163.356 123.104C166.702 123.366 169.628 120.866 169.891 117.52C170.154 114.173 167.654 111.247 164.307 110.984C160.961 110.721 158.035 113.221 157.772 116.568C157.509 119.915 160.009 122.841 163.356 123.104Z" fill="white" stroke="#2E353A" stroke-linecap="round" stroke-linejoin="round"/>
<path d="M144.492 101.984L119.133 90.5391L117.818 93.4519L143.178 104.897L144.492 101.984Z" fill="white" stroke="#2E353A" stroke-linecap="round" stroke-linejoin="round"/>
<path d="M141.337 108.98L115.977 97.5354L114.663 100.448L140.022 111.893L141.337 108.98Z" fill="white" stroke="#2E353A" stroke-linecap="round" stroke-linejoin="round"/>
<path d="M138.709 114.809L113.349 103.364L112.691 104.823L138.05 116.268L138.709 114.809Z" fill="#2E353A"/>
<path d="M137.13 118.307L111.771 106.862L111.112 108.321L136.472 119.766L137.13 118.307Z" fill="#2E353A"/>
<path d="M129.107 136.09L103.747 124.645L103.089 126.103L128.448 137.548L129.107 136.09Z" fill="#2E353A"/>
<path d="M127.66 139.296L102.301 127.851L101.642 129.31L127.002 140.754L127.66 139.296Z" fill="#2E353A"/>
<path d="M126.206 142.503L100.847 131.058L100.188 132.517L125.548 143.962L126.206 142.503Z" fill="#2E353A"/>
<path d="M163.495 151.614L138.135 140.169L137.477 141.628L162.837 153.073L163.495 151.614Z" fill="#2E353A"/>
<path d="M162.05 154.816L136.691 143.371L136.033 144.83L161.392 156.274L162.05 154.816Z" fill="#2E353A"/>
<path d="M160.604 158.029L135.244 146.584L134.586 148.043L159.945 159.488L160.604 158.029Z" fill="#2E353A"/>
<path d="M104.464 121.47L165.679 149.101" stroke="#2E353A" stroke-linecap="round" stroke-linejoin="round"/>
<path d="M121.604 152.705L96.2441 141.26L95.5858 142.719L120.945 154.164L121.604 152.705Z" fill="#2E353A"/>
<path d="M120.163 155.91L94.8032 144.466L94.1449 145.924L119.504 157.369L120.163 155.91Z" fill="#2E353A"/>
<path d="M118.713 159.12L93.3538 147.675L92.6954 149.133L118.055 160.578L118.713 159.12Z" fill="#2E353A"/>
<path d="M156.002 168.231L130.643 156.786L129.985 158.245L155.344 169.69L156.002 168.231Z" fill="#2E353A"/>
<path d="M154.557 171.433L129.198 159.988L128.54 161.446L153.899 172.891L154.557 171.433Z" fill="#2E353A"/>
<path d="M153.103 174.64L127.744 163.195L127.086 164.654L152.445 176.099L153.103 174.64Z" fill="#2E353A"/>
<path d="M96.9639 138.084L158.179 165.715" stroke="#2E353A" stroke-linecap="round" stroke-linejoin="round"/>
<path d="M150.214 181.052L90.1636 153.95L83.5866 168.523L143.637 195.625L150.214 181.052Z" fill="#2E353A" stroke="#2E353A" stroke-linecap="round" stroke-linejoin="round"/>
<path d="M180.162 94.8776L103.196 74.9587L76.517 178.046L153.482 197.965L180.162 94.8776Z" fill="white" stroke="#2E353A" stroke-linecap="round" stroke-linejoin="round"/>
<path d="M180.161 94.8823L103.195 74.9634L93.3666 112.941L170.332 132.86L180.161 94.8823Z" fill="white" stroke="#2E353A" stroke-linecap="round" stroke-linejoin="round"/>
<path d="M146.991 120.477C152.191 124.579 159.732 123.689 163.834 118.489C167.937 113.289 167.047 105.748 161.847 101.646C156.647 97.5434 149.106 98.4332 145.003 103.633C140.901 108.833 141.791 116.374 146.991 120.477Z" fill="#2E353A" stroke="#2E353A" stroke-linecap="round" stroke-linejoin="round"/>
<path d="M151.444 122.656C153.152 123.099 154.937 123.16 156.671 122.833C158.405 122.506 160.045 121.8 161.475 120.765C162.37 115.739 159.515 110.872 154.812 109.654C150.109 108.435 145.249 111.312 143.592 116.139C144.339 117.738 145.431 119.151 146.788 120.277C148.146 121.404 149.736 122.216 151.444 122.656Z" fill="#325294" stroke="#2E353A" stroke-linecap="round" stroke-linejoin="round"/>
<path d="M154.282 114.777C157.613 115.19 160.649 112.824 161.062 109.493C161.475 106.161 159.109 103.126 155.778 102.712C152.447 102.299 149.411 104.665 148.998 107.997C148.585 111.328 150.95 114.364 154.282 114.777Z" fill="white" stroke="#2E353A" stroke-linecap="round" stroke-linejoin="round"/>
<path d="M133.397 97.2023L106.462 90.2314L105.661 93.3253L132.596 100.296L133.397 97.2023Z" fill="white" stroke="#2E353A" stroke-linecap="round" stroke-linejoin="round"/>
<path d="M131.473 104.632L104.538 97.6606L103.737 100.754L130.672 107.725L131.473 104.632Z" fill="white" stroke="#2E353A" stroke-linecap="round" stroke-linejoin="round"/>
<path d="M129.101 110.962L102.235 103.881L101.827 105.426L128.693 112.507L129.101 110.962Z" fill="#2E353A"/>
<path d="M128.913 114.539L101.979 107.568L101.578 109.117L128.512 116.088L128.913 114.539Z" fill="#2E353A"/>
<path d="M124.028 133.426L97.0933 126.455L96.6923 128.005L123.627 134.975L124.028 133.426Z" fill="#2E353A"/>
<path d="M123.143 136.835L96.208 129.864L95.807 131.413L122.742 138.384L123.143 136.835Z" fill="#2E353A"/>
<path d="M122.258 140.243L95.3235 133.272L94.9225 134.822L121.857 141.793L122.258 140.243Z" fill="#2E353A"/>
<path d="M160.563 142.88L133.628 135.909L133.227 137.459L160.162 144.43L160.563 142.88Z" fill="#2E353A"/>
<path d="M159.683 146.29L132.749 139.319L132.348 140.869L159.282 147.84L159.683 146.29Z" fill="#2E353A"/>
<path d="M158.798 149.699L131.863 142.728L131.462 144.277L158.397 151.248L158.798 149.699Z" fill="#2E353A"/>
<path d="M97.2829 123.197L162.305 140.019" stroke="#2E353A" stroke-linecap="round" stroke-linejoin="round"/>
<path d="M119.457 151.079L92.5225 144.108L92.1215 145.657L119.056 152.628L119.457 151.079Z" fill="#2E353A"/>
<path d="M118.574 154.483L91.6392 147.512L91.2382 149.061L118.173 156.032L118.574 154.483Z" fill="#2E353A"/>
<path d="M117.697 157.889L90.7622 150.918L90.3612 152.467L117.296 159.438L117.697 157.889Z" fill="#2E353A"/>
<path d="M155.993 160.533L129.058 153.562L128.657 155.112L155.592 162.082L155.993 160.533Z" fill="#2E353A"/>
<path d="M155.114 163.938L128.179 156.967L127.778 158.517L154.713 165.487L155.114 163.938Z" fill="#2E353A"/>
<path d="M154.225 167.343L127.291 160.372L126.89 161.921L153.824 168.892L154.225 167.343Z" fill="#2E353A"/>
<path d="M92.7167 140.843L157.735 157.668" stroke="#2E353A" stroke-linecap="round" stroke-linejoin="round"/>
<path d="M152.47 174.16L88.6882 157.653L84.6823 173.131L148.464 189.638L152.47 174.16Z" fill="#2E353A" stroke="#2E353A" stroke-linecap="round" stroke-linejoin="round"/>
<path d="M101.787 64.2784L98.0828 19.7302L83.2017 61.8945C82.8339 62.9056 81.8122 62.0555 81.5286 60.4953C81.2385 58.9208 80.196 58.0627 79.8444 59.1061L72.594 80.5466C72.5028 80.8653 72.4763 81.199 72.516 81.5281L73.1547 88.1693C73.1978 88.5057 73.1685 88.8475 73.0687 89.1716L57.0719 133.767L62.1079 180.931L101.787 64.2784Z" fill="#325294" stroke="#2E353A" stroke-linecap="round" stroke-linejoin="round"/>
<path opacity="0.25" d="M101.787 64.2784L98.0828 19.7302L83.2017 61.8945C82.8339 62.9056 81.8122 62.0555 81.5286 60.4953C81.2385 58.9208 80.196 58.0627 79.8444 59.1061L72.594 80.5466C72.5028 80.8653 72.4763 81.199 72.516 81.5281L73.1547 88.1693C73.1978 88.5057 73.1685 88.8475 73.0687 89.1716L57.0719 133.767L62.1079 180.931L101.787 64.2784Z" fill="#2E353A" stroke="#2E353A" stroke-linecap="round" stroke-linejoin="round"/>
<path opacity="0.2" d="M152.939 116.635C152.939 116.635 149.118 118.753 151.552 124.494C153.985 130.234 168.783 139.673 168.483 144.468C168.483 144.468 153.289 134.999 149.068 140.465C149.068 140.465 160.543 151.596 161.737 159.967C162.931 168.339 166.817 172.053 175.799 176.828C184.78 181.603 204.308 206.8 204.308 206.8L201.387 164.484L172.939 132.378L158.877 124.362L152.939 116.635Z" fill="black" fill-opacity="0.7"/>
<path d="M230.124 192.083L205.08 208.532H205.039C205.016 208.531 204.993 208.523 204.975 208.51C204.956 208.496 204.941 208.477 204.932 208.456C204.821 208.161 193.756 178.591 191.089 176.284C189.588 174.927 188.493 173.179 187.93 171.235C187.93 171.235 187.93 171.209 187.93 171.194C187.833 170.869 187.787 170.656 187.777 170.6C186.304 167.604 184.044 165.065 181.239 163.254C179.364 162.118 177.384 161.165 175.326 160.409C172.177 159.134 168.935 157.818 166.644 155.385C166.252 154.969 165.893 154.522 165.573 154.049C161.93 148.715 156.307 142.827 154.432 141.618C152.558 140.409 149.108 140.572 149.078 140.572C149.05 140.575 149.021 140.567 148.999 140.55C148.976 140.533 148.961 140.508 148.956 140.48C148.895 140.015 148.937 139.543 149.079 139.096C149.221 138.649 149.46 138.239 149.779 137.895C150.257 137.335 150.852 136.886 151.521 136.579C152.19 136.272 152.919 136.114 153.655 136.117C156.55 136.117 160.538 137.641 162.55 139.556C164.562 141.471 169.215 142.878 169.748 143.041C170.505 142.594 172.288 143.549 172.944 143.96C172.166 141.192 172.481 140.125 172.603 139.856C170.937 137.697 162.26 131.306 157.653 128.1C156.383 127.211 155.428 126.576 155.011 126.328C152.862 125.063 151.084 121.105 151.43 118.342C151.447 117.967 151.546 117.6 151.722 117.268C151.898 116.936 152.145 116.647 152.446 116.422C152.878 116.15 153.384 116.02 153.894 116.051C154.1 116.056 154.306 116.082 154.508 116.127C154.529 116.136 154.548 116.148 154.564 116.162C154.605 116.218 158.918 121.334 160.411 122.137C161.143 122.528 165.034 124.494 168.732 126.322L170.399 127.145C170.388 125.535 170.473 123.925 170.653 122.325C170.795 121.695 171.801 120.801 172.944 120.293C173.477 120.049 174.468 119.698 175.194 120.084C175.473 120.242 176.134 120.648 177.048 121.217L178.572 122.162C178.896 121.663 179.294 121.216 179.751 120.836C180.132 120.613 182.24 120.221 182.992 120.486C183.647 120.724 185.75 122.06 187.975 123.473L188.935 124.077C189.052 123.859 189.327 123.401 189.586 123.3C190.684 122.894 191.879 122.831 193.015 123.117C193.767 123.391 196.347 125.296 198.847 127.14C200.218 128.156 201.534 129.127 202.403 129.711C202.432 129.718 202.457 129.736 202.474 129.762C202.723 129.929 202.931 130.061 203.088 130.153C204.927 131.204 209.448 154.918 209.494 155.157C209.789 156.747 210.866 158.387 212.004 160.125C213.291 161.934 214.345 163.898 215.138 165.972C216.586 170.204 219.883 176.396 224.714 183.965C225.151 184.643 225.601 185.339 226.065 186.053C227.371 188.029 228.763 190.092 230.124 192.083Z" fill="white"/>
<path opacity="0.4" d="M174.315 146.668C173.345 147.435 166.304 146.708 165.44 149.076C164.932 150.473 165.308 152.586 166.629 155.375C166.237 154.959 165.878 154.512 165.557 154.039C161.915 148.705 156.291 142.817 154.417 141.608C152.542 140.399 149.108 140.572 149.078 140.572C149.05 140.575 149.021 140.567 148.999 140.55C148.976 140.533 148.961 140.508 148.956 140.48C148.895 140.015 148.937 139.543 149.079 139.096C149.221 138.649 149.46 138.239 149.779 137.895C150.257 137.335 150.852 136.886 151.521 136.579C152.19 136.272 152.919 136.114 153.655 136.117C156.55 136.117 160.538 137.641 162.55 139.556C164.562 141.471 169.215 142.878 169.748 143.041C170.505 142.594 172.288 143.549 172.944 143.96C172.166 141.192 172.481 140.125 172.603 139.856C170.937 137.697 162.26 131.306 157.653 128.1C156.383 127.211 155.428 126.576 155.011 126.328C152.862 125.063 151.084 121.105 151.43 118.342C151.447 117.967 151.546 117.6 151.722 117.268C151.898 116.936 152.145 116.647 152.446 116.422C152.878 116.15 153.384 116.02 153.894 116.051C153.544 116.187 153.221 116.383 152.939 116.63C151.526 117.834 154.894 124.189 156.789 125.947C158.77 127.78 167.681 132.332 170.881 135.045C172.639 136.533 174.945 138.789 174.945 138.789C173.538 141.187 175.26 145.916 174.315 146.668Z" fill="#2A4B8E"/>
<path d="M207.031 107.821C207.031 107.775 207.031 107.765 207.031 107.786C207.034 107.791 207.036 107.797 207.036 107.803C207.036 107.81 207.034 107.816 207.031 107.821Z" fill="#2A4B8E"/>
<path opacity="0.4" d="M224.714 183.94C220.939 180.348 215.321 174.755 214.269 172.302C212.664 168.542 211.592 165.073 209.596 162.543C207.599 160.013 203.551 133.053 202.387 132.977C201.224 132.901 203.85 143.645 203.987 144.194C203.876 143.854 202.423 139.276 201.031 134.059C199.588 128.639 198.13 128.344 198.13 128.344C196.195 128.73 196.185 130.107 195.194 130.087C194.203 130.066 190.805 127.653 190.805 127.653C187.508 128.131 175.138 120.166 175.138 120.166C172.324 120.547 171.663 123.005 174.066 125.312C176.469 127.618 180.061 130.412 180.061 130.412C177.744 131.54 169.24 126.77 169.24 126.77L168.732 126.312L170.398 127.135C170.388 125.525 170.473 123.915 170.652 122.314C170.795 121.684 171.801 120.79 172.944 120.282C173.477 120.039 174.468 119.688 175.194 120.074C175.473 120.232 176.134 120.638 177.048 121.207L178.572 122.152C178.896 121.653 179.294 121.206 179.751 120.826C180.132 120.602 182.24 120.211 182.992 120.475C183.647 120.714 185.75 122.05 187.975 123.462L188.935 124.067C189.052 123.849 189.327 123.391 189.586 123.29C190.684 122.884 191.879 122.82 193.015 123.107C193.766 123.381 196.347 125.286 198.846 127.13C200.218 128.146 201.534 129.116 202.402 129.701C202.432 129.708 202.457 129.726 202.474 129.751C202.722 129.919 202.931 130.051 203.088 130.143C204.927 131.194 209.448 154.908 209.494 155.146C209.789 156.736 210.866 158.377 212.004 160.115C213.292 161.927 214.345 163.895 215.138 165.972C216.586 170.178 219.883 176.371 224.714 183.94Z" fill="#2A4B8E"/>
<path d="M205.039 208.431C205.039 208.431 193.863 178.56 191.165 176.213C189.505 174.712 188.354 172.73 187.874 170.544C186.39 167.518 184.106 164.957 181.27 163.137C176.449 159.962 169.159 159.139 165.633 153.993C162.108 148.847 156.459 142.817 154.457 141.527C152.456 140.237 149.047 140.47 149.047 140.47C148.697 138.469 150.927 136.239 153.619 136.239C156.312 136.239 160.32 137.646 162.438 139.647C164.556 141.649 169.728 143.173 169.728 143.173C170.551 142.584 173.096 144.219 173.096 144.219C172.08 140.78 172.695 139.851 172.695 139.851C170.698 137.148 157.028 127.42 155.031 126.241C153.035 125.063 151.15 121.187 151.501 118.362C151.509 118.011 151.599 117.667 151.763 117.357C151.927 117.047 152.161 116.779 152.446 116.574C152.731 116.369 153.059 116.233 153.406 116.177C153.752 116.121 154.107 116.145 154.442 116.249C154.442 116.249 158.791 121.42 160.32 122.243C161.849 123.066 173.843 129.066 175.605 129.767C176.095 129.976 176.627 130.063 177.158 130.023C177.689 129.982 178.201 129.814 178.653 129.533" stroke="#263238" stroke-linecap="round" stroke-linejoin="round"/>
<path d="M170.51 127.328C170.51 127.328 170.51 123.417 170.764 122.355C171.018 121.293 173.848 119.465 175.138 120.166C176.428 120.867 185.959 127.135 188.443 127.415" stroke="#263238" stroke-linecap="round" stroke-linejoin="round"/>
<path d="M178.607 122.284C178.945 121.768 179.352 121.302 179.816 120.897C180.167 120.689 182.255 120.303 182.961 120.557C184.373 121.065 192.694 126.805 194.101 127.161" stroke="#263238" stroke-linecap="round" stroke-linejoin="round"/>
<path d="M188.976 124.224C188.976 124.224 189.337 123.503 189.627 123.386C190.699 122.989 191.866 122.927 192.974 123.208C194.27 123.681 201.382 129.304 203.028 130.234C204.674 131.164 208.793 151.987 209.378 155.162C209.962 158.337 213.497 161.512 215.021 165.982C216.545 170.452 220.198 177.27 225.959 186.089C226.975 187.613 228.031 189.223 229.093 190.778" stroke="#263238" stroke-linecap="round" stroke-linejoin="round"/>
<path d="M177.76 135.614C177.76 135.614 178.268 133.231 179.7 132.175C181.133 131.118 183.053 132.795 184.46 132.967" stroke="#263238" stroke-linecap="round" stroke-linejoin="round"/>
<path d="M187.371 131.824C187.371 131.824 188.163 129.086 189.575 128.471C190.988 127.857 193.162 129.706 194.102 129.792" stroke="#263238" stroke-linecap="round" stroke-linejoin="round"/>
<path d="M196.632 129.35C196.632 129.35 197.688 128.334 198.13 128.334C198.572 128.334 200.421 130.27 200.823 130.402C201.224 130.534 201.701 129.807 202.387 129.797" stroke="#263238" stroke-linecap="round" stroke-linejoin="round"/>
<path d="M193.416 126.856C194.188 126.799 194.959 126.989 195.616 127.399" stroke="#263238" stroke-linecap="round" stroke-linejoin="round"/>
<path d="M172.72 139.846C172.72 139.846 172.019 138.037 172.369 137.113" stroke="#263238" stroke-linecap="round" stroke-linejoin="round"/>
<path d="M174.097 126.577C174.097 126.577 174.935 127.557 174.981 128.344C175.026 129.132 177.013 130.087 177.013 130.087" stroke="#263238" stroke-linecap="round" stroke-linejoin="round"/>
<path d="M187.543 127.176C187.543 127.176 188.697 126.765 189.311 127.176" stroke="#263238" stroke-linecap="round" stroke-linejoin="round"/>
<path d="M172.72 142.228C172.681 141.647 172.785 141.065 173.023 140.533C173.262 140.002 173.627 139.537 174.087 139.18" stroke="#263238" stroke-linecap="round" stroke-linejoin="round"/>
<path d="M173.131 144.214C173.131 144.214 171.821 145.342 171.821 146.048" stroke="#263238" stroke-linecap="round" stroke-linejoin="round"/>
<path d="M167.096 142.228C168.651 142.807 169.941 145.225 170.881 145.637" stroke="#263238" stroke-linecap="round" stroke-linejoin="round"/>
<path d="M185.928 134.527C186.868 135.878 188.976 145.703 191.1 148.812" stroke="#263238" stroke-linecap="round" stroke-linejoin="round"/>
<path d="M193.812 131.753C193.99 131.87 195.224 135.69 195.224 135.69" stroke="#263238" stroke-linecap="round" stroke-linejoin="round"/>
<path d="M209.596 155.959C209.905 157.914 210.469 159.82 211.272 161.629" stroke="#263238" stroke-linecap="round" stroke-linejoin="round"/>
<path d="M188.031 171.209C187.874 170.564 187.193 166.333 186.355 164.92" stroke="#263238" stroke-linecap="round" stroke-linejoin="round"/>
<path opacity="0.2" d="M45.6636 237.239C45.6636 237.239 62.1939 215.014 74.6602 210.945C87.1265 206.876 87.7412 201.354 87.2332 191.052C86.7252 180.75 87.1011 170.366 83.6772 169.127C80.2533 167.887 87.7819 154.435 84.1852 149.106L60.5988 186.16L45.6636 237.239Z" fill="black" fill-opacity="0.7"/>
<path d="M41.6555 243.432L41.4065 243.351L41.7621 243.549L41.6555 243.432ZM81.8383 175.253C79.8063 174.303 75.7727 169.848 75.2698 169.289C77.8098 165.012 80.3193 160.887 81.188 159.896C82.9914 157.864 85.1911 151.936 84.297 149.071C83.4791 146.439 80.8019 146.861 80.4362 146.932H80.3955C80.3818 146.934 80.3687 146.94 80.3572 146.947C80.3458 146.955 80.3363 146.966 80.3295 146.978C80.2736 147.074 74.8228 156.264 73.1311 158.464C72.3234 159.51 70.4641 161.893 68.5591 164.28L67.9953 164.194C66.8137 164.01 65.6084 164.045 64.4393 164.296L64.3224 164.336C63.7177 164.597 63.135 164.906 62.58 165.261L62.1787 165.093C61.376 164.758 59.7149 164.113 58.9275 164.077C57.9673 164.026 54.5841 165.601 52.5622 166.871C51.1684 166.448 49.7157 166.251 48.2595 166.287C46.7101 166.353 43.5503 167.638 41.0103 168.67C39.8825 169.127 38.9072 169.523 38.3382 169.686L37.8302 169.838C36.3062 170.29 35.4833 170.544 34.4266 172.657C33.3293 174.852 32.1457 183.036 31.5767 186.968L31.5005 187.501C31.2821 189.025 31.3177 191.697 31.3532 194.547C31.4091 198.509 31.465 202.604 30.8757 204.199C30.0797 206.209 29.0279 208.107 27.7464 209.848C27.5788 210.087 27.4264 210.31 27.2841 210.524C26.491 211.761 25.8578 213.094 25.3995 214.491C24.9727 215.619 24.4393 216.858 23.9212 217.991C22.9661 220.089 22.0771 221.822 22.0771 221.822C22.0771 221.822 40.0857 241.689 41.6555 243.432C41.74 243.464 41.8266 243.492 41.9145 243.513C41.9755 243.412 45.2978 237.732 48.8183 232.129C51.8663 227.293 55.0311 222.512 56.3875 221.415C58.2474 219.819 59.6 217.715 60.2787 215.36C61.0103 213.008 65.6788 210.107 70.1949 207.303C75.1885 204.204 80.3549 200.999 80.5276 198.347C80.6241 196.975 80.9391 194.705 81.3049 192.068C82.2955 184.926 83.5248 176.03 81.8383 175.253ZM73.2835 186.673L71.0636 188.832C70.7486 187.054 68.5896 184.692 68.2493 184.331C68.4199 183.476 68.5303 182.611 68.5795 181.74C68.6607 180.75 68.7471 179.708 68.9909 179.541C69.2348 179.373 70.3575 177.509 72.1863 174.461C72.3387 176.61 74.2183 178.977 74.4723 179.317L73.2835 186.673Z" fill="white"/>
<path opacity="0.4" d="M46.9236 180.074C46.2682 185.926 40.5329 200.445 40.5329 200.445L39.5169 185.82C39.5169 185.82 35.0516 205.667 33.8273 206.383C32.603 207.1 30.4542 210.894 29.2553 213.907C28.4476 215.939 25.6993 217.321 23.967 218.017C24.475 216.884 25.0186 215.644 25.4453 214.517C25.9036 213.12 26.5369 211.787 27.33 210.549C27.4722 210.336 27.6246 210.112 27.7923 209.873C29.0738 208.133 30.1255 206.234 30.9216 204.224C31.5108 202.619 31.4296 198.525 31.3991 194.572C31.3635 191.723 31.328 189.03 31.5464 187.526L31.6226 186.993C32.1916 183.061 33.3752 174.877 34.4725 172.683C35.5291 170.569 36.3622 170.315 37.8761 169.863L38.3841 169.711C38.953 169.533 39.9081 169.137 41.0562 168.695C43.5962 167.679 46.7559 166.378 48.3053 166.312C49.7536 166.282 51.1975 166.483 52.5827 166.907C54.6147 165.632 57.9878 164.062 58.9479 164.113C59.7353 164.148 61.3965 164.793 62.1991 165.129C58.826 166.866 53.1516 171.052 53.1516 171.052C46.7356 172.444 46.9236 180.074 46.9236 180.074Z" fill="#2A4B8E"/>
<path opacity="0.4" d="M58.2922 172.302C59.953 171.152 61.6742 170.092 63.4484 169.127C65.0944 168.355 65.6227 165.276 64.4644 164.407C64.4211 164.375 64.3705 164.354 64.3171 164.346L64.434 164.306C65.6031 164.055 66.8084 164.02 67.99 164.204C65.8614 167.4 64.1952 169.848 63.7532 170.376C62.2902 172.154 58.2922 172.302 58.2922 172.302Z" fill="#2A4B8E"/>
<path opacity="0.4" d="M66.6895 192.353L67.4667 192.688C66.9943 194.573 66.6895 192.353 66.6895 192.353Z" fill="#2A4B8E"/>
<path opacity="0.4" d="M81.8384 175.253C79.8064 174.303 75.7728 169.848 75.2699 169.289C77.8099 165.012 80.3195 160.887 81.1881 159.896C82.9915 157.864 85.1912 151.936 84.2971 149.071C83.4792 146.439 80.802 146.861 80.4363 146.932V147.044C80.4363 147.044 83.3319 147.405 83.3268 151.591C83.3217 155.776 75.8033 164.072 75.8033 164.072C75.8033 164.072 68.0716 178.576 67.5636 178.357C67.0556 178.139 65.9227 188.05 65.9227 188.05C65.9227 188.05 68.0766 189.884 67.5636 192.352C67.5365 192.474 67.5111 192.586 67.4874 192.688L70.7995 194.115C70.7995 194.115 74.1218 191.784 75.8084 195.213C77.495 198.642 59.593 210.894 58.1859 212.708C58.1859 212.708 57.9878 219.541 55.3766 220.546C53.685 221.197 50.703 227.658 48.8184 232.134C51.8664 227.298 55.0312 222.518 56.3876 221.42C58.2475 219.825 59.6001 217.72 60.2788 215.365C61.0104 213.013 65.6789 210.112 70.195 207.308C75.1886 204.209 80.355 201.004 80.5277 198.352C80.6243 196.98 80.9392 194.71 81.305 192.073C82.2956 184.926 83.5249 176.03 81.8384 175.253ZM73.2836 186.673L71.0637 188.832C70.7487 187.054 68.5897 184.692 68.2494 184.331C68.42 183.476 68.5304 182.611 68.5796 181.74C68.6608 180.75 68.7472 179.708 68.991 179.541C69.2349 179.373 70.3576 177.509 72.1864 174.461C72.3388 176.61 74.2184 178.977 74.4724 179.317L73.2836 186.673Z" fill="#2A4B8E"/>
<path d="M60.1772 172.434C61.5615 172.137 62.8198 171.418 63.779 170.376C65.303 168.665 71.5006 160.77 73.2176 158.54C74.9347 156.31 80.421 147.044 80.421 147.044C80.421 147.044 83.337 146.358 84.1955 149.107C85.054 151.855 82.9966 157.682 81.1069 159.825C79.2171 161.969 69.6108 178.957 68.9148 179.47C68.2189 179.983 68.7472 184.794 67.3908 185.82" stroke="#263238" stroke-linecap="round" stroke-linejoin="round"/>
<path d="M68.1272 184.377C68.1272 184.377 70.8145 187.191 70.9872 189.076L73.385 186.729L74.589 179.297C74.589 179.297 72.2166 176.442 72.2877 174.095" stroke="#263238" stroke-linecap="round" stroke-linejoin="round"/>
<path d="M75.1376 169.304C75.1376 169.304 79.5623 174.323 81.7924 175.355C84.0225 176.386 80.7764 193.368 80.4208 198.342C80.0652 203.315 61.7213 210.341 60.177 215.324C59.5081 217.662 58.1653 219.75 56.3162 221.329C53.3393 223.742 41.8179 243.462 41.8179 243.462" stroke="#263238" stroke-linecap="round" stroke-linejoin="round"/>
<path d="M68.6254 164.407C68.6254 164.407 66.0092 163.925 64.4649 164.407C62.9206 164.89 56.3877 169.528 54.8637 170.376C53.3397 171.225 51.0893 171.392 50.5762 172.434" stroke="#263238" stroke-linecap="round" stroke-linejoin="round"/>
<path d="M62.5848 165.393C62.5848 165.393 59.9432 164.245 58.9272 164.194C57.9112 164.143 53.7812 166.089 51.8965 167.461C50.4474 168.523 48.8199 169.318 47.0908 169.807" stroke="#263238" stroke-linecap="round" stroke-linejoin="round"/>
<path d="M52.5671 166.988C51.1819 166.555 49.7355 166.351 48.2847 166.383C46.0495 166.48 40.2176 169.223 38.3888 169.797C36.56 170.371 35.7015 170.422 34.5585 172.713C33.4155 175.004 32.1557 183.976 31.6426 187.521C31.1295 191.067 32.0439 201.446 31.0127 204.25C29.9814 207.054 28.3914 209.152 27.4313 210.61C25.4755 213.516 25.6939 215.69 22.1328 221.847" stroke="#263238" stroke-linecap="round" stroke-linejoin="round"/>
<path d="M48.4272 173.206C46.197 175.182 46.6085 178.957 46.9032 180.074C47.1978 181.192 45.8313 185.662 45.3792 188.05" stroke="#263238" stroke-linecap="round" stroke-linejoin="round"/>
<path d="M62.5851 175.116C58.5211 175.202 57.2612 177.946 56.9971 179.749" stroke="#263238" stroke-linecap="round" stroke-linejoin="round"/>
<path d="M45.4247 171.052C44.2208 170.966 41.1322 172.856 40.5327 175.944" stroke="#263238" stroke-linecap="round" stroke-linejoin="round"/>
<path d="M74.5891 179.297C74.5891 179.297 75.1885 177.585 75.788 177.412" stroke="#263238" stroke-linecap="round" stroke-linejoin="round"/>
<path d="M73.3851 186.729C73.0891 187.736 72.7225 188.72 72.2878 189.675C71.7798 190.691 72.2878 192.312 72.2878 192.312" stroke="#263238" stroke-linecap="round" stroke-linejoin="round"/>
<path d="M70.9874 189.076C70.9011 190.793 69.0113 192.632 68.6252 192.312" stroke="#263238" stroke-linecap="round" stroke-linejoin="round"/>
<path d="M54.8327 186.16C54.7718 188.05 51.3428 201.857 51.3428 201.857" stroke="#263238" stroke-linecap="round" stroke-linejoin="round"/>
</g>
<defs>
<clipPath id="clip0">
<rect width="254" height="254" fill="white"/>
</clipPath>
</defs>
</svg>
