<svg width="250" height="250" viewBox="0 0 250 250" fill="none" xmlns="http://www.w3.org/2000/svg">
<path d="M97.7154 41.57L98.1954 40.855L95.7704 39.21L95.2904 39.925L96.1104 40.48L93.2104 44.76L93.9955 45.29L96.8954 41.015L97.7154 41.57Z" fill="#263238"/>
<path d="M100.735 42.5751L97.8051 45.7601L97.7901 45.7501L99.6202 41.8201L98.5301 41.0801L95.1501 46.0751L95.8301 46.5351L98.2251 43.0101L98.2401 43.0151L96.4151 46.9351L97.1602 47.4351L100.115 44.2151L100.125 44.2251L97.7001 47.8051L98.4402 48.3051L101.825 43.3151L100.735 42.5751Z" fill="#263238"/>
<path d="M102.395 43.7002L99.0105 48.6902L101.085 50.1002L101.57 49.3852L100.28 48.5102L103.18 44.2352L102.395 43.7002Z" fill="#263238"/>
<path d="M193.446 60.9498C193.031 60.0798 192.336 59.7998 191.496 60.1998C190.656 60.5998 190.436 61.3198 190.851 62.1998L192.201 65.0298C192.616 65.8998 193.311 66.1798 194.151 65.7798C194.991 65.3798 195.211 64.6598 194.796 63.7798L193.446 60.9498ZM193.781 64.9898C193.511 65.1198 193.281 65.0548 193.081 64.6648L191.681 61.7298C191.496 61.3398 191.596 61.1098 191.866 60.9798C192.136 60.8498 192.366 60.9148 192.566 61.3048L193.966 64.2448C194.151 64.6298 194.051 64.8598 193.781 64.9998V64.9898Z" fill="#263238"/>
<path d="M196.141 59.0147L195.771 58.2397L193.126 59.4997L193.496 60.2797L194.391 59.8497L196.616 64.5147L197.471 64.1097L195.246 59.4447L196.141 59.0147Z" fill="#263238"/>
<path d="M199.255 59.5449L198.15 60.0699L197.365 58.4299L198.775 57.7599L198.405 56.9849L196.14 58.0649L198.735 63.5049L199.595 63.0949L198.52 60.8499L199.625 60.3249L199.255 59.5449Z" fill="#263238"/>
<path d="M202.102 53.3573C199.322 50.9294 197.637 51.8577 197.237 51.9988C197.191 52.0157 197.145 52.0325 197.097 52.0506C195.423 51.7569 193.57 47.2544 193.57 47.2544C189.644 41.0931 185.824 44.3785 185.824 44.3785C185.77 44.4085 185.718 44.439 185.667 44.4693C185.618 44.5031 185.568 44.5372 185.519 44.5728C185.519 44.5728 180.926 46.647 184.851 52.8087C184.851 52.8087 188.148 56.3912 187.707 58.0329C187.671 58.0677 187.635 58.102 187.601 58.1371C187.304 58.4404 185.75 59.5756 186.776 63.1206C186.917 63.6023 187.239 64.0161 187.662 64.2537C189.237 65.1425 193.278 63.1506 196.33 61.2047C199.382 59.2616 202.896 56.4407 202.757 54.6383C202.718 54.1549 202.479 53.6881 202.102 53.3573ZM195.13 53.0178C195.189 53.1405 195.207 53.2818 195.192 53.4365C195.119 54.1624 194.491 55.5393 193.23 56.3427C191.969 57.1464 190.455 57.132 189.767 56.8922C189.621 56.841 189.5 56.7644 189.415 56.6588C189.43 56.6404 189.464 56.5973 189.506 56.5357C189.523 56.5101 189.539 56.4796 189.558 56.4497C189.713 56.1831 189.892 55.7163 189.612 55.2766C190.204 55.4023 190.789 55.4276 191.329 55.3215C191.693 55.2509 192.037 55.1206 192.348 54.9222C192.66 54.7237 192.923 54.4674 193.14 54.1678C193.461 53.7262 193.685 53.1906 193.821 52.6093C193.824 52.6087 193.827 52.6075 193.831 52.6066C194.201 53.1685 194.932 53.0517 195.125 53.0084C195.128 53.0122 195.13 53.0158 195.13 53.0178ZM193.119 48.3943C193.265 48.7504 193.306 49.0944 193.246 49.2921C193.221 49.3706 193.18 49.4257 193.122 49.4505C193.09 49.464 193.053 49.4678 193.015 49.4606C193.299 50.5583 193.311 51.8247 192.946 52.8234C192.732 53.407 192.391 53.899 191.899 54.2126C191.403 54.5286 190.808 54.6299 190.185 54.5735C189.129 54.4807 187.991 53.9343 187.12 53.2146C187.11 53.2528 187.093 53.2839 187.065 53.308C187.012 53.3569 186.928 53.3688 186.828 53.3463C186.625 53.3023 186.352 53.1253 186.108 52.8605C185.786 52.5128 185.621 52.1296 185.698 51.9411C185.708 51.9145 185.723 51.8927 185.743 51.8743C185.788 51.8336 185.852 51.8194 185.93 51.8282C185.93 51.8282 185.928 51.8235 185.923 51.8157C185.832 51.6333 184.841 49.5704 186.374 48.7805L192.241 48.2179L192.38 47.6483C192.394 47.6428 192.41 47.638 192.424 47.6359C192.628 47.6081 192.928 47.9305 193.119 48.3943Z" fill="white" stroke="#263238"/>
<path d="M197.519 37.4759L211.097 58.7896L187.904 73.5653L170.511 46.2632L187.72 35.2997L194.31 36.7608L197.519 37.4759Z" stroke="#263238" stroke-linecap="round" stroke-linejoin="round"/>
<path d="M197.52 37.476L191.536 41.2883L187.72 35.2998L194.311 36.7609L197.52 37.476Z" stroke="#263238" stroke-linecap="round" stroke-linejoin="round"/>
<path d="M227.125 61.9998L213 182.255C212.96 182.598 212.852 182.93 212.684 183.231C212.515 183.533 212.289 183.798 212.018 184.012C211.747 184.226 211.436 184.385 211.103 184.479C210.771 184.573 210.423 184.6 210.08 184.56L118.23 173.78L132.965 48.2798L224.815 59.0648C225.16 59.1044 225.494 59.212 225.797 59.3812C226.1 59.5505 226.367 59.7782 226.582 60.051C226.796 60.3239 226.955 60.6366 227.048 60.971C227.142 61.3055 227.168 61.6552 227.125 61.9998Z" fill="#325294"/>
<path d="M227.125 61.9998L213 182.255C212.96 182.598 212.852 182.93 212.684 183.231C212.515 183.533 212.289 183.798 212.018 184.012C211.747 184.226 211.436 184.385 211.103 184.479C210.771 184.573 210.423 184.6 210.08 184.56L118.23 173.78L132.965 48.2798L224.815 59.0648C225.16 59.1044 225.494 59.212 225.797 59.3812C226.1 59.5505 226.367 59.7782 226.582 60.051C226.796 60.3239 226.955 60.6366 227.048 60.971C227.142 61.3055 227.168 61.6552 227.125 61.9998V61.9998Z" stroke="#263238" stroke-miterlimit="10"/>
<path opacity="0.1" d="M175.265 162C175.288 163.135 174.862 164.233 174.079 165.055C173.296 165.878 172.22 166.357 171.085 166.39L118.925 167.89L132.97 48.27L173.07 52.98L175.265 162Z" fill="black" fill-opacity="0.7"/>
<path opacity="0.2" d="M57.5702 143.455C57.5702 143.455 60.6202 138.635 64.7352 136.415C64.7352 136.415 76.4552 145.055 80.6402 163.415C80.6402 163.415 84.0602 171.755 84.4452 177.915C84.8302 184.075 77.2402 197.23 75.1352 202.625C73.0302 208.02 65.9652 203.835 54.8552 221.71L63.2252 192.42L58.6852 166.225L57.5702 143.455Z" fill="#2A4B8E" fill-opacity="0.49"/>
<path opacity="0.4" d="M68.5007 199.275C67.4343 200.032 66.5622 201.031 65.9557 202.19C64.9557 203.91 62.2857 211.985 59.7357 220.09C58.9977 216.858 59.0405 213.497 59.8607 210.285C61.8157 202.285 65.0007 201.12 68.5007 199.275Z" fill="#2A4B8E"/>
<path opacity="0.4" d="M57.875 181.405C57.875 181.405 57.915 181.24 57.98 180.935C59.97 184.205 57.875 181.405 57.875 181.405Z" fill="#2A4B8E"/>
<path d="M58.2207 224.885C61.1307 215.465 64.7207 204.25 65.9257 202.19C68.0807 198.53 69.5107 199.22 72.0557 196.89C74.6007 194.56 77.0557 182.01 75.4407 176.81C73.8257 171.61 72.0207 169.105 71.1257 167.175C70.2307 165.245 70.4107 159.785 67.8807 152.105C65.3507 144.425 63.9857 137.64 58.4807 139.605C56.2307 140.415 55.1707 141.735 54.9807 147.425C54.7907 153.115 54.6257 159.055 55.7007 160.85C56.7757 162.645 57.6707 164.255 57.6707 164.255C57.6707 164.255 46.3807 157.87 43.1357 137.5C43.1357 137.5 38.5007 142.185 38.5007 148.15C38.5007 157.715 37.3057 168.715 37.4257 175.58C37.5007 179.3 38.5007 189.9 38.5007 190.5C38.5007 190.675 35.4307 195.54 35.0707 200.31C34.9257 202.245 31.2357 209.625 27.2107 217.175" stroke="#263238" stroke-linecap="round" stroke-linejoin="round"/>
<path d="M57.6807 164.265C58.4007 166.055 58.1807 169.08 58.4807 173.665C58.7807 178.25 59.8307 179.885 59.8307 179.885" stroke="#263238" stroke-linecap="round" stroke-linejoin="round"/>
<path d="M58.7557 176.265C58.2737 178.578 57.9149 180.914 57.6807 183.265" stroke="#263238" stroke-linecap="round" stroke-linejoin="round"/>
<path d="M44.9553 169.375C44.9553 169.375 46.3753 180.935 46.3803 184.875" stroke="#263238" stroke-linecap="round" stroke-linejoin="round"/>
<path d="M67.2951 200.295C63.2401 202.795 61.0851 203.7 59.8301 208.54" stroke="#263238" stroke-linecap="round" stroke-linejoin="round"/>
<path d="M38.501 190.5C39.936 187.225 40.561 179.9 40.561 179.9" stroke="#263238" stroke-linecap="round" stroke-linejoin="round"/>
<path d="M43.3217 106.702C43.2533 103.541 41.7051 103.016 41.3876 102.847C40.7621 102.512 39.9357 102.362 39.5416 102.112C39.3785 102.522 37.7756 103.584 36.7326 104.24L36.7442 102.799C37.0486 102.716 37.1986 102.39 37.2752 102.104L35.9501 101.749C35.8743 102.032 35.8409 102.384 36.0559 102.609L35.3501 103.869C34.7773 102.781 33.9202 101.059 33.9826 100.623C33.5155 100.64 32.7245 100.357 32.0157 100.334C31.6551 100.322 30.0516 100.003 28.4136 102.707C28.1916 103.074 28.1158 103.518 28.209 103.924C28.553 105.431 32.1187 106.823 35.0878 107.618C38.0547 108.415 41.8378 108.991 42.8908 107.858C43.1721 107.554 43.3304 107.132 43.3217 106.702Z" fill="#ECEFF5" stroke="#263238"/>
<path d="M34.9863 94.6028C35.0351 94.5484 35.0878 94.4944 35.1444 94.4422C35.357 94.246 35.637 94.0626 35.9891 93.975C36.3462 93.8861 36.7449 93.9041 37.1748 94.0631L37.2362 94.0858L37.2885 94.1227L37.2886 94.1227L37.2889 94.123L37.289 94.1231L37.2946 94.1269C37.3004 94.1308 37.3101 94.1373 37.3235 94.1459C37.3503 94.1634 37.3919 94.1895 37.4464 94.2212C37.5556 94.2849 37.7144 94.3699 37.9075 94.452C38.3007 94.6192 38.8014 94.7596 39.3049 94.7185L39.3865 94.7118L39.4659 94.7315C39.5894 94.7622 39.718 94.7953 39.8393 94.8323L39.8403 94.8326C40.0291 94.8907 40.1899 94.9713 40.3291 95.0603L40.4051 94.8272L40.9425 95.1471C41.0365 95.2031 41.1091 95.2656 41.1653 95.3199L41.2215 95.3742L41.2584 95.443C41.4119 95.7288 41.5192 96.0908 41.5703 96.5445C41.5913 96.4759 41.6111 96.4076 41.6295 96.3389C41.8993 95.319 41.803 94.4853 41.4566 93.8431C41.1097 93.1999 40.478 92.6864 39.5585 92.3725L34.9863 94.6028ZM34.9863 94.6028C35.0358 94.4831 35.0923 94.3664 35.1547 94.2527L35.1736 94.2183L35.1869 94.1814C35.3641 93.6895 35.5875 93.2865 35.8428 93.0077L34.9863 94.6028ZM41.1781 95.639C41.1779 95.6353 41.1782 95.636 41.1782 95.6404L41.1781 95.639ZM41.1036 97.2487C41.1035 97.2494 41.1034 97.2502 41.1033 97.2509L41.1034 97.2509L41.1038 97.2491L41.1036 97.2487ZM35.8429 93.0077C36.6146 92.1656 37.9358 91.8195 39.5583 92.3725L35.8429 93.0077Z" fill="#ECEFF5" stroke="#263238"/>
<path d="M50.9929 94.8814L45.1987 116.506L21.6674 110.201L29.0896 82.5005L46.5496 87.1789L49.5396 92.3578L50.9929 94.8814Z" stroke="#263238" stroke-linecap="round" stroke-linejoin="round"/>
<path d="M50.9926 94.881L44.9213 93.2542L46.5493 87.1785L49.5394 92.3574L50.9926 94.881Z" stroke="#263238" stroke-linecap="round" stroke-linejoin="round"/>
<path d="M42.0251 171.675L65.3951 164.385V37.8201L42.0251 30.5301C40.6301 30.0951 39.4851 30.8901 39.4851 32.3051V169.9C39.5001 171.315 40.6301 172.11 42.0251 171.675Z" fill="#2A4B8E" stroke="#263238" stroke-miterlimit="10"/>
<path opacity="0.3" d="M65.4005 37.825V164.385L44.8505 170.79C44.523 170.896 44.1751 170.922 43.8353 170.868C43.4954 170.813 43.1733 170.679 42.8953 170.476C42.6173 170.273 42.3913 170.008 42.2358 169.701C42.0803 169.394 41.9996 169.054 42.0005 168.71V33.5C42.0006 33.1581 42.0812 32.8211 42.2356 32.5161C42.39 32.2111 42.614 31.9467 42.8894 31.7442C43.1649 31.5418 43.4841 31.4069 43.8213 31.3506C44.1585 31.2943 44.5042 31.318 44.8305 31.42L65.4005 37.825Z" fill="black" fill-opacity="0.7"/>
<path d="M98.7906 40.2769C99.9908 37.6138 98.9084 36.5607 98.711 36.2932C98.3229 35.7647 97.6934 35.3111 97.464 34.9463C97.1651 35.2228 95.4062 35.4707 94.2753 35.6034L94.858 34.4067C95.1451 34.4581 95.3999 34.2457 95.5774 34.0379L94.6137 33.2149C94.438 33.4207 94.27 33.7012 94.3597 33.9745L93.2702 34.744C93.2254 33.6088 93.1953 31.8326 93.4209 31.4935C93.0247 31.3218 92.4776 30.7713 91.8956 30.4706C91.5997 30.3169 90.3896 29.413 87.9485 31.0159C87.6173 31.2339 87.3773 31.5743 87.2936 31.9499C86.981 33.3435 89.4006 35.9223 91.5605 37.7657C93.7175 39.6102 96.6428 41.5955 97.9714 41.0696C98.327 40.9279 98.627 40.6387 98.7906 40.2769Z" fill="#ECEFF5" stroke="#263238"/>
<path d="M96.8402 26.7641C97.0993 26.6844 97.411 26.6425 97.7456 26.7107C98.0868 26.7803 98.4188 26.9579 98.7189 27.2665L98.7645 27.3134L98.7959 27.3692C98.7958 27.3691 98.7959 27.3692 98.7961 27.3696L98.7961 27.3696L98.799 27.3746C98.8021 27.3799 98.8075 27.389 98.8151 27.4013C98.8303 27.4261 98.8543 27.4639 98.8867 27.5115C98.9517 27.607 99.0493 27.7397 99.1765 27.8836C99.4357 28.1769 99.7925 28.4882 100.221 28.6512L100.297 28.6803L100.36 28.7323C100.451 28.807 100.546 28.8863 100.633 28.9661L100.634 28.9669C100.757 29.0799 100.853 29.1992 100.931 29.3177L101.087 29.1542L101.434 29.6744C101.492 29.7616 101.529 29.8456 101.555 29.9149L101.582 29.988L101.586 30.0661C101.598 30.3267 101.56 30.6196 101.462 30.9501C101.465 30.946 101.469 30.9419 101.472 30.9378C102.098 30.2004 102.344 29.4761 102.312 28.8145C102.279 28.1517 101.962 27.4809 101.325 26.8587L96.8402 26.7641ZM96.8402 26.7641C96.8775 26.7348 96.9154 26.7064 96.954 26.6786L96.9859 26.6557L97.0138 26.6281C97.3549 26.2906 97.6974 26.0469 98.015 25.9186L96.8402 26.7641ZM101.438 30.2137C101.439 30.2113 101.439 30.2122 101.438 30.2155C101.438 30.2149 101.438 30.2143 101.438 30.2137ZM100.7 31.5137L100.7 31.5137C100.7 31.5131 100.7 31.5126 100.701 31.5119L100.701 31.5124L100.7 31.5137ZM98.0151 25.9185C98.9763 25.5302 100.2 25.76 101.325 26.8585L98.0151 25.9185Z" fill="#ECEFF5" stroke="#263238"/>
<path d="M109.888 33.471L96.4564 49.198L79.3425 34.5813L96.5486 14.4355L109.247 25.281L109.68 30.7887L109.888 33.471Z" stroke="#263238" stroke-linecap="round" stroke-linejoin="round"/>
<path d="M109.889 33.4708L105.474 29.6995L109.248 25.2808L109.681 30.7884L109.889 33.4708Z" stroke="#263238" stroke-linecap="round" stroke-linejoin="round"/>
<path d="M160.245 40.4552V161.56C160.244 162.259 159.966 162.928 159.472 163.422C158.978 163.916 158.309 164.194 157.61 164.195H65.1104V37.8252H157.61C157.956 37.8245 158.299 37.8921 158.618 38.024C158.938 38.1558 159.229 38.3495 159.473 38.5937C159.718 38.838 159.912 39.1282 160.045 39.4476C160.177 39.767 160.245 40.1094 160.245 40.4552Z" fill="#2A4B8E"/>
<path opacity="0.3" d="M159.34 88.0502V163.55C158.862 163.97 158.247 164.201 157.61 164.2H65.1104V38.7002H154.045C154.335 38.6995 154.621 38.756 154.889 38.8662C155.156 38.9765 155.399 39.1384 155.604 39.3428C155.809 39.5471 155.972 39.7899 156.082 40.0571C156.193 40.3244 156.25 40.6109 156.25 40.9002V85.7352L157.135 85.7752C157.726 85.7959 158.285 86.0443 158.696 86.4685C159.107 86.8926 159.338 87.4595 159.34 88.0502Z" fill="black" fill-opacity="0.7"/>
<path d="M160.245 40.4552V161.56C160.244 162.259 159.966 162.928 159.472 163.422C158.978 163.916 158.309 164.194 157.61 164.195H65.1104V37.8252H157.61C157.956 37.8245 158.299 37.8921 158.618 38.024C158.938 38.1558 159.229 38.3495 159.473 38.5937C159.718 38.838 159.912 39.1282 160.045 39.4476C160.177 39.767 160.245 40.1094 160.245 40.4552Z" stroke="#263238" stroke-miterlimit="10"/>
<path d="M158.001 121.405V153.56C158.001 154.114 157.797 154.649 157.428 155.063C157.06 155.477 156.552 155.741 156.001 155.805L154.931 155.925L145.591 156.925V118L156.001 119.155C156.552 119.22 157.06 119.485 157.429 119.9C157.797 120.314 158.001 120.85 158.001 121.405Z" fill="#999999"/>
<path opacity="0.2" d="M158.001 121.405V122.94L154.931 123.5V155.91L145.591 156.91V118L156.001 119.155C156.552 119.22 157.06 119.485 157.429 119.9C157.797 120.314 158.001 120.85 158.001 121.405Z" fill="black" fill-opacity="0.7"/>
<path d="M158.001 121.405V153.56C158.001 154.114 157.797 154.649 157.428 155.063C157.06 155.477 156.552 155.741 156.001 155.805L154.931 155.925L145.591 156.925V118L156.001 119.155C156.552 119.22 157.06 119.485 157.429 119.9C157.797 120.314 158.001 120.85 158.001 121.405V121.405Z" stroke="#263238" stroke-linecap="round" stroke-linejoin="round"/>
<path d="M158 85.155V117.31C158 117.864 157.796 118.399 157.428 118.813C157.059 119.227 156.551 119.491 156 119.555L153.885 119.785V159.895C153.886 160.486 153.678 161.059 153.297 161.511C152.917 161.963 152.388 162.266 151.805 162.365C151.662 162.393 151.516 162.407 151.37 162.405L65.1602 162.335V40L151.37 40.07C151.516 40.0701 151.662 40.0852 151.805 40.115C152.387 40.2142 152.915 40.5161 153.296 40.9672C153.677 41.4184 153.885 41.9897 153.885 42.58V82.69L156 82.925C156.549 82.9874 157.055 83.2489 157.424 83.6599C157.793 84.0709 157.998 84.6029 158 85.155Z" fill="white"/>
<path d="M158 85.1551V117.31C158 117.864 157.796 118.4 157.427 118.813C157.058 119.227 156.55 119.491 156 119.555L153.885 119.785V159.895C153.886 160.486 153.678 161.059 153.297 161.511C152.916 161.963 152.387 162.266 151.805 162.365V40.1001C152.387 40.1993 152.915 40.5012 153.295 40.9523C153.676 41.4035 153.885 41.9748 153.885 42.5651V82.6751L156 82.9101C156.551 82.9728 157.059 83.2365 157.428 83.6506C157.797 84.0648 158.001 84.6004 158 85.1551Z" fill="#BFBFBF"/>
<path d="M103.225 56.76V81.14H76.6951V49.915H96.3751L100.98 54.515L103.225 56.76Z" fill="#2A4B8E" stroke="#263238" stroke-linecap="round" stroke-linejoin="round"/>
<path opacity="0.5" d="M100.98 54.5149V67.9599H78.9348V52.0049H98.4698L100.98 54.5149Z" fill="white"/>
<path d="M100.98 54.5149V67.9599H78.9348V52.0049H98.4698L100.98 54.5149Z" stroke="#263238" stroke-linecap="round" stroke-linejoin="round"/>
<path d="M85.6396 76.0402C85.7396 76.0402 85.8646 76.0402 85.9646 76.0402C86.2696 76.0402 86.5097 75.9302 86.5097 75.4602V70.8652H87.4547V75.3952C87.4547 76.6002 86.8097 76.8952 86.0947 76.8952C85.9432 76.9055 85.7911 76.9055 85.6396 76.8952V76.0402Z" fill="#263238"/>
<path d="M90.9099 72.365V73.145C90.9099 74.11 90.4449 74.645 89.4949 74.645H89.0499V76.91H88.0999V70.875H89.4999C90.4449 70.875 90.9099 71.4 90.9099 72.365ZM89.0499 71.735V73.775H89.4999C89.8049 73.775 89.9649 73.64 89.9649 73.205V72.305C89.9649 71.87 89.8049 71.735 89.4999 71.735H89.0499Z" fill="#263238"/>
<path d="M92.7698 73.5453H94.0948V75.4553C94.0948 76.4203 93.5948 76.9553 92.6848 76.9553C91.7748 76.9553 91.2698 76.4053 91.2698 75.4553V72.3203C91.2698 71.3553 91.7698 70.8203 92.6848 70.8203C93.5998 70.8203 94.0948 71.3703 94.0948 72.3203V72.9053H93.1998V72.2603C93.1998 71.8303 93.0098 71.6653 92.6998 71.6653C92.3898 71.6653 92.1998 71.8303 92.1998 72.2603V75.5003C92.1998 75.9303 92.3898 76.0853 92.6998 76.0853C93.0098 76.0853 93.1998 75.9303 93.1998 75.5003V74.3903H92.7698V73.5453Z" fill="#263238"/>
<path d="M103.225 56.76H96.3748V49.915L100.98 54.515L103.225 56.76Z" fill="#2A4B8E" stroke="#263238" stroke-linecap="round" stroke-linejoin="round"/>
<path d="M100.98 61.2104V67.9604H78.9348V64.6504L84.9698 59.9854L90.5848 64.7204L97.8748 58.5054L100.98 61.2104Z" fill="#2A4B8E" stroke="#263238" stroke-linecap="round" stroke-linejoin="round"/>
<path d="M86.6452 58.5049C87.8989 58.5049 88.9152 57.4885 88.9152 56.2348C88.9152 54.9812 87.8989 53.9648 86.6452 53.9648C85.3916 53.9648 84.3752 54.9812 84.3752 56.2348C84.3752 57.4885 85.3916 58.5049 86.6452 58.5049Z" fill="#2A4B8E" stroke="#263238" stroke-linecap="round" stroke-linejoin="round"/>
<path d="M140.08 56.76V81.14H113.55V49.915H133.235L137.84 54.515L140.08 56.76Z" fill="#2A4B8E" stroke="#263238" stroke-linecap="round" stroke-linejoin="round"/>
<path opacity="0.5" d="M137.84 54.5149V67.9599H115.79V52.0049H135.325L137.84 54.5149Z" fill="white"/>
<path d="M137.84 54.5149V67.9599H115.79V52.0049H135.325L137.84 54.5149Z" stroke="#263238" stroke-linecap="round" stroke-linejoin="round"/>
<path d="M119.24 63.7651H134.385" stroke="#263238" stroke-linecap="round" stroke-linejoin="round"/>
<path d="M118.95 56.7603C118.95 56.7603 118.95 63.7952 126.815 63.7952C134.68 63.7952 134.68 56.7603 134.68 56.7603" stroke="#263238" stroke-linecap="round" stroke-linejoin="round"/>
<path d="M119.61 56.7602C119.596 56.926 119.52 57.0803 119.397 57.1928C119.275 57.3052 119.114 57.3676 118.948 57.3676C118.782 57.3676 118.621 57.3052 118.499 57.1928C118.376 57.0803 118.3 56.926 118.285 56.7602C118.277 56.6684 118.289 56.5759 118.318 56.4886C118.348 56.4013 118.395 56.3211 118.458 56.2532C118.52 56.1853 118.596 56.131 118.68 56.0939C118.765 56.0568 118.856 56.0376 118.948 56.0376C119.04 56.0376 119.131 56.0568 119.216 56.0939C119.3 56.131 119.376 56.1853 119.438 56.2532C119.5 56.3211 119.548 56.4013 119.578 56.4886C119.607 56.5759 119.618 56.6684 119.61 56.7602Z" fill="#2A4B8E" stroke="#263238" stroke-linecap="round" stroke-linejoin="round"/>
<path d="M135.34 56.7602C135.326 56.926 135.25 57.0803 135.127 57.1928C135.004 57.3052 134.844 57.3676 134.678 57.3676C134.511 57.3676 134.351 57.3052 134.228 57.1928C134.106 57.0803 134.03 56.926 134.015 56.7602C134.007 56.6684 134.018 56.5759 134.048 56.4886C134.078 56.4013 134.125 56.3211 134.188 56.2532C134.25 56.1853 134.326 56.131 134.41 56.0939C134.494 56.0568 134.586 56.0376 134.678 56.0376C134.77 56.0376 134.861 56.0568 134.945 56.0939C135.03 56.131 135.106 56.1853 135.168 56.2532C135.23 56.3211 135.278 56.4013 135.307 56.4886C135.337 56.5759 135.348 56.6684 135.34 56.7602Z" fill="#2A4B8E" stroke="#263238" stroke-linecap="round" stroke-linejoin="round"/>
<path d="M119.53 63.2153H118.365V64.3803H119.53V63.2153Z" fill="#2A4B8E" stroke="#263238" stroke-linecap="round" stroke-linejoin="round"/>
<path d="M127.395 63.2153H126.23V64.3803H127.395V63.2153Z" fill="#2A4B8E" stroke="#263238" stroke-linecap="round" stroke-linejoin="round"/>
<path d="M135.26 63.2153H134.095V64.3803H135.26V63.2153Z" fill="#2A4B8E" stroke="#263238" stroke-linecap="round" stroke-linejoin="round"/>
<path d="M140.08 56.76H133.235V49.915L137.84 54.515L140.08 56.76Z" fill="#2A4B8E" stroke="#263238" stroke-linecap="round" stroke-linejoin="round"/>
<path d="M140.833 56.6788V81.9501H113.333V49.5835H133.738L138.511 54.3517L140.833 56.6788Z" fill="#325294" stroke="#263238" stroke-linecap="round" stroke-linejoin="round"/>
<path d="M140.834 56.6788H133.738V49.5835L138.512 54.3517L140.834 56.6788Z" fill="#325294" stroke="#263238" stroke-linecap="round" stroke-linejoin="round"/>
<path d="M135.275 71.8593C134.306 68.5306 132.517 68.4145 132.133 68.3251C131.375 68.1473 130.457 68.2233 129.969 68.0708C129.912 68.5508 128.516 70.1303 127.598 71.1218L127.201 69.5926C127.5 69.4176 127.566 69.0296 127.566 68.7052H126.062C126.062 69.0265 126.126 69.4091 126.418 69.5866L126.028 71.121C125.112 70.1309 123.716 68.551 123.658 68.0711C123.168 68.2216 122.25 68.1465 121.493 68.3237C121.108 68.4131 119.319 68.53 118.351 71.8584C118.22 72.3105 118.266 72.8027 118.48 73.2061C119.272 74.7049 123.444 75.1672 126.814 75.166C130.183 75.168 134.353 74.7049 135.147 73.2061C135.359 72.8041 135.406 72.3119 135.275 71.8593Z" fill="#3D5D9E" stroke="#263238"/>
<path d="M128.847 60.4441L128.861 60.1728L129.463 60.3428C129.574 60.374 129.665 60.4179 129.738 60.4583L129.806 60.4962L129.86 60.5532C130.087 60.7948 130.291 61.1214 130.467 61.5507L130.59 61.4275C130.59 61.4062 130.59 61.3849 130.59 61.3637C130.587 60.1973 130.245 59.3287 129.686 58.7362C129.126 58.1427 128.298 57.7744 127.226 57.7022L128.847 60.4441ZM128.847 60.4441C128.662 60.3805 128.454 60.333 128.218 60.3243L128.217 60.3243C128.079 60.3195 127.934 60.3209 127.795 60.3235L127.713 60.325L127.636 60.3526C127.104 60.5426 126.526 60.5352 126.058 60.4692C125.827 60.4367 125.633 60.3913 125.498 60.3544C125.43 60.336 125.378 60.3199 125.344 60.3089C125.327 60.3034 125.315 60.2992 125.307 60.2966L125.3 60.294C125.299 60.2939 125.299 60.2938 125.299 60.2937C125.299 60.2937 125.299 60.2937 125.299 60.2937C125.299 60.2937 125.299 60.2937 125.299 60.2937L125.239 60.2715L125.173 60.2655C124.682 60.2199 124.264 60.3124 123.92 60.5028C123.581 60.6907 123.342 60.958 123.176 61.221C123.077 61.3768 123.001 61.536 122.943 61.6858V61.6307C122.958 61.4105 122.993 61.1935 123.045 60.9801L123.055 60.942L123.058 60.9029C123.106 60.3277 123.23 59.8306 123.425 59.4554L128.847 60.4441ZM129.819 60.7656C129.818 60.7606 129.818 60.761 129.82 60.7659L129.819 60.7656ZM123.425 59.4553C124.014 58.3235 125.336 57.576 127.226 57.7022L123.425 59.4553Z" fill="#3D5D9E" stroke="#263238"/>
<path d="M140.08 93.38V117.76H113.55V86.53H133.235L137.84 91.135L140.08 93.38Z" fill="#2A4B8E" stroke="#263238" stroke-linecap="round" stroke-linejoin="round"/>
<path opacity="0.5" d="M137.84 91.135V104.58H115.79V88.625H135.325L137.84 91.135Z" fill="white"/>
<path d="M137.84 91.135V104.58H115.79V88.625H135.325L137.84 91.135Z" stroke="#263238" stroke-linecap="round" stroke-linejoin="round"/>
<path d="M140.08 93.38H133.235V86.53L137.84 91.135L140.08 93.38Z" fill="#2A4B8E" stroke="#263238" stroke-linecap="round" stroke-linejoin="round"/>
<path d="M127.575 101.785C129.031 101.785 130.21 101.01 130.21 100.055C130.21 99.0995 129.031 98.325 127.575 98.325C126.12 98.325 124.94 99.0995 124.94 100.055C124.94 101.01 126.12 101.785 127.575 101.785Z" fill="#263238"/>
<path d="M127.255 90.8601L125.445 100.055H124.945L126.27 93.3351L126.615 91.5901C126.864 91.381 127.081 91.1368 127.26 90.8651L127.255 90.8601Z" fill="#263238"/>
<path d="M127.255 90.865L126.805 93.09C126.633 93.1881 126.453 93.2701 126.265 93.335C125.703 93.5275 125.107 93.6007 124.515 93.55C124.116 93.5197 123.716 93.6031 123.362 93.7907C123.008 93.9783 122.715 94.2624 122.515 94.61C122.515 94.51 123.06 92.545 124.885 92.345C125.525 92.2724 126.127 92.0094 126.615 91.59C126.863 91.3805 127.078 91.1363 127.255 90.865Z" fill="#263238"/>
<path d="M123.535 110.31L123.2 113.52H121.9L121.21 107.5H122.13L122.63 112.255L123.08 107.5H124L124.465 112.29L124.965 107.5H125.79L125.13 113.5H123.87L123.535 110.31Z" fill="#263238"/>
<path d="M129.21 113.5H128.255L128.09 112.41H126.925L126.765 113.5H125.895L126.86 107.5H128.245L129.21 113.5ZM127.045 111.59H127.96L127.515 108.54L127.045 111.59Z" fill="#263238"/>
<path d="M130.855 112.41L131.57 107.49H132.44L131.525 113.5H130.11L129.185 107.5H130.14L130.855 112.41Z" fill="#263238"/>
<path d="M140.833 93.762V119.033H113.333V86.6667H133.733L138.506 91.4349L140.833 93.762Z" fill="#325294" stroke="#263238" stroke-linecap="round" stroke-linejoin="round"/>
<path d="M140.833 93.762H133.732V86.6667L138.506 91.4349L140.833 93.762Z" fill="#325294" stroke="#263238" stroke-linecap="round" stroke-linejoin="round"/>
<path d="M135.634 109.648C134.623 106.208 132.759 106.089 132.357 105.996C132.311 105.986 132.264 105.975 132.216 105.965C130.998 104.851 131.829 100.195 131.829 100.195C131.829 93.0988 126.984 93.7962 126.984 93.7962C126.925 93.793 126.866 93.7906 126.809 93.7889C126.751 93.7909 126.692 93.793 126.633 93.7962C126.633 93.7962 121.787 93.0982 121.787 100.195C121.787 100.195 122.618 104.851 121.4 105.965C121.353 105.975 121.305 105.984 121.259 105.996C120.857 106.089 118.992 106.208 117.983 109.648C117.846 110.116 117.894 110.623 118.117 111.038C118.944 112.589 123.294 113.066 126.81 113.065C130.324 113.066 134.675 112.589 135.502 111.039C135.722 110.623 135.77 110.116 135.634 109.648ZM130.099 105.731C130.083 105.862 130.025 105.988 129.931 106.106C129.493 106.663 128.26 107.463 126.808 107.463C125.355 107.463 124.122 106.661 123.684 106.106C123.59 105.988 123.532 105.862 123.517 105.731C123.539 105.724 123.589 105.706 123.656 105.678C123.683 105.666 123.712 105.649 123.744 105.635C124.009 105.497 124.4 105.208 124.4 104.702C124.819 105.114 125.285 105.44 125.783 105.635C126.118 105.767 126.468 105.839 126.826 105.839C127.185 105.839 127.535 105.767 127.869 105.635C128.362 105.44 128.825 105.118 129.24 104.713C129.243 104.714 129.246 104.715 129.249 104.716C129.259 105.37 129.92 105.656 130.1 105.721C130.1 105.725 130.1 105.729 130.099 105.731ZM130.865 100.894C130.799 101.262 130.653 101.565 130.5 101.695C130.439 101.747 130.376 101.77 130.316 101.76C130.283 101.755 130.25 101.739 130.223 101.713C129.883 102.76 129.232 103.804 128.412 104.432C127.932 104.799 127.395 105.023 126.828 105.023C126.257 105.023 125.717 104.796 125.236 104.425C124.42 103.798 123.773 102.756 123.434 101.712C123.406 101.738 123.376 101.754 123.341 101.76C123.272 101.772 123.197 101.738 123.126 101.667C122.983 101.525 122.852 101.238 122.79 100.893C122.708 100.441 122.772 100.04 122.934 99.926C122.956 99.9096 122.98 99.8996 123.006 99.8949C123.064 99.8849 123.124 99.9069 123.183 99.9548C123.183 99.9548 123.184 99.9499 123.184 99.941C123.204 99.7438 123.469 97.5368 125.137 97.6897L130.237 100.291L130.649 99.8969C130.664 99.8999 130.679 99.904 130.692 99.9099C130.873 99.9934 130.951 100.414 130.865 100.894Z" fill="#3D5D9E" stroke="#263238"/>
<path d="M103.225 130V154.38H76.6951V123.15H96.3751L100.98 127.755L103.225 130Z" fill="#2A4B8E" stroke="#263238" stroke-linecap="round" stroke-linejoin="round"/>
<path opacity="0.5" d="M100.98 127.755V141.2H78.9304V125.245H98.4704L100.98 127.755Z" fill="white"/>
<path d="M100.98 127.755V141.2H78.9304V125.245H98.4704L100.98 127.755Z" stroke="#263238" stroke-linecap="round" stroke-linejoin="round"/>
<path d="M103.225 130H96.3748V123.15L100.98 127.755L103.225 130Z" fill="#2A4B8E" stroke="#263238" stroke-linecap="round" stroke-linejoin="round"/>
<path d="M86.9847 130.015L82.9597 134.045L86.9847 138.07" stroke="#263238" stroke-linecap="round" stroke-linejoin="round"/>
<path d="M92.9248 138.07L96.9548 134.045L92.9248 130.015" stroke="#263238" stroke-linecap="round" stroke-linejoin="round"/>
<path d="M90.9196 130.005L88.9946 138.08" stroke="#263238" stroke-linecap="round" stroke-linejoin="round"/>
<path d="M84.0906 150.14H83.1406V144.11H84.0906V146.695H85.1656V144.11H86.1306V150.14H85.1656V147.56H84.0906V150.14Z" fill="#263238"/>
<path d="M86.5454 144.11H89.4704V145H88.4704V150.165H87.5254V145H86.5254L86.5454 144.11Z" fill="#263238"/>
<path d="M91.885 148.395L92.525 144.11H93.84V150.14H92.945V145.815L92.31 150.14H91.415L90.725 145.88V150.14H89.895V144.11H91.215L91.885 148.395Z" fill="#263238"/>
<path d="M94.5454 144.11H95.5004V149.28H97.0604V150.14H94.5604L94.5454 144.11Z" fill="#263238"/>
<path d="M103.225 93.38V117.76H76.6951V86.53H96.3751L100.98 91.135L103.225 93.38Z" fill="#2A4B8E" stroke="#263238" stroke-linecap="round" stroke-linejoin="round"/>
<path opacity="0.5" d="M100.98 91.135V104.58H78.9304V88.625H98.4704L100.98 91.135Z" fill="white"/>
<path d="M100.98 91.135V104.58H78.9304V88.625H98.4704L100.98 91.135Z" stroke="#263238" stroke-linecap="round" stroke-linejoin="round"/>
<path d="M103.225 93.38H96.3748V86.53L100.98 91.135L103.225 93.38Z" fill="#2A4B8E" stroke="#263238" stroke-linecap="round" stroke-linejoin="round"/>
<path d="M87.5003 97.0551C87.5003 97.0551 86.7854 95.8101 84.9254 96.8201C83.2103 97.7501 83.4253 99.9801 85.1703 99.9801C87.2103 99.9801 88.0703 97.9451 89.2703 95.8101C90.5303 93.5801 91.5753 91.3101 91.7153 91.0151C91.7153 91.0151 90.2803 99.8901 90.1003 101.055C89.9203 102.22 91.4004 101.275 91.5354 100.74" stroke="#263238" stroke-linecap="round" stroke-linejoin="round"/>
<path d="M95.2752 96.7102C94.637 96.5589 93.9652 96.6555 93.3954 96.9803C92.8256 97.3051 92.4002 97.834 92.2052 98.4602C91.8852 99.3552 92.4552 99.9602 93.0152 99.9602C94.4502 99.9602 95.0152 99.1152 95.6602 96.6902C95.6602 96.6902 94.7552 99.9602 95.2052 99.9602C95.4029 99.955 95.5954 99.896 95.762 99.7893C95.9285 99.6827 96.0628 99.5326 96.1502 99.3552" stroke="#263238" stroke-linecap="round" stroke-linejoin="round"/>
<path d="M88.9802 96.7102H92.6752" stroke="#263238" stroke-linecap="round" stroke-linejoin="round"/>
<path d="M85.5005 108.94C85.5005 107.975 86.0005 107.44 86.9405 107.44C87.8805 107.44 88.3805 107.99 88.3805 108.94V112.075C88.3805 113.04 87.8805 113.575 86.9405 113.575C86.0005 113.575 85.5005 113.025 85.5005 112.075V108.94ZM86.4505 112.135C86.4505 112.565 86.6405 112.73 86.9505 112.73C87.2605 112.73 87.4505 112.565 87.4505 112.135V108.88C87.4505 108.45 87.2605 108.285 86.9505 108.285C86.6405 108.285 86.4505 108.45 86.4505 108.88V112.135Z" fill="#263238"/>
<path d="M88.7202 107.5H91.6452V108.365H90.6452V113.5H89.7002V108.355H88.7002L88.7202 107.5Z" fill="#263238"/>
<path d="M93.0002 110.17H94.2252V111.035H93.0002V113.535H92.0552V107.5H94.5552V108.365H93.0002V110.17Z" fill="#263238"/>
<path d="M158 85.155V117.31C158 117.864 157.796 118.399 157.428 118.813C157.059 119.227 156.551 119.491 156 119.555L153.885 119.785V159.895C153.886 160.486 153.678 161.059 153.297 161.511C152.917 161.963 152.388 162.266 151.805 162.365C151.662 162.393 151.516 162.407 151.37 162.405L65.1602 162.335V40L151.37 40.07C151.516 40.0701 151.662 40.0852 151.805 40.115C152.387 40.2142 152.915 40.5161 153.296 40.9672C153.677 41.4184 153.885 41.9897 153.885 42.58V82.69L156 82.925C156.549 82.9874 157.055 83.2489 157.424 83.6599C157.793 84.0709 157.998 84.6029 158 85.155V85.155Z" stroke="#263238" stroke-miterlimit="10"/>
<path d="M65.16 40.0004V162.5L49.12 167.35L48.93 167.4C48.6315 167.486 48.3166 167.499 48.0124 167.436C47.7081 167.374 47.4235 167.238 47.1831 167.041C46.9427 166.845 46.7535 166.593 46.632 166.307C46.5104 166.021 46.4599 165.71 46.485 165.4V82.1204L45.6 81.5704C45.34 81.4154 45.145 80.3254 45.145 79.0704V43.6954C45.145 42.4254 45.34 41.4104 45.6 41.3454L46.5 41.1154V37.1154C46.4737 36.8054 46.5234 36.4938 46.6446 36.2073C46.7658 35.9209 46.9549 35.6682 47.1957 35.4713C47.4364 35.2744 47.7215 35.139 48.0263 35.077C48.3311 35.015 48.6464 35.0282 48.945 35.1154L49.135 35.1654L65.16 40.0004Z" fill="#C0CADC"/>
<path d="M48.93 35.1101V167.38C48.6315 167.466 48.3166 167.478 48.0124 167.416C47.7081 167.353 47.4235 167.218 47.1831 167.021C46.9427 166.825 46.7535 166.572 46.632 166.287C46.5104 166.001 46.46 165.69 46.485 165.38V82.1201L45.6 81.5701C45.34 81.4151 45.145 80.3251 45.145 79.0701V43.6951C45.145 42.4251 45.34 41.4101 45.6 41.3451L46.5 41.1151V37.1151C46.4737 36.8064 46.5227 36.496 46.6428 36.2104C46.7629 35.9248 46.9504 35.6726 47.1894 35.4755C47.4283 35.2783 47.7115 35.1421 48.0147 35.0784C48.3179 35.0148 48.632 35.0257 48.93 35.1101Z" fill="#263238"/>
<path d="M65.16 40.0004V162.5L49.12 167.35L48.93 167.4C48.6315 167.486 48.3166 167.499 48.0124 167.436C47.7081 167.374 47.4235 167.238 47.1831 167.041C46.9427 166.845 46.7535 166.593 46.632 166.307C46.5104 166.021 46.4599 165.71 46.485 165.4V82.1204L45.6 81.5704C45.34 81.4154 45.145 80.3254 45.145 79.0704V43.6954C45.145 42.4254 45.34 41.4104 45.6 41.3454L46.5 41.1154V37.1154C46.4737 36.8054 46.5234 36.4938 46.6446 36.2073C46.7658 35.9209 46.9549 35.6682 47.1957 35.4713C47.4364 35.2744 47.7215 35.139 48.0263 35.077C48.3311 35.015 48.6464 35.0282 48.945 35.1154L49.135 35.1654L65.16 40.0004Z" stroke="#263238" stroke-miterlimit="10"/>
<path opacity="0.2" d="M81.6607 164.195H65.3957V164.385L58.8057 166.44L57.6807 143.525C57.6807 143.525 60.8507 138.525 65.1307 136.205L65.3957 136.41C67.1857 137.84 77.6757 146.815 81.6607 164.195Z" fill="#2A4B8E" fill-opacity="0.5"/>
<path d="M59.83 179.885C59.83 179.885 58.755 178.245 58.48 173.665C58.205 169.085 58.4 166.055 57.68 164.265C57.68 164.265 56.785 162.65 55.71 160.86C54.635 159.07 54.815 153.13 54.99 147.435C55.165 141.74 56.23 140.435 58.49 139.615C63.99 137.615 65.36 144.43 67.89 152.115C70.42 159.8 70.24 165.25 71.135 167.185C72.03 169.12 73.845 171.625 75.45 176.82" fill="white"/>
<path opacity="0.4" d="M73.745 172.285C70.96 169.17 68.215 167.08 67.87 166.12C67.34 164.62 69.2 156.85 66.44 154.28C63.68 151.71 60.165 154.535 58.355 153.9C56.545 153.265 56.755 150.055 56.755 143.9C56.755 140.9 58.755 139.725 60.79 139.305C64.445 139.805 65.745 145.64 67.88 152.105C70.41 159.785 70.23 165.24 71.125 167.175C71.71 168.435 72.69 169.945 73.745 172.285Z" fill="#2A4B8E"/>
<path d="M59.83 179.885C59.83 179.885 58.755 178.245 58.48 173.665C58.205 169.085 58.4 166.055 57.68 164.265C57.68 164.265 56.785 162.65 55.71 160.86C54.635 159.07 54.815 153.13 54.99 147.435C55.165 141.74 56.23 140.435 58.49 139.615C63.99 137.615 65.36 144.43 67.89 152.115C70.42 159.8 70.24 165.25 71.135 167.185C72.03 169.12 73.845 171.625 75.45 176.82" stroke="#263238" stroke-linecap="round" stroke-linejoin="round"/>
<path opacity="0.2" d="M128.805 123.915L123.035 148.86L139.465 152.285C139.465 152.285 138.86 159.53 139.58 159.695C140.3 159.86 145.045 160.795 145.045 160.795C145.045 160.795 144 175.41 144 180.585C144 185.76 149.835 189.935 153.85 197.935C157.865 205.935 166.35 208.27 175.85 224.885L184.38 188.5L164 141.4L142.61 125.56L128.805 123.915Z" fill="black" fill-opacity="0.7"/>
<path d="M146.165 156.78C146.165 156.78 147.315 161.635 147.13 162.95C146.945 164.265 148.32 164.265 148.325 164.265C148.775 169.18 148.935 173.955 148.565 175.915C147.845 179.68 151.43 183.66 154.565 190.635C157.7 197.61 159.85 198.89 163.255 202.19C166.66 205.49 166.18 208.69 168.305 212.55C169.53 214.795 171.61 224.915 173.145 233.05H209.39C204.08 222.84 195.94 207.195 194.985 205.365C193.55 202.625 194.27 201.21 191.94 196.09C191.94 196.09 189.32 158.52 187.135 155.925C184.95 153.33 177.84 150.105 175.835 148.13C173.83 146.155 165.395 135.045 162.445 134.33C159.495 133.615 152.595 139 152.595 139C152.595 139 150.095 135.355 146.55 137C144.185 138.1 144.285 142 145.05 146.13C145.015 146.185 143.8 148.13 143.18 149.2C142.56 150.27 141.3 156.37 141.3 157C141.305 157.54 144.115 159.245 146.165 156.78Z" fill="white"/>
<path opacity="0.4" d="M164.695 168.085C164.695 168.085 167.195 171.61 165.77 171.685C164.345 171.76 160.27 169.83 158.02 164.16C157.495 162.84 156.88 161.46 156.245 160.11C155.921 159.423 155.394 158.851 154.736 158.472C154.077 158.094 153.318 157.926 152.561 157.992C151.804 158.058 151.086 158.354 150.503 158.841C149.92 159.328 149.5 159.982 149.3 160.715L148.3 164.265C148.3 164.265 146.925 164.265 147.105 162.95C147.27 161.785 146.385 157.84 146.18 156.95L146.555 156.2L141.625 154.955C141.81 154.045 142.045 152.955 142.29 151.955C142.325 151.815 142.355 151.68 142.395 151.55V151.48C142.425 151.365 142.45 151.26 142.485 151.155C142.638 150.478 142.859 149.818 143.145 149.185C143.76 148.125 144.98 146.185 145.015 146.11C144.245 141.985 144.145 138.08 146.515 136.98C150.08 135.32 152.56 138.98 152.56 138.98L152.835 138.765C152.884 138.737 152.931 138.706 152.975 138.67C153.555 138.235 154.7 137.415 156.035 136.59C156.23 136.47 156.43 136.35 156.635 136.235C157.537 135.693 158.478 135.218 159.45 134.815C159.78 134.69 160.105 134.575 160.42 134.485C160.52 134.46 160.625 134.425 160.73 134.405C161.499 137.657 161.733 141.013 161.425 144.34L164.66 149.275C165.088 151.064 165.793 152.774 166.75 154.345C167.721 155.944 168.515 157.644 169.12 159.415C169.12 159.415 169.715 158.915 170.55 159.775C170.55 159.775 168.095 162.81 167.35 164.885C166.828 166.207 165.898 167.328 164.695 168.085Z" fill="#2A4B8E"/>
<path opacity="0.4" d="M188.72 182.315C188.275 170.2 186.36 163.635 186.36 163.635C186.36 163.635 186.86 173.435 185.525 176.135C185.525 176.135 184.445 167.38 185.025 161.69C185.605 156 172.7 148.19 172.17 143.915C173.8 145.85 175.17 147.49 175.82 148.145C177.82 150.12 184.935 153.345 187.115 155.94C189.295 158.535 191.845 194.94 191.925 196.08C190.57 193.5 188.965 189.085 188.72 182.315Z" fill="#2A4B8E"/>
<path opacity="0.4" d="M170.805 221.47C169.875 217.245 168.97 213.755 168.305 212.55C166.355 209 166.605 206 164 203C164.393 203.326 164.815 203.615 165.26 203.865C167.5 205 170 209.76 170.585 213.1C170.89 214.81 170.885 218.38 170.805 221.47Z" fill="#2A4B8E"/>
<path d="M145.055 146.13C145.055 146.13 143.81 148.13 143.185 149.205C142.56 150.28 141.305 156.375 141.305 157.005C141.305 157.635 145.165 159.87 147.13 155.12" stroke="#263238" stroke-linecap="round" stroke-linejoin="round"/>
<path d="M171.7 226.23C170.2 219.155 168.7 212.135 165.48 205.395C163.67 201.315 159.59 199.05 156.875 195.425C153.7 190.425 151.875 185.005 149.17 180.02C148.265 173.225 148.715 166.425 147.81 159.175C146.905 154.175 145.545 149.21 144.64 144.225C144.64 141.505 143.735 138.785 146.45 136.975C148.715 136.07 150.985 137.425 152.595 138.975C154.98 137.145 152.4 138.7 152.595 138.975C155.06 136.975 157.78 134.24 160.95 134.695C168.2 135.145 170.92 143.755 175.905 148.285C177.265 149.645 179.075 150.1 180.435 151.46C183.155 153.27 186.78 154.175 187.685 157.35C190.855 170.49 190.405 182.725 192.215 195.85C192.67 198.115 193.12 200.85 194.03 203.1C196.295 208.1 198.785 212.955 201.33 217.775" stroke="#263238" stroke-linecap="round" stroke-linejoin="round"/>
<path d="M152.595 139C154.745 141.24 157.435 147.96 158.78 152.715C160.125 157.47 159.78 163.38 159.78 163.38C159.78 163.38 161.78 166.425 163.545 169.475C165.31 172.525 167.4 171.895 167.4 171.895" stroke="#263238" stroke-linecap="round" stroke-linejoin="round"/>
<path d="M161.456 166.045C162.12 166.178 162.808 166.124 163.444 165.889C164.079 165.654 164.637 165.248 165.056 164.715C166.671 162.83 165.591 160.68 171.151 159.785" stroke="#263238" stroke-linecap="round" stroke-linejoin="round"/>
<path d="M166.78 161.67C166.519 159.651 165.872 157.7 164.875 155.925C163.26 153.15 163.53 151.09 163.53 151.09C163.53 151.09 159.5 147.655 159.14 146.13" stroke="#263238" stroke-linecap="round" stroke-linejoin="round"/>
<path d="M160 139.615C160 139.615 159.785 142.09 159.595 143.47C159.24 146.13 158.675 146.83 157.03 147.435" stroke="#263238" stroke-linecap="round" stroke-linejoin="round"/>
<path d="M158.78 152.705C159.763 153.418 160.898 153.894 162.095 154.095C162.095 154.095 161.74 157.275 162.455 158.095C163.17 158.915 164.515 159.53 164.695 160.875" stroke="#263238" stroke-linecap="round" stroke-linejoin="round"/>
<path d="M159.641 157.645C160.269 158.03 161.011 158.183 161.741 158.08" stroke="#263238" stroke-linecap="round" stroke-linejoin="round"/>
<path d="M163.62 163.635C163.62 163.635 162.06 165.275 160.69 164.815" stroke="#263238" stroke-linecap="round" stroke-linejoin="round"/>
<path d="M146.165 156.78C146.165 156.78 147.315 161.635 147.13 162.95C146.945 164.265 148.325 164.265 148.325 164.265" stroke="#263238" stroke-linecap="round" stroke-linejoin="round"/>
<path d="M163.53 151.09C163.53 151.09 164.53 149.12 165.38 148.67" stroke="#263238" stroke-linecap="round" stroke-linejoin="round"/>
<path d="M162.155 167.175C163.738 167.445 165.193 168.216 166.305 169.375" stroke="#263238" stroke-linecap="round" stroke-linejoin="round"/>
<path d="M175.84 148.13C179.395 152.435 182.62 154.855 184.235 156.78C185.85 158.705 184.185 162.95 185.045 170.72" stroke="#263238" stroke-linecap="round" stroke-linejoin="round"/>
<path d="M179.28 157.645C179.28 157.645 178.67 161.04 180.375 163.645" stroke="#263238" stroke-linecap="round" stroke-linejoin="round"/>
<path d="M163.26 202.19C168.1 206.03 168.26 207.105 169.355 209.435" stroke="#263238" stroke-linecap="round" stroke-linejoin="round"/>
<path d="M191.945 196.09C189.255 191.87 188.715 184.88 188.715 184.88" stroke="#263238" stroke-linecap="round" stroke-linejoin="round"/>
<path d="M158.185 128.93L152.975 152.745L127.06 147.075L133.73 116.57L152.96 120.775L156.475 126.255L158.185 128.93Z" fill="#2A4B8E" stroke="#263238" stroke-linecap="round" stroke-linejoin="round"/>
<path opacity="0.5" d="M156.475 126.255L153.6 139.39L132.06 134.68L135.47 119.095L154.56 123.27L156.475 126.255Z" fill="white"/>
<path d="M156.475 126.255L153.6 139.39L132.06 134.68L135.47 119.095L154.56 123.27L156.475 126.255Z" stroke="#263238" stroke-linecap="round" stroke-linejoin="round"/>
<path d="M140.275 122.81L152.865 125.56" stroke="#263238" stroke-linecap="round" stroke-linejoin="round"/>
<path d="M138.2 123.82L152.56 126.96" stroke="#263238" stroke-linecap="round" stroke-linejoin="round"/>
<path d="M137.896 125.22L152.256 128.365" stroke="#263238" stroke-linecap="round" stroke-linejoin="round"/>
<path d="M137.585 126.625L151.945 129.765" stroke="#263238" stroke-linecap="round" stroke-linejoin="round"/>
<path d="M137.28 128.025L151.64 131.165" stroke="#263238" stroke-linecap="round" stroke-linejoin="round"/>
<path d="M136.975 129.425L151.335 132.565" stroke="#263238" stroke-linecap="round" stroke-linejoin="round"/>
<path d="M136.67 130.825L151.025 133.965" stroke="#263238" stroke-linecap="round" stroke-linejoin="round"/>
<path d="M136.36 132.225L148.95 134.98" stroke="#263238" stroke-linecap="round" stroke-linejoin="round"/>
<path d="M139.205 139.93L136.345 139.305L136.16 140.15L137.13 140.36L136.025 145.41L136.95 145.61L138.055 140.56L139.025 140.775L139.205 139.93Z" fill="#263238"/>
<path d="M141.926 140.525L140.736 142.54L140.511 140.22L139.551 140.005L139.896 143.08L138.196 145.885L139.066 146.075L140.341 143.91L140.586 146.405L141.561 146.62L141.191 143.365L142.781 140.715L141.926 140.525Z" fill="#263238"/>
<path d="M143.125 140.79L142.94 141.63L143.91 141.845L142.805 146.89L143.73 147.095L144.835 142.045L145.805 142.255L145.99 141.415L143.125 140.79Z" fill="#263238"/>
<path d="M158.185 128.93L151.5 127.465L152.96 120.775L156.475 126.255L158.185 128.93Z" fill="#2A4B8E" stroke="#263238" stroke-linecap="round" stroke-linejoin="round"/>
<path d="M158.274 129.052L153.053 152.917L127.084 147.235L133.768 116.667L153.038 120.88L156.56 126.372L158.274 129.052Z" fill="#325294" stroke="#263238" stroke-linecap="round" stroke-linejoin="round"/>
<path d="M150.354 141.652C150.018 138.317 148.339 137.892 147.989 137.739C147.3 137.437 146.414 137.347 145.977 137.116C145.839 137.562 144.233 138.818 143.186 139.599L143.078 138.075C143.393 137.961 143.524 137.604 143.581 137.296L142.152 137.031C142.095 137.336 142.089 137.711 142.335 137.932L141.694 139.321C140.998 138.219 139.949 136.471 139.979 136.005C139.486 136.062 138.627 135.828 137.876 135.863C137.494 135.88 135.773 135.676 134.267 138.67C134.063 139.076 134.02 139.552 134.152 139.974C134.641 141.538 138.525 142.712 141.728 143.305C144.93 143.9 148.976 144.195 149.994 142.91C150.266 142.565 150.398 142.105 150.354 141.652Z" fill="#3D5D9E" stroke="#263238"/>
<path d="M147.654 131.214C147.683 131.091 147.71 130.969 147.733 130.847C147.934 129.741 147.763 128.86 147.338 128.202C146.913 127.544 146.196 127.05 145.192 126.793L147.654 131.214ZM147.654 131.214C147.565 130.672 147.413 130.256 147.211 129.942L147.169 129.876L147.109 129.826C147.046 129.775 146.966 129.716 146.865 129.666L146.304 129.389L146.243 129.643M147.654 131.214L146.243 129.643M146.243 129.643C146.082 129.554 145.897 129.476 145.68 129.428L145.679 129.428C145.549 129.399 145.411 129.374 145.278 129.352L145.197 129.339L145.116 129.352C144.581 129.438 144.035 129.33 143.603 129.185C143.391 129.114 143.215 129.037 143.093 128.978C143.033 128.949 142.986 128.925 142.956 128.909C142.941 128.9 142.93 128.894 142.923 128.89L142.917 128.887C142.917 128.887 142.917 128.887 142.916 128.887C142.916 128.886 142.916 128.886 142.916 128.886L142.861 128.854L142.798 128.836C142.336 128.705 141.919 128.719 141.555 128.841C141.196 128.961 140.92 129.175 140.714 129.397C140.616 129.503 140.531 129.614 140.459 129.723C140.51 129.53 140.578 129.344 140.66 129.163L140.676 129.127L140.686 129.089C140.833 128.552 141.037 128.104 141.287 127.784L146.243 129.643ZM148.119 132.813C147.897 133.405 147.54 133.835 147.271 133.863C146.773 134.698 146.087 135.472 145.319 136L148.119 132.813ZM148.119 132.813C148.362 132.172 148.358 131.573 148.117 131.428L148.119 132.813ZM147.138 130.143C147.137 130.139 147.138 130.139 147.138 130.144L147.138 130.143ZM147.223 131.847C147.223 131.847 147.223 131.848 147.223 131.849L147.223 131.849L147.223 131.847L147.223 131.847ZM141.287 127.784C142.042 126.818 143.423 126.341 145.192 126.793L141.287 127.784Z" fill="#3D5D9E" stroke="#263238"/>
<path d="M158.273 129.052L151.574 127.584L153.037 120.881L156.56 126.372L158.273 129.052Z" fill="#8C9DC0" stroke="#263238" stroke-linecap="round" stroke-linejoin="round"/>
<path d="M154.57 190.635C151.43 183.66 147.845 179.68 148.57 175.915C149.295 172.15 148.03 157.99 146.57 152.415C145.11 146.84 142.965 138.665 146.57 136.985C150.175 135.305 152.615 138.985 152.615 138.985C154.765 141.225 157.455 147.945 158.8 152.7C160.145 157.455 159.8 163.365 159.8 163.365C159.8 163.365 161.8 166.41 163.565 169.46C165.33 172.51 167.42 171.88 167.42 171.88" fill="white"/>
<path opacity="0.4" d="M154.275 162.95C154.275 162.95 148.325 163.605 148.775 171.33C148.645 165.5 147.67 156.575 146.57 152.435C145.54 148.55 144.19 143.38 144.7 140.045C146.32 138.92 148.23 138.215 150.09 138.99C154.74 140.92 153.905 145.785 153.905 145.785C153.905 145.785 148.49 146.705 148.345 149.88C148.2 153.055 152.065 153.05 154.275 162.95Z" fill="#2A4B8E"/>
<path d="M154.57 190.635C151.43 183.66 147.845 179.68 148.57 175.915C149.295 172.15 148.03 157.99 146.57 152.415C145.11 146.84 142.965 138.665 146.57 136.985C150.175 135.305 152.615 138.985 152.615 138.985C154.765 141.225 157.455 147.945 158.8 152.7C160.145 157.455 159.8 163.365 159.8 163.365C159.8 163.365 161.8 166.41 163.565 169.46C165.33 172.51 167.42 171.88 167.42 171.88" stroke="#263238" stroke-linecap="round" stroke-linejoin="round"/>
<path d="M121.745 202.549C119.824 199.398 117.938 199.777 117.514 199.791C117.465 199.793 117.416 199.795 117.365 199.798C115.857 199.015 115.443 194.163 115.443 194.163C113.552 187.107 108.92 189.091 108.92 189.091C108.861 189.104 108.802 189.117 108.744 189.131C108.687 189.148 108.629 189.166 108.571 189.185C108.571 189.185 103.567 189.782 105.458 196.839C105.458 196.839 107.525 201.247 106.61 202.68C106.566 202.702 106.521 202.724 106.478 202.748C106.103 202.947 104.28 203.563 104.193 207.252C104.182 207.754 104.365 208.245 104.697 208.599C105.932 209.921 110.385 209.236 113.881 208.298C117.376 207.363 121.576 205.729 121.985 203.968C122.093 203.495 122.005 202.978 121.745 202.549ZM115.198 200.129C115.217 200.264 115.193 200.404 115.131 200.547C114.843 201.217 113.831 202.342 112.386 202.729C110.942 203.116 109.502 202.647 108.918 202.212C108.794 202.119 108.702 202.009 108.653 201.883C108.672 201.87 108.718 201.839 108.776 201.793C108.8 201.774 108.825 201.749 108.852 201.727C109.08 201.519 109.391 201.128 109.256 200.624C109.783 200.922 110.333 201.122 110.881 201.183C111.249 201.225 111.616 201.204 111.972 201.109C112.329 201.013 112.657 200.848 112.955 200.628C113.394 200.303 113.768 199.859 114.072 199.346C114.075 199.346 114.079 199.346 114.082 199.346C114.267 199.994 114.999 200.102 115.196 200.119C115.198 200.123 115.199 200.127 115.198 200.129ZM114.671 195.115C114.703 195.498 114.638 195.839 114.522 196.009C114.474 196.077 114.418 196.117 114.355 196.123C114.322 196.126 114.285 196.119 114.25 196.1C114.191 197.233 113.822 198.444 113.174 199.287C112.794 199.779 112.321 200.146 111.757 200.297C111.189 200.449 110.591 200.367 110.014 200.126C109.035 199.72 108.114 198.857 107.499 197.908C107.479 197.942 107.453 197.966 107.42 197.981C107.354 198.011 107.27 197.997 107.182 197.946C107.001 197.843 106.794 197.592 106.641 197.266C106.439 196.838 106.396 196.423 106.526 196.266C106.544 196.244 106.565 196.227 106.589 196.216C106.644 196.19 106.71 196.196 106.782 196.228C106.782 196.228 106.781 196.223 106.779 196.214C106.746 196.013 106.422 193.747 108.121 193.455L113.886 194.683L114.19 194.181C114.205 194.18 114.222 194.18 114.236 194.183C114.439 194.217 114.628 194.615 114.671 195.115Z" fill="#ECEFF5" stroke="#263238"/>
<path d="M122.151 186.025L128.691 210.435L102.128 217.553L93.75 186.284L113.459 181.003L119.306 184.378L122.151 186.025Z" stroke="#263238" stroke-linecap="round" stroke-linejoin="round"/>
<path d="M122.15 186.025L115.297 187.862L113.459 181.003L119.305 184.378L122.15 186.025Z" stroke="#263238" stroke-linecap="round" stroke-linejoin="round"/>
<path d="M104.167 56.6788V81.9502H76.6665V49.5835H97.0661L101.839 54.3517L104.167 56.6788Z" fill="#325294" stroke="#263238" stroke-linecap="round" stroke-linejoin="round"/>
<path d="M104.167 56.6788H97.0669V49.5835L101.84 54.3517L104.167 56.6788Z" fill="#325294" stroke="#263238" stroke-linecap="round" stroke-linejoin="round"/>
<path d="M98.9671 72.5648C97.9568 69.1248 96.0922 69.0061 95.6904 68.9126C95.6441 68.9026 95.5975 68.8923 95.5492 68.8824C94.3311 67.7681 95.1625 63.112 95.1625 63.112C95.1625 56.0157 90.3177 56.7132 90.3177 56.7132C90.2583 56.71 90.1996 56.7076 90.142 56.7059C90.0841 56.7079 90.0257 56.71 89.9663 56.7132C89.9663 56.7132 85.1209 56.0152 85.1209 63.112C85.1209 63.112 85.952 67.7675 84.7339 68.8824C84.6868 68.8923 84.639 68.9015 84.593 68.9126C84.1909 69.0058 82.3254 69.1248 81.3163 72.5648C81.1798 73.0327 81.2276 73.5397 81.4504 73.9553C82.2771 75.5057 86.627 75.9827 90.1432 75.9815C93.6579 75.9827 98.009 75.5057 98.8357 73.9565C99.0558 73.54 99.1036 73.0327 98.9671 72.5648ZM93.4329 68.6481C93.4169 68.7792 93.3585 68.9047 93.2647 69.0231C92.8261 69.5798 91.5936 70.3804 90.1411 70.3804C88.6881 70.3804 87.4552 69.5783 87.0172 69.0231C86.9237 68.9047 86.8653 68.7792 86.8505 68.6481C86.8721 68.6408 86.9229 68.6234 86.989 68.5946C87.0163 68.5826 87.0457 68.5661 87.0772 68.5517C87.3427 68.4139 87.7332 68.1249 87.7332 67.6185C88.1528 68.0306 88.6186 68.3565 89.1168 68.5517C89.4515 68.6837 89.8011 68.7563 90.1598 68.7563C90.5185 68.7563 90.8681 68.6837 91.2025 68.5517C91.6959 68.3574 92.1585 68.0353 92.5733 67.63C92.5763 67.6312 92.5799 67.6321 92.5828 67.6329C92.5929 68.2866 93.2531 68.5726 93.4338 68.6378C93.4338 68.6422 93.4338 68.6463 93.4329 68.6481ZM94.1988 63.8109C94.132 64.1786 93.9863 64.4819 93.8338 64.6124C93.7721 64.6635 93.7098 64.6873 93.6492 64.6773C93.6166 64.6721 93.584 64.6556 93.5564 64.6297C93.216 65.6772 92.5653 66.7212 91.7452 67.349C91.2654 67.7155 90.7289 67.9404 90.1619 67.9404C89.5907 67.9404 89.0504 67.7129 88.5697 67.3417C87.7534 66.7147 87.1062 65.6731 86.7677 64.6286C86.7398 64.6547 86.7092 64.6712 86.6745 64.6768C86.6051 64.6888 86.53 64.6547 86.46 64.5842C86.3167 64.4422 86.1855 64.1548 86.1235 63.8103C86.0416 63.3577 86.106 62.9574 86.2674 62.843C86.2897 62.8266 86.3134 62.8166 86.3392 62.8119C86.3971 62.8019 86.4573 62.8239 86.5166 62.8718C86.5166 62.8718 86.5172 62.8668 86.5175 62.858C86.5377 62.6608 86.803 60.4538 88.4709 60.6067L93.5709 63.2078L93.9825 62.8139C93.997 62.8169 94.0121 62.821 94.0252 62.8269C94.2065 62.9103 94.2842 63.3312 94.1988 63.8109Z" fill="#3D5D9E" stroke="#263238"/>
<path d="M104.167 93.3453V118.617H76.6665V86.25H97.0712L101.845 91.0182L104.167 93.3453Z" fill="#325294" stroke="#263238" stroke-linecap="round" stroke-linejoin="round"/>
<path d="M104.167 93.3453H97.0715V86.25L101.845 91.0182L104.167 93.3453Z" fill="#325294" stroke="#263238" stroke-linecap="round" stroke-linejoin="round"/>
<path d="M98.6094 108.526C97.6398 105.197 95.8512 105.081 95.4668 104.992C94.7092 104.814 93.7914 104.89 93.3032 104.738C93.2465 105.218 91.8502 106.797 90.9318 107.789L90.5352 106.259C90.834 106.084 90.9002 105.696 90.9002 105.372H89.3961C89.3961 105.693 89.4607 106.076 89.7523 106.253L89.3622 107.788C88.4467 106.798 87.0503 105.218 86.9926 104.738C86.5027 104.888 85.5846 104.813 84.8275 104.99C84.442 105.08 82.653 105.197 81.6855 108.525C81.5546 108.977 81.6004 109.469 81.8143 109.873C82.6064 111.372 86.7781 111.834 90.1483 111.833C93.5168 111.835 97.6874 111.372 98.4811 109.873C98.6928 109.471 98.7406 108.979 98.6094 108.526Z" fill="#3D5D9E" stroke="#263238"/>
<path d="M92.1802 97.1109L92.1947 96.8395L92.7966 97.0095C92.9072 97.0408 92.9983 97.0847 93.0713 97.1251L93.1396 97.163L93.1931 97.2199C93.4202 97.4615 93.6245 97.7878 93.8 98.2169L93.9234 98.0933C93.9237 98.0724 93.9238 98.0514 93.9238 98.0304C93.9201 96.864 93.5785 95.9955 93.0193 95.4029C92.4592 94.8095 91.6319 94.4411 90.5596 94.369L92.1802 97.1109ZM92.1802 97.1109C91.996 97.0472 91.7877 96.9997 91.5512 96.991L91.5502 96.991C91.4126 96.9863 91.268 96.9876 91.1287 96.9902L91.0469 96.9917L90.9698 97.0193C90.4379 97.2094 89.8591 97.202 89.3912 97.1359C89.1609 97.1034 88.9666 97.058 88.8313 97.0212C88.7638 97.0028 88.7116 96.9867 88.6776 96.9757C88.6605 96.9702 88.6481 96.9659 88.6406 96.9633L88.6332 96.9607C88.6328 96.9606 88.6325 96.9605 88.6324 96.9604C88.6324 96.9604 88.6324 96.9604 88.6324 96.9604L88.6324 96.9604L88.5721 96.9383L88.507 96.9322C88.0153 96.8867 87.5978 96.9792 87.254 97.1696C86.9146 97.3575 86.6756 97.6247 86.5093 97.8877C86.4108 98.0436 86.3348 98.2028 86.2763 98.3526V98.2974C86.291 98.0772 86.3265 97.8602 86.3788 97.6468L86.3882 97.6087L86.3915 97.5696C86.4398 96.9945 86.5631 96.4973 86.7584 96.1221L92.1802 97.1109ZM93.153 97.4323C93.1513 97.4273 93.1518 97.4277 93.1531 97.4326L93.153 97.4323ZM86.7584 96.122C87.3476 94.9903 88.6695 94.2427 90.5594 94.369L86.7584 96.122Z" fill="#3D5D9E" stroke="#263238"/>
<path d="M104.167 130.012V155.283H76.6665V122.917H97.0712L101.845 127.685L104.167 130.012Z" fill="#325294" stroke="#263238" stroke-linecap="round" stroke-linejoin="round"/>
<path d="M99.3839 145.481C98.3735 142.041 96.5089 141.922 96.1071 141.829C96.0609 141.819 96.0143 141.809 95.9659 141.799C94.7479 140.684 95.5793 136.028 95.5793 136.028C95.5793 128.932 90.7344 129.629 90.7344 129.629C90.6751 129.626 90.6163 129.624 90.5587 129.622C90.5009 129.624 90.4424 129.626 90.3831 129.629C90.3831 129.629 85.5376 128.931 85.5376 136.028C85.5376 136.028 86.3687 140.684 85.1507 141.799C85.1035 141.809 85.0557 141.818 85.0097 141.829C84.6077 141.922 82.7422 142.041 81.733 145.481C81.5965 145.949 81.6443 146.456 81.8672 146.872C82.6938 148.422 87.0438 148.899 90.5599 148.898C94.0746 148.899 98.4257 148.422 99.2524 146.873C99.4726 146.456 99.5203 145.949 99.3839 145.481ZM93.8497 141.564C93.8337 141.695 93.7752 141.821 93.6814 141.939C93.2429 142.496 92.0103 143.297 90.5579 143.297C89.1048 143.297 87.8719 142.495 87.434 141.939C87.3405 141.821 87.282 141.695 87.2672 141.564C87.2889 141.557 87.3396 141.54 87.4058 141.511C87.4331 141.499 87.4624 141.482 87.4939 141.468C87.7595 141.33 88.15 141.041 88.15 140.535C88.5695 140.947 89.0354 141.273 89.5336 141.468C89.8683 141.6 90.2178 141.673 90.5765 141.673C90.9353 141.673 91.2848 141.6 91.6192 141.468C92.1127 141.274 92.5753 140.952 92.9901 140.546C92.993 140.547 92.9966 140.548 92.9996 140.549C93.0097 141.203 93.6699 141.489 93.8506 141.554C93.8506 141.558 93.8506 141.563 93.8497 141.564ZM94.6155 136.727C94.5488 137.095 94.4031 137.398 94.2506 137.529C94.1888 137.58 94.1265 137.604 94.066 137.594C94.0334 137.588 94.0007 137.572 93.9731 137.546C93.6328 138.593 92.9821 139.637 92.1619 140.265C91.6821 140.632 91.1457 140.857 90.5786 140.857C90.0074 140.857 89.4671 140.629 88.9864 140.258C88.1701 139.631 87.523 138.589 87.1844 137.545C87.1565 137.571 87.126 137.587 87.0912 137.593C87.0218 137.605 86.9467 137.571 86.8767 137.5C86.7334 137.358 86.6023 137.071 86.5402 136.727C86.4583 136.274 86.5227 135.874 86.6841 135.759C86.7064 135.743 86.7301 135.733 86.756 135.728C86.8138 135.718 86.874 135.74 86.9334 135.788C86.9334 135.788 86.934 135.783 86.9343 135.774C86.9545 135.577 87.2197 133.37 88.8876 133.523L93.9877 136.124L94.3992 135.73C94.4138 135.733 94.4289 135.737 94.4419 135.743C94.6232 135.827 94.701 136.247 94.6155 136.727Z" fill="#3D5D9E" stroke="#263238"/>
<path d="M104.167 130.012H97.0715V122.917L101.845 127.685L104.167 130.012Z" fill="#325294" stroke="#263238" stroke-linecap="round" stroke-linejoin="round"/>
<path opacity="0.1" d="M65 37.9165L83.75 103.795V162.083H65.1188L65 37.9165Z" fill="black" fill-opacity="0.7"/>
</svg>
