<svg width="228" height="242" viewBox="0 0 228 242" fill="none" xmlns="http://www.w3.org/2000/svg">
<path opacity="0.3" d="M161.031 57.4224C161.128 57.4365 161.227 57.4278 161.319 57.3969C161.412 57.3661 161.496 57.3139 161.565 57.2447C161.633 57.1754 161.685 57.091 161.715 56.9982C161.745 56.9053 161.753 56.8067 161.739 56.7102C161.724 56.6138 161.687 56.5221 161.63 56.4426C161.573 56.3631 161.499 56.2981 161.412 56.2526C161.326 56.2071 161.23 56.1826 161.133 56.1809C161.035 56.1792 160.938 56.2004 160.85 56.2429L158.485 56.6111L158.416 56.1618L160.782 55.7935C160.902 55.7355 161.001 55.6403 161.063 55.5221C161.125 55.4039 161.148 55.2689 161.127 55.1369C161.107 55.0049 161.045 54.8828 160.95 54.7887C160.855 54.6946 160.733 54.6333 160.601 54.614L158.229 54.9885L157.724 51.7245L150.622 45.3088L57.5886 216.309L64.7157 221.127L181.258 202.966L179.96 194.603L182.325 194.235C182.423 194.251 182.522 194.244 182.616 194.214C182.71 194.183 182.795 194.132 182.865 194.062C182.935 193.993 182.987 193.908 183.018 193.814C183.049 193.721 183.057 193.621 183.042 193.524C183.027 193.427 182.989 193.334 182.932 193.254C182.874 193.175 182.799 193.109 182.711 193.064C182.623 193.019 182.526 192.996 182.428 192.995C182.329 192.995 182.232 193.018 182.144 193.062L179.773 193.43L179.704 192.975L182.076 192.606C182.153 192.595 182.226 192.568 182.293 192.528C182.359 192.488 182.417 192.435 182.463 192.372C182.509 192.31 182.542 192.239 182.56 192.163C182.578 192.087 182.581 192.009 182.569 191.932C182.538 191.779 182.452 191.643 182.326 191.55C182.2 191.458 182.044 191.416 181.888 191.433L179.523 191.801L178.837 187.401L181.208 187.033C181.323 186.975 181.417 186.882 181.478 186.767C181.538 186.653 181.561 186.523 181.544 186.395C181.526 186.266 181.47 186.147 181.382 186.052C181.294 185.958 181.179 185.893 181.052 185.866L178.687 186.234L178.618 185.785L180.984 185.417C181.104 185.359 181.202 185.264 181.265 185.145C181.327 185.027 181.349 184.892 181.329 184.76C181.309 184.628 181.247 184.506 181.152 184.412C181.057 184.318 180.935 184.257 180.803 184.237L178.431 184.606L177.751 180.237L180.116 179.862C180.193 179.852 180.268 179.826 180.335 179.786C180.401 179.746 180.46 179.693 180.506 179.63C180.552 179.567 180.585 179.496 180.602 179.42C180.62 179.344 180.622 179.265 180.609 179.188C180.579 179.036 180.493 178.901 180.368 178.809C180.244 178.716 180.089 178.674 179.935 178.689L177.564 179.057L177.495 178.608L179.86 178.24C179.98 178.182 180.079 178.087 180.141 177.968C180.203 177.85 180.226 177.715 180.206 177.583C180.185 177.451 180.123 177.329 180.029 177.235C179.934 177.141 179.811 177.08 179.679 177.06L177.314 177.429L176.627 173.06L178.993 172.692C179.113 172.634 179.211 172.538 179.274 172.42C179.336 172.302 179.359 172.167 179.338 172.035C179.318 171.903 179.256 171.781 179.161 171.687C179.066 171.593 178.944 171.532 178.812 171.512L176.446 171.88L176.372 171.431L178.743 171.063C178.895 171.031 179.03 170.944 179.121 170.818C179.212 170.692 179.253 170.537 179.236 170.383C179.226 170.305 179.199 170.231 179.16 170.164C179.12 170.097 179.067 170.039 179.004 169.993C178.941 169.947 178.869 169.914 178.793 169.896C178.718 169.879 178.639 169.876 178.562 169.89L176.191 170.258L175.51 165.889L177.876 165.521C178.028 165.489 178.163 165.402 178.254 165.276C178.345 165.15 178.386 164.995 178.369 164.841C178.358 164.763 178.332 164.689 178.292 164.622C178.252 164.555 178.199 164.497 178.136 164.451C178.073 164.405 178.002 164.372 177.926 164.354C177.85 164.337 177.771 164.334 177.695 164.348L175.323 164.716L175.254 164.26L177.62 163.892C177.717 163.908 177.816 163.9 177.91 163.87C178.004 163.84 178.089 163.788 178.159 163.719C178.229 163.65 178.282 163.565 178.312 163.471C178.343 163.378 178.352 163.278 178.337 163.181C178.321 163.084 178.284 162.991 178.226 162.911C178.169 162.831 178.093 162.766 178.005 162.721C177.918 162.676 177.821 162.652 177.722 162.652C177.624 162.652 177.527 162.674 177.439 162.719L175.073 163.087L174.387 158.687L176.752 158.319C176.849 158.335 176.949 158.327 177.043 158.297C177.137 158.267 177.222 158.215 177.292 158.146C177.362 158.077 177.414 157.992 177.445 157.898C177.476 157.805 177.484 157.705 177.469 157.608C177.454 157.51 177.416 157.418 177.359 157.338C177.301 157.258 177.225 157.193 177.138 157.148C177.05 157.103 176.953 157.079 176.855 157.079C176.756 157.078 176.659 157.101 176.571 157.146L174.206 157.514L174.131 157.058L176.503 156.69C176.6 156.705 176.699 156.697 176.793 156.666C176.886 156.636 176.971 156.583 177.04 156.513C177.11 156.444 177.162 156.359 177.192 156.265C177.222 156.171 177.23 156.072 177.214 155.975C177.199 155.878 177.16 155.786 177.103 155.706C177.045 155.627 176.969 155.562 176.881 155.517C176.794 155.473 176.697 155.449 176.598 155.449C176.5 155.449 176.403 155.472 176.315 155.517L173.95 155.885L173.264 151.485L175.635 151.117C175.732 151.132 175.832 151.124 175.925 151.093C176.019 151.062 176.103 151.01 176.173 150.94C176.242 150.871 176.294 150.786 176.324 150.692C176.354 150.598 176.362 150.499 176.347 150.402C176.331 150.305 176.293 150.213 176.235 150.133C176.177 150.054 176.101 149.989 176.014 149.944C175.926 149.899 175.829 149.876 175.731 149.876C175.633 149.876 175.536 149.899 175.448 149.944L173.083 150.312L173.014 149.856L175.379 149.488C175.531 149.458 175.667 149.372 175.759 149.247C175.851 149.123 175.894 148.968 175.879 148.814C175.848 148.661 175.761 148.524 175.636 148.432C175.51 148.34 175.354 148.298 175.198 148.315L172.827 148.683L172.146 144.314L174.512 143.946C174.664 143.916 174.799 143.83 174.892 143.706C174.984 143.581 175.026 143.426 175.011 143.272C174.981 143.119 174.894 142.983 174.768 142.89C174.642 142.798 174.486 142.756 174.331 142.773L171.965 143.141L171.891 142.692L174.262 142.324C174.383 142.265 174.481 142.169 174.543 142.051C174.605 141.932 174.627 141.797 174.606 141.664C174.585 141.532 174.522 141.41 174.426 141.317C174.331 141.223 174.207 141.162 174.075 141.144L171.71 141.512L171.023 137.144L173.395 136.775C173.515 136.717 173.613 136.621 173.675 136.503C173.737 136.384 173.759 136.248 173.738 136.116C173.717 135.984 173.654 135.862 173.559 135.768C173.463 135.675 173.34 135.614 173.207 135.596L170.842 135.964L170.773 135.515L173.139 135.146C173.259 135.088 173.358 134.993 173.42 134.875C173.482 134.757 173.505 134.622 173.484 134.49C173.464 134.358 173.402 134.236 173.307 134.142C173.212 134.048 173.09 133.986 172.958 133.967L170.586 134.341L169.906 129.973L172.271 129.605C172.392 129.547 172.49 129.451 172.552 129.333C172.614 129.215 172.637 129.08 172.617 128.948C172.597 128.816 172.534 128.694 172.44 128.6C172.345 128.506 172.222 128.444 172.09 128.425L169.719 128.793L169.65 128.344L172.015 127.976C172.113 127.991 172.212 127.984 172.306 127.954C172.4 127.924 172.485 127.872 172.555 127.803C172.625 127.733 172.677 127.648 172.708 127.555C172.739 127.461 172.747 127.362 172.732 127.265C172.717 127.167 172.679 127.075 172.622 126.995C172.564 126.915 172.489 126.85 172.401 126.805C172.313 126.76 172.216 126.736 172.118 126.736C172.02 126.735 171.922 126.758 171.834 126.802L169.469 127.171L168.783 122.771L171.148 122.403C171.245 122.418 171.345 122.411 171.438 122.381C171.532 122.351 171.618 122.299 171.687 122.23C171.757 122.16 171.81 122.075 171.841 121.982C171.871 121.888 171.88 121.789 171.865 121.691C171.85 121.594 171.812 121.502 171.754 121.422C171.697 121.342 171.621 121.277 171.534 121.232C171.446 121.187 171.349 121.163 171.251 121.162C171.152 121.162 171.055 121.185 170.967 121.229L168.602 121.598L168.533 121.142L170.898 120.774C171.016 120.714 171.112 120.619 171.172 120.502C171.233 120.385 171.254 120.252 171.234 120.121C171.214 119.991 171.153 119.87 171.06 119.777C170.967 119.683 170.847 119.622 170.717 119.6L168.346 119.969L167.665 115.6L170.031 115.232C170.148 115.172 170.244 115.077 170.305 114.96C170.365 114.843 170.387 114.71 170.367 114.579C170.347 114.449 170.286 114.329 170.193 114.235C170.1 114.141 169.98 114.08 169.85 114.059L167.478 114.427L167.41 113.971L169.775 113.603C169.927 113.573 170.062 113.487 170.155 113.362C170.247 113.238 170.29 113.083 170.274 112.929C170.244 112.776 170.157 112.639 170.031 112.547C169.905 112.454 169.749 112.413 169.594 112.43L167.229 112.798L166.542 108.398L168.907 108.03C169.005 108.046 169.104 108.038 169.198 108.008C169.292 107.978 169.377 107.926 169.447 107.857C169.517 107.787 169.569 107.703 169.6 107.609C169.631 107.515 169.639 107.416 169.624 107.319C169.609 107.221 169.571 107.129 169.514 107.049C169.456 106.969 169.381 106.904 169.293 106.859C169.205 106.814 169.109 106.79 169.01 106.79C168.912 106.789 168.814 106.812 168.726 106.857L166.361 107.225L166.286 106.775L168.658 106.407C168.778 106.349 168.877 106.253 168.938 106.134C169 106.016 169.022 105.88 169.001 105.748C168.98 105.616 168.918 105.494 168.822 105.4C168.726 105.306 168.603 105.246 168.471 105.228L166.105 105.596L165.419 101.227L167.79 100.853C167.908 100.793 168.004 100.698 168.064 100.581C168.125 100.464 168.146 100.331 168.126 100.2C168.106 100.07 168.045 99.9495 167.952 99.856C167.86 99.7624 167.739 99.7006 167.609 99.6795L165.238 100.048L165.169 99.5984L167.534 99.2301C167.655 99.1721 167.753 99.077 167.815 98.9587C167.878 98.8405 167.9 98.7055 167.88 98.5735C167.86 98.4415 167.798 98.3194 167.703 98.2253C167.608 98.1312 167.486 98.07 167.353 98.0506L164.988 98.4188L164.302 94.0502L166.667 93.682C166.764 93.6961 166.862 93.6874 166.955 93.6565C167.047 93.6257 167.131 93.5735 167.2 93.5042C167.269 93.435 167.32 93.3506 167.351 93.2577C167.381 93.1649 167.389 93.0663 167.374 92.9698C167.359 92.8733 167.322 92.7817 167.265 92.7022C167.209 92.6227 167.134 92.5576 167.048 92.5122C166.962 92.4667 166.866 92.4422 166.768 92.4405C166.67 92.4388 166.574 92.46 166.486 92.5025L164.121 92.8707L164.046 92.4213L166.417 92.0531C166.515 92.0681 166.614 92.06 166.707 92.0293C166.801 91.9986 166.886 91.9462 166.955 91.8765C167.024 91.8068 167.076 91.7217 167.106 91.6281C167.137 91.5345 167.144 91.4351 167.129 91.338C167.113 91.2409 167.075 91.1488 167.017 91.0693C166.959 90.9897 166.884 90.925 166.796 90.8803C166.708 90.8357 166.611 90.8123 166.513 90.8123C166.415 90.8122 166.318 90.8353 166.23 90.8798L163.865 91.2481L163.178 86.8794L165.55 86.5112C165.668 86.4514 165.763 86.3558 165.823 86.2381C165.883 86.1205 165.904 85.9868 165.884 85.8564C165.863 85.7259 165.801 85.6055 165.708 85.5123C165.614 85.4191 165.493 85.3581 165.363 85.3379L162.997 85.7061L162.929 85.2506L165.294 84.8823C165.391 84.8981 165.491 84.8907 165.584 84.8606C165.678 84.8305 165.764 84.7787 165.834 84.7093C165.903 84.64 165.956 84.5551 165.987 84.4615C166.018 84.368 166.026 84.2685 166.011 84.1712C165.996 84.0738 165.958 83.9815 165.9 83.9015C165.843 83.8216 165.767 83.7565 165.68 83.7114C165.592 83.6664 165.495 83.6426 165.397 83.6422C165.298 83.6418 165.201 83.6647 165.113 83.7091L162.741 84.0773L162.061 79.6774L164.426 79.3092C164.524 79.325 164.623 79.3176 164.717 79.2875C164.811 79.2574 164.896 79.2056 164.966 79.1362C165.036 79.0669 165.088 78.982 165.119 78.8884C165.15 78.7949 165.158 78.6954 165.143 78.5981C165.128 78.5007 165.09 78.4083 165.033 78.3284C164.975 78.2485 164.9 78.1834 164.812 78.1383C164.725 78.0932 164.628 78.0695 164.529 78.0691C164.431 78.0687 164.333 78.0916 164.245 78.1359L161.874 78.5042L161.805 78.0486L164.177 77.6803C164.295 77.6206 164.39 77.525 164.45 77.4073C164.51 77.2896 164.531 77.1559 164.511 77.0255C164.49 76.8951 164.428 76.7746 164.335 76.6814C164.241 76.5883 164.12 76.5272 163.99 76.5071L161.624 76.8753L160.938 72.4754L163.309 72.1072C163.427 72.0475 163.523 71.9518 163.583 71.8342C163.643 71.7165 163.664 71.5828 163.643 71.4524C163.622 71.3219 163.561 71.2015 163.467 71.1083C163.373 71.0152 163.253 70.9541 163.122 70.9339L160.757 71.3022L160.688 70.8466L163.053 70.4784C163.206 70.4481 163.341 70.3623 163.433 70.2377C163.526 70.1131 163.568 69.9586 163.553 69.8043C163.522 69.6511 163.436 69.5148 163.31 69.4223C163.184 69.3299 163.028 69.288 162.872 69.3051L160.501 69.6733L159.821 65.2735L162.186 64.9052C162.338 64.875 162.473 64.7892 162.566 64.6646C162.658 64.54 162.701 64.3855 162.685 64.2312C162.655 64.078 162.568 63.9416 162.442 63.8492C162.316 63.7568 162.16 63.7149 162.005 63.732L159.633 64.1002L159.565 63.6508L161.93 63.2826C162.05 63.2245 162.149 63.1294 162.211 63.0112C162.273 62.893 162.296 62.758 162.276 62.6259C162.255 62.4939 162.193 62.3719 162.099 62.2778C162.004 62.1836 161.881 62.1224 161.749 62.1031L159.384 62.4713L158.697 58.1027L161.031 57.4224Z" fill="black"/>
<path d="M61.3519 217.938L169.413 201.125L145.298 46.1326L37.2309 62.983C36.5756 63.0849 35.9468 63.3149 35.3804 63.6599C34.814 64.0049 34.3212 64.4581 33.93 64.9936C33.5388 65.5291 33.2569 66.1364 33.1005 66.7809C32.944 67.4253 32.9161 68.0943 33.0183 68.7496L55.6103 213.726C55.8148 215.045 56.5341 216.229 57.6104 217.019C58.6867 217.808 60.0322 218.139 61.3519 217.938Z" fill="#263238" stroke="#263238" stroke-miterlimit="10" stroke-linecap="round"/>
<path d="M63.3582 212.521L57.1916 213.481C56.7582 213.548 56.3157 213.441 55.9615 213.182C55.6073 212.923 55.3705 212.534 55.303 212.101L53.133 198.164C53.0655 197.731 53.173 197.289 53.4317 196.934C53.6905 196.58 54.0793 196.343 54.5127 196.276L60.6793 195.316L63.3582 212.521Z" fill="white" stroke="#263238" stroke-miterlimit="10" stroke-linecap="round"/>
<path d="M60.5471 194.435L54.3805 195.395C53.9471 195.463 53.5047 195.355 53.1505 195.097C52.7963 194.838 52.5594 194.449 52.4919 194.016L50.322 180.079C50.2545 179.646 50.362 179.203 50.6207 178.849C50.8795 178.495 51.2683 178.258 51.7017 178.19L57.8683 177.23L60.5471 194.435Z" fill="#325294" stroke="#263238" stroke-miterlimit="10" stroke-linecap="round"/>
<path d="M57.7258 176.319L51.5592 177.279C51.1258 177.346 50.6834 177.239 50.3292 176.98C49.975 176.721 49.7381 176.332 49.6707 175.899L47.5007 161.963C47.4332 161.529 47.5407 161.087 47.7994 160.733C48.0582 160.378 48.447 160.141 48.8804 160.074L55.047 159.114L57.7258 176.319Z" fill="white" stroke="#263238" stroke-miterlimit="10" stroke-linecap="round"/>
<path d="M54.9158 158.24L48.7492 159.2C48.3158 159.267 47.8733 159.16 47.5191 158.901C47.165 158.642 46.9281 158.253 46.8606 157.82L44.6906 143.883C44.6232 143.45 44.7306 143.008 44.9894 142.653C45.2481 142.299 45.637 142.062 46.0704 141.995L52.237 141.035L54.9158 158.24Z" fill="#325294" stroke="#263238" stroke-miterlimit="10" stroke-linecap="round"/>
<path d="M43.2784 123.907L46.9668 123.333L37.5618 62.9207L150.622 45.3276L174.737 200.314L61.6828 217.888L49.6441 140.539L45.9558 141.113C45.5247 141.177 45.0857 141.068 44.7348 140.81C44.3839 140.551 44.1497 140.164 44.0835 139.734L41.8805 125.798C41.8469 125.582 41.8565 125.361 41.9087 125.149C41.9609 124.936 42.0548 124.736 42.1848 124.56C42.3148 124.385 42.4784 124.236 42.6661 124.124C42.8538 124.012 43.062 123.938 43.2784 123.907Z" fill="white" stroke="#263238" stroke-miterlimit="10" stroke-linecap="round"/>
<path d="M144.337 54.8075C144.399 55.2414 144.589 55.6469 144.883 55.9724C145.176 56.298 145.56 56.5289 145.985 56.6358C146.41 56.7427 146.857 56.7207 147.27 56.5727C147.682 56.4247 148.042 56.1573 148.302 55.8045C148.562 55.4518 148.711 55.0296 148.731 54.5917C148.75 54.1539 148.639 53.7201 148.412 53.3455C148.184 52.971 147.85 52.6727 147.452 52.4885C147.054 52.3043 146.611 52.2426 146.178 52.3112C145.605 52.402 145.09 52.7148 144.746 53.1819C144.401 53.649 144.254 54.233 144.337 54.8075Z" fill="#263238" stroke="#263238" stroke-miterlimit="10" stroke-linecap="round"/>
<path d="M146.727 54.121L153.33 53.0912C153.482 53.0595 153.617 52.9723 153.708 52.8465C153.799 52.7207 153.84 52.5654 153.823 52.411C153.791 52.2588 153.704 52.124 153.578 52.0328C153.453 51.9417 153.297 51.9007 153.143 51.9179L146.565 52.9352C146.412 52.9655 146.275 53.0522 146.183 53.1782C146.091 53.3041 146.049 53.4601 146.066 53.6154C146.094 53.7664 146.178 53.9014 146.3 53.9946C146.422 54.0879 146.574 54.1329 146.727 54.121Z" fill="white" stroke="#263238" stroke-miterlimit="10" stroke-linecap="round"/>
<path d="M147.002 55.7436L153.592 54.7201C153.745 54.6898 153.882 54.6031 153.974 54.4771C154.066 54.3512 154.108 54.1952 154.091 54.0399C154.061 53.8866 153.974 53.7503 153.848 53.6578C153.722 53.5654 153.566 53.5236 153.411 53.5406L146.808 54.5703C146.656 54.602 146.521 54.6893 146.43 54.8151C146.339 54.9409 146.298 55.0962 146.315 55.2506C146.347 55.4039 146.435 55.5397 146.562 55.631C146.689 55.7223 146.846 55.7625 147.002 55.7436Z" fill="white" stroke="#263238" stroke-miterlimit="10" stroke-linecap="round"/>
<path d="M145.479 62.0033C145.54 62.4362 145.728 62.8412 146.02 63.1669C146.312 63.4927 146.693 63.7247 147.117 63.8335C147.54 63.9422 147.986 63.9229 148.399 63.778C148.811 63.633 149.171 63.369 149.434 63.0192C149.696 62.6695 149.849 62.2498 149.872 61.8132C149.896 61.3766 149.79 60.9429 149.567 60.5668C149.344 60.1908 149.014 59.8894 148.62 59.7007C148.225 59.512 147.784 59.4446 147.351 59.507C146.772 59.5904 146.25 59.9001 145.899 60.3681C145.548 60.8361 145.397 61.4241 145.479 62.0033Z" fill="#263238" stroke="#263238" stroke-miterlimit="10" stroke-linecap="round"/>
<path d="M147.869 61.3166L154.466 60.2931C154.619 60.2628 154.755 60.1761 154.848 60.0502C154.94 59.9242 154.982 59.7682 154.965 59.6129C154.935 59.4596 154.848 59.3233 154.722 59.2308C154.596 59.1384 154.44 59.0966 154.285 59.1136L147.682 60.1433C147.53 60.175 147.395 60.2623 147.304 60.3881C147.212 60.5139 147.171 60.6692 147.189 60.8236C147.22 60.9757 147.308 61.1105 147.433 61.2017C147.559 61.2929 147.715 61.3339 147.869 61.3166Z" fill="white" stroke="#263238" stroke-miterlimit="10" stroke-linecap="round"/>
<path d="M148.119 62.9206L154.722 61.8971C154.874 61.8654 155.009 61.7782 155.1 61.6524C155.191 61.5266 155.232 61.3713 155.215 61.2169C155.185 61.0636 155.098 60.9273 154.972 60.8348C154.846 60.7424 154.69 60.7006 154.535 60.7176L147.938 61.7473C147.785 61.7776 147.648 61.8643 147.556 61.9903C147.464 62.1162 147.422 62.2723 147.439 62.4276C147.47 62.5797 147.558 62.7145 147.684 62.8057C147.809 62.8969 147.965 62.9379 148.119 62.9206Z" fill="white" stroke="#263238" stroke-miterlimit="10" stroke-linecap="round"/>
<path d="M146.577 69.2052C146.64 69.6391 146.83 70.0446 147.123 70.3701C147.417 70.6957 147.8 70.9266 148.225 71.0335C148.651 71.1404 149.098 71.1184 149.51 70.9704C149.923 70.8224 150.282 70.555 150.542 70.2022C150.802 69.8495 150.952 69.4273 150.971 68.9894C150.991 68.5516 150.88 68.1178 150.652 67.7432C150.424 67.3687 150.09 67.0704 149.693 66.8862C149.295 66.702 148.851 66.6403 148.418 66.7089C147.845 66.7997 147.331 67.1125 146.986 67.5796C146.642 68.0467 146.495 68.6307 146.577 69.2052Z" fill="#263238" stroke="#263238" stroke-miterlimit="10" stroke-linecap="round"/>
<path d="M148.986 68.5373L155.589 67.5138C155.741 67.4821 155.876 67.3949 155.967 67.2691C156.058 67.1433 156.099 66.988 156.082 66.8336C156.052 66.6803 155.965 66.544 155.839 66.4515C155.713 66.3591 155.557 66.3173 155.402 66.3343L148.805 67.364C148.652 67.3943 148.516 67.481 148.423 67.607C148.331 67.7329 148.289 67.889 148.306 68.0443C148.338 68.1964 148.425 68.3312 148.551 68.4224C148.677 68.5136 148.832 68.5546 148.986 68.5373Z" fill="white" stroke="#263238" stroke-miterlimit="10" stroke-linecap="round"/>
<path d="M149.223 70.1477L155.82 69.1179C155.972 69.0877 156.107 69.0019 156.199 68.8773C156.292 68.7527 156.334 68.5982 156.319 68.4439C156.288 68.2906 156.202 68.1543 156.076 68.0619C155.95 67.9694 155.794 67.9276 155.639 67.9446L149.042 68.9744C148.89 69.0046 148.754 69.0904 148.662 69.215C148.57 69.3396 148.527 69.4941 148.543 69.6484C148.573 69.8017 148.66 69.938 148.786 70.0304C148.912 70.1229 149.068 70.1647 149.223 70.1477Z" fill="white" stroke="#263238" stroke-miterlimit="10" stroke-linecap="round"/>
<path d="M147.694 76.4071C147.755 76.84 147.944 77.245 148.235 77.5708C148.527 77.8965 148.909 78.1285 149.332 78.2373C149.755 78.346 150.202 78.3267 150.614 78.1818C151.027 78.0368 151.387 77.7728 151.649 77.423C151.911 77.0733 152.064 76.6536 152.088 76.217C152.111 75.7805 152.005 75.3467 151.782 74.9707C151.559 74.5946 151.229 74.2932 150.835 74.1045C150.441 73.9158 149.999 73.8484 149.566 73.9108C148.987 73.9942 148.465 74.3039 148.114 74.7719C147.763 75.2399 147.612 75.8279 147.694 76.4071Z" fill="#263238" stroke="#263238" stroke-miterlimit="10" stroke-linecap="round"/>
<path d="M150.11 75.7207L156.712 74.6909C156.864 74.6607 157 74.5749 157.092 74.4503C157.184 74.3257 157.227 74.1712 157.212 74.0169C157.181 73.8636 157.095 73.7273 156.969 73.6349C156.843 73.5425 156.687 73.5006 156.531 73.5176L149.929 74.5474C149.852 74.5588 149.778 74.5853 149.711 74.6255C149.645 74.6657 149.587 74.7186 149.541 74.7813C149.495 74.844 149.462 74.9152 149.444 74.9908C149.426 75.0663 149.423 75.1447 149.436 75.2214C149.466 75.3735 149.552 75.5089 149.676 75.6012C149.801 75.6935 149.955 75.7361 150.11 75.7207Z" fill="white" stroke="#263238" stroke-miterlimit="10" stroke-linecap="round"/>
<path d="M150.359 77.3497L156.962 76.32C157.039 76.3086 157.114 76.2819 157.181 76.2413C157.247 76.2008 157.306 76.1472 157.352 76.0838C157.398 76.0204 157.43 75.9485 157.448 75.8722C157.466 75.7959 157.468 75.7169 157.455 75.6397C157.443 75.5629 157.417 75.4891 157.377 75.4226C157.336 75.356 157.283 75.2982 157.221 75.2523C157.158 75.2064 157.087 75.1735 157.011 75.1554C156.936 75.1372 156.857 75.1343 156.781 75.1467L150.178 76.1702C150.026 76.2019 149.891 76.2891 149.8 76.4149C149.709 76.5408 149.668 76.6961 149.685 76.8505C149.715 77.0025 149.801 77.1379 149.925 77.2302C150.05 77.3225 150.204 77.3651 150.359 77.3497Z" fill="white" stroke="#263238" stroke-miterlimit="10" stroke-linecap="round"/>
<path d="M148.818 83.6093C148.88 84.0431 149.07 84.4486 149.363 84.7742C149.657 85.0997 150.041 85.3307 150.466 85.4375C150.891 85.5444 151.338 85.5225 151.751 85.3744C152.163 85.2264 152.522 84.959 152.782 84.6063C153.043 84.2535 153.192 83.8314 153.212 83.3935C153.231 82.9556 153.12 82.5218 152.892 82.1473C152.665 81.7728 152.331 81.4744 151.933 81.2902C151.535 81.1061 151.092 81.0443 150.659 81.1129C150.085 81.2037 149.571 81.5165 149.226 81.9837C148.882 82.4508 148.735 83.0347 148.818 83.6093Z" fill="#263238" stroke="#263238" stroke-miterlimit="10" stroke-linecap="round"/>
<path d="M151.226 82.9227L157.829 81.893C157.981 81.8613 158.116 81.774 158.207 81.6482C158.298 81.5224 158.339 81.3671 158.322 81.2127C158.31 81.1359 158.284 81.0621 158.244 80.9956C158.204 80.929 158.151 80.8712 158.088 80.8253C158.025 80.7794 157.954 80.7465 157.878 80.7284C157.803 80.7102 157.725 80.7073 157.648 80.7197L151.045 81.7432C150.893 81.7749 150.758 81.8621 150.667 81.9879C150.576 82.1138 150.535 82.269 150.552 82.4235C150.582 82.5755 150.668 82.7109 150.793 82.8032C150.917 82.8955 151.072 82.9381 151.226 82.9227Z" fill="white" stroke="#263238" stroke-miterlimit="10" stroke-linecap="round"/>
<path d="M151.482 84.5515L158.079 83.5155C158.232 83.4852 158.369 83.3985 158.461 83.2726C158.553 83.1466 158.595 82.9906 158.578 82.8353C158.547 82.6832 158.459 82.5483 158.333 82.4571C158.208 82.366 158.052 82.325 157.898 82.3422L151.301 83.3657C151.148 83.3961 151.012 83.4828 150.919 83.6087C150.827 83.7347 150.785 83.8907 150.802 84.046C150.831 84.2004 150.917 84.3382 151.043 84.4319C151.169 84.5256 151.326 84.5683 151.482 84.5515Z" fill="white" stroke="#263238" stroke-miterlimit="10" stroke-linecap="round"/>
<path d="M149.935 90.8112C150.002 91.2417 150.195 91.6428 150.49 91.9639C150.784 92.2851 151.167 92.512 151.59 92.6162C152.013 92.7204 152.457 92.6971 152.867 92.5494C153.277 92.4017 153.634 92.1361 153.893 91.786C154.153 91.4359 154.303 91.017 154.325 90.5818C154.347 90.1467 154.239 89.7148 154.016 89.3405C153.793 88.9662 153.465 88.6661 153.072 88.4781C152.679 88.2901 152.239 88.2224 151.808 88.2837C151.518 88.3248 151.239 88.4231 150.988 88.5729C150.736 88.7226 150.517 88.9208 150.343 89.156C150.169 89.3911 150.043 89.6585 149.973 89.9427C149.903 90.2269 149.89 90.5221 149.935 90.8112Z" fill="#263238" stroke="#263238" stroke-miterlimit="10" stroke-linecap="round"/>
<path d="M152.343 90.1246L158.94 89.0949C159.093 89.0646 159.229 88.9779 159.322 88.8519C159.414 88.726 159.456 88.5699 159.439 88.4146C159.407 88.2625 159.32 88.1277 159.194 88.0365C159.069 87.9453 158.913 87.9043 158.759 87.9216L152.162 88.9451C152.009 88.9754 151.873 89.0621 151.78 89.1881C151.688 89.314 151.646 89.47 151.663 89.6253C151.693 89.7786 151.78 89.9149 151.906 90.0074C152.032 90.0998 152.188 90.1416 152.343 90.1246Z" fill="white" stroke="#263238" stroke-miterlimit="10" stroke-linecap="round"/>
<path d="M152.606 91.7473L159.208 90.7238C159.362 90.6935 159.498 90.6068 159.59 90.4808C159.683 90.3549 159.725 90.1988 159.708 90.0435C159.677 89.8903 159.591 89.7539 159.465 89.6615C159.339 89.5691 159.183 89.5272 159.027 89.5442L152.425 90.574C152.273 90.6057 152.138 90.6929 152.046 90.8187C151.955 90.9445 151.914 91.0998 151.932 91.2542C151.963 91.4052 152.05 91.5391 152.174 91.6301C152.298 91.7212 152.452 91.7629 152.606 91.7473Z" fill="white" stroke="#263238" stroke-miterlimit="10" stroke-linecap="round"/>
<path d="M151.058 98.007C151.12 98.4408 151.31 98.8463 151.604 99.1719C151.897 99.4975 152.281 99.7284 152.706 99.8353C153.131 99.9421 153.578 99.9202 153.991 99.7721C154.404 99.6241 154.763 99.3567 155.023 99.004C155.283 98.6512 155.432 98.2291 155.452 97.7912C155.472 97.3533 155.36 96.9195 155.133 96.545C154.905 96.1705 154.571 95.8721 154.173 95.6879C153.776 95.5038 153.332 95.442 152.899 95.5106C152.326 95.6015 151.811 95.9142 151.467 96.3814C151.122 96.8485 150.976 97.4325 151.058 98.007Z" fill="#263238" stroke="#263238" stroke-miterlimit="10" stroke-linecap="round"/>
<path d="M153.467 97.3205L160.07 96.297C160.224 96.2667 160.36 96.18 160.452 96.0541C160.545 95.9281 160.587 95.7721 160.57 95.6168C160.538 95.4646 160.451 95.3298 160.325 95.2386C160.199 95.1475 160.044 95.1065 159.889 95.1237L153.286 96.1472C153.134 96.1789 152.999 96.2662 152.908 96.392C152.817 96.5178 152.776 96.6731 152.793 96.8275C152.804 96.9047 152.83 96.979 152.87 97.0459C152.91 97.1129 152.963 97.1711 153.026 97.2171C153.089 97.2631 153.16 97.296 153.236 97.3137C153.312 97.3315 153.391 97.3338 153.467 97.3205Z" fill="white" stroke="#263238" stroke-miterlimit="10" stroke-linecap="round"/>
<path d="M153.723 98.9494L160.325 97.9259C160.478 97.8943 160.612 97.807 160.704 97.6812C160.795 97.5554 160.836 97.4001 160.818 97.2457C160.788 97.0924 160.701 96.9561 160.575 96.8637C160.45 96.7712 160.293 96.7294 160.138 96.7464L153.542 97.7761C153.388 97.8065 153.252 97.8932 153.16 98.0191C153.067 98.1451 153.025 98.3011 153.042 98.4564C153.074 98.6085 153.161 98.7433 153.287 98.8345C153.413 98.9257 153.568 98.9667 153.723 98.9494Z" fill="white" stroke="#263238" stroke-miterlimit="10" stroke-linecap="round"/>
<path d="M152.182 105.209C152.244 105.643 152.434 106.048 152.728 106.374C153.021 106.699 153.405 106.93 153.83 107.037C154.255 107.144 154.702 107.122 155.115 106.974C155.527 106.826 155.887 106.559 156.147 106.206C156.407 105.853 156.556 105.431 156.576 104.993C156.595 104.555 156.484 104.121 156.257 103.747C156.029 103.372 155.695 103.074 155.297 102.89C154.899 102.706 154.456 102.644 154.023 102.713C153.45 102.803 152.935 103.116 152.591 103.583C152.246 104.05 152.099 104.634 152.182 105.209Z" fill="#263238" stroke="#263238" stroke-miterlimit="10" stroke-linecap="round"/>
<path d="M154.591 104.522L161.194 103.486C161.346 103.455 161.481 103.368 161.572 103.242C161.663 103.116 161.704 102.961 161.687 102.806C161.656 102.653 161.57 102.517 161.444 102.424C161.318 102.332 161.162 102.29 161.006 102.307L154.41 103.337C154.256 103.367 154.12 103.454 154.028 103.58C153.935 103.706 153.893 103.862 153.91 104.017C153.939 104.171 154.026 104.309 154.152 104.403C154.278 104.497 154.435 104.539 154.591 104.522Z" fill="white" stroke="#263238" stroke-miterlimit="10" stroke-linecap="round"/>
<path d="M154.84 106.151L161.437 105.122C161.589 105.091 161.724 105.006 161.816 104.881C161.909 104.756 161.951 104.602 161.936 104.448C161.906 104.294 161.819 104.158 161.693 104.066C161.567 103.973 161.411 103.931 161.256 103.948L154.653 104.978C154.501 105.01 154.366 105.097 154.275 105.223C154.184 105.349 154.143 105.504 154.16 105.658C154.192 105.81 154.279 105.945 154.405 106.036C154.53 106.128 154.686 106.169 154.84 106.151Z" fill="white" stroke="#263238" stroke-miterlimit="10" stroke-linecap="round"/>
<path d="M153.299 112.411C153.36 112.844 153.548 113.249 153.84 113.575C154.131 113.9 154.513 114.132 154.936 114.241C155.36 114.35 155.806 114.331 156.219 114.186C156.631 114.041 156.991 113.777 157.254 113.427C157.516 113.077 157.669 112.657 157.692 112.221C157.716 111.784 157.609 111.351 157.386 110.975C157.163 110.599 156.834 110.297 156.44 110.108C156.045 109.92 155.604 109.852 155.171 109.915C154.592 109.998 154.07 110.308 153.719 110.776C153.368 111.244 153.217 111.832 153.299 112.411Z" fill="#263238" stroke="#263238" stroke-miterlimit="10" stroke-linecap="round"/>
<path d="M155.714 111.724L162.329 110.701C162.482 110.671 162.619 110.584 162.711 110.458C162.804 110.332 162.845 110.176 162.828 110.021C162.798 109.867 162.711 109.731 162.585 109.639C162.459 109.546 162.303 109.504 162.148 109.521L155.545 110.551C155.393 110.583 155.258 110.67 155.167 110.796C155.076 110.922 155.035 111.077 155.052 111.231C155.084 111.38 155.168 111.512 155.29 111.603C155.412 111.693 155.562 111.737 155.714 111.724Z" fill="white" stroke="#263238" stroke-miterlimit="10" stroke-linecap="round"/>
<path d="M155.963 113.353L162.566 112.324C162.718 112.292 162.853 112.205 162.944 112.079C163.036 111.953 163.077 111.798 163.059 111.643C163.028 111.491 162.94 111.356 162.815 111.265C162.689 111.174 162.533 111.133 162.379 111.15L155.782 112.18C155.63 112.21 155.495 112.296 155.403 112.421C155.31 112.545 155.268 112.7 155.283 112.854C155.313 113.007 155.4 113.144 155.526 113.236C155.652 113.329 155.808 113.37 155.963 113.353Z" fill="white" stroke="#263238" stroke-miterlimit="10" stroke-linecap="round"/>
<path d="M154.422 119.613C154.484 120.047 154.675 120.452 154.968 120.778C155.261 121.103 155.645 121.334 156.07 121.441C156.495 121.548 156.943 121.526 157.355 121.378C157.768 121.23 158.127 120.963 158.387 120.61C158.647 120.257 158.796 119.835 158.816 119.397C158.836 118.959 158.724 118.525 158.497 118.151C158.269 117.776 157.935 117.478 157.537 117.294C157.14 117.11 156.696 117.048 156.263 117.117C155.69 117.207 155.175 117.52 154.831 117.987C154.486 118.454 154.34 119.038 154.422 119.613Z" fill="#263238" stroke="#263238" stroke-miterlimit="10" stroke-linecap="round"/>
<path d="M156.831 118.927L163.433 117.897C163.586 117.865 163.72 117.778 163.812 117.652C163.903 117.526 163.944 117.371 163.926 117.217C163.895 117.064 163.808 116.93 163.682 116.838C163.556 116.747 163.401 116.706 163.246 116.724L156.65 117.753C156.497 117.784 156.362 117.869 156.27 117.994C156.178 118.119 156.135 118.273 156.15 118.427C156.181 118.581 156.267 118.717 156.393 118.809C156.519 118.902 156.675 118.944 156.831 118.927Z" fill="white" stroke="#263238" stroke-miterlimit="10" stroke-linecap="round"/>
<path d="M157.087 120.555L163.684 119.526C163.837 119.495 163.973 119.409 164.066 119.283C164.158 119.157 164.2 119.001 164.183 118.845C164.151 118.693 164.064 118.558 163.938 118.467C163.812 118.376 163.657 118.335 163.503 118.352L156.9 119.376C156.748 119.407 156.613 119.495 156.522 119.62C156.43 119.746 156.389 119.902 156.407 120.056C156.437 120.209 156.524 120.346 156.65 120.438C156.776 120.53 156.932 120.572 157.087 120.555Z" fill="white" stroke="#263238" stroke-miterlimit="10" stroke-linecap="round"/>
<path d="M155.539 126.815C155.606 127.245 155.799 127.646 156.093 127.968C156.388 128.289 156.77 128.516 157.193 128.62C157.616 128.724 158.061 128.701 158.471 128.553C158.881 128.405 159.238 128.14 159.497 127.79C159.756 127.44 159.906 127.021 159.928 126.585C159.95 126.15 159.843 125.718 159.62 125.344C159.397 124.97 159.068 124.67 158.675 124.482C158.282 124.294 157.842 124.226 157.411 124.287C157.121 124.328 156.843 124.427 156.591 124.577C156.34 124.726 156.121 124.924 155.946 125.16C155.772 125.395 155.647 125.662 155.577 125.946C155.507 126.231 155.494 126.526 155.539 126.815Z" fill="#263238" stroke="#263238" stroke-miterlimit="10" stroke-linecap="round"/>
<path d="M157.961 126.128L164.557 125.099C164.711 125.068 164.847 124.982 164.939 124.856C165.032 124.73 165.074 124.574 165.057 124.418C165.025 124.266 164.938 124.131 164.812 124.04C164.686 123.949 164.531 123.908 164.376 123.925L157.774 124.949C157.621 124.98 157.487 125.068 157.395 125.193C157.304 125.319 157.263 125.475 157.28 125.629C157.311 125.782 157.397 125.919 157.523 126.011C157.649 126.103 157.805 126.145 157.961 126.128Z" fill="white" stroke="#263238" stroke-miterlimit="10" stroke-linecap="round"/>
<path d="M158.204 127.751L164.826 126.728C164.978 126.696 165.113 126.609 165.204 126.483C165.295 126.357 165.336 126.202 165.319 126.047C165.308 125.97 165.282 125.896 165.242 125.829C165.202 125.762 165.149 125.704 165.087 125.658C165.024 125.612 164.952 125.579 164.876 125.561C164.8 125.543 164.722 125.541 164.645 125.554L158.023 126.578C157.87 126.608 157.734 126.695 157.641 126.821C157.549 126.947 157.507 127.103 157.524 127.258C157.556 127.41 157.643 127.545 157.769 127.636C157.895 127.727 158.05 127.768 158.204 127.751Z" fill="white" stroke="#263238" stroke-miterlimit="10" stroke-linecap="round"/>
<path d="M156.663 134.011C156.725 134.445 156.915 134.85 157.208 135.176C157.502 135.501 157.886 135.732 158.311 135.839C158.736 135.946 159.183 135.924 159.596 135.776C160.008 135.628 160.367 135.361 160.627 135.008C160.888 134.655 161.037 134.233 161.056 133.795C161.076 133.357 160.965 132.923 160.737 132.549C160.51 132.174 160.176 131.876 159.778 131.692C159.38 131.508 158.937 131.446 158.504 131.515C157.93 131.605 157.416 131.918 157.071 132.385C156.727 132.852 156.58 133.436 156.663 134.011Z" fill="#263238" stroke="#263238" stroke-miterlimit="10" stroke-linecap="round"/>
<path d="M159.071 133.331L165.674 132.301C165.826 132.269 165.961 132.182 166.052 132.056C166.144 131.93 166.185 131.775 166.167 131.62C166.136 131.47 166.049 131.336 165.925 131.245C165.8 131.154 165.647 131.112 165.493 131.127L158.89 132.151C158.737 132.181 158.601 132.268 158.508 132.394C158.416 132.52 158.374 132.676 158.391 132.831C158.421 132.984 158.508 133.121 158.634 133.213C158.76 133.306 158.916 133.348 159.071 133.331Z" fill="white" stroke="#263238" stroke-miterlimit="10" stroke-linecap="round"/>
<path d="M159.327 134.953L165.924 133.93C166.077 133.899 166.213 133.813 166.306 133.687C166.398 133.561 166.44 133.405 166.423 133.249C166.393 133.096 166.306 132.96 166.18 132.867C166.054 132.775 165.898 132.733 165.743 132.75L159.146 133.78C158.993 133.81 158.857 133.897 158.764 134.023C158.672 134.149 158.63 134.305 158.647 134.46C158.679 134.612 158.766 134.747 158.892 134.838C159.018 134.929 159.173 134.97 159.327 134.953Z" fill="white" stroke="#263238" stroke-miterlimit="10" stroke-linecap="round"/>
<path d="M157.779 141.213C157.841 141.646 158.029 142.051 158.32 142.376C158.612 142.702 158.994 142.934 159.417 143.043C159.841 143.152 160.287 143.132 160.699 142.987C161.112 142.843 161.472 142.578 161.734 142.229C161.997 141.879 162.149 141.459 162.173 141.023C162.196 140.586 162.09 140.152 161.867 139.776C161.644 139.4 161.315 139.099 160.92 138.91C160.526 138.721 160.084 138.654 159.652 138.716C159.073 138.801 158.552 139.112 158.201 139.579C157.851 140.047 157.699 140.634 157.779 141.213Z" fill="#263238" stroke="#263238" stroke-miterlimit="10" stroke-linecap="round"/>
<path d="M160.194 140.526L166.791 139.503C166.944 139.472 167.081 139.386 167.173 139.26C167.266 139.134 167.307 138.978 167.29 138.822C167.26 138.669 167.173 138.533 167.047 138.44C166.921 138.348 166.765 138.306 166.61 138.323L160.014 139.353C159.86 139.383 159.724 139.47 159.631 139.596C159.539 139.722 159.497 139.878 159.514 140.033C159.546 140.185 159.633 140.32 159.759 140.411C159.885 140.502 160.04 140.543 160.194 140.526Z" fill="white" stroke="#263238" stroke-miterlimit="10" stroke-linecap="round"/>
<path d="M160.456 142.18L167.059 141.156C167.211 141.125 167.346 141.038 167.437 140.912C167.528 140.786 167.569 140.631 167.552 140.476C167.522 140.324 167.436 140.189 167.311 140.096C167.187 140.004 167.032 139.962 166.878 139.977L160.275 141.007C160.123 141.038 159.988 141.126 159.897 141.251C159.806 141.377 159.765 141.533 159.782 141.687C159.794 141.764 159.82 141.838 159.86 141.904C159.9 141.971 159.953 142.028 160.016 142.074C160.079 142.12 160.15 142.153 160.226 142.171C160.301 142.189 160.379 142.192 160.456 142.18Z" fill="white" stroke="#263238" stroke-miterlimit="10" stroke-linecap="round"/>
<path d="M158.903 148.421C158.965 148.855 159.155 149.26 159.449 149.586C159.742 149.911 160.126 150.142 160.551 150.249C160.976 150.356 161.423 150.334 161.836 150.186C162.248 150.038 162.608 149.771 162.868 149.418C163.128 149.065 163.277 148.643 163.297 148.205C163.316 147.767 163.205 147.333 162.977 146.959C162.75 146.584 162.416 146.286 162.018 146.102C161.62 145.918 161.177 145.856 160.744 145.924C160.171 146.015 159.656 146.328 159.312 146.795C158.967 147.262 158.82 147.846 158.903 148.421Z" fill="#263238" stroke="#263238" stroke-miterlimit="10" stroke-linecap="round"/>
<path d="M161.312 147.728L167.946 146.705C168.024 146.693 168.098 146.666 168.165 146.626C168.232 146.585 168.29 146.532 168.336 146.468C168.382 146.405 168.415 146.333 168.433 146.257C168.45 146.181 168.453 146.101 168.439 146.024C168.409 145.872 168.323 145.737 168.199 145.645C168.074 145.552 167.92 145.51 167.765 145.525L161.131 146.549C161.054 146.56 160.979 146.587 160.912 146.627C160.845 146.668 160.787 146.721 160.741 146.785C160.695 146.848 160.663 146.92 160.645 146.996C160.627 147.073 160.625 147.152 160.638 147.229C160.649 147.306 160.675 147.381 160.715 147.448C160.755 147.515 160.807 147.574 160.87 147.62C160.933 147.667 161.004 147.7 161.08 147.719C161.156 147.737 161.235 147.74 161.312 147.728Z" fill="white" stroke="#263238" stroke-miterlimit="10" stroke-linecap="round"/>
<path d="M161.568 149.357L168.164 148.327C168.242 148.317 168.316 148.291 168.384 148.251C168.451 148.211 168.509 148.158 168.556 148.095C168.602 148.033 168.636 147.961 168.654 147.885C168.673 147.809 168.676 147.731 168.664 147.653C168.633 147.5 168.547 147.364 168.421 147.271C168.295 147.179 168.139 147.137 167.983 147.154L161.387 148.184C161.235 148.214 161.099 148.3 161.007 148.424C160.915 148.549 160.872 148.704 160.888 148.858C160.918 149.011 161.005 149.147 161.131 149.24C161.257 149.332 161.413 149.374 161.568 149.357Z" fill="white" stroke="#263238" stroke-miterlimit="10" stroke-linecap="round"/>
<path d="M160.02 155.617C160.081 156.049 160.269 156.454 160.561 156.78C160.853 157.106 161.234 157.338 161.658 157.447C162.081 157.556 162.527 157.536 162.94 157.391C163.352 157.246 163.712 156.982 163.975 156.632C164.237 156.283 164.39 155.863 164.413 155.426C164.437 154.99 164.331 154.556 164.108 154.18C163.885 153.804 163.555 153.503 163.161 153.314C162.766 153.125 162.325 153.058 161.892 153.12C161.314 153.205 160.793 153.515 160.442 153.983C160.091 154.45 159.939 155.038 160.02 155.617Z" fill="#263238" stroke="#263238" stroke-miterlimit="10" stroke-linecap="round"/>
<path d="M162.435 154.93L169.032 153.9C169.184 153.87 169.319 153.784 169.411 153.66C169.504 153.535 169.546 153.381 169.531 153.226C169.501 153.073 169.414 152.937 169.288 152.844C169.162 152.752 169.006 152.71 168.851 152.727L162.254 153.757C162.102 153.787 161.967 153.873 161.874 153.997C161.782 154.122 161.739 154.277 161.755 154.431C161.785 154.584 161.872 154.72 161.998 154.813C162.124 154.905 162.28 154.947 162.435 154.93Z" fill="white" stroke="#263238" stroke-miterlimit="10" stroke-linecap="round"/>
<path d="M162.691 156.534L169.287 155.504C169.441 155.474 169.577 155.387 169.669 155.261C169.762 155.135 169.804 154.979 169.787 154.824C169.755 154.672 169.668 154.537 169.542 154.446C169.416 154.355 169.261 154.314 169.106 154.331L162.503 155.355C162.351 155.386 162.217 155.473 162.125 155.599C162.034 155.725 161.993 155.88 162.01 156.035C162.041 156.188 162.127 156.324 162.253 156.417C162.379 156.509 162.535 156.551 162.691 156.534Z" fill="white" stroke="#263238" stroke-miterlimit="10" stroke-linecap="round"/>
<path d="M161.143 162.819C161.206 163.253 161.396 163.658 161.689 163.984C161.983 164.309 162.366 164.54 162.791 164.647C163.216 164.754 163.664 164.732 164.076 164.584C164.489 164.436 164.848 164.168 165.108 163.816C165.368 163.463 165.518 163.041 165.537 162.603C165.557 162.165 165.446 161.731 165.218 161.357C164.99 160.982 164.656 160.684 164.259 160.5C163.861 160.316 163.417 160.254 162.984 160.322C162.411 160.413 161.897 160.726 161.552 161.193C161.208 161.66 161.061 162.244 161.143 162.819Z" fill="#263238" stroke="#263238" stroke-miterlimit="10" stroke-linecap="round"/>
<path d="M163.577 162.151L170.174 161.121C170.327 161.091 170.464 161.004 170.556 160.878C170.649 160.752 170.69 160.596 170.673 160.441C170.642 160.289 170.554 160.154 170.429 160.063C170.303 159.971 170.147 159.93 169.993 159.948L163.39 160.971C163.238 161.003 163.103 161.09 163.012 161.216C162.921 161.342 162.88 161.497 162.897 161.651C162.927 161.805 163.014 161.941 163.14 162.033C163.266 162.126 163.422 162.168 163.577 162.151Z" fill="white" stroke="#263238" stroke-miterlimit="10" stroke-linecap="round"/>
<path d="M163.808 163.761L170.442 162.731C170.594 162.7 170.729 162.612 170.82 162.487C170.912 162.361 170.953 162.206 170.935 162.051C170.904 161.899 170.816 161.764 170.691 161.673C170.565 161.582 170.41 161.541 170.255 161.558L163.659 162.582C163.505 162.612 163.369 162.699 163.277 162.825C163.184 162.95 163.142 163.107 163.159 163.262C163.189 163.409 163.271 163.541 163.39 163.633C163.51 163.725 163.658 163.77 163.808 163.761Z" fill="white" stroke="#263238" stroke-miterlimit="10" stroke-linecap="round"/>
<path d="M162.266 170.021C162.333 170.451 162.526 170.852 162.821 171.173C163.115 171.495 163.498 171.721 163.921 171.826C164.344 171.93 164.788 171.907 165.198 171.759C165.608 171.611 165.965 171.346 166.225 170.995C166.484 170.645 166.634 170.226 166.656 169.791C166.678 169.356 166.57 168.924 166.347 168.55C166.124 168.176 165.796 167.876 165.403 167.688C165.01 167.5 164.57 167.432 164.139 167.493C163.849 167.534 163.57 167.633 163.319 167.782C163.067 167.932 162.848 168.13 162.674 168.365C162.5 168.601 162.374 168.868 162.304 169.152C162.234 169.436 162.221 169.732 162.266 170.021Z" fill="#263238" stroke="#263238" stroke-miterlimit="10" stroke-linecap="round"/>
<path d="M164.676 169.334L171.279 168.304C171.431 168.273 171.566 168.186 171.657 168.06C171.748 167.934 171.789 167.779 171.772 167.624C171.737 167.47 171.645 167.334 171.514 167.245C171.383 167.155 171.223 167.119 171.067 167.144L164.47 168.167C164.317 168.198 164.18 168.284 164.088 168.41C163.996 168.536 163.954 168.692 163.971 168.847C164.004 169.003 164.096 169.141 164.227 169.231C164.358 169.322 164.519 169.358 164.676 169.334Z" fill="white" stroke="#263238" stroke-miterlimit="10" stroke-linecap="round"/>
<path d="M164.931 170.957L171.528 169.933C171.681 169.903 171.817 169.816 171.91 169.69C172.002 169.564 172.044 169.408 172.027 169.253C171.997 169.1 171.91 168.963 171.784 168.871C171.658 168.779 171.502 168.737 171.347 168.754L164.744 169.783C164.592 169.815 164.457 169.902 164.366 170.028C164.274 170.154 164.233 170.309 164.251 170.464C164.282 170.616 164.37 170.751 164.495 170.842C164.621 170.933 164.777 170.974 164.931 170.957Z" fill="white" stroke="#263238" stroke-miterlimit="10" stroke-linecap="round"/>
<path d="M163.384 177.216C163.446 177.65 163.636 178.056 163.929 178.381C164.223 178.707 164.607 178.938 165.032 179.045C165.457 179.152 165.904 179.13 166.316 178.982C166.729 178.834 167.088 178.566 167.348 178.213C167.609 177.861 167.758 177.439 167.777 177.001C167.797 176.563 167.686 176.129 167.458 175.754C167.23 175.38 166.897 175.082 166.499 174.897C166.101 174.713 165.658 174.652 165.225 174.72C164.651 174.811 164.137 175.124 163.792 175.591C163.448 176.058 163.301 176.642 163.384 177.216Z" fill="#263238" stroke="#263238" stroke-miterlimit="10" stroke-linecap="round"/>
<path d="M165.799 176.505L172.396 175.481C172.549 175.451 172.685 175.364 172.778 175.238C172.87 175.112 172.912 174.956 172.895 174.801C172.884 174.724 172.857 174.649 172.816 174.582C172.776 174.515 172.722 174.457 172.659 174.411C172.595 174.365 172.523 174.332 172.447 174.315C172.371 174.297 172.292 174.295 172.215 174.308L165.612 175.332C165.46 175.363 165.325 175.451 165.234 175.576C165.143 175.702 165.102 175.857 165.119 176.012C165.13 176.089 165.157 176.164 165.198 176.231C165.238 176.298 165.292 176.356 165.355 176.402C165.418 176.448 165.49 176.481 165.567 176.498C165.643 176.516 165.722 176.518 165.799 176.505Z" fill="white" stroke="#263238" stroke-miterlimit="10" stroke-linecap="round"/>
<path d="M166.073 178.159L172.651 177.129C172.803 177.097 172.938 177.01 173.029 176.884C173.12 176.759 173.161 176.603 173.144 176.449C173.114 176.296 173.027 176.159 172.901 176.067C172.775 175.974 172.619 175.932 172.464 175.95L165.867 176.979C165.714 177.01 165.578 177.096 165.485 177.222C165.393 177.348 165.351 177.504 165.368 177.66C165.398 177.818 165.489 177.958 165.62 178.051C165.752 178.144 165.914 178.183 166.073 178.159Z" fill="white" stroke="#263238" stroke-miterlimit="10" stroke-linecap="round"/>
<path d="M164.508 184.418C164.57 184.852 164.76 185.258 165.053 185.583C165.347 185.909 165.731 186.14 166.156 186.247C166.581 186.354 167.028 186.332 167.441 186.184C167.853 186.036 168.212 185.768 168.472 185.415C168.733 185.063 168.882 184.64 168.901 184.203C168.921 183.765 168.81 183.331 168.582 182.956C168.354 182.582 168.021 182.284 167.623 182.099C167.225 181.915 166.782 181.853 166.349 181.922C165.775 182.013 165.261 182.326 164.916 182.793C164.572 183.26 164.425 183.844 164.508 184.418Z" fill="#263238" stroke="#263238" stroke-miterlimit="10" stroke-linecap="round"/>
<path d="M166.916 183.732L173.519 182.708C173.671 182.677 173.806 182.589 173.897 182.464C173.989 182.338 174.03 182.183 174.012 182.028C173.982 181.875 173.895 181.739 173.769 181.646C173.643 181.554 173.487 181.512 173.332 181.529L166.735 182.559C166.582 182.589 166.446 182.676 166.353 182.802C166.261 182.928 166.219 183.084 166.236 183.239C166.268 183.391 166.355 183.526 166.481 183.617C166.607 183.708 166.762 183.749 166.916 183.732Z" fill="white" stroke="#263238" stroke-miterlimit="10" stroke-linecap="round"/>
<path d="M167.171 185.361L173.768 184.331C173.92 184.301 174.055 184.215 174.148 184.09C174.24 183.966 174.283 183.811 174.267 183.657C174.237 183.504 174.15 183.367 174.024 183.275C173.898 183.183 173.742 183.141 173.587 183.158L166.984 184.188C166.832 184.219 166.697 184.306 166.606 184.432C166.515 184.558 166.474 184.713 166.491 184.868C166.523 185.02 166.61 185.155 166.736 185.246C166.862 185.337 167.017 185.378 167.171 185.361Z" fill="white" stroke="#263238" stroke-miterlimit="10" stroke-linecap="round"/>
<path d="M165.624 191.621C165.686 192.053 165.874 192.458 166.166 192.784C166.457 193.11 166.839 193.342 167.262 193.451C167.686 193.559 168.132 193.54 168.544 193.395C168.957 193.25 169.317 192.986 169.579 192.636C169.842 192.287 169.994 191.867 170.018 191.43C170.042 190.994 169.935 190.56 169.712 190.184C169.489 189.808 169.16 189.507 168.765 189.318C168.371 189.129 167.929 189.062 167.497 189.124C166.918 189.208 166.395 189.517 166.044 189.985C165.693 190.453 165.542 191.041 165.624 191.621Z" fill="#263238" stroke="#263238" stroke-miterlimit="10" stroke-linecap="round"/>
<path d="M168.04 190.934L174.636 189.91C174.789 189.88 174.926 189.793 175.018 189.667C175.111 189.541 175.153 189.385 175.135 189.23C175.105 189.077 175.018 188.94 174.893 188.848C174.767 188.756 174.611 188.714 174.455 188.731L167.852 189.761C167.7 189.792 167.565 189.879 167.474 190.005C167.383 190.131 167.342 190.286 167.359 190.441C167.391 190.593 167.478 190.728 167.604 190.819C167.73 190.91 167.885 190.951 168.04 190.934Z" fill="white" stroke="#263238" stroke-miterlimit="10" stroke-linecap="round"/>
<path d="M168.289 192.563L174.892 191.533C175.044 191.501 175.179 191.414 175.27 191.288C175.361 191.162 175.402 191.007 175.385 190.853C175.373 190.776 175.347 190.702 175.307 190.635C175.267 190.569 175.214 190.511 175.151 190.465C175.088 190.419 175.017 190.386 174.941 190.368C174.866 190.35 174.788 190.347 174.711 190.36L168.108 191.389C168.031 191.4 167.956 191.426 167.89 191.466C167.823 191.506 167.764 191.559 167.718 191.622C167.672 191.685 167.64 191.756 167.622 191.832C167.604 191.908 167.602 191.987 167.615 192.063C167.645 192.215 167.731 192.351 167.856 192.443C167.98 192.535 168.135 192.578 168.289 192.563Z" fill="white" stroke="#263238" stroke-miterlimit="10" stroke-linecap="round"/>
<path opacity="0.3" d="M71.2625 69.4799L72.9038 69.2302" stroke="black" stroke-miterlimit="10" stroke-linecap="round"/>
<path opacity="0.3" d="M74.5452 68.9744L76.1865 68.7185" stroke="black" stroke-miterlimit="10" stroke-linecap="round"/>
<path opacity="0.3" d="M55.2234 74.2915L56.8585 74.0356" stroke="black" stroke-miterlimit="10" stroke-linecap="round"/>
<path opacity="0.3" d="M58.4995 73.7798L60.1409 73.5239" stroke="black" stroke-miterlimit="10" stroke-linecap="round"/>
<path opacity="0.3" d="M61.7822 73.2744L63.4173 73.0186" stroke="black" stroke-miterlimit="10" stroke-linecap="round"/>
<path opacity="0.3" d="M65.0583 72.7625L66.6997 72.5066" stroke="black" stroke-miterlimit="10" stroke-linecap="round"/>
<path opacity="0.3" d="M68.3347 72.2508L69.9761 71.9949" stroke="black" stroke-miterlimit="10" stroke-linecap="round"/>
<path opacity="0.3" d="M71.6172 71.739L73.2523 71.4832" stroke="black" stroke-miterlimit="10" stroke-linecap="round"/>
<path opacity="0.3" d="M74.8945 71.2274L76.5359 70.9778" stroke="black" stroke-miterlimit="10" stroke-linecap="round"/>
<path opacity="0.3" d="M55.5725 76.5508L57.2139 76.2949" stroke="black" stroke-miterlimit="10" stroke-linecap="round"/>
<path opacity="0.3" d="M58.8489 76.0391L60.4902 75.7832" stroke="black" stroke-miterlimit="10" stroke-linecap="round"/>
<path opacity="0.3" d="M62.1316 75.5272L63.7729 75.2776" stroke="black" stroke-miterlimit="10" stroke-linecap="round"/>
<path opacity="0.3" d="M65.4077 75.0217L67.0491 74.7659" stroke="black" stroke-miterlimit="10" stroke-linecap="round"/>
<path opacity="0.3" d="M68.6914 74.51L70.3265 74.2542" stroke="black" stroke-miterlimit="10" stroke-linecap="round"/>
<path opacity="0.3" d="M71.9675 73.9983L73.6089 73.7424" stroke="black" stroke-miterlimit="10" stroke-linecap="round"/>
<path opacity="0.3" d="M75.2437 73.4866L76.885 73.2307" stroke="black" stroke-miterlimit="10" stroke-linecap="round"/>
<path opacity="0.3" d="M55.9219 78.8101L57.5632 78.5542" stroke="black" stroke-miterlimit="10" stroke-linecap="round"/>
<path opacity="0.3" d="M59.2046 78.2984L60.8397 78.0425" stroke="black" stroke-miterlimit="10" stroke-linecap="round"/>
<path opacity="0.3" d="M62.4807 77.7864L64.1221 77.5305" stroke="black" stroke-miterlimit="10" stroke-linecap="round"/>
<path opacity="0.3" d="M65.7634 77.281L67.3985 77.0251" stroke="black" stroke-miterlimit="10" stroke-linecap="round"/>
<path opacity="0.3" d="M69.0398 76.7693L70.6811 76.5134" stroke="black" stroke-miterlimit="10" stroke-linecap="round"/>
<path opacity="0.3" d="M72.3169 76.2576L73.9582 76.0017" stroke="black" stroke-miterlimit="10" stroke-linecap="round"/>
<path opacity="0.3" d="M75.5996 75.7456L77.2347 75.4897" stroke="black" stroke-miterlimit="10" stroke-linecap="round"/>
<path opacity="0.3" d="M56.2776 81.0691L57.9127 80.8132" stroke="black" stroke-miterlimit="10" stroke-linecap="round"/>
<path opacity="0.3" d="M59.554 80.5574L61.1953 80.3015" stroke="black" stroke-miterlimit="10" stroke-linecap="round"/>
<path opacity="0.3" d="M62.8301 80.0457L64.4714 79.7898" stroke="black" stroke-miterlimit="10" stroke-linecap="round"/>
<path opacity="0.3" d="M66.1138 79.5341L67.7551 79.2844" stroke="black" stroke-miterlimit="10" stroke-linecap="round"/>
<path opacity="0.3" d="M69.3899 79.0283L71.0313 78.7725" stroke="black" stroke-miterlimit="10" stroke-linecap="round"/>
<path opacity="0.3" d="M72.6726 78.5166L74.3077 78.2607" stroke="black" stroke-miterlimit="10" stroke-linecap="round"/>
<path opacity="0.3" d="M75.9487 78.0049L77.5901 77.749" stroke="black" stroke-miterlimit="10" stroke-linecap="round"/>
<path opacity="0.3" d="M54.4053 69.0679L56.0466 68.812" stroke="black" stroke-miterlimit="10" stroke-linecap="round"/>
<path opacity="0.3" d="M57.688 68.5563L59.3293 68.3066" stroke="black" stroke-miterlimit="10" stroke-linecap="round"/>
<path opacity="0.3" d="M60.9651 68.0508L62.6064 67.7949" stroke="black" stroke-miterlimit="10" stroke-linecap="round"/>
<path opacity="0.3" d="M64.2478 67.5391L65.8829 67.2832" stroke="black" stroke-miterlimit="10" stroke-linecap="round"/>
<path opacity="0.3" d="M67.5239 67.0271L69.1653 66.7712" stroke="black" stroke-miterlimit="10" stroke-linecap="round"/>
<path opacity="0.3" d="M70.8066 66.5155L72.4418 66.2659" stroke="black" stroke-miterlimit="10" stroke-linecap="round"/>
<path opacity="0.3" d="M74.0828 66.01L75.7241 65.7542" stroke="black" stroke-miterlimit="10" stroke-linecap="round"/>
<path opacity="0.3" d="M76.0618 67.0022L54.4683 70.3598" stroke="black" stroke-miterlimit="10" stroke-linecap="round"/>
<path opacity="0.3" d="M60.4592 65.2361L68.7908 63.938" stroke="black" stroke-miterlimit="10" stroke-linecap="round"/>
<path opacity="0.3" d="M50.1116 88.5271L141.996 74.2292" stroke="black" stroke-miterlimit="10" stroke-linecap="round"/>
<path opacity="0.3" d="M51.2661 95.9287L143.145 81.6309" stroke="black" stroke-miterlimit="10" stroke-linecap="round"/>
<path opacity="0.3" d="M52.415 103.324L144.3 89.0264" stroke="black" stroke-miterlimit="10" stroke-linecap="round"/>
<path opacity="0.3" d="M53.5686 110.726L145.447 96.428" stroke="black" stroke-miterlimit="10" stroke-linecap="round"/>
<path opacity="0.3" d="M54.7175 118.128L146.602 103.83" stroke="black" stroke-miterlimit="10" stroke-linecap="round"/>
<path opacity="0.3" d="M55.8718 125.529L147.75 111.225" stroke="black" stroke-miterlimit="10" stroke-linecap="round"/>
<path opacity="0.3" d="M57.0208 132.925L148.905 118.627" stroke="black" stroke-miterlimit="10" stroke-linecap="round"/>
<path opacity="0.3" d="M58.1743 140.326L150.053 126.029" stroke="black" stroke-miterlimit="10" stroke-linecap="round"/>
<path opacity="0.3" d="M59.3232 147.728L151.208 133.43" stroke="black" stroke-miterlimit="10" stroke-linecap="round"/>
<path opacity="0.3" d="M60.4775 155.13L152.356 140.826" stroke="black" stroke-miterlimit="10" stroke-linecap="round"/>
<path opacity="0.3" d="M61.6257 162.525L153.51 148.228" stroke="black" stroke-miterlimit="10" stroke-linecap="round"/>
<path opacity="0.3" d="M62.78 169.927L154.665 155.629" stroke="black" stroke-miterlimit="10" stroke-linecap="round"/>
<path opacity="0.3" d="M63.929 177.329L155.814 163.031" stroke="black" stroke-miterlimit="10" stroke-linecap="round"/>
<path opacity="0.3" d="M66.6687 194.903L158.547 180.605" stroke="black" stroke-miterlimit="10" stroke-linecap="round"/>
<path opacity="0.3" d="M67.5796 200.763L159.458 186.459" stroke="black" stroke-miterlimit="10" stroke-linecap="round"/>
<path opacity="0.3" d="M68.4912 206.617L160.37 192.319" stroke="black" stroke-miterlimit="10" stroke-linecap="round"/>
<path d="M63.2181 95.648C63.2181 95.648 55.3795 104.129 59.9104 102.794C64.4413 101.458 70.6385 92.5962 69.3217 96.2783C68.0049 99.9604 68.0735 102.469 70.2017 99.9292C72.3298 97.3892 73.5218 96.8837 73.0912 98.213C72.6606 99.5423 74.4205 98.6374 74.4205 98.6374C74.4205 98.6374 78.7891 96.0661 78.3335 97.3892C77.878 98.7123 77.6034 98.7684 78.8391 98.575L82.8457 97.9509C82.8457 97.9509 82.5836 98.3128 86.2844 97.7324C89.9853 97.152 91.4269 96.3033 93.2805 96.0162" stroke="#263238" stroke-miterlimit="10" stroke-linecap="round"/>
<path d="M59.6594 107.231C59.6594 107.231 65.7006 103.449 66.462 104.279C67.2234 105.109 66.1812 106.532 68.9084 105.796C71.6357 105.059 74.1196 102.775 74.313 104.004C74.5065 105.234 76.2602 104.335 76.2602 104.335L77.8017 104.092C77.8017 104.092 80.6226 103.973 81.5025 103.518C82.3825 103.062 83.2937 98.8183 82.6197 104.61C81.9456 110.401 79.5803 105.396 85.2034 102.944C90.8264 100.491 91.8687 103.168 91.8687 103.168C92.4911 103.028 93.096 102.818 93.6723 102.544C94.8518 102.039 95.894 100.616 97.0112 101.708C98.1283 102.8 100.132 99.33 100.132 99.33C100.911 99.4755 101.68 99.6714 102.434 99.9167C103.157 100.169 103.925 100.265 104.687 100.198C105.63 100.234 106.573 100.192 107.508 100.073C108.757 99.8792 109.786 98.4563 110.804 98.9306C111.821 99.4049 113.362 95.055 112.588 100.229C111.815 105.402 106.809 107.761 108.844 104.597C110.64 101.834 112.946 99.4379 115.64 97.5389C117.918 95.9225 118.58 96.1347 119.079 97.3205C119.578 98.5062 120.196 98.4064 121.382 97.9071C122.568 97.4078 121.55 96.9335 122.568 97.4078C122.906 97.6004 123.28 97.7243 123.666 97.7725C124.053 97.8207 124.445 97.7922 124.821 97.6887C125.75 97.5451 121.413 100.116 125.75 97.5451C130.088 94.9739 131.636 84.6265 129.364 90.3494C127.092 96.0723 127.954 97.5202 130.993 96.7276" stroke="#263238" stroke-miterlimit="10" stroke-linecap="round"/>
<path d="M60.3154 117.572C60.3154 117.572 67.7296 110.42 67.274 109.54C66.8184 108.66 64.4531 109.665 62.7244 112.773C60.9957 115.881 62.2127 117.591 66.8621 114.976C71.5116 112.361 64.7465 115.6 69.5207 115.825C74.295 116.049 75.7055 112.966 75.849 113.89C75.9926 114.814 74.4011 114.745 78.1519 114.514C81.9027 114.283 80.0679 112.642 83.9123 112.985C87.7566 113.328 89.4666 112.118 89.4666 112.118L91.9318 111.737C91.9318 111.737 86.9391 112.193 93.4234 111.188C99.9077 110.183 102.754 102.157 99.6331 106.432C96.5126 110.707 97.9792 112.049 101.181 110.295L104.382 108.535C104.382 108.535 108.426 104.117 106.517 110.096C104.607 116.074 102.348 111.693 109.456 108.691C116.565 105.69 116.384 108.56 118.755 107.562C121.127 106.563 120.74 104.092 122.312 106.058C123.885 108.024 123.785 107.412 126.25 107.025C128.716 106.638 128.054 106.401 130.213 106.095L134.869 105.359" stroke="#263238" stroke-miterlimit="10" stroke-linecap="round"/>
<path d="M61.5635 139.802C61.5635 139.802 66.7309 136.47 67.5547 131.602C68.3785 126.734 64.3032 133.056 64.7463 139.933C65.1894 146.811 62.768 137.399 69.9762 135.015C77.1844 132.631 69.3521 137.013 70.151 138.136C70.9498 139.259 76.8599 134.566 76.7913 136.151C76.7226 137.736 78.0394 138.167 81.6716 135.078C85.3038 131.989 79.3937 132.581 79.1129 134.847C78.832 137.112 80.5857 136.195 85.0667 134.547C89.5476 132.9 85.1603 135.171 87.9375 134.735C90.7147 134.298 96.8245 128.931 95.62 131.327C94.4155 133.724 95.5763 135.128 96.9244 133.655C98.2724 132.182 101.143 128.257 101.38 129.798C101.523 130.708 101.326 131.639 100.825 132.413" stroke="#263238" stroke-miterlimit="10" stroke-linecap="round"/>
<path opacity="0.3" d="M32.5999 81.0754C32.4794 80.9479 32.3501 80.8291 32.2129 80.7197C31.817 80.4112 31.3827 80.1553 30.9211 79.9583L30.6465 79.8585H30.5778C28.1189 79.0971 19.7124 78.7351 16.8915 78.6103C16.1879 78.5858 15.4966 78.8 14.9301 79.2181C14.3636 79.6362 13.9551 80.2336 13.7711 80.9132V80.9818C13.172 83.2722 4.62195 139.777 4.62195 139.777C4.62195 139.777 4.55954 141.025 4.47217 142.979C4.43472 143.834 4.39728 144.851 4.34735 145.881C4.34735 146.149 4.34735 146.418 4.34735 146.692C4.34735 147.241 4.30367 147.803 4.2787 148.371C4.19757 150.374 4.12268 152.484 4.06651 154.412C4.02283 155.785 3.99162 157.071 3.9729 158.157C3.9729 159.024 3.9729 159.761 3.9729 160.322C3.96569 161.63 4.03863 162.937 4.19133 164.235C4.43472 165.845 4.99641 166.588 6.38188 166.832C6.72513 166.894 7.2244 166.969 7.82977 167.044L8.20422 167.087L9.92047 167.275L10.3948 167.318L11.8614 167.437L12.8724 167.499L13.8897 167.549C14.5575 167.58 15.219 167.593 15.8493 167.593C16.7672 167.606 17.6849 167.554 18.5953 167.437H18.6764L18.9074 167.393L19.1632 167.331H19.2132L19.469 167.25L19.8997 167.087L20.2928 166.925C20.8225 166.713 21.3269 166.443 21.7969 166.12C21.9488 166.012 22.0946 165.895 22.2337 165.771C22.3669 165.654 22.4917 165.529 22.6082 165.396L22.7705 165.203C22.9979 164.917 23.2064 164.617 23.3946 164.304C23.4256 164.255 23.4508 164.203 23.4694 164.148L23.5069 164.054L23.5693 163.892C23.5831 163.843 23.5998 163.795 23.6192 163.749C23.6192 163.68 23.6567 163.624 23.6816 163.549L23.7378 163.374C23.7378 163.293 23.7815 163.218 23.8065 163.131C23.8314 163.043 23.8501 162.993 23.8689 162.925C23.8876 162.856 23.9188 162.738 23.95 162.638C23.9812 162.538 23.9937 162.469 24.0186 162.388C24.0436 162.307 24.0686 162.188 24.0998 162.076C24.131 161.964 24.1497 161.889 24.1747 161.795C24.1996 161.702 24.2308 161.57 24.262 161.446L24.3369 161.152L24.4305 160.772C24.4305 160.666 24.4867 160.547 24.5179 160.435L24.6115 160.035C24.6427 159.923 24.6677 159.798 24.6989 159.679C24.7301 159.561 24.7676 159.399 24.7988 159.255L24.8924 158.874C24.8924 158.731 24.961 158.587 24.9922 158.438C25.0234 158.288 25.0546 158.163 25.0921 158.026C25.1295 157.888 25.1607 157.726 25.1919 157.57C25.1948 157.526 25.1948 157.483 25.1919 157.439C25.1919 157.352 25.2356 157.264 25.2543 157.177C25.2731 157.09 25.3292 156.84 25.3729 156.665C25.4166 156.49 25.4291 156.403 25.4603 156.266C25.4915 156.128 25.5352 155.922 25.5789 155.748L25.6725 155.336L25.7848 154.818C25.7848 154.668 25.8535 154.512 25.8847 154.362L25.997 153.869C25.997 153.713 26.0657 153.551 26.0969 153.395L26.2092 152.902C26.2092 152.827 26.2092 152.752 26.2529 152.677C26.2966 152.602 26.2966 152.502 26.3153 152.415C26.334 152.328 26.3839 152.091 26.4152 151.928C26.4464 151.766 26.4838 151.61 26.5212 151.448C26.5587 151.285 26.5899 151.111 26.6273 150.948C26.6648 150.786 26.696 150.624 26.7334 150.462C26.7709 150.299 26.7958 150.15 26.8333 149.994C26.8707 149.838 26.9019 149.65 26.9394 149.476L27.033 149.026C27.0704 148.864 27.1017 148.708 27.1329 148.552C27.1641 148.396 27.2015 148.221 27.2389 148.059L27.3326 147.591C27.3326 147.447 27.395 147.304 27.4199 147.16C27.4449 147.017 27.4636 146.948 27.4886 146.842L27.526 146.661C27.526 146.524 27.5822 146.386 27.6072 146.249C27.6321 146.112 27.6758 145.937 27.707 145.781C27.7382 145.625 27.7569 145.513 27.7881 145.382L27.8818 144.901C27.8818 144.795 27.9254 144.683 27.9442 144.577L28.0191 144.215C28.0191 144.171 28.0191 144.127 28.0191 144.077C28.0191 144.027 28.0627 143.871 28.0815 143.765L28.1751 143.31L28.2312 142.998C28.2625 142.854 28.2874 142.711 28.3124 142.579L28.3685 142.305L28.4434 141.887C28.4434 141.812 28.4434 141.743 28.4871 141.675L28.562 141.269L28.5995 141.069C28.5995 140.944 28.6431 140.826 28.6619 140.713C28.6619 140.564 28.7118 140.414 28.7368 140.283C28.8429 139.659 28.9864 138.279 29.1611 136.351C29.2298 135.627 29.2984 134.828 29.3733 133.955C29.6417 130.772 29.9537 126.678 30.2845 122.184C30.2845 121.779 30.3407 121.367 30.3719 120.936C31.6201 103.948 33.0055 82.1489 33.0055 82.1489C33.0135 81.9519 32.9817 81.7553 32.912 81.5708C32.8423 81.3864 32.7362 81.2179 32.5999 81.0754Z" fill="black"/>
<path d="M1.70769 139.153C1.70769 139.153 0.940066 155.23 1.02744 159.686C1.11481 164.142 1.2209 165.808 3.43018 166.201C5.63946 166.594 14.1645 167.449 16.5361 166.588C18.9076 165.727 19.6565 164.965 20.4553 163.649C21.2542 162.332 25.0112 144.57 25.86 139.584C26.7087 134.597 30.135 81.4685 30.135 81.4685C30.135 81.4685 30.266 80.3389 27.9881 79.3341C26.1158 78.4916 16.9292 78.086 13.9586 77.9861C13.2505 77.9541 12.5526 78.164 11.9798 78.5815C11.407 78.9989 10.9933 79.5989 10.8069 80.2828C10.8069 80.2828 10.8069 80.3327 10.8069 80.3514C10.239 82.6418 1.70769 139.153 1.70769 139.153Z" fill="#325294"/>
<path opacity="0.5" d="M15.2751 166.85C15.6998 166.811 16.1186 166.723 16.5233 166.588C18.9198 165.727 19.6438 164.965 20.4426 163.649C21.2414 162.332 24.9985 144.57 25.8472 139.584C26.696 134.597 30.1222 81.4685 30.1222 81.4685C30.1222 81.4685 30.2533 80.3389 27.9754 79.3342C27.7553 79.2421 27.5277 79.169 27.2951 79.1157C26.8021 91.4415 25.1358 106.076 22.2088 123.464C19.4753 139.915 16.3735 159.798 15.2751 166.85Z" fill="black"/>
<path d="M1.70769 139.153C1.70769 139.153 0.940066 155.23 1.02744 159.686C1.11481 164.142 1.2209 165.808 3.43018 166.201C5.63946 166.594 14.1645 167.449 16.5361 166.588C18.9076 165.727 19.6565 164.965 20.4553 163.649C21.2542 162.332 25.0112 144.57 25.86 139.584C26.7087 134.597 30.135 81.4685 30.135 81.4685C30.135 81.4685 30.266 80.3389 27.9881 79.3341C26.1158 78.4916 16.9292 78.086 13.9586 77.9861C13.2505 77.9541 12.5526 78.164 11.9798 78.5815C11.407 78.9989 10.9933 79.5989 10.8069 80.2828C10.8069 80.2828 10.8069 80.3327 10.8069 80.3514C10.239 82.6418 1.70769 139.153 1.70769 139.153Z" stroke="#263238" stroke-linecap="round" stroke-linejoin="round"/>
<path d="M19.1446 141.019C16.4797 141.019 5.00272 139.808 3.22406 139.428C2.71778 139.322 2.21774 139.189 1.72625 139.028V139.153C1.72625 139.153 0.95862 155.23 1.04599 159.686C1.13337 164.142 1.23946 165.808 3.44874 166.201C5.65801 166.594 14.1831 167.449 16.5546 166.588C18.9262 165.727 19.6751 164.965 20.4739 163.649C21.2727 162.332 24.8425 145.55 25.8036 140.021C23.5569 141.188 21.3351 141 19.1446 141.019Z" fill="#263238"/>
<path opacity="0.5" d="M15.2751 166.85C15.6998 166.811 16.1186 166.723 16.5233 166.588C18.9198 165.727 19.6438 164.965 20.4426 163.649C21.2414 162.332 24.9985 144.57 25.8472 139.584C26.696 134.597 30.1222 81.4685 30.1222 81.4685C30.1222 81.4685 30.2533 80.3389 27.9754 79.3342C27.7553 79.2421 27.5277 79.169 27.2951 79.1157C26.8021 91.4415 25.1358 106.076 22.2088 123.464C19.4753 139.915 16.3735 159.798 15.2751 166.85Z" fill="black"/>
<path opacity="0.26" d="M19.1694 142.505C20.9223 142.43 22.6615 142.162 24.3556 141.706" stroke="white" stroke-linecap="round" stroke-linejoin="round"/>
<path d="M2.61865 140.663C2.61865 140.663 16.7044 142.592 19.1695 142.504" stroke="white" stroke-linecap="round" stroke-linejoin="round"/>
<path d="M19.1446 141.019C16.4797 141.019 5.00272 139.808 3.22406 139.428C2.71778 139.322 2.21774 139.189 1.72625 139.028V139.153C1.72625 139.153 0.95862 155.23 1.04599 159.686C1.13337 164.142 1.23946 165.808 3.44874 166.201C5.65801 166.594 14.1831 167.449 16.5546 166.588C18.9262 165.727 19.6751 164.965 20.4739 163.649C21.2727 162.332 24.8425 145.55 25.8036 140.021C23.5569 141.188 21.3351 141 19.1446 141.019Z" stroke="#263238" stroke-linecap="round" stroke-linejoin="round"/>
<path d="M202.694 75.0994C215.812 68.2678 220.908 52.0957 214.076 38.978C207.245 25.8603 191.073 20.7644 177.955 27.596C164.837 34.4275 159.741 50.5996 166.573 63.7173C173.405 76.835 189.577 81.9309 202.694 75.0994Z" fill="#263238" stroke="#263238" stroke-linecap="round" stroke-linejoin="round"/>
<path d="M214.897 51.9948C216.723 37.3179 206.305 23.94 191.628 22.1145C176.951 20.289 163.573 30.7072 161.748 45.3841C159.922 60.061 170.34 73.4388 185.017 75.2644C199.694 77.0899 213.072 66.6717 214.897 51.9948Z" fill="white" stroke="#263238" stroke-linecap="round" stroke-linejoin="round"/>
<path d="M212.128 52.6036C214.288 39.4581 205.382 27.0508 192.237 24.8911C179.092 22.7314 166.684 31.6371 164.525 44.7825C162.365 57.928 171.271 70.3353 184.416 72.495C197.561 74.6547 209.969 65.749 212.128 52.6036Z" fill="#263238" stroke="#263238" stroke-linecap="round" stroke-linejoin="round"/>
<path opacity="0.5" d="M185.501 30.5617C185.501 30.5617 182.842 23.9089 178.181 19.2345C175.263 16.309 166.747 14.0484 160.783 12.7663C158.873 12.3556 157.637 14.7021 158.913 16.1817C160.311 17.8021 161.634 19.4871 162.878 21.2316C167.203 27.2166 181.513 40.8592 181.513 40.8592C181.513 40.8592 174.523 34.8679 168.201 34.2064C161.879 33.5449 145.915 36.865 144.917 36.865C143.918 36.865 150.902 39.5299 155.894 41.8577C160.887 44.1856 180.178 46.1827 180.178 46.1827C180.178 46.1827 171.865 48.5105 166.204 50.5076C160.544 52.5047 155.227 67.1396 155.227 67.1396C155.227 67.1396 162.547 60.4868 168.869 58.8205C175.191 57.1542 184.172 54.1835 184.172 54.1835C184.172 54.1835 178.518 60.5055 177.188 64.8305C176.81 66.0601 176.62 67.7467 176.541 69.5311C176.446 71.6981 179.565 72.1989 180.605 70.2955C181.483 68.6894 182.467 67.1969 183.504 66.1598C187.161 62.5026 191.155 56.1743 191.155 56.1743C192.998 59.1789 194.665 62.2879 196.148 65.4858C197.312 67.9645 198.286 70.9519 199.013 73.5271C199.539 75.3874 202.11 75.6158 202.746 73.7905C203.729 70.9718 204.624 67.703 204.467 65.4858C204.136 60.8238 199.15 52.5172 199.15 52.5172C199.15 52.5172 202.476 50.1893 207.463 52.1864C212.449 54.1835 221.105 62.5026 221.105 62.5026C221.105 62.5026 219.108 51.5249 215.782 47.1999C212.456 42.875 198.151 41.5395 198.151 41.5395C198.151 41.5395 206.134 36.8837 211.126 35.8852C212.858 35.5388 214.791 35.5927 216.575 35.811C218.518 36.0485 220.031 33.7622 218.689 32.3383C215.964 29.4485 212.31 26.2775 209.129 25.906C203.144 25.207 194.151 34.5559 194.151 34.5559C194.151 34.5559 196.148 24.5705 196.816 21.2503C197.218 19.2524 196.894 15.1278 196.573 12.1596C196.407 10.632 194.704 9.99188 193.642 11.1022C192.2 12.6094 190.261 14.8609 188.166 17.9239C186.897 19.7441 186.007 21.8009 185.549 23.972C185.092 26.1431 185.075 28.3841 185.501 30.5617Z" fill="#98A8C9"/>
<path d="M192.055 20.439C192.286 19.4779 192.541 18.5293 192.822 17.5869" stroke="#263238" stroke-width="0.5" stroke-linecap="round" stroke-linejoin="round"/>
<path d="M169.818 20.4326C172.939 22.7105 176.827 25.8372 178.83 28.5458C182.487 33.5385 189.808 44.1855 189.808 44.1855C189.6 37.0369 190.167 29.8868 191.499 22.8603" stroke="#263238" stroke-width="0.5" stroke-linecap="round" stroke-linejoin="round"/>
<path d="M165.212 17.2561C165.212 17.2561 166.18 17.8802 167.634 18.8725" stroke="#263238" stroke-width="0.5" stroke-linecap="round" stroke-linejoin="round"/>
<path d="M189.826 44.1981C189.826 44.1981 202.47 31.5541 207.794 30.5555C213.117 29.557 217.779 33.5512 217.779 33.5512" stroke="#263238" stroke-width="0.5" stroke-linecap="round" stroke-linejoin="round"/>
<path d="M167.234 54.8076C164.157 56.7673 163.876 57.8719 163.876 57.8719" stroke="#263238" stroke-width="0.5" stroke-linecap="round" stroke-linejoin="round"/>
<path d="M217.442 55.8497C217.442 55.8497 215.445 50.857 208.456 48.5291C201.466 46.2013 190.494 45.8643 190.494 45.8643C190.494 45.8643 175.098 50.9069 169.469 53.5343" stroke="#263238" stroke-width="0.5" stroke-linecap="round" stroke-linejoin="round"/>
<path d="M183.772 43.967C187.517 45.0467 190.494 45.8393 190.494 45.8393" stroke="#263238" stroke-width="0.5" stroke-linecap="round" stroke-linejoin="round"/>
<path d="M160.338 38.0569C163.951 38.2753 168.607 38.7683 171.197 39.8792C173.306 40.7842 177.469 42.0947 181.388 43.2618" stroke="#263238" stroke-width="0.5" stroke-linecap="round" stroke-linejoin="round"/>
<path d="M155.226 37.8821C155.226 37.8821 156.443 37.8821 158.241 37.9507" stroke="#263238" stroke-width="0.5" stroke-linecap="round" stroke-linejoin="round"/>
<path d="M189.827 47.8613C189.827 47.8613 180.515 61.8347 179.841 65.1611C179.441 67.1343 179.217 69.1394 179.173 71.1523" stroke="#263238" stroke-width="0.5" stroke-linecap="round" stroke-linejoin="round"/>
<path d="M193.97 52.2612C195.761 54.5766 197.914 57.6596 198.807 60.1747C199.859 63.2033 200.64 66.3193 201.141 69.4861" stroke="#263238" stroke-width="0.5" stroke-linecap="round" stroke-linejoin="round"/>
<path d="M191.156 48.8599C191.156 48.8599 191.899 49.6837 192.928 50.9506" stroke="#263238" stroke-width="0.5" stroke-linecap="round" stroke-linejoin="round"/>
<path d="M177.401 28.0936C177.951 28.5981 180.391 27.6102 180.345 26.8652C180.214 24.7423 180.234 22.3267 180.621 19.9709C181.075 17.2037 183.809 13.1754 186.801 9.46031C189.27 6.39549 194.206 8.7526 194.22 12.6877C194.22 15.5075 193.683 20.0831 193.018 24.6638C192.945 25.1686 197.084 26.6944 197.465 26.3553C199.77 24.3049 204.466 21.6858 208.782 19.4614C210.734 18.4554 213.902 21.8284 212.819 23.7394C212.517 24.2726 212.218 24.804 211.925 25.3255C210.59 27.7044 206.361 32.0593 202.429 35.8508C200.84 37.3831 202.562 40.2574 204.662 39.5784C206.012 39.1422 207.356 38.723 208.592 38.3628C211.52 37.5095 216.287 39.3663 220.268 41.3988C222.127 42.3481 221.242 45.1756 219.158 45.2827C216.5 45.4192 213.634 45.8047 211.307 46.6944C208.858 47.6309 205.936 48.6438 203.314 49.521C201.37 50.1716 201.441 53.2724 203.354 54.0103C205.111 54.688 206.826 55.5001 208.018 56.4114C209.03 57.1849 210.159 58.4357 211.256 59.8316C212.598 61.5377 210.35 63.7715 208.392 62.8331C206.753 62.0471 205.095 61.4152 203.656 61.1795C200.691 60.6938 197.11 59.543 194.628 58.6634C193.231 58.1683 191.749 59.2654 191.91 60.739C192.175 63.1768 192.538 65.6034 192.996 68.0133C193.493 70.7032 194.443 73.6954 195.355 76.2104C196.013 78.0285 194.057 79.7148 192.475 78.6022C190.036 76.8859 187.406 74.7544 186.244 72.8624C184.466 69.9686 183.558 64.075 183.195 61.0705C183.069 60.028 182.174 59.2566 181.179 59.5936C179.739 60.0818 177.7 61.2071 176.046 63.8007C174.542 66.1591 173.232 70.4874 172.322 74.096C171.848 75.9775 169.285 76.2416 168.617 74.4198C167.442 71.2167 166.288 67.3291 166.379 64.5995C166.48 61.5474 169.921 57.2524 172.932 54.0612C174.267 52.6464 173.148 50.2464 171.234 50.5921C168.58 51.0715 165.622 51.7612 163.564 52.6919C161.95 53.4221 160.407 54.5987 159.082 55.8224C157.645 57.1491 155.085 56.1808 155.341 54.2421C155.862 50.2971 156.978 45.5746 159.364 43.4241C161.635 41.3781 166.024 40.9633 169.801 41.0519C171.797 41.0988 173.055 38.4149 171.596 37.0527L166.654 32.4402C165.799 31.65 164.799 30.2482 163.853 28.7459C162.017 25.8319 164.041 22.561 167.389 23.3705C168.68 23.6827 170.136 24.1107 171.746 24.6952C173.84 25.4366 175.763 26.5924 177.401 28.0936Z" fill="#325294"/>
<path d="M170.049 29.0263C169.3 28.3814 168.539 27.7573 167.765 27.1541" stroke="#263238" stroke-width="0.5" stroke-linecap="round" stroke-linejoin="round"/>
<path d="M188.092 16.064C186.887 19.7274 185.552 24.5391 185.514 27.9217C185.452 34.1064 185.72 47.025 185.72 47.025C181.722 41.095 177.091 35.6166 171.909 30.6864" stroke="#263238" stroke-width="0.5" stroke-linecap="round" stroke-linejoin="round"/>
<path d="M190.001 10.7842C190.001 10.7842 189.564 11.8514 188.971 13.5115" stroke="#263238" stroke-width="0.5" stroke-linecap="round" stroke-linejoin="round"/>
<path d="M185.719 47.0313C185.719 47.0313 168.076 44.1355 163.171 46.4072C158.266 48.6789 156.812 54.6577 156.812 54.6577" stroke="#263238" stroke-width="0.5" stroke-linecap="round" stroke-linejoin="round"/>
<path d="M210.241 42.4382C213.885 42.2384 214.753 42.9749 214.753 42.9749" stroke="#263238" stroke-width="0.5" stroke-linecap="round" stroke-linejoin="round"/>
<path d="M170.08 72.594C170.08 72.594 168.794 67.3766 173.107 61.4103C177.419 55.444 186.15 48.7725 186.15 48.7725C186.15 48.7725 201.59 43.8859 207.7 42.7375" stroke="#263238" stroke-width="0.5" stroke-linecap="round" stroke-linejoin="round"/>
<path d="M190.5 43.3118C188.11 46.3573 186.132 48.7725 186.132 48.7725" stroke="#263238" stroke-width="0.5" stroke-linecap="round" stroke-linejoin="round"/>
<path d="M206.091 24.8513C203.276 27.1355 199.787 30.2497 198.327 32.6649C197.141 34.6308 194.532 38.1257 192.03 41.3585" stroke="#263238" stroke-width="0.5" stroke-linecap="round" stroke-linejoin="round"/>
<path d="M210.134 21.731C210.134 21.731 209.148 22.4362 207.732 23.5408" stroke="#263238" stroke-width="0.5" stroke-linecap="round" stroke-linejoin="round"/>
<path d="M187.854 50.002C187.854 50.002 203.569 55.9183 206.052 58.2337C207.525 59.6041 208.874 61.1015 210.084 62.7084" stroke="#263238" stroke-width="0.5" stroke-linecap="round" stroke-linejoin="round"/>
<path d="M187.056 55.9871C186.949 58.9203 186.999 62.6835 187.736 65.2423C188.65 68.3163 189.837 71.3029 191.281 74.1668" stroke="#263238" stroke-width="0.5" stroke-linecap="round" stroke-linejoin="round"/>
<path d="M187.355 51.5935C187.355 51.5935 187.23 52.6857 187.137 54.3208" stroke="#263238" stroke-width="0.5" stroke-linecap="round" stroke-linejoin="round"/>
<path opacity="0.3" d="M193.664 186.696C192.466 183.32 192.254 165.608 192.522 152.995L199.531 154.512C200.748 154.775 202.019 154.587 203.107 153.981C203.371 153.834 203.622 153.663 203.856 153.47C204.084 153.283 204.293 153.074 204.48 152.846C205.144 152.111 205.578 151.197 205.728 150.218C205.754 150.044 205.771 149.869 205.778 149.694C205.826 148.682 205.572 147.678 205.048 146.811C204.878 146.529 204.681 146.263 204.461 146.018C203.662 145.131 202.578 144.551 201.397 144.377L192.934 143.129C193.009 142.03 193.096 141.175 193.184 140.632C193.335 139.809 193.398 138.972 193.371 138.136L193.951 136.264C194.806 133.524 194.157 129.492 191.83 127.202C189.502 124.911 181.22 120.88 178.799 118.764C176.377 116.648 158.247 103.736 154.996 104.497C151.744 105.259 147.9 109.896 144.623 112.461C141.347 115.026 129.545 124.705 129.545 124.705C129.583 124.3 123.479 126.765 121.994 129.155C121.882 129.262 121.796 129.393 121.74 129.537C121.685 129.682 121.663 129.837 121.676 129.991C121.85 130.672 122.188 131.299 122.66 131.819C123.132 132.339 123.724 132.735 124.384 132.975L119.092 132.195C118.792 132.151 118.486 132.193 118.21 132.317C117.934 132.441 117.698 132.641 117.532 132.893C115.659 132.613 111.84 132.195 109.082 132.95C109.082 132.95 113.581 135.153 116.945 135.889C117.034 136.149 117.189 136.382 117.394 136.565C117.6 136.748 117.849 136.874 118.118 136.931L125.139 138.435C125.011 138.843 124.915 139.261 124.852 139.684C124.803 140.069 124.856 140.461 125.008 140.819C125.04 141.057 125.083 141.3 125.139 141.556C126.138 145.8 131.53 150.955 135.462 154.362C139.394 157.77 143.157 163.605 145.491 170.37C147.825 177.135 149.285 183.37 154.478 190.235C155.361 191.395 156.322 192.494 157.355 193.524L205.765 224.104C205.765 224.104 195.406 191.658 193.664 186.696ZM130.5 133.474C130.419 133.599 130.338 133.724 130.269 133.855L128.934 133.655C129.46 133.631 129.983 133.571 130.5 133.474Z" fill="black"/>
<path d="M177.407 240.73L146.502 187.308C146.502 187.308 143.044 163.037 135.674 153.27C128.303 143.503 117.969 136.376 123.966 131.383C129.964 126.391 145.185 116.842 148.306 117.454C151.426 118.065 172.433 128.687 178.368 130.403C184.303 132.12 186.381 134.641 185.495 139.765C184.609 144.889 184.247 180.817 186.001 185.779C187.754 190.74 207.263 226.101 207.263 226.101" fill="white"/>
<path d="M186.044 185.791C184.278 180.83 184.653 144.914 185.539 139.777C186.082 136.657 185.508 134.479 183.617 132.912C183.684 135.759 183.221 138.593 182.25 141.269C180.584 145.993 179.754 149.326 179.754 149.326C179.754 149.326 179.479 166.27 180.59 174.914C181.701 183.557 187.255 198.804 192.535 207.142C196.442 213.308 202.015 218.862 204.655 221.34C199.225 211.454 187.368 189.611 186.044 185.791Z" fill="#325294"/>
<path opacity="0.5" d="M186.044 185.791C184.278 180.83 184.653 144.914 185.539 139.777C186.082 136.657 185.508 134.479 183.617 132.912C183.684 135.759 183.221 138.593 182.25 141.269C180.584 145.993 179.754 149.326 179.754 149.326C179.754 149.326 179.479 166.27 180.59 174.914C181.701 183.557 187.255 198.804 192.535 207.142C196.442 213.308 202.015 218.862 204.655 221.34C199.225 211.454 187.368 189.611 186.044 185.791Z" fill="white"/>
<path d="M177.407 240.73L146.502 187.308C146.502 187.308 143.044 163.037 135.674 153.27C128.303 143.503 117.969 136.376 123.966 131.383C129.964 126.391 145.185 116.842 148.306 117.454C151.426 118.065 172.433 128.687 178.368 130.403C184.303 132.12 186.381 134.641 185.495 139.765C184.609 144.889 184.247 180.817 186.001 185.779C187.754 190.74 207.263 226.101 207.263 226.101" stroke="#263238" stroke-miterlimit="10" stroke-linecap="round"/>
<path d="M115.822 132.344C120.669 132.077 125.362 130.545 129.433 127.901C136.379 123.457 134.157 122.621 134.157 122.621C134.157 122.621 137.765 121.51 139.986 120.68C141.849 119.849 143.619 118.824 145.266 117.622C145.266 117.622 154.159 123.457 158.322 125.111C160.316 125.958 162.368 126.659 164.463 127.208L170.273 134.834C167.007 136.375 164.221 138.776 162.216 141.781C158.884 146.773 154.727 153.445 152.768 154.262C150.808 155.08 151.657 155.929 143.044 152.596C134.432 149.263 115.266 137.35 115.822 132.344Z" fill="#325294"/>
<path opacity="0.5" d="M115.822 132.344C120.669 132.077 125.362 130.545 129.433 127.901C136.379 123.457 134.157 122.621 134.157 122.621C134.157 122.621 137.765 121.51 139.986 120.68C141.849 119.849 143.619 118.824 145.266 117.622C145.266 117.622 154.159 123.457 158.322 125.111C160.316 125.958 162.368 126.659 164.463 127.208L170.273 134.834C167.007 136.375 164.221 138.776 162.216 141.781C158.884 146.773 154.727 153.445 152.768 154.262C150.808 155.08 151.657 155.929 143.044 152.596C134.432 149.263 115.266 137.35 115.822 132.344Z" fill="white"/>
<path d="M131.211 134.909C131.211 134.909 137.889 134.086 142.595 125.517C142.595 125.517 148.137 127.863 153.903 126.359" stroke="#263238" stroke-miterlimit="10" stroke-linecap="round"/>
<path d="M149.317 128.712C149.317 128.712 146.096 137.237 152.886 148.514" stroke="#263238" stroke-miterlimit="10" stroke-linecap="round"/>
<path d="M142.184 129.492C142.184 129.492 145.547 133.63 146.097 137.237" stroke="#263238" stroke-miterlimit="10" stroke-linecap="round"/>
<path d="M148.48 152.503C148.48 152.503 154.097 148.952 157.086 145.257C160.076 141.562 161.424 137.668 166.136 136.114" stroke="#263238" stroke-miterlimit="10" stroke-linecap="round"/>
<path d="M142.595 125.517L141.228 123.9" stroke="#263238" stroke-miterlimit="10" stroke-linecap="round"/>
<path d="M111.016 132.195C111.016 132.195 105.212 131.021 101.43 132.057C101.43 132.057 106.997 134.785 110.373 135.178L111.016 132.195Z" fill="#263238" stroke="#263238" stroke-miterlimit="10" stroke-linecap="round"/>
<path d="M193.721 143.516L111.441 131.29C111.049 131.231 110.649 131.321 110.319 131.541C109.989 131.762 109.753 132.097 109.656 132.482L109.282 134.067C109.228 134.275 109.217 134.491 109.25 134.704C109.282 134.916 109.357 135.119 109.47 135.302C109.583 135.484 109.732 135.642 109.908 135.766C110.084 135.889 110.282 135.976 110.492 136.02L191.905 153.62C192.592 153.768 193.303 153.774 193.993 153.637C194.683 153.5 195.337 153.223 195.916 152.823C196.494 152.422 196.985 151.908 197.356 151.311C197.728 150.714 197.973 150.046 198.077 149.351C198.175 148.681 198.14 147.999 197.974 147.344C197.808 146.688 197.514 146.071 197.11 145.529C196.705 144.987 196.197 144.53 195.616 144.185C195.034 143.839 194.39 143.612 193.721 143.516Z" fill="#325294" stroke="#263238" stroke-miterlimit="10" stroke-linecap="round"/>
<path d="M193.721 143.516L181.283 141.643C180.147 142.332 179.26 143.364 178.752 144.591C178.243 145.818 178.14 147.175 178.455 148.465C178.665 149.375 179.075 150.228 179.654 150.961L191.88 153.601C192.567 153.749 193.278 153.755 193.968 153.618C194.658 153.481 195.312 153.204 195.891 152.804C196.469 152.404 196.959 151.889 197.331 151.292C197.703 150.695 197.948 150.028 198.052 149.332C198.245 147.987 197.898 146.62 197.086 145.53C196.274 144.441 195.065 143.716 193.721 143.516Z" fill="#263238" stroke="#263238" stroke-miterlimit="10" stroke-linecap="round"/>
<path d="M160.42 151.192C160.42 151.192 153.343 152.852 150.179 152.103C147.015 151.354 140.555 142.267 136.118 139.278C131.681 136.289 128.978 135.577 124.335 134.878C119.692 134.179 116.484 136.42 117.47 140.67C118.456 144.92 123.855 150.069 127.793 153.476C131.731 156.884 135.488 162.713 137.822 169.484C140.156 176.255 141.616 182.478 146.809 189.318C152.001 196.158 158.479 198.972 160.657 199.353" fill="white"/>
<path d="M156.906 152.197L156.407 151.941C154.26 152.253 151.745 152.471 150.166 152.103C147.008 151.354 140.542 142.267 136.111 139.278C131.68 136.289 128.972 135.577 124.329 134.878C123.588 134.763 122.836 134.73 122.088 134.778C125.667 135.677 129.051 137.223 132.074 139.34C137.016 142.91 140.586 151.966 146.072 153.613C151.558 155.261 156.906 152.197 156.906 152.197Z" fill="#325294"/>
<path opacity="0.5" d="M156.906 152.197L156.407 151.941C154.26 152.253 151.745 152.471 150.166 152.103C147.008 151.354 140.542 142.267 136.111 139.278C131.68 136.289 128.972 135.577 124.329 134.878C123.588 134.763 122.836 134.73 122.088 134.778C125.667 135.677 129.051 137.223 132.074 139.34C137.016 142.91 140.586 151.966 146.072 153.613C151.558 155.261 156.906 152.197 156.906 152.197Z" fill="white"/>
<path d="M160.42 151.192C160.42 151.192 153.343 152.852 150.179 152.103C147.015 151.354 140.555 142.267 136.118 139.278C131.681 136.289 128.978 135.577 124.335 134.878C119.692 134.179 116.484 136.42 117.47 140.67C118.456 144.92 123.855 150.069 127.793 153.476C131.731 156.884 135.488 162.713 137.822 169.484C140.156 176.255 141.616 182.478 146.809 189.318C152.001 196.158 158.479 198.972 160.657 199.353" stroke="#263238" stroke-miterlimit="10" stroke-linecap="round"/>
<path d="M121.04 143.715C121.04 143.715 121.377 140.052 126.394 136.638C126.394 136.638 123.043 134.435 120.746 134.828C118.45 135.221 117.545 136.476 117.195 138.797C116.846 141.119 121.04 143.715 121.04 143.715Z" fill="white" stroke="#263238" stroke-miterlimit="10" stroke-linecap="round"/>
<path d="M124.335 147.603C124.72 147.992 125.152 148.331 125.621 148.614" stroke="#263238" stroke-miterlimit="10" stroke-linecap="round"/>
<path d="M128.004 138.947C128.004 138.947 122.674 141.693 123.529 145.974" stroke="#263238" stroke-miterlimit="10" stroke-linecap="round"/>
<path d="M185.421 138.155L186.269 135.415C187.118 132.681 186.475 128.65 184.147 126.359C181.82 124.069 173.538 120.037 171.116 117.922C168.695 115.806 150.571 102.862 147.351 103.655C144.131 104.448 140.255 109.053 136.973 111.612C133.69 114.171 121.92 123.807 121.92 123.807C121.92 123.807 113.65 127.389 114.025 129.074C114.399 130.759 116.115 132.912 121.302 132.744C126.488 132.575 135.131 127.408 136.442 126.646C137.753 125.885 145.91 120.543 145.91 120.543C148.022 122.633 150.448 124.381 153.099 125.723C156.95 127.508 157.468 127.689 157.468 127.689C157.468 127.689 158.472 131.34 161.3 133.212" fill="white"/>
<path d="M180.827 126.509C183.822 128.862 184.016 133.524 183.186 137.699L185.426 138.155L186.275 135.415C187.124 132.681 186.481 128.65 184.153 126.359C181.825 124.069 173.544 120.037 171.122 117.922C170.498 117.372 168.776 116.081 166.548 114.495L166.104 114.564C166.104 114.564 176.939 123.457 180.827 126.509Z" fill="#325294"/>
<path opacity="0.5" d="M180.827 126.509C183.822 128.862 184.016 133.524 183.186 137.699L185.426 138.155L186.275 135.415C187.124 132.681 186.481 128.65 184.153 126.359C181.825 124.069 173.544 120.037 171.122 117.922C170.498 117.372 168.776 116.081 166.548 114.495L166.104 114.564C166.104 114.564 176.939 123.457 180.827 126.509Z" fill="white"/>
<path d="M115.822 132.344C120.669 132.077 125.362 130.545 129.433 127.901C136.379 123.457 134.157 122.621 134.157 122.621C134.157 122.621 137.765 121.51 139.986 120.68C141.849 119.849 143.619 118.824 145.266 117.622C145.266 117.622 154.159 123.457 158.322 125.111C160.316 125.958 162.368 126.659 164.463 127.208L170.273 134.834C167.007 136.375 164.221 138.776 162.216 141.781C158.884 146.773 154.727 153.445 152.768 154.262C150.808 155.08 151.657 155.929 143.044 152.596C134.432 149.263 115.266 137.35 115.822 132.344Z" fill="#325294"/>
<path opacity="0.5" d="M115.822 132.344C120.669 132.077 125.362 130.545 129.433 127.901C136.379 123.457 134.157 122.621 134.157 122.621C134.157 122.621 137.765 121.51 139.986 120.68C141.849 119.849 143.619 118.824 145.266 117.622C145.266 117.622 154.159 123.457 158.322 125.111C160.316 125.958 162.368 126.659 164.463 127.208L170.273 134.834C167.007 136.375 164.221 138.776 162.216 141.781C158.884 146.773 154.727 153.445 152.768 154.262C150.808 155.08 151.657 155.929 143.044 152.596C134.432 149.263 115.266 137.35 115.822 132.344Z" fill="white"/>
<path d="M185.421 138.155L186.269 135.415C187.118 132.681 186.475 128.65 184.147 126.359C181.82 124.069 173.538 120.037 171.116 117.922C168.695 115.806 150.571 102.862 147.351 103.655C144.131 104.448 140.255 109.053 136.973 111.612C133.69 114.171 121.92 123.807 121.92 123.807C121.92 123.807 113.65 127.389 114.025 129.074C114.399 130.759 116.115 132.912 121.302 132.744C126.488 132.575 135.131 127.408 136.442 126.646C137.753 125.885 145.91 120.543 145.91 120.543C148.022 122.633 150.448 124.381 153.099 125.723C156.95 127.508 157.468 127.689 157.468 127.689C157.468 127.689 158.472 131.34 161.3 133.212" stroke="#263238" stroke-miterlimit="10" stroke-linecap="round"/>
<path d="M114.024 129.074C114.024 129.074 114.861 129.474 116.633 128.762C118.406 128.051 121.85 124.256 121.888 123.769C121.925 123.283 114.305 126.484 114.024 129.074Z" fill="white" stroke="#263238" stroke-miterlimit="10" stroke-linecap="round"/>
<path d="M145.579 114.502C145.658 114.129 145.756 113.76 145.872 113.397" stroke="#263238" stroke-miterlimit="10" stroke-linecap="round"/>
<path d="M145.909 120.555C145.434 119.057 145.253 117.48 145.379 115.912" stroke="#263238" stroke-miterlimit="10" stroke-linecap="round"/>
</svg>
