<svg width="1686" height="816" viewBox="0 0 1686 816" fill="none" xmlns="http://www.w3.org/2000/svg">
<mask id="mask0" mask-type="alpha" maskUnits="userSpaceOnUse" x="0" y="0" width="1686" height="816">
<rect width="1686" height="816" fill="#242C53"/>
</mask>
<g mask="url(#mask0)">
<path d="M1272.88 347.303C1272.88 347.303 1195.12 349.765 1197.76 430.653C1197.76 430.653 1274.5 425.561 1272.88 347.303Z" fill="#323B67"/>
<path d="M1328.44 457.56C1328.44 457.56 1268.69 433.539 1243.68 495.585C1243.6 495.585 1303.35 517.314 1328.44 457.56Z" fill="#323B67"/>
<path d="M807.173 473.856C807.173 473.856 750.582 444.064 719 503.309C719 503.309 776.189 530.81 807.173 473.856Z" fill="#323B67"/>
<path d="M884.592 217.44C884.592 217.44 833.379 256.569 874.862 309.448C874.947 309.448 923.856 269.046 884.592 217.44Z" fill="#323B67"/>
<path d="M1026.62 571.382C1026.62 571.382 973.532 535.224 935.549 590.479C935.549 590.479 989.579 624.346 1026.62 571.382Z" fill="#323B67"/>
<path d="M1392.8 228.389C1392.8 228.389 1329.81 273.799 1377.61 339.24C1377.52 339.24 1438.3 292.302 1392.8 228.389Z" fill="#323B67"/>
<path d="M1261.44 300.706C1261.44 300.706 1197.42 256.654 1151.16 323.283C1151.24 323.198 1215.94 364.619 1261.44 300.706Z" fill="#323B67"/>
<path d="M1272.96 159.723C1272.96 159.723 1200.58 187.902 1230.54 263.444C1230.54 263.444 1301.13 232.888 1272.96 159.723Z" fill="#323B67"/>
<path d="M1157.99 368.947C1157.99 368.947 1088.76 404.257 1126.15 476.488C1126.15 476.488 1193.15 439.057 1157.99 368.947Z" fill="#323B67"/>
<path d="M1151.76 565.61C1151.76 565.61 1189.14 633.512 1260.5 594.468C1260.67 594.468 1221.41 528.688 1151.76 565.61Z" fill="#323B67"/>
<path d="M1360.11 540.146C1360.11 540.146 1431.55 570.787 1463.73 496.434C1463.73 496.519 1392.12 468.594 1360.11 540.146Z" fill="#323B67"/>
<path d="M1389.39 454.25C1389.39 454.25 1467.23 454.929 1467.83 374.04C1467.58 373.955 1390.75 375.907 1389.39 454.25Z" fill="#323B67"/>
<path d="M943.402 445.422C943.402 445.422 981.642 512.815 1052.49 473.008C1052.49 472.923 1012.46 407.651 943.402 445.422Z" fill="#323B67"/>
<path d="M889.371 328.715C889.371 328.715 893.895 405.954 974.727 401.201C975.154 401.201 967.984 325.065 889.371 328.715Z" fill="#323B67"/>
<path d="M773.628 311.4C773.628 311.4 743.326 382.697 818.354 414.102C818.354 414.102 845.839 342.635 773.628 311.4Z" fill="#323B67"/>
<path d="M795.564 524.189C795.564 524.189 855.314 574.182 907.466 512.306C907.466 512.306 847.034 464.944 795.564 524.189Z" fill="#323B67"/>
<path d="M1006.65 257.078C1006.65 257.078 982.75 330.752 1060.25 355.537C1060.08 355.452 1081.17 281.863 1006.65 257.078Z" fill="#323B67"/>
<path d="M942.803 177.887C942.803 177.887 962.52 252.749 1041.22 232.124C1041.3 232.124 1019.2 158.874 942.803 177.887Z" fill="#323B67"/>
<path d="M1127.86 120C1127.86 120 1086.71 185.696 1155.94 228.389C1155.94 228.389 1194.43 162.439 1127.86 120Z" fill="#323B67"/>
<path d="M1197.68 124.159C1197.68 124.159 1227.72 210.735 1141.26 285.427C1054.79 360.12 1076.13 501.951 1109.85 550.077C1143.56 598.203 1162.17 740.204 1080.4 816" stroke="#323B67" stroke-width="5" stroke-miterlimit="10" stroke-linecap="round" stroke-linejoin="round"/>
<path d="M1146.46 816C1064.69 740.204 1083.47 598.033 1117.02 550.077C1117.02 550.077 1140.15 480.901 1265.79 438.462C1391.44 396.023 1427.29 338.731 1439.92 286.361" stroke="#323B67" stroke-width="5" stroke-miterlimit="10" stroke-linecap="round" stroke-linejoin="round"/>
<path d="M1308.13 166.089C1308.13 166.089 1384.27 322.774 1279.79 434.049" stroke="#323B67" stroke-width="5" stroke-miterlimit="10" stroke-linecap="round" stroke-linejoin="round"/>
<path d="M1121.79 540.061C1145.71 528.782 1171.85 522.931 1198.32 522.931C1224.79 522.931 1250.92 528.782 1274.84 540.061C1354.56 579.02 1426.26 599.476 1508.8 531.574" stroke="#323B67" stroke-width="5" stroke-miterlimit="10" stroke-linecap="round" stroke-linejoin="round"/>
<path d="M1250 530.3C1250 530.3 1336.72 534.459 1360.11 466.387" stroke="#323B67" stroke-width="5" stroke-miterlimit="10" stroke-linecap="round" stroke-linejoin="round"/>
<path d="M1106.01 540.061C1082.09 528.782 1055.95 522.931 1029.48 522.931C1003.01 522.931 976.877 528.782 952.961 540.061C873.239 579.02 801.539 599.476 719 531.574" stroke="#323B67" stroke-width="5" stroke-miterlimit="10" stroke-linecap="round" stroke-linejoin="round"/>
<path d="M830.303 234.84C830.303 234.84 814.939 455.947 992.48 526.566" stroke="#323B67" stroke-width="5" stroke-miterlimit="10" stroke-linecap="round" stroke-linejoin="round"/>
<path d="M738.803 384.904C738.803 384.904 780.371 471.904 899.87 461.889" stroke="#323B67" stroke-width="5" stroke-miterlimit="10" stroke-linecap="round" stroke-linejoin="round"/>
<path d="M1032.94 174.067C1032.94 174.067 1132.04 196.39 1132.47 293.83" stroke="#323B67" stroke-width="5" stroke-miterlimit="10" stroke-linecap="round" stroke-linejoin="round"/>
<path d="M925.732 234.84C925.732 234.84 956.546 368.183 1082.7 400.097" stroke="#323B67" stroke-width="5" stroke-miterlimit="10" stroke-linecap="round" stroke-linejoin="round"/>
</g>
</svg>
