<svg width="1920" height="704" viewBox="0 0 1920 704" fill="none" xmlns="http://www.w3.org/2000/svg">
<g clip-path="url(#clip0)">
<path d="M1673.88 237.303C1673.88 237.303 1596.12 239.765 1598.76 320.653C1598.76 320.653 1675.5 315.561 1673.88 237.303Z" fill="#323B67"/>
<path d="M1729.44 347.56C1729.44 347.56 1669.69 323.54 1644.68 385.585C1644.6 385.585 1704.35 407.314 1729.44 347.56Z" fill="#323B67"/>
<path d="M1208.17 363.857C1208.17 363.857 1151.58 334.064 1120 393.309C1120 393.309 1177.19 420.81 1208.17 363.857Z" fill="#323B67"/>
<path d="M1285.59 107.44C1285.59 107.44 1234.38 146.569 1275.86 199.448C1275.95 199.448 1324.86 159.046 1285.59 107.44Z" fill="#323B67"/>
<path d="M1427.62 461.381C1427.62 461.381 1374.53 425.223 1336.55 480.479C1336.55 480.479 1390.58 514.345 1427.62 461.381Z" fill="#323B67"/>
<path d="M1793.8 118.389C1793.8 118.389 1730.81 163.799 1778.61 229.24C1778.52 229.24 1839.3 182.302 1793.8 118.389Z" fill="#323B67"/>
<path d="M1662.44 190.706C1662.44 190.706 1598.42 146.654 1552.16 213.283C1552.24 213.198 1616.94 254.619 1662.44 190.706Z" fill="#323B67"/>
<path d="M1673.96 49.7227C1673.96 49.7227 1601.58 77.9022 1631.54 153.444C1631.54 153.444 1702.13 122.888 1673.96 49.7227Z" fill="#323B67"/>
<path d="M1558.99 258.947C1558.99 258.947 1489.76 294.257 1527.15 366.488C1527.15 366.488 1594.15 329.057 1558.99 258.947Z" fill="#323B67"/>
<path d="M1552.76 455.61C1552.76 455.61 1590.14 523.512 1661.5 484.468C1661.67 484.468 1622.41 418.688 1552.76 455.61Z" fill="#323B67"/>
<path d="M1761.11 430.146C1761.11 430.146 1832.55 460.787 1864.73 386.434C1864.73 386.519 1793.12 358.594 1761.11 430.146Z" fill="#323B67"/>
<path d="M1790.39 344.25C1790.39 344.25 1868.23 344.929 1868.83 264.04C1868.58 263.955 1791.75 265.907 1790.39 344.25Z" fill="#323B67"/>
<path d="M1344.4 335.422C1344.4 335.422 1382.64 402.816 1453.49 363.008C1453.49 362.923 1413.46 297.652 1344.4 335.422Z" fill="#323B67"/>
<path d="M1290.37 218.715C1290.37 218.715 1294.89 295.954 1375.73 291.201C1376.15 291.201 1368.98 215.065 1290.37 218.715Z" fill="#323B67"/>
<path d="M1174.63 201.4C1174.63 201.4 1144.33 272.697 1219.35 304.102C1219.35 304.102 1246.84 232.635 1174.63 201.4Z" fill="#323B67"/>
<path d="M1196.56 414.189C1196.56 414.189 1256.31 464.182 1308.47 402.306C1308.47 402.306 1248.03 354.944 1196.56 414.189Z" fill="#323B67"/>
<path d="M1407.65 147.078C1407.65 147.078 1383.75 220.752 1461.25 245.537C1461.08 245.452 1482.17 171.863 1407.65 147.078Z" fill="#323B67"/>
<path d="M1343.8 67.8869C1343.8 67.8869 1363.52 142.749 1442.22 122.124C1442.3 122.124 1420.2 48.8742 1343.8 67.8869Z" fill="#323B67"/>
<path d="M1528.86 10C1528.86 10 1487.71 75.6956 1556.94 118.389C1556.94 118.389 1595.43 52.439 1528.86 10Z" fill="#323B67"/>
<path d="M1598.68 14.1592C1598.68 14.1592 1628.72 100.735 1542.26 175.427C1455.79 250.12 1477.13 391.951 1510.85 440.077C1544.56 488.203 1563.33 627.704 1481.56 703.5" stroke="#323B67" stroke-width="5" stroke-miterlimit="10" stroke-linecap="round" stroke-linejoin="round"/>
<path d="M1547.56 703.5C1465.78 627.704 1484.47 488.033 1518.02 440.077C1518.02 440.077 1541.15 370.901 1666.79 328.462C1792.44 286.023 1828.29 228.731 1840.92 176.361" stroke="#323B67" stroke-width="5" stroke-miterlimit="10" stroke-linecap="round" stroke-linejoin="round"/>
<path d="M1709.13 56.0889C1709.13 56.0889 1785.27 212.774 1680.79 324.049" stroke="#323B67" stroke-width="5" stroke-miterlimit="10" stroke-linecap="round" stroke-linejoin="round"/>
<path d="M1522.79 430.061C1546.71 418.782 1572.85 412.931 1599.32 412.931C1625.79 412.931 1651.92 418.782 1675.84 430.061C1755.56 469.02 1827.26 489.476 1909.8 421.574" stroke="#323B67" stroke-width="5" stroke-miterlimit="10" stroke-linecap="round" stroke-linejoin="round"/>
<path d="M1651 420.3C1651 420.3 1737.72 424.459 1761.11 356.387" stroke="#323B67" stroke-width="5" stroke-miterlimit="10" stroke-linecap="round" stroke-linejoin="round"/>
<path d="M1507.01 430.061C1483.09 418.782 1456.95 412.931 1430.48 412.931C1404.01 412.931 1377.88 418.782 1353.96 430.061C1274.24 469.02 1202.54 489.476 1120 421.574" stroke="#323B67" stroke-width="5" stroke-miterlimit="10" stroke-linecap="round" stroke-linejoin="round"/>
<path d="M1231.3 124.84C1231.3 124.84 1215.94 345.947 1393.48 416.566" stroke="#323B67" stroke-width="5" stroke-miterlimit="10" stroke-linecap="round" stroke-linejoin="round"/>
<path d="M1139.8 274.904C1139.8 274.904 1181.37 361.904 1300.87 351.889" stroke="#323B67" stroke-width="5" stroke-miterlimit="10" stroke-linecap="round" stroke-linejoin="round"/>
<path d="M1433.94 64.0674C1433.94 64.0674 1533.04 86.3903 1533.47 183.83" stroke="#323B67" stroke-width="5" stroke-miterlimit="10" stroke-linecap="round" stroke-linejoin="round"/>
<path d="M1326.73 124.84C1326.73 124.84 1357.55 258.183 1483.7 290.097" stroke="#323B67" stroke-width="5" stroke-miterlimit="10" stroke-linecap="round" stroke-linejoin="round"/>
<path d="M1609.57 310.08C1609.45 310.092 1609.34 310.102 1609.25 310.111C1608.68 290.233 1613.01 275.174 1619.81 263.761C1626.68 252.245 1636.08 244.411 1645.57 239.081C1655.07 233.75 1664.65 230.929 1671.87 229.441C1675.48 228.698 1678.49 228.288 1680.59 228.064C1681.65 227.952 1682.47 227.887 1683.04 227.85C1683.17 227.841 1683.28 227.834 1683.39 227.828C1684.02 266.418 1665.44 286.964 1646.68 297.893C1637.24 303.389 1627.75 306.456 1620.61 308.148C1617.05 308.994 1614.07 309.496 1611.99 309.787C1610.95 309.932 1610.13 310.024 1609.57 310.08Z" stroke="white" stroke-opacity="0.13" stroke-linecap="round" stroke-linejoin="round"/>
<path d="M1738.59 337.775C1738.66 337.8 1738.72 337.822 1738.78 337.843C1726.29 367.154 1705.38 376.475 1687.56 378.484C1678.59 379.495 1670.4 378.652 1664.45 377.555C1661.48 377.007 1659.07 376.395 1657.41 375.921C1656.58 375.685 1655.94 375.482 1655.5 375.34C1655.45 375.321 1655.39 375.304 1655.34 375.287C1661.54 360.128 1669.83 350.22 1678.77 343.876C1687.8 337.463 1697.53 334.672 1706.49 333.803C1715.46 332.934 1723.65 333.99 1729.61 335.265C1732.59 335.903 1735.01 336.594 1736.67 337.125C1737.51 337.391 1738.16 337.617 1738.59 337.775ZM1654.88 375.124C1654.88 375.124 1654.88 375.124 1654.88 375.124L1654.88 375.124Z" stroke="white" stroke-opacity="0.13" stroke-linecap="round" stroke-linejoin="round"/>
<path d="M1130.69 383.076C1138.5 368.612 1147.8 359.576 1157.35 354.148C1167 348.661 1176.95 346.845 1185.93 346.866C1194.91 346.887 1202.92 348.747 1208.68 350.603C1211.57 351.531 1213.88 352.457 1215.48 353.151C1216.28 353.497 1216.9 353.786 1217.31 353.987C1217.37 354.017 1217.43 354.045 1217.49 354.071C1202.11 381.991 1180.38 389.2 1162.46 389.44C1153.44 389.562 1145.37 387.915 1139.56 386.236C1136.65 385.397 1134.31 384.55 1132.7 383.915C1131.9 383.597 1131.27 383.332 1130.85 383.147C1130.79 383.122 1130.74 383.098 1130.69 383.076Z" stroke="white" stroke-opacity="0.13" stroke-linecap="round" stroke-linejoin="round"/>
<path d="M1295.5 98.1499C1314.68 123.623 1312.25 146.272 1305.03 162.594C1301.39 170.811 1296.52 177.433 1292.56 182.001C1290.58 184.284 1288.83 186.053 1287.57 187.248C1286.94 187.846 1286.44 188.301 1286.09 188.605C1286.03 188.651 1285.98 188.694 1285.94 188.734C1275.84 175.733 1271.39 163.601 1270.38 152.717C1269.36 141.718 1271.84 131.958 1275.62 123.825C1279.41 115.689 1284.48 109.188 1288.61 104.719C1290.67 102.486 1292.5 100.762 1293.8 99.5982C1294.46 99.0163 1294.98 98.5744 1295.34 98.2788C1295.4 98.2322 1295.45 98.1892 1295.5 98.1499Z" stroke="white" stroke-opacity="0.13" stroke-linecap="round" stroke-linejoin="round"/>
<path d="M1347.26 470.325C1356.63 456.846 1366.89 448.937 1377 444.644C1387.22 440.304 1397.33 439.648 1406.27 440.706C1415.22 441.764 1422.99 444.538 1428.53 447.05C1431.3 448.306 1433.5 449.495 1435.02 450.369C1435.78 450.806 1436.36 451.164 1436.75 451.412C1436.81 451.449 1436.87 451.484 1436.92 451.517C1418.57 477.457 1396.13 482.115 1378.25 480.294C1369.24 479.377 1361.38 476.816 1355.76 474.481C1352.96 473.314 1350.72 472.205 1349.18 471.389C1348.41 470.981 1347.82 470.646 1347.42 470.414C1347.36 470.382 1347.31 470.353 1347.26 470.325Z" stroke="white" stroke-opacity="0.13" stroke-linecap="round" stroke-linejoin="round"/>
<path d="M1788.95 218.314C1788.86 218.389 1788.77 218.457 1788.7 218.516C1777.03 202.388 1772.12 187.517 1771.32 174.281C1770.51 160.926 1773.87 149.202 1778.73 139.498C1783.59 129.791 1789.93 122.111 1795.07 116.856C1797.63 114.23 1799.89 112.211 1801.51 110.851C1802.32 110.171 1802.97 109.655 1803.41 109.31C1803.52 109.23 1803.61 109.158 1803.69 109.097C1825.99 140.708 1822.17 168.068 1812.78 187.565C1808.06 197.37 1801.93 205.194 1796.98 210.568C1794.5 213.255 1792.32 215.327 1790.77 216.727C1789.99 217.426 1789.37 217.958 1788.95 218.314Z" stroke="white" stroke-opacity="0.13" stroke-linecap="round" stroke-linejoin="round"/>
<path d="M1562.88 203.122C1574.31 186.806 1586.8 177.259 1599.1 172.107C1611.51 166.908 1623.76 166.171 1634.59 167.505C1645.41 168.839 1654.81 172.244 1661.5 175.318C1664.85 176.855 1667.52 178.307 1669.35 179.375C1670.26 179.908 1670.96 180.346 1671.44 180.649C1671.55 180.718 1671.65 180.781 1671.73 180.836C1649.16 212.254 1621.95 217.761 1600.32 215.433C1589.45 214.262 1579.98 211.107 1573.22 208.247C1569.84 206.818 1567.15 205.463 1565.29 204.469C1564.36 203.973 1563.65 203.566 1563.16 203.285C1563.06 203.225 1562.96 203.17 1562.88 203.122Z" stroke="white" stroke-opacity="0.13" stroke-linecap="round" stroke-linejoin="round"/>
<path d="M1642.11 142.631C1642 142.683 1641.9 142.73 1641.81 142.771C1634.53 124.177 1633.49 108.509 1636.02 95.4634C1638.57 82.3015 1644.76 71.7749 1651.89 63.5834C1659.03 55.3897 1667.09 49.5379 1673.38 45.7338C1676.52 43.8324 1679.22 42.4442 1681.13 41.5322C1682.08 41.0762 1682.84 40.7393 1683.35 40.5169C1683.48 40.4647 1683.58 40.4188 1683.68 40.3792C1697.41 76.5164 1686.9 102.105 1672.93 118.698C1665.91 127.042 1658.01 133.117 1651.86 137.107C1648.78 139.101 1646.15 140.572 1644.29 141.544C1643.36 142.031 1642.62 142.392 1642.11 142.631Z" stroke="white" stroke-opacity="0.13" stroke-linecap="round" stroke-linejoin="round"/>
<path d="M1537.63 355.622C1537.53 355.686 1537.44 355.742 1537.35 355.791C1528.24 338.003 1525.64 322.503 1526.85 309.258C1528.07 295.894 1533.18 284.791 1539.46 275.92C1545.73 267.046 1553.18 260.411 1559.06 255.993C1561.99 253.784 1564.54 252.132 1566.35 251.033C1567.25 250.483 1567.97 250.072 1568.46 249.799C1568.58 249.735 1568.68 249.679 1568.77 249.63C1585.96 284.276 1578.06 310.813 1565.84 328.727C1559.7 337.736 1552.46 344.57 1546.76 349.154C1543.9 351.445 1541.44 353.172 1539.68 354.325C1538.81 354.901 1538.11 355.334 1537.63 355.622Z" stroke="white" stroke-opacity="0.13" stroke-linecap="round" stroke-linejoin="round"/>
<path d="M1563.62 446.106C1563.56 445.996 1563.5 445.897 1563.45 445.81C1597.87 427.749 1624.75 434.92 1643.04 446.614C1652.24 452.495 1659.27 459.527 1663.99 465.09C1666.35 467.872 1668.14 470.284 1669.32 471.998C1669.91 472.855 1670.36 473.537 1670.65 474.003C1670.71 474.103 1670.77 474.193 1670.81 474.272C1653.23 483.802 1637.76 486.793 1624.44 485.932C1611 485.063 1599.72 480.273 1590.64 474.263C1581.57 468.252 1574.7 461.025 1570.1 455.296C1567.8 452.433 1566.07 449.947 1564.92 448.178C1564.34 447.294 1563.91 446.589 1563.62 446.106Z" stroke="white" stroke-opacity="0.13" stroke-linecap="round" stroke-linejoin="round"/>
<path d="M1873.76 376.626C1873.87 376.664 1873.97 376.699 1874.06 376.73C1866.08 394.96 1855.72 406.761 1844.69 414.218C1833.55 421.743 1821.69 424.862 1810.82 425.674C1799.94 426.486 1790.06 424.989 1782.89 423.286C1779.31 422.435 1776.41 421.533 1774.41 420.845C1773.4 420.501 1772.63 420.21 1772.1 420.006C1771.98 419.959 1771.87 419.917 1771.78 419.879C1787.72 384.667 1813.32 373.939 1834.97 371.988C1845.86 371.007 1855.76 372.246 1862.94 373.728C1866.53 374.468 1869.44 375.268 1871.45 375.88C1872.45 376.186 1873.23 376.445 1873.76 376.626Z" stroke="white" stroke-opacity="0.13" stroke-linecap="round" stroke-linejoin="round"/>
<path d="M1800.9 333.745C1801.74 295.119 1821.07 275.329 1840.26 265.176C1849.91 260.071 1859.53 257.4 1866.75 256.011C1870.36 255.317 1873.38 254.943 1875.49 254.747C1876.55 254.648 1877.38 254.594 1877.95 254.565C1878.09 254.558 1878.22 254.553 1878.33 254.549C1878.1 274.43 1873.16 289.298 1865.9 300.424C1858.58 311.648 1848.87 319.093 1839.16 324.032C1829.45 328.973 1819.75 331.404 1812.48 332.598C1808.84 333.195 1805.82 333.483 1803.7 333.622C1802.64 333.691 1801.81 333.723 1801.25 333.738C1801.12 333.741 1801 333.743 1800.9 333.745Z" stroke="white" stroke-opacity="0.13" stroke-linecap="round" stroke-linejoin="round"/>
<path d="M1355.1 325.614C1389.23 307.134 1416.15 313.97 1434.58 325.444C1443.84 331.214 1450.97 338.164 1455.78 343.679C1458.18 346.436 1460 348.832 1461.23 350.54C1461.84 351.394 1462.3 352.075 1462.6 352.543C1462.67 352.649 1462.73 352.743 1462.79 352.827C1445.33 362.539 1429.91 365.701 1416.58 364.992C1403.14 364.278 1391.8 359.622 1382.65 353.723C1373.5 347.822 1366.54 340.682 1361.87 335.013C1359.54 332.179 1357.78 329.715 1356.6 327.962C1356.01 327.085 1355.57 326.386 1355.28 325.908C1355.21 325.798 1355.15 325.7 1355.1 325.614Z" stroke="white" stroke-opacity="0.13" stroke-linecap="round" stroke-linejoin="round"/>
<path d="M1300.91 209.192C1339.68 207.557 1360.83 225.49 1372.26 243.854C1378.01 253.088 1381.31 262.441 1383.14 269.488C1384.06 273.01 1384.61 275.952 1384.91 278.01C1385.07 279.04 1385.16 279.845 1385.2 280.39C1385.22 280.519 1385.22 280.631 1385.23 280.728C1365.33 281.824 1350.14 277.914 1338.53 271.443C1326.83 264.922 1318.75 255.782 1313.17 246.483C1307.58 237.182 1304.51 227.728 1302.83 220.595C1301.99 217.029 1301.5 214.047 1301.22 211.958C1301.08 210.914 1300.99 210.093 1300.94 209.535C1300.93 209.406 1300.92 209.292 1300.91 209.192ZM1385.7 280.702C1385.69 280.702 1385.69 280.702 1385.69 280.702C1385.7 280.701 1385.71 280.701 1385.73 280.701C1385.72 280.701 1385.71 280.701 1385.7 280.702Z" stroke="white" stroke-opacity="0.13" stroke-linecap="round" stroke-linejoin="round"/>
<path d="M1229.17 293.129C1229.13 293.244 1229.1 293.347 1229.06 293.438C1210.66 285.644 1198.71 275.438 1191.12 264.521C1183.47 253.506 1180.25 241.739 1179.35 230.933C1178.46 220.124 1179.89 210.285 1181.55 203.144C1182.38 199.575 1183.27 196.683 1183.95 194.685C1184.28 193.687 1184.57 192.912 1184.77 192.388C1184.82 192.266 1184.86 192.157 1184.9 192.063C1220.44 207.618 1231.44 232.993 1233.57 254.514C1234.64 265.336 1233.47 275.194 1232.03 282.349C1231.31 285.925 1230.52 288.823 1229.92 290.826C1229.61 291.827 1229.35 292.603 1229.17 293.129Z" stroke="white" stroke-opacity="0.13" stroke-linecap="round" stroke-linejoin="round"/>
<path d="M1317.48 392.193C1317.58 392.264 1317.67 392.329 1317.74 392.387C1304.87 407.536 1291.55 415.842 1278.83 419.79C1266 423.773 1253.73 423.33 1243.07 420.963C1232.4 418.596 1223.35 414.304 1216.97 410.601C1213.77 408.751 1211.25 407.049 1209.53 405.81C1208.66 405.191 1208 404.689 1207.56 404.341C1207.45 404.261 1207.36 404.19 1207.28 404.127C1232.79 375.024 1260.42 372.136 1281.72 376.521C1292.43 378.726 1301.54 382.773 1307.98 386.271C1311.2 388.02 1313.75 389.63 1315.49 390.802C1316.36 391.388 1317.03 391.864 1317.48 392.193Z" stroke="white" stroke-opacity="0.13" stroke-linecap="round" stroke-linejoin="round"/>
<path d="M1417.98 137.715C1454.67 150.094 1467.82 174.403 1471.84 195.663C1473.86 206.354 1473.57 216.283 1472.79 223.548C1472.4 227.18 1471.88 230.143 1471.47 232.2C1471.26 233.228 1471.08 234.03 1470.95 234.577C1470.93 234.692 1470.9 234.797 1470.88 234.892C1451.87 228.722 1439.08 219.593 1430.57 209.377C1421.97 199.065 1417.73 187.618 1415.88 176.928C1414.04 166.235 1414.6 156.306 1415.62 149.047C1416.13 145.418 1416.76 142.46 1417.26 140.41C1417.51 139.386 1417.73 138.589 1417.88 138.049C1417.92 137.924 1417.95 137.813 1417.98 137.715Z" stroke="white" stroke-opacity="0.13" stroke-linecap="round" stroke-linejoin="round"/>
<path d="M1354.42 58.2486C1392.14 49.0337 1416.43 62.4659 1431.33 78.2192C1438.82 86.1413 1443.93 94.6583 1447.17 101.198C1448.79 104.467 1449.94 107.238 1450.68 109.191C1451.05 110.167 1451.32 110.938 1451.49 111.463C1451.53 111.577 1451.56 111.68 1451.59 111.77C1432.23 116.762 1416.5 115.925 1403.79 111.874C1390.98 107.788 1381.2 100.42 1373.87 92.4024C1366.53 84.3826 1361.63 75.7173 1358.57 69.0531C1357.04 65.722 1355.96 62.8937 1355.28 60.9002C1354.93 59.9035 1354.68 59.1158 1354.52 58.5784C1354.49 58.4551 1354.45 58.345 1354.42 58.2486Z" stroke="white" stroke-opacity="0.13" stroke-linecap="round" stroke-linejoin="round"/>
<path d="M1566.91 107.401C1566.86 107.509 1566.8 107.605 1566.76 107.689C1549.79 97.1265 1539.58 85.187 1533.8 73.2245C1527.96 61.1562 1526.63 49.033 1527.44 38.2219C1528.25 27.408 1531.21 17.914 1533.97 11.1203C1535.35 7.72462 1536.68 5.00656 1537.67 3.1392C1538.16 2.20559 1538.56 1.48485 1538.84 0.998618C1538.91 0.885746 1538.97 0.785515 1539.02 0.698197C1571.76 21.7663 1578.65 48.5391 1577.36 70.0794C1576.72 80.9121 1574 90.4318 1571.44 97.2458C1570.17 100.652 1568.93 103.379 1568.01 105.253C1567.55 106.19 1567.18 106.913 1566.91 107.401Z" stroke="white" stroke-opacity="0.13" stroke-linecap="round" stroke-linejoin="round"/>
<path d="M1608.68 4.15918C1608.68 4.15918 1638.72 90.7348 1552.26 165.427C1465.79 240.12 1487.13 381.951 1520.85 430.077C1554.56 478.203 1573.17 620.204 1491.4 696" stroke="white" stroke-opacity="0.13" stroke-miterlimit="10" stroke-linecap="round" stroke-linejoin="round"/>
<path d="M1557.46 696C1475.69 620.204 1494.47 478.033 1528.02 430.077C1528.02 430.077 1551.15 360.901 1676.79 318.462C1802.44 276.023 1838.29 218.731 1850.92 166.361" stroke="white" stroke-opacity="0.13" stroke-miterlimit="10" stroke-linecap="round" stroke-linejoin="round"/>
<path d="M1719.13 46.0889C1719.13 46.0889 1795.27 202.774 1690.79 314.049" stroke="white" stroke-opacity="0.13" stroke-miterlimit="10" stroke-linecap="round" stroke-linejoin="round"/>
<path d="M1532.79 420.061C1556.71 408.782 1582.85 402.931 1609.32 402.931C1635.79 402.931 1661.92 408.782 1685.84 420.061C1765.56 459.02 1837.26 479.476 1919.8 411.574" stroke="white" stroke-opacity="0.13" stroke-miterlimit="10" stroke-linecap="round" stroke-linejoin="round"/>
<path d="M1661 410.3C1661 410.3 1747.72 414.459 1771.11 346.387" stroke="white" stroke-opacity="0.13" stroke-miterlimit="10" stroke-linecap="round" stroke-linejoin="round"/>
<path d="M1517.01 420.061C1493.09 408.782 1466.95 402.931 1440.48 402.931C1414.01 402.931 1387.88 408.782 1363.96 420.061C1284.24 459.02 1212.54 479.476 1130 411.574" stroke="white" stroke-opacity="0.13" stroke-miterlimit="10" stroke-linecap="round" stroke-linejoin="round"/>
<path d="M1241.3 114.84C1241.3 114.84 1225.94 335.947 1403.48 406.566" stroke="white" stroke-opacity="0.13" stroke-miterlimit="10" stroke-linecap="round" stroke-linejoin="round"/>
<path d="M1149.8 264.904C1149.8 264.904 1191.37 351.904 1310.87 341.889" stroke="white" stroke-opacity="0.13" stroke-miterlimit="10" stroke-linecap="round" stroke-linejoin="round"/>
<path d="M1443.94 54.0674C1443.94 54.0674 1543.04 76.3903 1543.47 173.83" stroke="white" stroke-opacity="0.13" stroke-miterlimit="10" stroke-linecap="round" stroke-linejoin="round"/>
<path d="M1336.73 114.84C1336.73 114.84 1367.55 248.183 1493.7 280.097" stroke="white" stroke-opacity="0.13" stroke-miterlimit="10" stroke-linecap="round" stroke-linejoin="round"/>
</g>
<defs>
<clipPath id="clip0">
<rect width="1920" height="704" rx="14" fill="white"/>
</clipPath>
</defs>
</svg>
