<svg width="2010" height="812" viewBox="0 0 2010 812" fill="none" xmlns="http://www.w3.org/2000/svg">
<mask id="mask0" mask-type="alpha" maskUnits="userSpaceOnUse" x="0" y="0" width="2010" height="812">
<rect width="2010" height="812" fill="#242C53"/>
</mask>
<g mask="url(#mask0)">
<path d="M1502.77 359.461C1502.77 359.461 1433.84 399.761 1475.84 471.421C1475.84 471.421 1542.55 429.25 1502.77 359.461Z" fill="#323B67"/>
<path d="M1606.88 431.693C1606.88 431.693 1541.22 439.288 1549.05 507.496C1548.97 507.538 1613.5 497.876 1606.88 431.693Z" fill="#323B67"/>
<path d="M1144.71 701.661C1144.71 701.661 1079.08 702.504 1079.61 771.404C1079.61 771.404 1144.65 768.202 1144.71 701.661Z" fill="#323B67"/>
<path d="M1088.97 432.479C1088.97 432.479 1061.94 492.85 1125.25 520.229C1125.32 520.187 1149.65 459.796 1088.97 432.479Z" fill="#323B67"/>
<path d="M1390.4 682.154C1390.4 682.154 1324.8 675.542 1317.6 743.979C1317.6 743.979 1382.92 748.065 1390.4 682.154Z" fill="#323B67"/>
<path d="M1552.7 193.48C1552.7 193.48 1518.12 265.285 1593.28 300.9C1593.2 300.942 1625.03 228.846 1552.7 193.48Z" fill="#323B67"/>
<path d="M1469.63 323.035C1469.63 323.035 1390.32 314.653 1381.22 397.403C1381.26 397.285 1459.89 402.959 1469.63 323.035Z" fill="#323B67"/>
<path d="M1410.98 190.235C1410.98 190.235 1359.5 251.097 1423.51 304.558C1423.51 304.558 1472.22 242.431 1410.98 190.235Z" fill="#323B67"/>
<path d="M1409.74 435.245C1409.74 435.245 1364.6 500.99 1433.69 547.829C1433.69 547.829 1475.79 481.257 1409.74 435.245Z" fill="#323B67"/>
<path d="M1500.43 615.671C1500.43 615.671 1567.4 658.606 1612.64 588.447C1612.79 588.363 1545.17 548.262 1500.43 615.671Z" fill="#323B67"/>
<path d="M1675.88 490.672C1675.88 490.672 1755.32 483.322 1747.93 400.502C1747.98 400.579 1669.71 410.462 1675.88 490.672Z" fill="#323B67"/>
<path d="M1660.22 398.862C1660.22 398.862 1730.76 361.354 1691.69 288.105C1691.42 288.154 1623.09 327.534 1660.22 398.862Z" fill="#323B67"/>
<path d="M1253.65 609.303C1253.65 609.303 1321.14 651.361 1365.55 580.764C1365.51 580.687 1297.44 541.421 1253.65 609.303Z" fill="#323B67"/>
<path d="M1147.77 530.501C1147.77 530.501 1189.67 597.95 1260.25 554.079C1260.63 553.87 1216.88 488.712 1147.77 530.501Z" fill="#323B67"/>
<path d="M1034.9 571.565C1034.9 571.565 1042.48 650.709 1125.53 642.292C1125.53 642.292 1115.32 564.374 1034.9 571.565Z" fill="#323B67"/>
<path d="M1158.89 752.742C1158.89 752.742 1237.26 768.573 1254 687.226C1254 687.226 1176.3 674.103 1158.89 752.742Z" fill="#323B67"/>
<path d="M1218.46 408.457C1218.46 408.457 1232.99 486.61 1315.03 471.01C1314.83 471.017 1297.81 394.32 1218.46 408.457Z" fill="#323B67"/>
<path d="M1122.1 368.299C1122.1 368.299 1176.54 426.163 1237.42 369.022C1237.5 368.98 1181.69 313.74 1122.1 368.299Z" fill="#323B67"/>
<path d="M1260.65 225.468C1260.65 225.468 1255.72 304.868 1339.06 309.475C1339.06 309.475 1341.48 231.141 1260.65 225.468Z" fill="#323B67"/>
<path d="M1325.67 195.026C1325.67 195.026 1395.16 258.398 1353.75 368.108C1312.35 477.818 1401.05 595.29 1455.02 622.185C1509 649.08 1594.24 765.71 1557.61 874.117" stroke="#323B67" stroke-width="5" stroke-miterlimit="10" stroke-linecap="round" stroke-linejoin="round"/>
<path d="M1617.13 841.796C1506.26 813.478 1454.72 678.354 1461.49 618.674C1461.49 618.674 1448.48 544.955 1541.02 445.149C1633.56 345.343 1637.83 276.114 1623.58 222.694" stroke="#323B67" stroke-width="5" stroke-miterlimit="10" stroke-linecap="round" stroke-linejoin="round"/>
<path d="M1445.82 178.756C1445.82 178.756 1591.22 282.789 1551.48 434.313" stroke="#323B67" stroke-width="5" stroke-miterlimit="10" stroke-linecap="round" stroke-linejoin="round"/>
<path d="M1460.89 607.3C1476.94 585.416 1497.65 567.338 1521.52 554.376C1545.4 541.414 1571.84 533.892 1598.93 532.354C1689.91 528.451 1764.6 511.789 1805.79 410.126" stroke="#323B67" stroke-width="5" stroke-miterlimit="10" stroke-linecap="round" stroke-linejoin="round"/>
<path d="M1571.75 535.714C1571.75 535.714 1652 496.996 1639.76 424.147" stroke="#323B67" stroke-width="5" stroke-miterlimit="10" stroke-linecap="round" stroke-linejoin="round"/>
<path d="M1446.65 615.033C1419.56 616.571 1393.12 624.094 1369.25 637.056C1345.38 650.018 1324.67 668.095 1308.62 689.98C1255.79 764.158 1201.14 817.72 1093.45 796.897" stroke="#323B67" stroke-width="5" stroke-miterlimit="10" stroke-linecap="round" stroke-linejoin="round"/>
<path d="M1048.52 474.758C1048.52 474.758 1142.94 681.705 1337.65 658.455" stroke="#323B67" stroke-width="5" stroke-miterlimit="10" stroke-linecap="round" stroke-linejoin="round"/>
<path d="M1039.48 654.914C1039.48 654.914 1119.58 713.025 1222.45 645.472" stroke="#323B67" stroke-width="5" stroke-miterlimit="10" stroke-linecap="round" stroke-linejoin="round"/>
<path d="M1201.53 320.713C1201.53 320.713 1301.84 292.318 1349.94 379.992" stroke="#323B67" stroke-width="5" stroke-miterlimit="10" stroke-linecap="round" stroke-linejoin="round"/>
<path d="M1134.59 428.026C1134.59 428.026 1227.68 533.202 1357.1 500.207" stroke="#323B67" stroke-width="5" stroke-miterlimit="10" stroke-linecap="round" stroke-linejoin="round"/>
<path d="M1480.42 456.6C1480.31 456.675 1480.21 456.74 1480.13 456.797C1469.87 439.139 1466.4 423.431 1466.95 409.799C1467.5 396.048 1472.14 384.377 1478.1 374.919C1484.05 365.458 1491.32 358.219 1497.1 353.344C1499.99 350.907 1502.5 349.062 1504.29 347.828C1505.19 347.211 1505.9 346.747 1506.39 346.438C1506.51 346.363 1506.62 346.297 1506.71 346.24C1526.19 380.746 1519.49 408.384 1507.92 427.436C1502.1 437.015 1495.04 444.431 1489.43 449.452C1486.62 451.962 1484.19 453.872 1482.45 455.154C1481.58 455.794 1480.89 456.278 1480.42 456.6Z" stroke="white" stroke-opacity="0.13" stroke-linecap="round" stroke-linejoin="round"/>
<path d="M1610.34 418.373C1610.42 418.362 1610.49 418.351 1610.55 418.342C1613.64 450.909 1599.35 469.564 1584.26 480.103C1576.66 485.409 1568.86 488.661 1562.95 490.585C1560 491.547 1557.53 492.175 1555.8 492.561C1554.93 492.755 1554.25 492.887 1553.79 492.971C1553.73 492.983 1553.67 492.993 1553.61 493.003C1551.78 476.285 1554.4 463.284 1559.36 453.181C1564.36 442.971 1571.77 435.689 1579.43 430.515C1587.09 425.339 1595 422.277 1601 420.509C1604 419.625 1606.52 419.066 1608.29 418.728C1609.17 418.559 1609.87 418.445 1610.34 418.373ZM1553.12 493.083C1553.12 493.083 1553.12 493.083 1553.12 493.083L1553.12 493.083Z" stroke="white" stroke-opacity="0.13" stroke-linecap="round" stroke-linejoin="round"/>
<path d="M1084.23 756.953C1084.18 740.075 1088.14 727.365 1094.1 717.787C1100.13 708.107 1108.21 701.598 1116.32 697.219C1124.43 692.838 1132.57 690.594 1138.68 689.444C1141.73 688.87 1144.28 688.57 1146.06 688.414C1146.95 688.336 1147.64 688.293 1148.12 688.271C1148.19 688.267 1148.26 688.264 1148.33 688.261C1148.13 720.989 1132.06 738.138 1116.01 747.133C1107.93 751.662 1099.85 754.127 1093.79 755.46C1090.75 756.126 1088.23 756.508 1086.46 756.724C1085.58 756.832 1084.89 756.898 1084.42 756.937C1084.35 756.943 1084.28 756.948 1084.23 756.953Z" stroke="white" stroke-opacity="0.13" stroke-linecap="round" stroke-linejoin="round"/>
<path d="M1093.35 419.23C1123.13 432.817 1132.04 454.44 1133.52 472.706C1134.26 481.902 1133.11 490.257 1131.78 496.318C1131.11 499.348 1130.4 501.801 1129.85 503.496C1129.57 504.344 1129.34 505.002 1129.17 505.446C1129.15 505.52 1129.12 505.587 1129.1 505.649C1113.61 498.865 1103.65 490.099 1097.41 480.773C1091.1 471.351 1088.56 461.328 1087.99 452.14C1087.41 442.949 1088.8 434.601 1090.34 428.547C1091.11 425.521 1091.91 423.072 1092.52 421.381C1092.83 420.535 1093.08 419.879 1093.26 419.436C1093.29 419.361 1093.32 419.292 1093.35 419.23Z" stroke="white" stroke-opacity="0.13" stroke-linecap="round" stroke-linejoin="round"/>
<path d="M1322.28 729.587C1324.13 712.833 1329.51 700.67 1336.53 691.842C1343.63 682.919 1352.42 677.376 1361.01 673.951C1369.6 670.525 1377.97 669.22 1384.19 668.773C1387.31 668.55 1389.88 668.541 1391.67 668.588C1392.57 668.611 1393.27 668.648 1393.75 668.68C1393.83 668.685 1393.9 668.69 1393.96 668.694C1390.12 701.091 1372.16 716.285 1355.13 723.406C1346.55 726.99 1338.21 728.531 1332 729.174C1328.9 729.496 1326.33 729.593 1324.54 729.61C1323.65 729.618 1322.95 729.607 1322.48 729.593C1322.41 729.591 1322.34 729.589 1322.28 729.587Z" stroke="white" stroke-opacity="0.13" stroke-linecap="round" stroke-linejoin="round"/>
<path d="M1597.26 285.989C1597.22 286.107 1597.17 286.212 1597.14 286.304C1578.7 277.474 1566.99 266.459 1559.78 254.91C1552.51 243.259 1549.8 231.034 1549.43 219.902C1549.05 208.766 1551.02 198.731 1553.07 191.477C1554.1 187.85 1555.15 184.922 1555.95 182.902C1556.34 181.892 1556.68 181.11 1556.91 180.581C1556.96 180.452 1557.02 180.338 1557.06 180.239C1592.67 197.833 1602.63 224.388 1603.71 246.576C1604.25 257.733 1602.55 267.795 1600.71 275.068C1599.8 278.704 1598.85 281.64 1598.13 283.664C1597.77 284.676 1597.47 285.46 1597.26 285.989Z" stroke="white" stroke-opacity="0.13" stroke-linecap="round" stroke-linejoin="round"/>
<path d="M1385.9 383C1388.22 362.676 1394.81 347.943 1403.38 337.27C1412.03 326.5 1422.72 319.836 1433.14 315.737C1443.56 311.637 1453.71 310.106 1461.25 309.601C1465.02 309.348 1468.14 309.353 1470.31 309.42C1471.4 309.453 1472.25 309.503 1472.82 309.543C1472.96 309.553 1473.09 309.563 1473.19 309.571C1468.22 348.974 1446.37 367.276 1425.72 375.768C1415.34 380.037 1405.25 381.828 1397.75 382.559C1394.01 382.924 1390.91 383.023 1388.75 383.036C1387.67 383.042 1386.82 383.026 1386.25 383.01C1386.12 383.007 1386 383.004 1385.9 383Z" stroke="white" stroke-opacity="0.13" stroke-linecap="round" stroke-linejoin="round"/>
<path d="M1427.56 289.921C1411.87 276.714 1403.26 263.085 1399.15 250.074C1395.01 236.951 1395.43 224.422 1397.85 213.541C1400.27 202.657 1404.68 193.427 1408.49 186.916C1410.4 183.662 1412.15 181.089 1413.42 179.332C1414.06 178.453 1414.58 177.779 1414.94 177.325C1415.02 177.214 1415.1 177.116 1415.17 177.031C1445.27 202.905 1448.32 231.143 1443.84 252.953C1441.6 263.92 1437.44 273.27 1433.85 279.88C1432.05 283.184 1430.4 285.802 1429.2 287.591C1428.59 288.486 1428.1 289.174 1427.77 289.637C1427.69 289.743 1427.62 289.838 1427.56 289.921Z" stroke="white" stroke-opacity="0.13" stroke-linecap="round" stroke-linejoin="round"/>
<path d="M1437.84 532.902C1437.77 533.015 1437.71 533.116 1437.66 533.204C1420.72 521.62 1410.78 508.909 1405.38 496.364C1399.94 483.71 1399.11 471.192 1400.43 460.115C1401.74 449.035 1405.21 439.405 1408.35 432.541C1409.91 429.11 1411.4 426.373 1412.49 424.496C1413.04 423.558 1413.49 422.834 1413.8 422.347C1413.87 422.228 1413.94 422.123 1414 422.032C1446.49 444.865 1452.36 472.68 1450.11 494.825C1448.98 505.96 1445.8 515.67 1442.9 522.599C1441.45 526.063 1440.07 528.829 1439.05 530.727C1438.54 531.676 1438.13 532.408 1437.84 532.902Z" stroke="white" stroke-opacity="0.13" stroke-linecap="round" stroke-linejoin="round"/>
<path d="M1505.26 601.602C1527.46 568.439 1555.23 561.74 1577.46 563.332C1588.63 564.132 1598.42 567.031 1605.41 569.736C1608.9 571.089 1611.69 572.392 1613.6 573.358C1614.55 573.841 1615.28 574.239 1615.77 574.517C1615.88 574.58 1615.98 574.636 1616.07 574.686C1604.87 591.899 1592.38 602.18 1579.94 607.929C1567.39 613.726 1554.87 614.93 1543.74 613.955C1532.6 612.978 1522.87 609.822 1515.92 606.906C1512.44 605.449 1509.66 604.053 1507.76 603.023C1506.8 602.508 1506.07 602.084 1505.57 601.79C1505.45 601.72 1505.35 601.657 1505.26 601.602Z" stroke="white" stroke-opacity="0.13" stroke-linecap="round" stroke-linejoin="round"/>
<path d="M1751.27 387.223C1751.4 387.202 1751.51 387.183 1751.61 387.167C1753.34 407.528 1749.78 423.249 1743.47 435.384C1737.11 447.627 1727.94 456.25 1718.53 462.308C1709.12 468.367 1699.47 471.856 1692.17 473.83C1688.52 474.817 1685.46 475.424 1683.32 475.785C1682.25 475.965 1681.4 476.084 1680.83 476.157C1680.69 476.174 1680.57 476.189 1680.46 476.202C1677.59 436.626 1695.43 414.405 1714.01 402.037C1723.35 395.818 1732.89 392.087 1740.09 389.906C1743.69 388.816 1746.71 388.114 1748.82 387.682C1749.88 387.466 1750.71 387.318 1751.27 387.223Z" stroke="white" stroke-opacity="0.13" stroke-linecap="round" stroke-linejoin="round"/>
<path d="M1664.55 384.26C1646.38 349 1654.13 321.672 1666.47 303.115C1672.67 293.784 1680.04 286.663 1685.88 281.871C1688.8 279.476 1691.33 277.665 1693.14 276.452C1694.04 275.846 1694.77 275.389 1695.27 275.084C1695.4 275.005 1695.51 274.935 1695.61 274.877C1705.15 292.927 1707.98 308.76 1706.88 322.356C1705.77 336.069 1700.66 347.542 1694.32 356.752C1687.98 365.965 1680.43 372.906 1674.45 377.546C1671.46 379.865 1668.87 381.607 1667.03 382.769C1666.11 383.349 1665.38 383.784 1664.88 384.074C1664.76 384.145 1664.65 384.207 1664.55 384.26Z" stroke="white" stroke-opacity="0.13" stroke-linecap="round" stroke-linejoin="round"/>
<path d="M1258.48 595.224C1280.22 561.828 1307.85 554.806 1330.1 556.132C1341.28 556.798 1351.11 559.578 1358.15 562.197C1361.67 563.506 1364.49 564.775 1366.43 565.717C1367.4 566.188 1368.15 566.578 1368.65 566.85C1368.77 566.914 1368.88 566.972 1368.97 567.022C1357.98 584.337 1345.61 594.749 1333.24 600.638C1320.76 606.579 1308.25 607.932 1297.11 607.093C1285.96 606.253 1276.19 603.219 1269.2 600.392C1265.71 598.979 1262.91 597.619 1260.99 596.613C1260.03 596.111 1259.29 595.697 1258.79 595.409C1258.67 595.34 1258.57 595.278 1258.48 595.224Z" stroke="white" stroke-opacity="0.13" stroke-linecap="round" stroke-linejoin="round"/>
<path d="M1152.59 516.748C1186.77 496.274 1214.64 502.092 1233.95 513.059C1243.66 518.574 1251.21 525.396 1256.31 530.855C1258.86 533.584 1260.8 535.97 1262.08 537.676C1262.73 538.53 1263.21 539.212 1263.51 539.68C1263.59 539.796 1263.66 539.897 1263.71 539.984C1246.3 550.722 1230.67 554.638 1217.03 554.487C1203.28 554.334 1191.51 550.049 1181.92 544.395C1172.33 538.739 1164.92 531.717 1159.91 526.106C1157.41 523.301 1155.51 520.85 1154.23 519.103C1153.6 518.229 1153.11 517.532 1152.79 517.053C1152.72 516.939 1152.65 516.836 1152.59 516.748ZM1264.11 539.738C1264.11 539.74 1264.1 539.742 1264.1 539.744C1264.11 539.737 1264.12 539.73 1264.13 539.723C1264.13 539.728 1264.12 539.733 1264.11 539.738Z" stroke="white" stroke-opacity="0.13" stroke-linecap="round" stroke-linejoin="round"/>
<path d="M1129.08 627.93C1108.65 629.917 1092.87 626.565 1080.68 620.429C1068.38 614.24 1059.71 605.203 1053.61 595.894C1047.51 586.583 1043.98 577.005 1041.98 569.75C1040.98 566.124 1040.37 563.082 1040 560.948C1039.82 559.881 1039.7 559.041 1039.62 558.47C1039.6 558.331 1039.59 558.208 1039.57 558.102C1079.26 554.719 1101.62 572.224 1114.08 590.596C1120.35 599.834 1124.12 609.3 1126.32 616.46C1127.43 620.039 1128.13 623.039 1128.57 625.142C1128.78 626.194 1128.93 627.021 1129.03 627.584C1129.05 627.713 1129.07 627.829 1129.08 627.93Z" stroke="white" stroke-opacity="0.13" stroke-linecap="round" stroke-linejoin="round"/>
<path d="M1257.17 673.677C1257.3 673.694 1257.42 673.71 1257.52 673.725C1253.32 693.705 1245.38 707.721 1235.84 717.516C1226.21 727.397 1214.93 733.006 1204.15 736.092C1193.37 739.18 1183.11 739.741 1175.53 739.529C1171.74 739.423 1168.63 739.124 1166.47 738.851C1165.39 738.715 1164.55 738.586 1163.98 738.491C1163.84 738.468 1163.72 738.447 1163.61 738.429C1172.36 699.675 1195.88 683.533 1217.24 677.056C1227.98 673.8 1238.18 672.986 1245.71 672.988C1249.47 672.989 1252.55 673.193 1254.7 673.397C1255.77 673.499 1256.61 673.601 1257.17 673.677Z" stroke="white" stroke-opacity="0.13" stroke-linecap="round" stroke-linejoin="round"/>
<path d="M1223.18 394.944C1262.35 388.133 1286.12 403.623 1300.16 420.834C1307.22 429.489 1311.82 438.587 1314.67 445.524C1316.1 448.992 1317.08 451.918 1317.72 453.975C1318.04 455.004 1318.27 455.816 1318.42 456.37C1318.46 456.493 1318.49 456.605 1318.51 456.704C1298.34 460.452 1282.32 458.485 1269.64 453.436C1256.83 448.342 1247.39 440.097 1240.49 431.357C1233.59 422.616 1229.24 413.384 1226.61 406.334C1225.29 402.81 1224.41 399.834 1223.85 397.741C1223.58 396.694 1223.38 395.869 1223.26 395.306C1223.23 395.17 1223.2 395.049 1223.18 394.944Z" stroke="white" stroke-opacity="0.13" stroke-linecap="round" stroke-linejoin="round"/>
<path d="M1127.2 354.663C1127.1 354.566 1127.02 354.479 1126.94 354.404C1156.45 327.611 1184.95 327.827 1206.1 334.744C1216.74 338.222 1225.53 343.399 1231.65 347.711C1234.71 349.867 1237.11 351.805 1238.73 353.203C1239.54 353.903 1240.16 354.467 1240.58 354.855C1240.67 354.944 1240.75 355.024 1240.83 355.093C1225.8 369.086 1211.2 376.039 1197.75 378.608C1184.19 381.199 1171.76 379.339 1161.22 375.699C1150.67 372.059 1142.01 366.642 1135.98 362.131C1132.97 359.876 1130.62 357.849 1129.02 356.388C1128.22 355.658 1127.61 355.069 1127.2 354.663Z" stroke="white" stroke-opacity="0.13" stroke-linecap="round" stroke-linejoin="round"/>
<path d="M1342.69 294.679C1342.69 294.81 1342.69 294.927 1342.69 295.029C1322.21 293.815 1307.14 288.045 1296.07 280.083C1284.89 272.052 1277.75 261.772 1273.19 251.622C1268.62 241.47 1266.64 231.455 1265.81 223.974C1265.39 220.235 1265.26 217.132 1265.23 214.966C1265.22 213.883 1265.23 213.034 1265.24 212.458C1265.25 212.318 1265.25 212.194 1265.26 212.087C1305.12 215.05 1324.45 235.83 1333.84 255.894C1338.56 265.983 1340.78 275.901 1341.81 283.299C1342.32 286.997 1342.54 290.063 1342.63 292.203C1342.68 293.272 1342.69 294.11 1342.69 294.679Z" stroke="white" stroke-opacity="0.13" stroke-linecap="round" stroke-linejoin="round"/>
<path d="M1329.79 181.11C1329.79 181.11 1399.28 244.481 1357.88 354.192C1316.47 463.902 1405.17 581.374 1459.15 608.269C1513.12 635.164 1599.44 754.126 1562.81 862.533" stroke="white" stroke-opacity="0.13" stroke-miterlimit="10" stroke-linecap="round" stroke-linejoin="round"/>
<path d="M1622.4 830.18C1511.53 801.862 1458.84 664.438 1465.61 604.758C1465.61 604.758 1452.6 531.039 1545.14 431.233C1637.68 331.427 1641.96 262.198 1627.7 208.778" stroke="white" stroke-opacity="0.13" stroke-miterlimit="10" stroke-linecap="round" stroke-linejoin="round"/>
<path d="M1449.94 164.839C1449.94 164.839 1595.34 268.873 1555.6 420.397" stroke="white" stroke-opacity="0.13" stroke-miterlimit="10" stroke-linecap="round" stroke-linejoin="round"/>
<path d="M1465.02 593.384C1481.06 571.499 1501.77 553.422 1525.65 540.46C1549.52 527.498 1575.96 519.976 1603.05 518.438C1694.03 514.535 1768.72 497.873 1809.91 396.21" stroke="white" stroke-opacity="0.13" stroke-miterlimit="10" stroke-linecap="round" stroke-linejoin="round"/>
<path d="M1575.87 521.797C1575.87 521.797 1656.12 483.08 1643.88 410.231" stroke="white" stroke-opacity="0.13" stroke-miterlimit="10" stroke-linecap="round" stroke-linejoin="round"/>
<path d="M1450.78 601.117C1423.68 602.655 1397.24 610.177 1373.37 623.139C1349.5 636.101 1328.79 654.179 1312.74 676.063C1259.92 750.242 1205.27 803.803 1097.57 782.98" stroke="white" stroke-opacity="0.13" stroke-miterlimit="10" stroke-linecap="round" stroke-linejoin="round"/>
<path d="M1052.65 460.842C1052.65 460.842 1147.07 667.789 1341.78 644.538" stroke="white" stroke-opacity="0.13" stroke-miterlimit="10" stroke-linecap="round" stroke-linejoin="round"/>
<path d="M1043.61 640.998C1043.61 640.998 1123.7 699.109 1226.58 631.556" stroke="white" stroke-opacity="0.13" stroke-miterlimit="10" stroke-linecap="round" stroke-linejoin="round"/>
<path d="M1205.65 306.797C1205.65 306.797 1305.96 278.401 1354.06 366.076" stroke="white" stroke-opacity="0.13" stroke-miterlimit="10" stroke-linecap="round" stroke-linejoin="round"/>
<path d="M1138.71 414.11C1138.71 414.11 1231.81 519.286 1361.22 486.291" stroke="white" stroke-opacity="0.13" stroke-miterlimit="10" stroke-linecap="round" stroke-linejoin="round"/>
</g>
</svg>
