<svg width="65" height="90" viewBox="0 0 65 90" fill="none" xmlns="http://www.w3.org/2000/svg">
<path d="M32.4261 0.00069483C23.9933 -0.0546517 15.8748 3.19841 9.81344 9.06157C3.75209 14.9247 0.231051 22.9306 0.00614142 31.3607C-0.203859 40.9907 5.00614 48.6307 10.3461 55.6907C19.2561 67.4007 27.9861 76.6907 32.0361 89.8007L32.0961 90.0007L32.1561 89.8007C36.2161 76.6507 44.9361 67.4007 53.9461 55.6007C59.1661 48.7607 64.1861 41.3807 64.1861 32.0907C64.184 23.6376 60.8476 15.5265 54.9013 9.51838C48.955 3.5103 40.8788 0.0902293 32.4261 0.00069483ZM32.0961 47.3907C29.0701 47.3907 26.112 46.4934 23.5959 44.8122C21.0798 43.131 19.1188 40.7415 17.9608 37.9458C16.8028 35.15 16.4998 32.0737 17.0901 29.1058C17.6805 26.1379 19.1377 23.4117 21.2774 21.272C23.4172 19.1322 26.1434 17.675 29.1113 17.0847C32.0792 16.4943 35.1555 16.7973 37.9512 17.9553C40.7469 19.1134 43.1364 21.0744 44.8176 23.5905C46.4988 26.1065 47.3961 29.0646 47.3961 32.0907C47.3961 36.1485 45.7842 40.0401 42.9149 42.9094C40.0456 45.7787 36.154 47.3907 32.0961 47.3907Z" fill="#3B5C9F"/>
</svg>
