<svg width="546" height="546" viewBox="0 0 546 546" fill="none" xmlns="http://www.w3.org/2000/svg">
<g clip-path="url(#clip0)">
<path d="M373.924 487.258C500.946 438.297 467.419 369.653 490.784 278.828C514.15 188.002 511.568 153.287 454.686 89.851C397.804 26.4148 299.528 2.93328 229.443 77.9628C159.357 152.992 94.5006 145.831 54.4205 201.571C14.3404 257.311 21.8226 323.313 94.249 369.883C166.676 416.453 217.235 547.626 373.924 487.258Z" fill="#ECEFF5"/>
<path opacity="0.2" d="M436.548 89.9199L434.864 90.4365C434.099 90.7169 433.258 90.7135 432.495 90.4269C431.731 90.1403 431.096 89.5896 430.705 88.8746C425.811 79.9984 414.972 76.9517 404.105 80.2905C394.293 83.2976 385.301 92.1048 381.302 102.251C380.828 103.569 380.068 104.766 379.076 105.755C378.085 106.745 376.886 107.503 375.567 107.974L367.2 110.544C366.066 110.93 364.838 110.941 363.697 110.576C362.556 110.211 361.562 109.489 360.862 108.517C355.488 101.239 345.57 98.2405 335.747 101.25C324.857 104.583 315.025 113.963 311.751 125.35C311.495 126.265 311.023 127.104 310.374 127.798C309.726 128.491 308.919 129.018 308.024 129.333L306.34 129.85C305.949 129.99 305.615 130.253 305.386 130.6C305.158 130.946 305.047 131.357 305.072 131.772L305.422 136.179C305.416 136.332 305.441 136.484 305.496 136.626C305.552 136.768 305.636 136.896 305.745 137.004C305.853 137.111 305.982 137.195 306.125 137.249C306.267 137.303 306.42 137.327 306.572 137.319L308.782 137.45C309.638 137.496 310.451 137.839 311.082 138.419C311.713 138.999 312.123 139.78 312.241 140.629C314.784 154.405 326.782 162.092 340.246 157.972C353.227 153.991 363.213 140.341 364.163 126.243C364.255 125.099 364.629 123.994 365.252 123.03C365.875 122.065 366.727 121.269 367.733 120.715C370.469 119.244 373.457 118.298 376.541 117.926C377.524 117.808 378.516 118.064 379.318 118.643C380.121 119.222 380.677 120.082 380.874 121.052C383.972 133.954 395.581 141.004 408.583 137.018C422.071 132.904 432.322 118.438 432.639 103.762C432.671 102.744 432.94 101.747 433.425 100.851C433.909 99.9545 434.597 99.1837 435.431 98.5995L437.524 97.165C437.82 96.978 438.06 96.7155 438.22 96.4046C438.38 96.0937 438.455 95.7456 438.436 95.3963L438.096 90.9859C438.109 90.7967 438.072 90.6074 437.99 90.4367C437.907 90.2659 437.782 90.1195 437.626 90.012C437.469 89.9044 437.288 89.8393 437.099 89.8232C436.91 89.8071 436.72 89.8404 436.548 89.9199ZM339.969 154.243C327.415 158.088 316.403 150.153 315.322 136.577C314.241 123 323.538 108.774 336.073 104.99C348.607 101.206 359.639 109.081 360.709 122.659C361.779 136.238 352.49 150.406 339.969 154.243ZM363.837 118.988C363.716 118.269 363.562 117.531 363.373 116.775C363.313 116.469 363.365 116.152 363.518 115.881C363.671 115.61 363.915 115.402 364.208 115.295L379.189 110.71C379.318 110.665 379.456 110.655 379.59 110.681C379.724 110.706 379.849 110.766 379.953 110.854C380.057 110.943 380.136 111.057 380.183 111.185C380.229 111.313 380.242 111.451 380.219 111.585C380.161 112.374 380.125 113.158 380.112 113.947C373.115 113.617 366.995 116.894 363.837 118.988ZM408.284 133.294C395.731 137.139 384.718 129.204 383.648 115.625C382.578 102.046 391.854 87.825 404.388 84.0409C416.922 80.2569 427.954 88.1311 429.035 101.707C430.116 115.284 420.837 129.449 408.284 133.294Z" fill="black" fill-opacity="0.7"/>
<path d="M426.277 95.182L331.948 131.507C329.721 132.365 327.698 133.68 326.011 135.367C324.323 137.055 323.008 139.078 322.15 141.305L312.87 165.477C312.786 165.701 312.753 165.941 312.775 166.18C312.796 166.419 312.871 166.649 312.993 166.855C313.116 167.061 313.284 167.236 313.484 167.368C313.684 167.501 313.911 167.586 314.148 167.618C315.192 167.756 316.251 167.538 317.155 166.999C318.059 166.46 318.754 165.632 319.129 164.648L327.728 142.369C328.238 141.036 329.02 139.824 330.023 138.81C331.027 137.796 332.23 137.001 333.557 136.477L427.634 99.2921L426.277 95.182Z" fill="#263238"/>
<path d="M296.804 134.936L394.675 109.72C396.991 109.13 399.405 109.032 401.761 109.434C404.117 109.836 406.363 110.728 408.352 112.052L429.953 126.34C430.152 126.472 430.319 126.648 430.441 126.854C430.562 127.06 430.635 127.291 430.655 127.53C430.674 127.768 430.639 128.008 430.553 128.231C430.466 128.454 430.33 128.655 430.155 128.818C429.387 129.538 428.399 129.978 427.351 130.067C426.302 130.156 425.254 129.888 424.376 129.307L404.423 116.129C403.229 115.339 401.883 114.806 400.472 114.565C399.061 114.324 397.615 114.379 396.226 114.728L298.036 139.087L296.804 134.936Z" fill="#263238"/>
<path d="M357.863 126.891C359.127 126.824 361.06 135.108 358.991 138.558C356.922 142.009 352.487 135.886 352.612 133.273C352.737 130.66 353.899 127.079 357.863 126.891Z" fill="#2A4B8E" stroke="#263238" stroke-linecap="round" stroke-linejoin="round"/>
<path d="M374.681 121.731C373.605 122.393 376.625 130.248 380.287 132.03C383.95 133.813 384.18 126.166 382.613 124.083C381.046 121.999 378.062 119.672 374.681 121.731Z" fill="#2A4B8E" stroke="#263238" stroke-linecap="round" stroke-linejoin="round"/>
<path opacity="0.5" d="M309.413 118.05C313.497 112.42 322.583 102.322 336.207 106.586C349.832 110.851 355.799 117.605 355.873 128.672C355.947 139.738 351.805 155.557 333.56 157.354C315.316 159.151 296.732 135.537 309.413 118.05Z" fill="#2A4B8E"/>
<path opacity="0.5" d="M378.078 97.9832C382.162 92.3534 391.235 82.2465 404.859 86.5112C418.484 90.7758 424.462 97.5274 424.525 108.597C424.588 119.666 420.467 135.479 402.212 137.279C383.957 139.078 365.374 115.419 378.078 97.9832Z" fill="#2A4B8E"/>
<path d="M427.949 93.2083L426.265 93.7249C425.432 93.9841 424.541 93.9947 423.702 93.7554C422.862 93.5161 422.111 93.0373 421.54 92.3775C414.591 84.2978 402.511 81.7401 391.62 85.0734C386.815 86.5639 382.471 89.2593 379.001 92.9033C375.532 96.5472 373.052 101.018 371.799 105.891C371.519 107.147 370.916 108.308 370.049 109.259C369.182 110.21 368.082 110.917 366.857 111.312L358.487 113.871C357.25 114.238 355.939 114.273 354.684 113.973C353.43 113.673 352.276 113.049 351.339 112.162C347.569 108.829 343.009 106.516 338.092 105.444C333.176 104.372 328.067 104.575 323.252 106.036C312.364 109.379 303.795 118.265 302.575 128.856C302.47 129.722 302.115 130.538 301.553 131.206C300.991 131.873 300.247 132.362 299.412 132.614L297.728 133.13C297.361 133.244 297.054 133.499 296.875 133.839C296.695 134.179 296.658 134.576 296.771 134.944L298.022 139.034C298.118 139.339 298.312 139.605 298.573 139.789C298.835 139.974 299.15 140.068 299.469 140.057L301.842 140.116C302.759 140.127 303.654 140.402 304.421 140.907C305.187 141.411 305.792 142.125 306.164 142.964C308.714 149.124 313.43 154.138 319.423 157.06C325.415 159.983 332.27 160.611 338.694 158.827C345.118 157.043 350.667 152.97 354.294 147.376C357.921 141.782 359.377 135.054 358.385 128.462C358.26 127.431 358.453 126.387 358.937 125.468C359.42 124.55 360.172 123.8 361.092 123.32C363.822 121.85 366.802 120.906 369.88 120.536C370.924 120.423 371.977 120.631 372.9 121.131C373.823 121.632 374.571 122.402 375.045 123.339C377.896 129.394 382.872 134.192 389.027 136.819C395.183 139.446 402.089 139.721 408.434 137.591C414.779 135.461 420.12 131.074 423.443 125.264C426.765 119.454 427.838 112.626 426.457 106.077C426.292 105.178 426.388 104.251 426.735 103.405C427.081 102.56 427.663 101.831 428.411 101.307L430.326 99.9262C430.596 99.7563 430.804 99.5026 430.917 99.2038C431.029 98.905 431.041 98.5776 430.951 98.2714L429.688 94.1833C429.582 93.8265 429.341 93.525 429.017 93.343C428.692 93.1609 428.309 93.1126 427.949 93.2083ZM338.223 154.876C333.732 156.254 328.933 156.269 324.434 154.919C319.934 153.569 315.937 150.914 312.947 147.291C309.957 143.668 308.109 139.239 307.637 134.565C307.165 129.891 308.091 125.182 310.296 121.034C312.502 116.887 315.888 113.487 320.027 111.264C324.166 109.042 328.871 108.098 333.546 108.551C338.222 109.004 342.658 110.834 346.294 113.809C349.929 116.785 352.6 120.772 353.968 125.266C355.79 131.28 355.156 137.771 352.206 143.32C349.255 148.869 344.228 153.023 338.223 154.876ZM356.554 121.77C356.264 121.076 355.955 120.398 355.619 119.748C355.553 119.62 355.517 119.478 355.512 119.334C355.507 119.189 355.534 119.045 355.592 118.913C355.649 118.78 355.734 118.661 355.843 118.565C355.951 118.47 356.079 118.399 356.218 118.358L371.196 113.763C371.335 113.711 371.485 113.692 371.633 113.706C371.781 113.721 371.923 113.769 372.05 113.847C372.177 113.924 372.285 114.03 372.365 114.155C372.445 114.28 372.495 114.422 372.513 114.57C372.607 115.288 372.727 116.023 372.863 116.731C367.047 116.682 361.359 118.44 356.586 121.762L356.554 121.77ZM406.57 133.919C402.079 135.297 397.281 135.312 392.781 133.962C388.282 132.612 384.284 129.957 381.294 126.334C378.304 122.71 376.456 118.282 375.984 113.608C375.513 108.934 376.438 104.225 378.644 100.077C380.849 95.9297 384.236 92.5296 388.374 90.3075C392.513 88.0853 397.218 87.1409 401.894 87.594C406.57 88.047 411.006 89.877 414.641 92.8525C418.276 95.8279 420.947 99.8149 422.315 104.309C424.139 110.318 423.51 116.805 420.566 122.352C417.622 127.899 412.601 132.054 406.602 133.911L406.57 133.919Z" fill="#757575" stroke="#263238" stroke-linecap="round" stroke-linejoin="round"/>
<path opacity="0.4" d="M319.274 150.789C319.274 150.789 308.08 141.583 310.933 127.085C313.518 114.044 325.843 109.67 332.434 110.693L324.87 136.676C324.731 130.807 325.223 124.939 326.34 119.175C326.34 119.175 317.612 133.623 319.274 150.789Z" fill="white"/>
<path opacity="0.4" d="M387.3 129.246C387.3 129.246 376.108 120.052 378.962 105.553C381.544 92.5013 393.869 88.1273 400.452 89.1636L392.835 115.115C391.858 106.691 394.363 97.6218 394.363 97.6218C394.363 97.6218 385.623 112.062 387.3 129.246Z" fill="white"/>
<path d="M133.497 388.922L218.799 138.173L137.467 93.4564L115.85 151.94L116.915 148.516L111.998 145.775C111.508 145.503 110.964 145.341 110.405 145.299C109.846 145.257 109.284 145.336 108.758 145.532C108.233 145.727 107.755 146.034 107.359 146.431C106.963 146.828 106.658 147.306 106.464 147.832L95.8059 176.669C95.1224 178.51 95.043 180.522 95.579 182.412C96.1151 184.302 97.2388 185.972 98.7875 187.181L101.902 189.616L49.9838 330.076L133.497 388.922Z" fill="#2E353A"/>
<path d="M434.247 224.83C432.772 224.326 431.557 223.259 430.868 221.861C430.18 220.463 430.073 218.849 430.573 217.372L432.759 210.95L218.802 138.173L133.5 388.922L347.456 461.714L393.894 325.204C394.396 323.73 395.463 322.517 396.86 321.829C398.257 321.141 399.869 321.036 401.343 321.536C402.074 321.785 402.847 321.887 403.618 321.837C404.388 321.787 405.141 321.586 405.834 321.245C406.526 320.903 407.145 320.429 407.654 319.849C408.163 319.268 408.553 318.593 408.801 317.862L437.915 232.28C438.415 230.805 438.31 229.193 437.622 227.796C436.934 226.399 435.721 225.333 434.247 224.83Z" fill="#325294" stroke="#2E353A" stroke-linecap="round" stroke-linejoin="round"/>
<path d="M434.585 237.889L283.526 157.975L176.488 360.304L327.548 440.218L434.585 237.889Z" fill="white" stroke="#2E353A" stroke-linecap="round" stroke-linejoin="round"/>
<path d="M434.585 237.901L283.526 157.987L244.093 232.525L395.153 312.439L434.585 237.901Z" fill="white" stroke="#2E353A" stroke-linecap="round" stroke-linejoin="round"/>
<path d="M366.005 283.846C379.752 287.552 393.9 279.413 397.607 265.666C401.313 251.92 393.174 237.771 379.428 234.064C365.681 230.358 351.532 238.497 347.825 252.244C344.119 265.99 352.258 280.139 366.005 283.846Z" fill="#2E353A" stroke="#2E353A" stroke-linecap="round" stroke-linejoin="round"/>
<path d="M360.637 281.762C363.987 283.539 367.69 284.553 371.478 284.731C375.267 284.91 379.048 284.248 382.551 282.794C386.915 272.724 383.376 261.128 374.145 256.226C364.915 251.324 353.323 254.947 347.459 264.218C348.227 267.933 349.806 271.432 352.085 274.465C354.363 277.498 357.283 279.99 360.637 281.762Z" fill="white" stroke="#2E353A" stroke-linecap="round" stroke-linejoin="round"/>
<path d="M373.706 267.442C380.883 268.201 387.316 262.999 388.075 255.823C388.834 248.647 383.632 242.214 376.456 241.455C369.28 240.695 362.847 245.897 362.088 253.074C361.328 260.25 366.53 266.683 373.706 267.442Z" fill="white" stroke="#2E353A" stroke-linecap="round" stroke-linejoin="round"/>
<path d="M335.641 219.511L282.776 191.543L279.564 197.616L332.429 225.583L335.641 219.511Z" fill="white" stroke="#2E353A" stroke-linecap="round" stroke-linejoin="round"/>
<path d="M327.929 234.106L275.063 206.139L271.851 212.211L324.716 240.178L327.929 234.106Z" fill="white" stroke="#2E353A" stroke-linecap="round" stroke-linejoin="round"/>
<path d="M321.498 246.244L268.633 218.277L267.024 221.317L319.89 249.285L321.498 246.244Z" fill="#2E353A"/>
<path d="M317.638 253.539L264.772 225.572L263.164 228.613L316.029 256.58L317.638 253.539Z" fill="#2E353A"/>
<path d="M298.031 290.606L245.166 262.639L243.557 265.679L296.423 293.647L298.031 290.606Z" fill="#2E353A"/>
<path d="M294.484 297.29L241.619 269.323L240.01 272.364L292.875 300.331L294.484 297.29Z" fill="#2E353A"/>
<path d="M290.954 303.976L238.089 276.008L236.48 279.049L289.345 307.016L290.954 303.976Z" fill="#2E353A"/>
<path d="M369.733 328.534L316.868 300.567L315.259 303.608L368.125 331.575L369.733 328.534Z" fill="#2E353A"/>
<path d="M366.198 335.227L313.332 307.26L311.724 310.301L364.589 338.268L366.198 335.227Z" fill="#2E353A"/>
<path d="M362.655 341.908L309.79 313.941L308.181 316.982L361.047 344.949L362.655 341.908Z" fill="#2E353A"/>
<path d="M247.135 255.928L374.739 323.452" stroke="#2E353A" stroke-linecap="round" stroke-linejoin="round"/>
<path d="M279.707 325.242L226.842 297.275L225.233 300.316L278.098 328.283L279.707 325.242Z" fill="#2E353A"/>
<path d="M276.159 331.929L223.294 303.962L221.685 307.003L274.55 334.97L276.159 331.929Z" fill="#2E353A"/>
<path d="M272.629 338.615L219.764 310.648L218.155 313.689L271.02 341.656L272.629 338.615Z" fill="#2E353A"/>
<path d="M351.408 363.174L298.543 335.207L296.935 338.248L349.8 366.215L351.408 363.174Z" fill="#2E353A"/>
<path d="M347.87 369.867L295.005 341.9L293.396 344.941L346.261 372.908L347.87 369.867Z" fill="#2E353A"/>
<path d="M344.334 376.547L291.469 348.58L289.86 351.621L342.725 379.588L344.334 376.547Z" fill="#2E353A"/>
<path d="M228.806 290.562L356.41 358.086" stroke="#2E353A" stroke-linecap="round" stroke-linejoin="round"/>
<path d="M337.265 389.906L212.081 323.68L196.009 354.06L321.193 420.286L337.265 389.906Z" fill="#2E353A" stroke="#2E353A" stroke-linecap="round" stroke-linejoin="round"/>
<path d="M410.514 231.37L254.747 161.072L160.589 369.706L316.356 440.005L410.514 231.37Z" fill="white" stroke="#2E353A" stroke-linecap="round" stroke-linejoin="round"/>
<path d="M410.518 231.378L254.75 161.08L220.063 237.941L375.83 308.24L410.518 231.378Z" fill="white" stroke="#2E353A" stroke-linecap="round" stroke-linejoin="round"/>
<path d="M354.643 281.646C368.654 279.115 377.96 265.705 375.429 251.694C372.898 237.683 359.488 228.377 345.477 230.908C331.466 233.439 322.16 246.849 324.691 260.86C327.222 274.871 340.632 284.177 354.643 281.646Z" fill="#2E353A" stroke="#2E353A" stroke-linecap="round" stroke-linejoin="round"/>
<path d="M339.451 279.786C342.907 281.348 346.666 282.127 350.459 282.066C354.251 282.006 357.983 281.107 361.388 279.436C365.112 269.125 360.859 257.763 351.33 253.468C341.801 249.173 330.474 253.495 325.199 263.11C326.2 266.768 327.997 270.159 330.461 273.042C332.924 275.924 335.994 278.227 339.451 279.786Z" fill="white" stroke="#2E353A" stroke-linecap="round" stroke-linejoin="round"/>
<path d="M351.15 264.624C358.344 265.189 364.634 259.815 365.199 252.621C365.764 245.427 360.39 239.137 353.196 238.572C346.002 238.007 339.712 243.381 339.147 250.575C338.582 257.769 343.956 264.059 351.15 264.624Z" fill="white" stroke="#2E353A" stroke-linecap="round" stroke-linejoin="round"/>
<path d="M310.6 219.226L256.088 194.624L253.262 200.885L307.775 225.487L310.6 219.226Z" fill="white" stroke="#2E353A" stroke-linecap="round" stroke-linejoin="round"/>
<path d="M303.819 234.265L249.306 209.663L246.48 215.924L300.993 240.526L303.819 234.265Z" fill="white" stroke="#2E353A" stroke-linecap="round" stroke-linejoin="round"/>
<path d="M298.17 246.794L243.657 222.192L242.242 225.328L296.755 249.93L298.17 246.794Z" fill="#2E353A"/>
<path d="M294.776 254.313L240.263 229.712L238.848 232.847L293.36 257.449L294.776 254.313Z" fill="#2E353A"/>
<path d="M277.527 292.539L223.015 267.937L221.6 271.073L276.112 295.675L277.527 292.539Z" fill="#2E353A"/>
<path d="M274.417 299.431L219.904 274.829L218.489 277.965L273.002 302.566L274.417 299.431Z" fill="#2E353A"/>
<path d="M271.292 306.325L216.78 281.723L215.364 284.859L269.877 309.461L271.292 306.325Z" fill="#2E353A"/>
<path d="M351.449 325.911L296.937 301.309L295.521 304.444L350.034 329.046L351.449 325.911Z" fill="#2E353A"/>
<path d="M348.343 332.793L293.831 308.191L292.415 311.327L346.928 335.929L348.343 332.793Z" fill="#2E353A"/>
<path d="M345.233 339.7L290.72 315.098L289.305 318.233L343.818 342.835L345.233 339.7Z" fill="#2E353A"/>
<path d="M224.556 261.112L356.145 320.508" stroke="#2E353A" stroke-linecap="round" stroke-linejoin="round"/>
<path d="M261.4 328.256L206.887 303.654L205.472 306.79L259.985 331.392L261.4 328.256Z" fill="#2E353A"/>
<path d="M258.3 335.146L203.788 310.544L202.372 313.68L256.885 338.282L258.3 335.146Z" fill="#2E353A"/>
<path d="M255.185 342.045L200.672 317.443L199.257 320.579L253.77 345.181L255.185 342.045Z" fill="#2E353A"/>
<path d="M335.342 361.631L280.829 337.029L279.414 340.164L333.927 364.766L335.342 361.631Z" fill="#2E353A"/>
<path d="M332.236 368.513L277.723 343.911L276.308 347.047L330.821 371.649L332.236 368.513Z" fill="#2E353A"/>
<path d="M329.111 375.408L274.598 350.806L273.183 353.941L327.696 378.543L329.111 375.408Z" fill="#2E353A"/>
<path d="M208.434 296.825L340.023 356.221" stroke="#2E353A" stroke-linecap="round" stroke-linejoin="round"/>
<path d="M322.901 389.189L193.816 330.932L179.678 362.259L308.763 420.516L322.901 389.189Z" fill="#2E353A" stroke="#2E353A" stroke-linecap="round" stroke-linejoin="round"/>
<path d="M387.276 203.95L221.831 161.132L164.481 382.729L329.926 425.546L387.276 203.95Z" fill="white" stroke="#2E353A" stroke-linecap="round" stroke-linejoin="round"/>
<path d="M387.273 203.959L221.828 161.142L200.7 242.778L366.145 285.596L387.273 203.959Z" fill="white" stroke="#2E353A" stroke-linecap="round" stroke-linejoin="round"/>
<path d="M315.972 258.977C327.15 267.796 343.36 265.883 352.179 254.705C360.997 243.527 359.084 227.317 347.906 218.498C336.728 209.68 320.518 211.593 311.7 222.771C302.881 233.949 304.794 250.159 315.972 258.977Z" fill="#2E353A" stroke="#2E353A" stroke-linecap="round" stroke-linejoin="round"/>
<path d="M325.546 263.662C329.217 264.615 333.054 264.745 336.782 264.043C340.509 263.34 344.035 261.822 347.108 259.597C349.031 248.793 342.894 238.332 332.785 235.712C322.676 233.093 312.228 239.276 308.667 249.654C310.273 253.09 312.619 256.127 315.538 258.549C318.456 260.971 321.874 262.717 325.546 263.662Z" fill="#325294" stroke="#2E353A" stroke-linecap="round" stroke-linejoin="round"/>
<path d="M331.643 246.725C338.804 247.613 345.33 242.528 346.218 235.367C347.106 228.205 342.021 221.68 334.86 220.792C327.698 219.904 321.173 224.989 320.285 232.15C319.396 239.312 324.482 245.837 331.643 246.725Z" fill="white" stroke="#2E353A" stroke-linecap="round" stroke-linejoin="round"/>
<path d="M286.749 208.947L228.85 193.962L227.129 200.613L285.028 215.598L286.749 208.947Z" fill="white" stroke="#2E353A" stroke-linecap="round" stroke-linejoin="round"/>
<path d="M282.614 224.917L224.714 209.932L222.993 216.582L280.893 231.567L282.614 224.917Z" fill="white" stroke="#2E353A" stroke-linecap="round" stroke-linejoin="round"/>
<path d="M277.515 238.523L219.764 223.303L218.888 226.625L276.64 241.845L277.515 238.523Z" fill="#2E353A"/>
<path d="M277.114 246.213L219.214 231.229L218.352 234.559L276.252 249.543L277.114 246.213Z" fill="#2E353A"/>
<path d="M266.609 286.813L208.71 271.829L207.848 275.159L265.747 290.144L266.609 286.813Z" fill="#2E353A"/>
<path d="M264.708 294.141L206.809 279.156L205.947 282.487L263.846 297.471L264.708 294.141Z" fill="#2E353A"/>
<path d="M262.808 301.467L204.908 286.483L204.046 289.813L261.946 304.798L262.808 301.467Z" fill="#2E353A"/>
<path d="M345.146 307.137L287.246 292.152L286.384 295.483L344.284 310.467L345.146 307.137Z" fill="#2E353A"/>
<path d="M343.255 314.467L285.356 299.482L284.494 302.812L342.393 317.797L343.255 314.467Z" fill="#2E353A"/>
<path d="M341.354 321.793L283.454 306.809L282.592 310.139L340.492 325.124L341.354 321.793Z" fill="#2E353A"/>
<path d="M209.12 264.825L348.892 300.985" stroke="#2E353A" stroke-linecap="round" stroke-linejoin="round"/>
<path d="M256.787 324.759L198.887 309.775L198.025 313.105L255.925 328.09L256.787 324.759Z" fill="#2E353A"/>
<path d="M254.887 332.076L196.988 317.092L196.126 320.422L254.025 335.407L254.887 332.076Z" fill="#2E353A"/>
<path d="M253.001 339.399L195.102 324.414L194.24 327.745L252.139 342.729L253.001 339.399Z" fill="#2E353A"/>
<path d="M335.324 345.083L277.424 330.098L276.562 333.429L334.462 348.413L335.324 345.083Z" fill="#2E353A"/>
<path d="M333.433 352.402L275.534 337.418L274.672 340.748L332.571 355.733L333.433 352.402Z" fill="#2E353A"/>
<path d="M331.524 359.721L273.624 344.737L272.762 348.067L330.662 363.052L331.524 359.721Z" fill="#2E353A"/>
<path d="M199.303 302.757L339.067 338.924" stroke="#2E353A" stroke-linecap="round" stroke-linejoin="round"/>
<path d="M327.75 374.375L190.645 338.891L182.033 372.164L319.139 407.648L327.75 374.375Z" fill="#2E353A" stroke="#2E353A" stroke-linecap="round" stroke-linejoin="round"/>
<path d="M218.801 138.173L210.838 42.4118L178.849 133.048C178.059 135.222 175.862 133.394 175.253 130.041C174.629 126.656 172.388 124.812 171.632 127.055L156.047 173.143C155.851 173.828 155.794 174.546 155.879 175.253L157.252 189.529C157.345 190.252 157.282 190.987 157.067 191.684L122.681 287.546L133.506 388.93L218.801 138.173Z" fill="#325294" stroke="#2E353A" stroke-linecap="round" stroke-linejoin="round"/>
<path opacity="0.25" d="M218.801 138.173L210.838 42.4118L178.849 133.048C178.059 135.222 175.862 133.394 175.253 130.041C174.629 126.656 172.388 124.812 171.632 127.055L156.047 173.143C155.851 173.828 155.794 174.546 155.879 175.253L157.252 189.529C157.345 190.252 157.282 190.987 157.067 191.684L122.681 287.546L133.506 388.93L218.801 138.173Z" fill="#2E353A" stroke="#2E353A" stroke-linecap="round" stroke-linejoin="round"/>
<path opacity="0.2" d="M328.756 250.72C328.756 250.72 320.544 255.273 325.775 267.613C331.006 279.952 362.816 300.242 362.171 310.55C362.171 310.55 329.51 290.195 320.435 301.945C320.435 301.945 345.103 325.871 347.67 343.867C350.236 361.863 358.59 369.846 377.896 380.111C397.203 390.375 439.179 444.539 439.179 444.539L432.9 353.575L371.748 284.561L341.522 267.329L328.756 250.72Z" fill="black" fill-opacity="0.7"/>
<path d="M494.675 412.903L440.839 448.262H440.752C440.702 448.26 440.654 448.243 440.613 448.214C440.573 448.185 440.541 448.145 440.523 448.098C440.282 447.465 416.499 383.9 410.766 378.942C407.537 376.025 405.185 372.266 403.973 368.087C403.973 368.087 403.973 368.033 403.973 368C403.766 367.301 403.668 366.843 403.646 366.722C400.479 360.282 395.621 354.824 389.592 350.932C385.561 348.49 381.304 346.442 376.881 344.817C370.11 342.076 363.144 339.248 358.219 334.017C357.375 333.123 356.604 332.163 355.914 331.145C348.085 319.679 335.996 307.023 331.967 304.424C327.937 301.825 320.523 302.174 320.457 302.174C320.397 302.181 320.336 302.164 320.287 302.128C320.239 302.091 320.206 302.038 320.195 301.978C320.064 300.978 320.155 299.962 320.46 299.001C320.766 298.041 321.28 297.159 321.964 296.419C322.993 295.217 324.271 294.252 325.71 293.592C327.148 292.932 328.713 292.593 330.296 292.597C336.521 292.597 345.093 295.873 349.417 299.99C353.741 304.107 363.744 307.132 364.891 307.481C366.518 306.52 370.351 308.573 371.759 309.458C370.089 303.507 370.766 301.213 371.028 300.635C367.446 295.994 348.795 282.256 338.89 275.366C336.16 273.455 334.107 272.09 333.212 271.555C328.593 268.836 324.771 260.329 325.513 254.388C325.549 253.582 325.764 252.793 326.142 252.079C326.519 251.365 327.051 250.744 327.697 250.261C328.626 249.677 329.714 249.398 330.809 249.463C331.254 249.475 331.697 249.53 332.131 249.627C332.175 249.646 332.215 249.672 332.251 249.704C332.338 249.824 341.609 260.82 344.82 262.546C346.392 263.386 354.757 267.612 362.707 271.544L366.288 273.313C366.267 269.851 366.449 266.39 366.834 262.95C367.14 261.596 369.302 259.674 371.759 258.582C372.906 258.057 375.035 257.304 376.597 258.134C377.198 258.472 378.617 259.346 380.583 260.569L383.859 262.6C384.556 261.529 385.41 260.568 386.392 259.75C387.211 259.27 391.743 258.429 393.359 258.997C394.768 259.51 399.289 262.382 404.072 265.418L406.136 266.717C406.387 266.247 406.976 265.265 407.533 265.046C409.894 264.174 412.464 264.037 414.904 264.653C416.521 265.243 422.068 269.338 427.44 273.302C430.389 275.486 433.217 277.572 435.084 278.827C435.147 278.844 435.202 278.882 435.237 278.937C435.772 279.297 436.22 279.581 436.559 279.777C440.512 282.038 450.231 333.012 450.329 333.526C450.962 336.944 453.277 340.471 455.723 344.205C458.491 348.093 460.755 352.317 462.461 356.774C465.573 365.871 472.66 379.182 483.045 395.453C483.984 396.909 484.953 398.405 485.95 399.941C488.756 404.189 491.748 408.623 494.675 412.903Z" fill="white"/>
<path opacity="0.4" d="M374.708 315.278C372.622 316.927 357.487 315.366 355.631 320.454C354.539 323.457 355.347 328 358.186 333.995C357.342 333.101 356.572 332.141 355.882 331.123C348.052 319.657 335.964 307.001 331.934 304.402C327.905 301.803 320.523 302.174 320.457 302.174C320.397 302.181 320.336 302.164 320.287 302.128C320.239 302.091 320.206 302.038 320.195 301.978C320.064 300.978 320.155 299.962 320.46 299.001C320.766 298.041 321.28 297.159 321.964 296.419C322.993 295.217 324.271 294.252 325.71 293.592C327.148 292.932 328.713 292.593 330.296 292.597C336.521 292.597 345.093 295.873 349.417 299.99C353.741 304.107 363.744 307.132 364.891 307.481C366.518 306.52 370.351 308.573 371.759 309.458C370.089 303.507 370.766 301.213 371.028 300.635C367.446 295.994 348.795 282.256 338.89 275.366C336.16 273.455 334.107 272.09 333.212 271.555C328.593 268.836 324.771 260.329 325.513 254.388C325.549 253.582 325.764 252.793 326.142 252.079C326.519 251.365 327.051 250.744 327.697 250.261C328.626 249.677 329.714 249.398 330.809 249.463C330.058 249.757 329.364 250.178 328.756 250.708C325.721 253.296 332.961 266.957 337.034 270.736C341.293 274.678 360.446 284.462 367.326 290.293C371.104 293.493 376.062 298.341 376.062 298.341C373.037 303.496 376.739 313.662 374.708 315.278Z" fill="#2A4B8E"/>
<path d="M445.032 231.775C445.032 231.675 445.032 231.653 445.032 231.697C445.041 231.709 445.045 231.722 445.045 231.736C445.045 231.75 445.041 231.764 445.032 231.775Z" fill="#2A4B8E"/>
<path opacity="0.4" d="M483.044 395.399C474.931 387.678 462.853 375.655 460.593 370.381C457.142 362.3 454.838 354.842 450.546 349.404C446.255 343.966 437.551 286.013 435.051 285.849C432.55 285.686 438.196 308.781 438.49 309.961C438.25 309.229 435.127 299.39 432.135 288.175C429.034 276.524 425.9 275.89 425.9 275.89C421.739 276.72 421.717 279.68 419.588 279.636C417.458 279.592 410.153 274.405 410.153 274.405C403.066 275.432 376.476 258.309 376.476 258.309C370.426 259.128 369.006 264.413 374.172 269.371C379.337 274.329 387.057 280.335 387.057 280.335C382.078 282.759 363.798 272.505 363.798 272.505L362.706 271.522L366.287 273.291C366.266 269.829 366.448 266.369 366.833 262.928C367.139 261.574 369.301 259.652 371.758 258.56C372.905 258.036 375.034 257.283 376.596 258.113C377.196 258.451 378.616 259.325 380.582 260.548L383.858 262.579C384.555 261.507 385.409 260.547 386.391 259.729C387.21 259.248 391.742 258.407 393.358 258.975C394.767 259.489 399.288 262.361 404.071 265.396L406.134 266.696C406.386 266.226 406.975 265.243 407.532 265.025C409.893 264.153 412.463 264.016 414.903 264.632C416.519 265.222 422.067 269.317 427.439 273.281C430.388 275.465 433.216 277.55 435.083 278.806C435.146 278.822 435.201 278.861 435.236 278.915C435.771 279.276 436.219 279.56 436.558 279.756C440.511 282.017 450.229 332.991 450.328 333.504C450.961 336.922 453.276 340.449 455.722 344.184C458.492 348.079 460.756 352.31 462.46 356.775C465.572 365.817 472.659 379.128 483.044 395.399Z" fill="#2A4B8E"/>
<path d="M440.752 448.044C440.752 448.044 416.728 383.834 410.929 378.789C407.36 375.563 404.886 371.302 403.853 366.603C400.664 360.099 395.754 354.593 389.657 350.681C379.294 343.856 363.624 342.087 356.046 331.025C348.467 319.963 336.324 307.001 332.022 304.228C327.719 301.454 320.392 301.956 320.392 301.956C319.638 297.654 324.432 292.86 330.22 292.86C336.007 292.86 344.623 295.885 349.177 300.187C353.731 304.49 364.847 307.766 364.847 307.766C366.616 306.499 372.087 310.015 372.087 310.015C369.903 302.622 371.224 300.624 371.224 300.624C366.933 294.815 337.547 273.903 333.255 271.369C328.964 268.836 324.913 260.504 325.666 254.432C325.685 253.678 325.878 252.939 326.23 252.272C326.583 251.605 327.085 251.029 327.698 250.589C328.31 250.149 329.017 249.856 329.761 249.735C330.506 249.614 331.268 249.667 331.989 249.89C331.989 249.89 341.336 261.006 344.623 262.775C347.91 264.544 373.692 277.441 377.482 278.948C378.534 279.397 379.678 279.585 380.819 279.498C381.959 279.41 383.062 279.049 384.034 278.446" stroke="#263238" stroke-linecap="round" stroke-linejoin="round"/>
<path d="M366.528 273.706C366.528 273.706 366.528 265.298 367.074 263.015C367.62 260.733 373.703 256.802 376.476 258.309C379.25 259.816 399.736 273.291 405.076 273.892" stroke="#263238" stroke-linecap="round" stroke-linejoin="round"/>
<path d="M383.935 262.863C384.66 261.754 385.535 260.751 386.534 259.882C387.287 259.434 391.775 258.604 393.293 259.15C396.329 260.242 414.216 272.581 417.241 273.346" stroke="#263238" stroke-linecap="round" stroke-linejoin="round"/>
<path d="M406.223 267.034C406.223 267.034 406.998 265.484 407.621 265.233C409.925 264.378 412.435 264.245 414.817 264.85C417.602 265.866 432.89 277.954 436.428 279.953C439.966 281.951 448.822 326.712 450.078 333.537C451.333 340.362 458.934 347.187 462.21 356.797C465.486 366.406 473.337 381.061 485.721 400.018C487.905 403.294 490.176 406.756 492.458 410.097" stroke="#263238" stroke-linecap="round" stroke-linejoin="round"/>
<path d="M382.113 291.517C382.113 291.517 383.205 286.395 386.285 284.124C389.364 281.852 393.492 285.456 396.517 285.827" stroke="#263238" stroke-linecap="round" stroke-linejoin="round"/>
<path d="M402.772 283.37C402.772 283.37 404.475 277.484 407.511 276.163C410.547 274.842 415.221 278.816 417.241 279.002" stroke="#263238" stroke-linecap="round" stroke-linejoin="round"/>
<path d="M422.679 278.052C422.679 278.052 424.951 275.868 425.901 275.868C426.851 275.868 430.826 280.029 431.688 280.313C432.551 280.597 433.578 279.035 435.052 279.013" stroke="#263238" stroke-linecap="round" stroke-linejoin="round"/>
<path d="M415.768 272.691C417.428 272.568 419.085 272.977 420.496 273.859" stroke="#263238" stroke-linecap="round" stroke-linejoin="round"/>
<path d="M371.279 300.613C371.279 300.613 369.772 296.725 370.525 294.738" stroke="#263238" stroke-linecap="round" stroke-linejoin="round"/>
<path d="M374.239 272.09C374.239 272.09 376.041 274.197 376.139 275.89C376.237 277.582 380.507 279.635 380.507 279.635" stroke="#263238" stroke-linecap="round" stroke-linejoin="round"/>
<path d="M403.144 273.379C403.144 273.379 405.623 272.494 406.944 273.379" stroke="#263238" stroke-linecap="round" stroke-linejoin="round"/>
<path d="M371.28 305.735C371.196 304.486 371.42 303.235 371.932 302.092C372.444 300.95 373.229 299.951 374.218 299.183" stroke="#263238" stroke-linecap="round" stroke-linejoin="round"/>
<path d="M372.163 310.004C372.163 310.004 369.345 312.428 369.345 313.946" stroke="#263238" stroke-linecap="round" stroke-linejoin="round"/>
<path d="M359.189 305.735C362.531 306.98 365.305 312.178 367.325 313.062" stroke="#263238" stroke-linecap="round" stroke-linejoin="round"/>
<path d="M399.671 289.18C401.691 292.085 406.223 313.204 410.787 319.887" stroke="#263238" stroke-linecap="round" stroke-linejoin="round"/>
<path d="M416.617 283.218C416.999 283.469 419.653 291.681 419.653 291.681" stroke="#263238" stroke-linecap="round" stroke-linejoin="round"/>
<path d="M450.546 335.251C451.211 339.453 452.423 343.55 454.15 347.438" stroke="#263238" stroke-linecap="round" stroke-linejoin="round"/>
<path d="M404.191 368.034C403.853 366.647 402.39 357.55 400.588 354.515" stroke="#263238" stroke-linecap="round" stroke-linejoin="round"/>
<path opacity="0.2" d="M98.1599 509.971C98.1599 509.971 133.694 462.196 160.491 453.449C187.289 444.702 188.61 432.832 187.518 410.687C186.426 388.541 187.234 366.22 179.874 363.556C172.514 360.891 188.698 331.975 180.966 320.52L130.265 400.171L98.1599 509.971Z" fill="black" fill-opacity="0.7"/>
<path d="M89.5429 523.283L89.0079 523.108L89.7723 523.534L89.5429 523.283ZM175.92 376.726C171.552 374.683 162.882 365.107 161.801 363.905C167.261 354.711 172.655 345.844 174.522 343.714C178.399 339.346 183.127 326.603 181.205 320.444C179.447 314.787 173.692 315.694 172.906 315.847H172.819C172.789 315.851 172.761 315.862 172.736 315.879C172.712 315.896 172.692 315.919 172.677 315.945C172.557 316.152 160.84 335.907 157.203 340.635C155.467 342.884 151.47 348.006 147.375 353.138L146.163 352.953C143.623 352.557 141.032 352.631 138.519 353.171L138.268 353.258C136.968 353.819 135.716 354.484 134.522 355.246L133.66 354.886C131.934 354.165 128.364 352.778 126.671 352.701C124.607 352.592 117.334 355.978 112.988 358.708C109.992 357.798 106.869 357.374 103.739 357.452C100.408 357.594 93.6161 360.356 88.1561 362.573C85.7319 363.556 83.6352 364.408 82.4122 364.757L81.3202 365.085C78.0442 366.057 76.2751 366.603 74.0038 371.145C71.6451 375.863 69.1007 393.455 67.8777 401.907L67.7139 403.054C67.2443 406.33 67.3208 412.074 67.3972 418.2C67.5173 426.717 67.6374 435.519 66.3707 438.948C64.6596 443.268 62.3987 447.349 59.644 451.091C59.2836 451.604 58.956 452.084 58.6503 452.543C56.9454 455.204 55.5841 458.069 54.599 461.072C53.6817 463.496 52.5351 466.16 51.4212 468.595C49.3683 473.105 47.4573 476.829 47.4573 476.829C47.4573 476.829 86.1687 519.537 89.5429 523.283C89.7247 523.353 89.9108 523.411 90.0999 523.458C90.2309 523.239 97.3726 511.031 104.94 498.986C111.492 488.59 118.295 478.314 121.211 475.956C125.209 472.525 128.117 468.001 129.576 462.939C131.148 457.883 141.184 451.648 150.891 445.62C161.626 438.959 172.731 432.068 173.103 426.368C173.31 423.419 173.987 418.538 174.774 412.871C176.903 397.517 179.546 378.396 175.92 376.726ZM157.531 401.274L152.759 405.915C152.082 402.093 147.441 397.015 146.709 396.24C147.076 394.402 147.313 392.541 147.419 390.67C147.594 388.541 147.779 386.302 148.303 385.942C148.828 385.582 151.241 381.574 155.172 375.022C155.5 379.641 159.54 384.73 160.086 385.462L157.531 401.274Z" fill="white"/>
<path opacity="0.4" d="M100.866 387.089C99.4574 399.668 87.1287 430.878 87.1287 430.878L84.9447 399.439C84.9447 399.439 75.346 442.104 72.7143 443.643C70.0826 445.183 65.4634 453.34 62.8863 459.816C61.15 464.184 55.2423 467.154 51.5186 468.65C52.6106 466.215 53.779 463.55 54.6963 461.126C55.6815 458.124 57.0427 455.258 58.7476 452.598C59.0534 452.139 59.381 451.659 59.7413 451.145C62.496 447.404 64.7569 443.322 66.468 439.002C67.7348 435.552 67.56 426.75 67.4945 418.254C67.4181 412.128 67.3416 406.341 67.8112 403.108L67.975 401.962C69.198 393.51 71.7424 375.917 74.1011 371.2C76.3725 366.657 78.1634 366.111 81.4175 365.139L82.5095 364.812C83.7326 364.43 85.7855 363.578 88.2534 362.628C93.7134 360.444 100.506 357.648 103.836 357.506C106.95 357.441 110.053 357.872 113.031 358.784C117.399 356.043 124.65 352.669 126.714 352.778C128.406 352.854 131.977 354.241 133.702 354.962C126.452 358.697 114.254 367.695 114.254 367.695C100.462 370.687 100.866 387.089 100.866 387.089Z" fill="#2A4B8E"/>
<path opacity="0.4" d="M125.305 370.381C128.875 367.909 132.575 365.631 136.389 363.556C139.927 361.896 141.063 355.278 138.573 353.411C138.48 353.342 138.371 353.297 138.256 353.28L138.508 353.193C141.021 352.653 143.612 352.579 146.152 352.974C141.576 359.843 137.994 365.106 137.044 366.242C133.899 370.064 125.305 370.381 125.305 370.381Z" fill="#2A4B8E"/>
<path opacity="0.4" d="M143.355 413.482L145.026 414.203C144.011 418.255 143.355 413.482 143.355 413.482Z" fill="#2A4B8E"/>
<path opacity="0.4" d="M175.921 376.726C171.553 374.683 162.882 365.107 161.801 363.905C167.261 354.711 172.656 345.844 174.523 343.714C178.399 339.346 183.128 326.603 181.206 320.444C179.448 314.787 173.693 315.694 172.907 315.847V316.087C172.907 316.087 179.131 316.862 179.12 325.86C179.109 334.858 162.948 352.691 162.948 352.691C162.948 352.691 146.327 383.867 145.235 383.398C144.143 382.928 141.708 404.233 141.708 404.233C141.708 404.233 146.338 408.175 145.235 413.482C145.177 413.744 145.123 413.985 145.072 414.203L152.191 417.271C152.191 417.271 159.333 412.259 162.959 419.63C166.584 427.001 128.102 453.34 125.077 457.239C125.077 457.239 124.651 471.926 119.038 474.088C115.402 475.486 108.992 489.376 104.941 498.997C111.493 488.601 118.296 478.325 121.211 475.966C125.21 472.536 128.117 468.012 129.576 462.95C131.149 457.894 141.184 451.659 150.892 445.631C161.626 438.97 172.732 432.079 173.103 426.379C173.311 423.43 173.988 418.549 174.774 412.882C176.903 397.517 179.546 378.396 175.921 376.726ZM157.531 401.274L152.759 405.915C152.082 402.093 147.441 397.015 146.71 396.24C147.076 394.402 147.314 392.541 147.419 390.67C147.594 388.541 147.78 386.302 148.304 385.942C148.828 385.582 151.241 381.574 155.173 375.022C155.5 379.641 159.541 384.73 160.087 385.462L157.531 401.274Z" fill="#2A4B8E"/>
<path d="M129.357 370.665C132.332 370.026 135.037 368.481 137.099 366.243C140.375 362.563 153.698 345.593 157.388 340.799C161.079 336.005 172.873 316.087 172.873 316.087C172.873 316.087 179.141 314.613 180.987 320.521C182.832 326.428 178.409 338.954 174.347 343.562C170.285 348.17 149.635 384.687 148.139 385.79C146.643 386.892 147.779 397.234 144.863 399.44" stroke="#263238" stroke-linecap="round" stroke-linejoin="round"/>
<path d="M146.447 396.338C146.447 396.338 152.223 402.388 152.594 406.439L157.749 401.394L160.337 385.418C160.337 385.418 155.237 379.281 155.39 374.236" stroke="#263238" stroke-linecap="round" stroke-linejoin="round"/>
<path d="M161.515 363.938C161.515 363.938 171.027 374.727 175.82 376.944C180.614 379.16 173.636 415.666 172.872 426.357C172.108 437.047 132.676 452.15 129.356 462.862C127.918 467.887 125.031 472.376 121.057 475.77C114.658 480.957 89.891 523.348 89.891 523.348" stroke="#263238" stroke-linecap="round" stroke-linejoin="round"/>
<path d="M147.517 353.411C147.517 353.411 141.893 352.374 138.573 353.411C135.254 354.449 121.21 364.419 117.934 366.242C114.658 368.066 109.821 368.426 108.718 370.665" stroke="#263238" stroke-linecap="round" stroke-linejoin="round"/>
<path d="M134.531 355.529C134.531 355.529 128.853 353.062 126.669 352.952C124.485 352.843 115.607 357.026 111.556 359.974C108.441 362.258 104.942 363.967 101.225 365.019" stroke="#263238" stroke-linecap="round" stroke-linejoin="round"/>
<path d="M112.999 358.959C110.022 358.028 106.913 357.59 103.794 357.659C98.9891 357.867 86.453 363.764 82.5218 364.998C78.5906 366.232 76.7451 366.341 74.2881 371.266C71.8311 376.191 69.1229 395.475 68.02 403.098C66.9171 410.72 68.8827 433.029 66.6659 439.057C64.4492 445.085 61.0312 449.595 58.9673 452.729C54.7631 458.975 55.2327 463.649 47.5778 476.884" stroke="#263238" stroke-linecap="round" stroke-linejoin="round"/>
<path d="M104.098 372.325C99.3045 376.573 100.189 384.686 100.822 387.089C101.456 389.491 98.5183 399.101 97.5464 404.233" stroke="#263238" stroke-linecap="round" stroke-linejoin="round"/>
<path d="M134.533 376.431C125.797 376.616 123.088 382.513 122.521 386.39" stroke="#263238" stroke-linecap="round" stroke-linejoin="round"/>
<path d="M97.6449 367.695C95.0568 367.509 88.4175 371.571 87.1289 378.211" stroke="#263238" stroke-linecap="round" stroke-linejoin="round"/>
<path d="M160.338 385.418C160.338 385.418 161.626 381.738 162.915 381.367" stroke="#263238" stroke-linecap="round" stroke-linejoin="round"/>
<path d="M157.748 401.394C157.112 403.558 156.324 405.674 155.39 407.727C154.297 409.911 155.39 413.395 155.39 413.395" stroke="#263238" stroke-linecap="round" stroke-linejoin="round"/>
<path d="M152.595 406.439C152.41 410.13 148.347 414.083 147.518 413.395" stroke="#263238" stroke-linecap="round" stroke-linejoin="round"/>
<path d="M117.868 400.171C117.737 404.233 110.366 433.914 110.366 433.914" stroke="#263238" stroke-linecap="round" stroke-linejoin="round"/>
</g>
<defs>
<clipPath id="clip0">
<rect width="546" height="546" fill="white"/>
</clipPath>
</defs>
</svg>
