<svg width="546" height="546" viewBox="0 0 546 546" fill="none" xmlns="http://www.w3.org/2000/svg">
<path d="M373.924 487.258C500.946 438.297 467.419 369.653 490.784 278.828C514.15 188.002 511.568 153.287 454.686 89.851C397.804 26.4148 299.528 2.93328 229.443 77.9628C159.357 152.992 94.5006 145.831 54.4205 201.571C14.3404 257.311 21.8226 323.313 94.249 369.883C166.676 416.453 217.235 547.626 373.924 487.258Z" fill="#ECEFF5"/>
<path opacity="0.3" d="M371.423 151.524C371.597 151.549 371.775 151.533 371.942 151.478C372.109 151.422 372.26 151.328 372.384 151.203C372.508 151.078 372.601 150.926 372.656 150.759C372.71 150.591 372.725 150.414 372.698 150.24C372.671 150.066 372.604 149.9 372.502 149.757C372.4 149.614 372.266 149.496 372.11 149.415C371.954 149.333 371.781 149.288 371.605 149.285C371.429 149.282 371.255 149.32 371.097 149.397L366.833 150.061L366.709 149.251L370.973 148.587C371.19 148.482 371.367 148.311 371.48 148.098C371.592 147.885 371.632 147.641 371.596 147.403C371.559 147.165 371.448 146.945 371.277 146.775C371.106 146.606 370.885 146.495 370.647 146.46L366.371 147.135L365.46 141.251L352.656 129.685L184.931 437.972L197.78 446.659L407.889 413.917L405.549 398.84L409.813 398.176C409.988 398.205 410.168 398.191 410.337 398.137C410.506 398.083 410.66 397.99 410.786 397.864C410.912 397.739 411.006 397.586 411.062 397.418C411.117 397.249 411.132 397.07 411.105 396.894C411.078 396.719 411.01 396.552 410.906 396.408C410.802 396.264 410.666 396.147 410.508 396.065C410.35 395.984 410.175 395.941 409.998 395.941C409.82 395.94 409.645 395.981 409.487 396.061L405.211 396.725L405.087 395.904L409.363 395.24C409.501 395.219 409.634 395.171 409.754 395.099C409.874 395.026 409.979 394.931 410.061 394.818C410.144 394.705 410.203 394.577 410.236 394.44C410.269 394.304 410.274 394.163 410.252 394.025C410.197 393.748 410.041 393.503 409.814 393.336C409.587 393.169 409.305 393.094 409.025 393.124L404.761 393.788L403.523 385.856L407.799 385.192C408.006 385.086 408.176 384.919 408.284 384.713C408.393 384.506 408.434 384.272 408.403 384.041C408.372 383.81 408.271 383.594 408.112 383.423C407.953 383.253 407.746 383.136 407.518 383.088L403.253 383.752L403.13 382.942L407.394 382.278C407.611 382.173 407.788 382.002 407.9 381.789C408.012 381.576 408.053 381.332 408.017 381.094C407.98 380.856 407.868 380.636 407.697 380.467C407.527 380.297 407.306 380.186 407.067 380.152L402.792 380.815L401.566 372.939L405.83 372.264C405.969 372.245 406.103 372.198 406.224 372.126C406.344 372.054 406.449 371.959 406.532 371.845C406.615 371.732 406.674 371.603 406.706 371.466C406.738 371.33 406.743 371.188 406.719 371.049C406.664 370.775 406.51 370.531 406.285 370.365C406.06 370.198 405.782 370.121 405.504 370.149L401.228 370.813L401.104 370.003L405.369 369.339C405.585 369.234 405.763 369.063 405.875 368.85C405.987 368.637 406.028 368.393 405.991 368.155C405.955 367.917 405.843 367.697 405.672 367.527C405.501 367.358 405.28 367.247 405.042 367.213L400.778 367.876L399.54 360L403.805 359.337C404.021 359.232 404.199 359.06 404.311 358.847C404.423 358.634 404.464 358.391 404.428 358.153C404.391 357.915 404.279 357.695 404.108 357.525C403.937 357.355 403.717 357.245 403.478 357.21L399.214 357.874L399.079 357.064L403.355 356.4C403.629 356.343 403.872 356.186 404.036 355.959C404.201 355.732 404.274 355.452 404.243 355.174C404.224 355.034 404.177 354.9 404.105 354.78C404.033 354.659 403.938 354.554 403.824 354.471C403.711 354.388 403.582 354.329 403.445 354.297C403.309 354.265 403.167 354.261 403.028 354.285L398.753 354.949L397.526 347.073L401.791 346.409C402.065 346.352 402.308 346.194 402.472 345.967C402.637 345.741 402.711 345.461 402.679 345.182C402.66 345.043 402.613 344.909 402.541 344.788C402.469 344.668 402.374 344.563 402.261 344.48C402.147 344.397 402.018 344.338 401.881 344.306C401.745 344.274 401.603 344.269 401.464 344.293L397.189 344.957L397.065 344.136L401.329 343.472C401.505 343.501 401.684 343.487 401.853 343.433C402.022 343.379 402.176 343.285 402.302 343.16C402.428 343.035 402.523 342.882 402.578 342.713C402.634 342.545 402.649 342.365 402.622 342.19C402.594 342.014 402.526 341.848 402.422 341.704C402.319 341.56 402.182 341.442 402.024 341.361C401.867 341.28 401.692 341.237 401.514 341.236C401.337 341.236 401.161 341.277 401.003 341.357L396.739 342.021L395.501 334.088L399.765 333.425C399.941 333.453 400.12 333.44 400.289 333.385C400.458 333.331 400.612 333.238 400.738 333.113C400.864 332.988 400.959 332.835 401.014 332.666C401.07 332.497 401.085 332.318 401.058 332.142C401.031 331.967 400.962 331.8 400.859 331.656C400.755 331.512 400.618 331.395 400.461 331.314C400.303 331.232 400.128 331.19 399.95 331.189C399.773 331.188 399.598 331.229 399.439 331.309L395.175 331.973L395.04 331.152L399.315 330.488C399.49 330.515 399.67 330.5 399.838 330.445C400.007 330.39 400.16 330.295 400.285 330.17C400.41 330.044 400.503 329.89 400.558 329.722C400.612 329.553 400.626 329.374 400.598 329.199C400.57 329.024 400.501 328.858 400.397 328.714C400.293 328.571 400.156 328.454 399.998 328.374C399.84 328.293 399.665 328.251 399.488 328.251C399.311 328.251 399.136 328.292 398.978 328.373L394.713 329.037L393.476 321.104L397.751 320.441C397.927 320.468 398.106 320.453 398.274 320.398C398.443 320.342 398.596 320.248 398.721 320.122C398.846 319.996 398.939 319.843 398.994 319.674C399.048 319.506 399.062 319.326 399.034 319.151C399.006 318.976 398.937 318.81 398.833 318.667C398.729 318.523 398.592 318.407 398.434 318.326C398.276 318.246 398.101 318.204 397.924 318.203C397.747 318.203 397.572 318.245 397.414 318.325L393.15 318.989L393.026 318.168L397.29 317.504C397.564 317.449 397.808 317.295 397.975 317.07C398.141 316.845 398.218 316.567 398.19 316.289C398.135 316.012 397.979 315.767 397.752 315.6C397.525 315.433 397.244 315.358 396.964 315.389L392.688 316.052L391.462 308.177L395.726 307.513C396 307.458 396.244 307.303 396.411 307.079C396.577 306.854 396.654 306.576 396.626 306.298C396.572 306.021 396.415 305.775 396.188 305.609C395.961 305.442 395.68 305.367 395.4 305.397L391.136 306.061L391.001 305.251L395.276 304.587C395.493 304.482 395.67 304.309 395.782 304.095C395.894 303.881 395.933 303.637 395.896 303.399C395.858 303.161 395.744 302.941 395.572 302.772C395.4 302.603 395.178 302.494 394.938 302.461L390.674 303.125L389.437 295.249L393.712 294.585C393.929 294.479 394.106 294.307 394.218 294.093C394.33 293.879 394.369 293.635 394.332 293.396C394.294 293.158 394.18 292.938 394.008 292.769C393.836 292.6 393.614 292.491 393.375 292.458L389.11 293.122L388.986 292.312L393.251 291.648C393.468 291.544 393.645 291.372 393.757 291.159C393.869 290.946 393.91 290.702 393.874 290.464C393.837 290.226 393.725 290.006 393.554 289.837C393.384 289.667 393.163 289.557 392.924 289.522L388.649 290.197L387.423 282.321L391.687 281.657C391.904 281.552 392.081 281.381 392.193 281.168C392.305 280.955 392.346 280.711 392.31 280.473C392.273 280.235 392.161 280.015 391.99 279.845C391.82 279.676 391.599 279.565 391.361 279.53L387.085 280.194L386.961 279.384L391.226 278.72C391.401 278.749 391.58 278.735 391.749 278.681C391.918 278.627 392.072 278.534 392.198 278.408C392.324 278.283 392.419 278.13 392.474 277.962C392.53 277.793 392.545 277.614 392.518 277.438C392.491 277.263 392.423 277.096 392.319 276.952C392.215 276.808 392.079 276.691 391.921 276.609C391.763 276.528 391.588 276.485 391.41 276.485C391.233 276.484 391.058 276.525 390.899 276.605L386.635 277.269L385.397 269.337L389.662 268.673C389.837 268.701 390.016 268.688 390.185 268.634C390.354 268.58 390.508 268.486 390.634 268.361C390.76 268.236 390.855 268.083 390.911 267.914C390.966 267.746 390.981 267.566 390.954 267.391C390.927 267.215 390.859 267.049 390.755 266.905C390.651 266.761 390.515 266.643 390.357 266.562C390.199 266.481 390.024 266.438 389.847 266.437C389.669 266.436 389.494 266.478 389.335 266.558L385.071 267.221L384.947 266.4L389.212 265.736C389.424 265.629 389.597 265.458 389.705 265.247C389.814 265.035 389.853 264.795 389.817 264.56C389.781 264.325 389.671 264.108 389.504 263.939C389.336 263.77 389.12 263.659 388.885 263.621L384.61 264.285L383.383 256.409L387.648 255.745C387.86 255.638 388.033 255.467 388.141 255.255C388.25 255.044 388.289 254.804 388.253 254.569C388.217 254.334 388.107 254.117 387.94 253.948C387.772 253.779 387.556 253.668 387.321 253.63L383.046 254.294L382.922 253.472L387.186 252.808C387.46 252.754 387.705 252.599 387.871 252.375C388.037 252.15 388.114 251.871 388.086 251.593C388.032 251.317 387.875 251.071 387.648 250.905C387.421 250.738 387.14 250.662 386.86 250.693L382.596 251.357L381.358 243.425L385.622 242.761C385.798 242.789 385.977 242.776 386.146 242.722C386.315 242.668 386.469 242.574 386.595 242.449C386.721 242.324 386.816 242.171 386.871 242.002C386.927 241.834 386.942 241.654 386.915 241.479C386.888 241.303 386.819 241.137 386.716 240.993C386.612 240.849 386.475 240.731 386.318 240.65C386.16 240.569 385.985 240.526 385.807 240.525C385.63 240.524 385.455 240.566 385.296 240.646L381.032 241.31L380.897 240.499L385.172 239.836C385.389 239.73 385.567 239.558 385.678 239.344C385.79 239.13 385.83 238.886 385.792 238.647C385.754 238.409 385.641 238.189 385.468 238.02C385.296 237.851 385.074 237.742 384.835 237.709L380.57 238.373L379.333 230.497L383.608 229.822C383.821 229.715 383.993 229.543 384.102 229.332C384.211 229.121 384.25 228.881 384.214 228.646C384.178 228.411 384.068 228.193 383.901 228.025C383.733 227.856 383.517 227.745 383.282 227.707L379.007 228.37L378.883 227.56L383.147 226.897C383.364 226.792 383.541 226.62 383.654 226.407C383.766 226.194 383.806 225.951 383.77 225.713C383.733 225.475 383.622 225.255 383.451 225.085C383.28 224.915 383.059 224.805 382.821 224.77L378.556 225.434L377.319 217.558L381.583 216.894C381.757 216.92 381.935 216.904 382.102 216.848C382.269 216.792 382.42 216.698 382.544 216.574C382.668 216.449 382.761 216.297 382.816 216.129C382.87 215.962 382.885 215.784 382.858 215.61C382.831 215.436 382.764 215.271 382.662 215.128C382.56 214.984 382.426 214.867 382.27 214.785C382.114 214.703 381.941 214.659 381.765 214.656C381.589 214.653 381.415 214.691 381.257 214.768L376.993 215.431L376.858 214.621L381.133 213.957C381.308 213.984 381.487 213.97 381.656 213.914C381.824 213.859 381.977 213.765 382.102 213.639C382.227 213.513 382.321 213.36 382.375 213.191C382.43 213.022 382.444 212.843 382.416 212.668C382.388 212.493 382.319 212.327 382.215 212.184C382.11 212.04 381.974 211.924 381.816 211.843C381.658 211.763 381.483 211.72 381.306 211.72C381.128 211.72 380.954 211.762 380.795 211.842L376.531 212.506L375.294 204.63L379.569 203.966C379.781 203.858 379.954 203.686 380.062 203.474C380.17 203.262 380.208 203.021 380.171 202.786C380.133 202.55 380.022 202.333 379.853 202.165C379.685 201.997 379.467 201.887 379.232 201.851L374.967 202.515L374.844 201.693L379.108 201.03C379.283 201.058 379.463 201.045 379.632 200.99C379.801 200.936 379.954 200.843 380.081 200.718C380.207 200.593 380.301 200.44 380.357 200.271C380.412 200.102 380.427 199.923 380.4 199.747C380.373 199.572 380.305 199.405 380.201 199.261C380.097 199.117 379.961 199 379.803 198.919C379.645 198.837 379.47 198.795 379.293 198.794C379.115 198.793 378.94 198.834 378.781 198.914L374.506 199.578L373.28 191.646L377.544 190.982C377.719 191.011 377.899 190.997 378.068 190.943C378.237 190.889 378.391 190.795 378.517 190.67C378.643 190.545 378.737 190.392 378.793 190.223C378.848 190.055 378.863 189.875 378.836 189.7C378.809 189.525 378.741 189.358 378.637 189.214C378.533 189.07 378.397 188.952 378.239 188.871C378.081 188.79 377.906 188.747 377.729 188.746C377.551 188.746 377.376 188.787 377.218 188.867L372.942 189.531L372.818 188.709L377.094 188.045C377.306 187.938 377.479 187.765 377.587 187.553C377.695 187.341 377.733 187.1 377.696 186.865C377.658 186.63 377.547 186.413 377.378 186.245C377.209 186.077 376.992 185.967 376.756 185.93L372.492 186.594L371.254 178.662L375.53 177.998C375.742 177.89 375.915 177.718 376.023 177.506C376.131 177.294 376.169 177.053 376.132 176.817C376.094 176.582 375.983 176.365 375.814 176.197C375.645 176.029 375.428 175.919 375.192 175.883L370.928 176.547L370.804 175.725L375.069 175.061C375.343 175.007 375.587 174.852 375.753 174.628C375.92 174.403 375.996 174.124 375.969 173.846C375.914 173.57 375.758 173.324 375.531 173.158C375.304 172.991 375.022 172.915 374.742 172.946L370.467 173.61L369.24 165.678L373.505 165.014C373.779 164.959 374.023 164.805 374.189 164.58C374.356 164.355 374.432 164.077 374.405 163.799C374.35 163.522 374.194 163.277 373.967 163.11C373.74 162.943 373.458 162.868 373.178 162.899L368.903 163.562L368.779 162.752L373.043 162.089C373.26 161.984 373.438 161.812 373.55 161.599C373.662 161.386 373.703 161.143 373.666 160.905C373.63 160.667 373.518 160.447 373.347 160.277C373.176 160.107 372.955 159.997 372.717 159.962L368.453 160.626L367.215 152.75L371.423 151.524Z" fill="black"/>
<path d="M191.714 440.91L386.532 410.599L343.056 131.17L148.227 161.549C147.046 161.733 145.912 162.148 144.891 162.77C143.87 163.392 142.982 164.209 142.276 165.174C141.571 166.139 141.063 167.234 140.781 168.396C140.499 169.558 140.449 170.764 140.633 171.945L181.363 433.315C181.732 435.693 183.028 437.828 184.969 439.252C186.909 440.676 189.335 441.272 191.714 440.91Z" fill="#263238" stroke="#263238" stroke-miterlimit="10" stroke-linecap="round"/>
<path d="M195.333 431.143L184.215 432.874C183.434 432.995 182.636 432.802 181.998 432.335C181.359 431.869 180.932 431.168 180.81 430.386L176.898 405.261C176.777 404.479 176.97 403.682 177.437 403.043C177.903 402.405 178.604 401.978 179.386 401.856L190.503 400.125L195.333 431.143Z" fill="white" stroke="#263238" stroke-miterlimit="10" stroke-linecap="round"/>
<path d="M190.266 398.537L179.148 400.268C178.367 400.389 177.569 400.196 176.931 399.729C176.292 399.263 175.865 398.562 175.744 397.78L171.832 372.655C171.71 371.873 171.904 371.076 172.37 370.437C172.837 369.799 173.538 369.372 174.319 369.25L185.436 367.519L190.266 398.537Z" fill="#325294" stroke="#263238" stroke-miterlimit="10" stroke-linecap="round"/>
<path d="M185.177 365.875L174.059 367.606C173.278 367.728 172.48 367.534 171.842 367.068C171.203 366.601 170.776 365.9 170.654 365.119L166.742 339.994C166.621 339.212 166.814 338.415 167.281 337.776C167.747 337.138 168.448 336.711 169.23 336.589L180.347 334.858L185.177 365.875Z" fill="white" stroke="#263238" stroke-miterlimit="10" stroke-linecap="round"/>
<path d="M180.11 333.282L168.992 335.013C168.211 335.134 167.413 334.941 166.775 334.474C166.136 334.008 165.709 333.307 165.588 332.525L161.676 307.4C161.554 306.619 161.748 305.821 162.214 305.182C162.681 304.544 163.382 304.117 164.163 303.995L175.28 302.264L180.11 333.282Z" fill="#325294" stroke="#263238" stroke-miterlimit="10" stroke-linecap="round"/>
<path d="M159.131 271.384L165.78 270.349L148.824 161.436L352.654 129.718L396.13 409.135L192.311 440.819L170.607 301.369L163.957 302.405C163.18 302.521 162.389 302.324 161.756 301.858C161.124 301.392 160.701 300.695 160.582 299.918L156.61 274.794C156.55 274.404 156.567 274.006 156.661 273.623C156.755 273.24 156.925 272.88 157.159 272.563C157.393 272.246 157.688 271.979 158.027 271.776C158.365 271.574 158.74 271.441 159.131 271.384Z" fill="white" stroke="#263238" stroke-miterlimit="10" stroke-linecap="round"/>
<path d="M341.326 146.81C341.439 147.592 341.781 148.323 342.31 148.91C342.839 149.497 343.531 149.913 344.297 150.106C345.064 150.299 345.87 150.259 346.614 149.992C347.358 149.725 348.005 149.243 348.474 148.607C348.943 147.971 349.212 147.21 349.248 146.421C349.283 145.631 349.083 144.849 348.672 144.174C348.262 143.499 347.659 142.961 346.942 142.629C346.225 142.297 345.426 142.186 344.645 142.309C343.612 142.473 342.684 143.037 342.063 143.879C341.442 144.721 341.177 145.774 341.326 146.81Z" fill="#263238" stroke="#263238" stroke-miterlimit="10" stroke-linecap="round"/>
<path d="M345.632 145.572L357.536 143.715C357.811 143.658 358.054 143.501 358.218 143.274C358.383 143.047 358.456 142.767 358.425 142.489C358.368 142.215 358.211 141.972 357.984 141.807C357.757 141.643 357.477 141.569 357.199 141.6L345.34 143.434C345.064 143.489 344.818 143.645 344.651 143.872C344.485 144.099 344.409 144.381 344.44 144.661C344.492 144.933 344.642 145.176 344.862 145.344C345.082 145.512 345.356 145.593 345.632 145.572Z" fill="white" stroke="#263238" stroke-miterlimit="10" stroke-linecap="round"/>
<path d="M346.127 148.497L358.009 146.652C358.285 146.598 358.531 146.441 358.698 146.214C358.864 145.987 358.94 145.706 358.909 145.426C358.854 145.15 358.698 144.904 358.471 144.737C358.244 144.57 357.963 144.495 357.683 144.526L345.779 146.382C345.504 146.439 345.261 146.597 345.097 146.823C344.933 147.05 344.859 147.33 344.89 147.609C344.947 147.885 345.106 148.13 345.335 148.294C345.564 148.459 345.847 148.532 346.127 148.497Z" fill="white" stroke="#263238" stroke-miterlimit="10" stroke-linecap="round"/>
<path d="M343.381 159.783C343.492 160.563 343.831 161.293 344.357 161.88C344.882 162.468 345.57 162.886 346.334 163.082C347.097 163.278 347.902 163.243 348.645 162.982C349.389 162.721 350.038 162.245 350.511 161.614C350.984 160.983 351.259 160.227 351.302 159.44C351.345 158.653 351.153 157.871 350.751 157.193C350.349 156.515 349.755 155.971 349.044 155.631C348.333 155.291 347.537 155.17 346.757 155.282C345.713 155.432 344.771 155.991 344.138 156.834C343.506 157.678 343.233 158.738 343.381 159.783Z" fill="#263238" stroke="#263238" stroke-miterlimit="10" stroke-linecap="round"/>
<path d="M347.692 158.545L359.585 156.7C359.861 156.645 360.107 156.489 360.273 156.262C360.44 156.035 360.516 155.753 360.485 155.473C360.43 155.197 360.274 154.951 360.047 154.785C359.82 154.618 359.538 154.542 359.258 154.573L347.354 156.43C347.08 156.487 346.837 156.644 346.673 156.871C346.508 157.098 346.434 157.378 346.466 157.656C346.523 157.93 346.68 158.173 346.907 158.338C347.134 158.502 347.414 158.576 347.692 158.545Z" fill="white" stroke="#263238" stroke-miterlimit="10" stroke-linecap="round"/>
<path d="M348.141 161.436L360.045 159.591C360.32 159.534 360.563 159.376 360.727 159.149C360.891 158.923 360.965 158.643 360.934 158.364C360.88 158.088 360.723 157.842 360.496 157.676C360.269 157.509 359.988 157.434 359.708 157.464L347.815 159.321C347.539 159.375 347.293 159.532 347.126 159.759C346.96 159.986 346.884 160.267 346.915 160.547C346.972 160.821 347.129 161.064 347.356 161.229C347.583 161.393 347.863 161.467 348.141 161.436Z" fill="white" stroke="#263238" stroke-miterlimit="10" stroke-linecap="round"/>
<path d="M345.365 172.766C345.477 173.548 345.82 174.279 346.349 174.866C346.878 175.453 347.57 175.869 348.336 176.062C349.102 176.255 349.909 176.215 350.652 175.948C351.396 175.681 352.044 175.199 352.513 174.563C352.982 173.927 353.251 173.166 353.286 172.377C353.322 171.587 353.121 170.805 352.711 170.13C352.3 169.455 351.698 168.917 350.981 168.585C350.264 168.253 349.464 168.142 348.684 168.265C347.65 168.429 346.723 168.993 346.102 169.835C345.481 170.677 345.216 171.73 345.365 172.766Z" fill="#263238" stroke="#263238" stroke-miterlimit="10" stroke-linecap="round"/>
<path d="M349.705 171.563L361.609 169.718C361.883 169.661 362.126 169.504 362.291 169.277C362.455 169.05 362.529 168.77 362.498 168.492C362.443 168.215 362.287 167.97 362.06 167.803C361.833 167.636 361.551 167.561 361.271 167.592L349.379 169.448C349.102 169.503 348.857 169.659 348.69 169.886C348.523 170.113 348.448 170.395 348.479 170.675C348.536 170.949 348.693 171.192 348.92 171.356C349.147 171.521 349.427 171.594 349.705 171.563Z" fill="white" stroke="#263238" stroke-miterlimit="10" stroke-linecap="round"/>
<path d="M350.133 174.465L362.026 172.608C362.3 172.554 362.544 172.399 362.71 172.174C362.877 171.95 362.954 171.671 362.926 171.393C362.871 171.117 362.715 170.871 362.488 170.704C362.261 170.538 361.979 170.462 361.699 170.493L349.807 172.35C349.533 172.404 349.289 172.559 349.122 172.783C348.956 173.008 348.879 173.286 348.907 173.565C348.961 173.841 349.118 174.087 349.345 174.253C349.572 174.42 349.853 174.495 350.133 174.465Z" fill="white" stroke="#263238" stroke-miterlimit="10" stroke-linecap="round"/>
<path d="M347.377 185.752C347.487 186.532 347.827 187.262 348.353 187.85C348.878 188.437 349.566 188.855 350.33 189.051C351.093 189.247 351.897 189.212 352.641 188.951C353.385 188.69 354.034 188.214 354.507 187.583C354.98 186.953 355.255 186.196 355.298 185.409C355.34 184.622 355.149 183.84 354.747 183.162C354.345 182.484 353.75 181.941 353.039 181.6C352.328 181.26 351.532 181.139 350.752 181.251C349.708 181.402 348.767 181.96 348.134 182.804C347.501 183.647 347.229 184.708 347.377 185.752Z" fill="#263238" stroke="#263238" stroke-miterlimit="10" stroke-linecap="round"/>
<path d="M351.732 184.513L363.636 182.656C363.91 182.602 364.154 182.447 364.321 182.222C364.487 181.998 364.564 181.719 364.536 181.441C364.482 181.165 364.325 180.919 364.098 180.752C363.871 180.586 363.59 180.51 363.31 180.541L351.406 182.397C351.267 182.418 351.134 182.466 351.014 182.538C350.894 182.611 350.79 182.706 350.707 182.819C350.625 182.932 350.565 183.061 350.533 183.197C350.5 183.333 350.495 183.474 350.517 183.613C350.572 183.887 350.726 184.131 350.951 184.297C351.175 184.464 351.454 184.54 351.732 184.513Z" fill="white" stroke="#263238" stroke-miterlimit="10" stroke-linecap="round"/>
<path d="M352.179 187.449L364.083 185.593C364.223 185.572 364.357 185.524 364.478 185.451C364.599 185.378 364.704 185.281 364.786 185.167C364.869 185.053 364.928 184.923 364.96 184.785C364.992 184.648 364.996 184.505 364.972 184.366C364.952 184.228 364.904 184.095 364.831 183.975C364.759 183.855 364.664 183.751 364.55 183.668C364.437 183.585 364.309 183.526 364.173 183.493C364.037 183.46 363.895 183.455 363.757 183.477L351.853 185.323C351.579 185.38 351.336 185.537 351.171 185.764C351.007 185.991 350.933 186.271 350.964 186.549C351.019 186.823 351.173 187.067 351.398 187.234C351.623 187.4 351.901 187.477 352.179 187.449Z" fill="white" stroke="#263238" stroke-miterlimit="10" stroke-linecap="round"/>
<path d="M349.404 198.736C349.516 199.518 349.859 200.249 350.388 200.836C350.917 201.423 351.608 201.839 352.375 202.032C353.141 202.224 353.947 202.185 354.691 201.918C355.435 201.651 356.083 201.169 356.552 200.533C357.021 199.897 357.29 199.136 357.325 198.347C357.36 197.557 357.16 196.775 356.749 196.1C356.339 195.425 355.737 194.887 355.02 194.555C354.303 194.223 353.503 194.111 352.723 194.235C351.689 194.399 350.762 194.963 350.141 195.805C349.519 196.647 349.255 197.7 349.404 198.736Z" fill="#263238" stroke="#263238" stroke-miterlimit="10" stroke-linecap="round"/>
<path d="M353.743 197.497L365.647 195.641C365.921 195.583 366.164 195.426 366.329 195.199C366.493 194.973 366.567 194.693 366.536 194.414C366.515 194.276 366.467 194.143 366.395 194.023C366.322 193.903 366.227 193.798 366.114 193.716C366.001 193.633 365.873 193.574 365.736 193.541C365.6 193.508 365.459 193.503 365.321 193.525L353.417 195.371C353.142 195.428 352.899 195.585 352.735 195.812C352.57 196.039 352.497 196.319 352.528 196.597C352.582 196.871 352.737 197.115 352.962 197.282C353.186 197.448 353.465 197.525 353.743 197.497Z" fill="white" stroke="#263238" stroke-miterlimit="10" stroke-linecap="round"/>
<path d="M354.206 200.434L366.098 198.567C366.375 198.512 366.62 198.356 366.787 198.129C366.954 197.901 367.029 197.62 366.998 197.34C366.941 197.066 366.784 196.823 366.557 196.658C366.33 196.494 366.05 196.42 365.772 196.451L353.879 198.297C353.603 198.351 353.357 198.507 353.19 198.735C353.024 198.962 352.948 199.243 352.979 199.523C353.031 199.801 353.187 200.05 353.414 200.219C353.641 200.388 353.924 200.465 354.206 200.434Z" fill="white" stroke="#263238" stroke-miterlimit="10" stroke-linecap="round"/>
<path d="M351.418 211.719C351.539 212.495 351.886 213.218 352.417 213.797C352.948 214.376 353.638 214.785 354.401 214.973C355.163 215.161 355.965 215.119 356.703 214.853C357.442 214.586 358.086 214.108 358.554 213.476C359.021 212.845 359.292 212.09 359.331 211.305C359.37 210.521 359.177 209.742 358.775 209.067C358.373 208.393 357.781 207.852 357.072 207.513C356.364 207.174 355.571 207.052 354.793 207.162C354.271 207.236 353.768 207.414 353.315 207.684C352.862 207.953 352.467 208.311 352.153 208.735C351.839 209.159 351.612 209.641 351.486 210.153C351.359 210.665 351.336 211.198 351.418 211.719Z" fill="#263238" stroke="#263238" stroke-miterlimit="10" stroke-linecap="round"/>
<path d="M355.759 210.481L367.652 208.625C367.928 208.57 368.174 208.414 368.34 208.187C368.507 207.96 368.583 207.678 368.552 207.398C368.495 207.124 368.337 206.881 368.111 206.717C367.884 206.552 367.604 206.478 367.325 206.509L355.433 208.355C355.156 208.409 354.911 208.566 354.744 208.793C354.577 209.02 354.502 209.301 354.533 209.581C354.587 209.857 354.744 210.103 354.971 210.27C355.198 210.436 355.479 210.512 355.759 210.481Z" fill="white" stroke="#263238" stroke-miterlimit="10" stroke-linecap="round"/>
<path d="M356.232 213.408L368.136 211.562C368.413 211.508 368.658 211.351 368.825 211.124C368.992 210.897 369.067 210.616 369.036 210.336C368.982 210.06 368.825 209.814 368.598 209.647C368.371 209.481 368.09 209.405 367.81 209.436L355.906 211.292C355.632 211.349 355.389 211.507 355.224 211.734C355.06 211.96 354.986 212.24 355.017 212.519C355.074 212.791 355.23 213.032 355.454 213.196C355.679 213.361 355.956 213.436 356.232 213.408Z" fill="white" stroke="#263238" stroke-miterlimit="10" stroke-linecap="round"/>
<path d="M353.442 224.692C353.555 225.474 353.897 226.205 354.426 226.792C354.955 227.379 355.647 227.795 356.413 227.988C357.18 228.181 357.986 228.141 358.73 227.874C359.474 227.607 360.121 227.125 360.59 226.489C361.059 225.853 361.328 225.092 361.364 224.303C361.399 223.513 361.199 222.731 360.788 222.056C360.378 221.381 359.775 220.843 359.058 220.511C358.341 220.179 357.542 220.068 356.761 220.191C355.728 220.355 354.8 220.919 354.179 221.761C353.558 222.603 353.293 223.656 353.442 224.692Z" fill="#263238" stroke="#263238" stroke-miterlimit="10" stroke-linecap="round"/>
<path d="M357.786 223.455L369.69 221.61C369.966 221.555 370.212 221.399 370.378 221.171C370.545 220.944 370.62 220.663 370.59 220.383C370.533 220.109 370.375 219.866 370.149 219.701C369.922 219.537 369.642 219.463 369.363 219.494L357.459 221.339C357.185 221.397 356.942 221.554 356.778 221.781C356.613 222.008 356.539 222.287 356.571 222.566C356.59 222.705 356.637 222.839 356.709 222.96C356.781 223.08 356.876 223.185 356.989 223.268C357.103 223.351 357.232 223.41 357.369 223.442C357.505 223.475 357.647 223.479 357.786 223.455Z" fill="white" stroke="#263238" stroke-miterlimit="10" stroke-linecap="round"/>
<path d="M358.244 226.391L370.148 224.545C370.423 224.488 370.666 224.331 370.83 224.104C370.994 223.877 371.068 223.597 371.037 223.319C370.982 223.043 370.826 222.797 370.599 222.63C370.372 222.464 370.091 222.388 369.811 222.419L357.918 224.275C357.642 224.33 357.396 224.486 357.229 224.713C357.063 224.94 356.987 225.222 357.018 225.502C357.075 225.776 357.232 226.019 357.459 226.183C357.686 226.348 357.966 226.422 358.244 226.391Z" fill="white" stroke="#263238" stroke-miterlimit="10" stroke-linecap="round"/>
<path d="M355.468 237.677C355.58 238.459 355.923 239.19 356.452 239.777C356.981 240.364 357.672 240.78 358.439 240.973C359.205 241.165 360.011 241.126 360.755 240.859C361.499 240.592 362.147 240.11 362.616 239.474C363.085 238.838 363.354 238.077 363.389 237.288C363.424 236.498 363.224 235.716 362.814 235.041C362.403 234.366 361.801 233.828 361.084 233.496C360.367 233.164 359.567 233.052 358.787 233.176C357.753 233.34 356.826 233.904 356.205 234.746C355.584 235.588 355.319 236.641 355.468 237.677Z" fill="#263238" stroke="#263238" stroke-miterlimit="10" stroke-linecap="round"/>
<path d="M359.81 236.439L371.714 234.571C371.988 234.514 372.231 234.357 372.396 234.13C372.56 233.903 372.634 233.623 372.603 233.345C372.548 233.068 372.392 232.823 372.165 232.656C371.938 232.489 371.656 232.414 371.376 232.445L359.484 234.301C359.207 234.356 358.962 234.512 358.795 234.739C358.628 234.966 358.553 235.248 358.583 235.528C358.636 235.806 358.791 236.054 359.018 236.223C359.246 236.392 359.528 236.469 359.81 236.439Z" fill="white" stroke="#263238" stroke-miterlimit="10" stroke-linecap="round"/>
<path d="M360.258 239.374L372.15 237.517C372.425 237.463 372.669 237.308 372.835 237.084C373.002 236.859 373.078 236.58 373.051 236.302C372.996 236.026 372.84 235.78 372.613 235.614C372.385 235.447 372.104 235.372 371.824 235.402L359.92 237.259C359.646 237.316 359.403 237.473 359.239 237.7C359.074 237.927 359 238.207 359.031 238.485C359.088 238.759 359.246 239.002 359.473 239.167C359.699 239.331 359.979 239.405 360.258 239.374Z" fill="white" stroke="#263238" stroke-miterlimit="10" stroke-linecap="round"/>
<path d="M357.48 250.659C357.59 251.439 357.93 252.169 358.455 252.757C358.981 253.344 359.669 253.762 360.433 253.958C361.196 254.155 362 254.12 362.744 253.858C363.488 253.597 364.137 253.121 364.61 252.49C365.083 251.86 365.358 251.103 365.401 250.316C365.443 249.529 365.251 248.747 364.849 248.069C364.447 247.391 363.853 246.848 363.142 246.508C362.431 246.168 361.635 246.046 360.855 246.158C359.811 246.309 358.87 246.867 358.237 247.711C357.604 248.555 357.332 249.615 357.48 250.659Z" fill="#263238" stroke="#263238" stroke-miterlimit="10" stroke-linecap="round"/>
<path d="M361.835 249.422L373.761 247.577C374.037 247.522 374.283 247.366 374.45 247.139C374.616 246.911 374.692 246.63 374.661 246.35C374.607 246.074 374.45 245.828 374.223 245.661C373.996 245.495 373.715 245.419 373.435 245.45L361.531 247.307C361.257 247.364 361.014 247.521 360.849 247.748C360.685 247.975 360.611 248.255 360.642 248.533C360.699 248.801 360.851 249.039 361.07 249.203C361.29 249.366 361.562 249.444 361.835 249.422Z" fill="white" stroke="#263238" stroke-miterlimit="10" stroke-linecap="round"/>
<path d="M362.286 252.359L374.19 250.503C374.464 250.445 374.707 250.288 374.872 250.061C375.036 249.835 375.11 249.555 375.079 249.276C375.022 249.002 374.864 248.759 374.637 248.594C374.411 248.43 374.131 248.356 373.852 248.387L361.96 250.244C361.685 250.298 361.441 250.453 361.275 250.678C361.109 250.902 361.032 251.181 361.06 251.459C361.114 251.735 361.27 251.981 361.498 252.148C361.725 252.314 362.006 252.39 362.286 252.359Z" fill="white" stroke="#263238" stroke-miterlimit="10" stroke-linecap="round"/>
<path d="M359.506 263.643C359.619 264.425 359.961 265.156 360.49 265.743C361.019 266.33 361.711 266.746 362.478 266.939C363.244 267.132 364.05 267.092 364.794 266.825C365.538 266.558 366.185 266.076 366.654 265.44C367.123 264.804 367.393 264.043 367.428 263.254C367.463 262.464 367.263 261.682 366.852 261.007C366.442 260.332 365.84 259.794 365.123 259.462C364.406 259.13 363.606 259.019 362.826 259.142C361.792 259.306 360.864 259.87 360.243 260.712C359.622 261.554 359.357 262.607 359.506 263.643Z" fill="#263238" stroke="#263238" stroke-miterlimit="10" stroke-linecap="round"/>
<path d="M363.85 262.407L375.753 260.55C376.028 260.493 376.271 260.336 376.435 260.109C376.6 259.882 376.673 259.602 376.642 259.324C376.585 259.05 376.428 258.807 376.201 258.642C375.974 258.478 375.694 258.404 375.416 258.435L363.523 260.292C363.249 260.346 363.005 260.501 362.839 260.725C362.672 260.95 362.595 261.229 362.623 261.507C362.678 261.783 362.834 262.029 363.061 262.196C363.288 262.362 363.57 262.438 363.85 262.407Z" fill="white" stroke="#263238" stroke-miterlimit="10" stroke-linecap="round"/>
<path d="M364.311 265.344L376.203 263.487C376.48 263.433 376.726 263.276 376.892 263.049C377.059 262.822 377.134 262.541 377.104 262.261C377.046 261.987 376.889 261.744 376.662 261.579C376.436 261.415 376.156 261.341 375.877 261.372L363.973 263.217C363.699 263.275 363.456 263.432 363.292 263.659C363.127 263.885 363.053 264.165 363.084 264.444C363.139 264.72 363.295 264.966 363.522 265.133C363.749 265.299 364.031 265.375 364.311 265.344Z" fill="white" stroke="#263238" stroke-miterlimit="10" stroke-linecap="round"/>
<path d="M361.52 276.629C361.641 277.405 361.989 278.128 362.52 278.707C363.051 279.286 363.741 279.695 364.503 279.883C365.266 280.07 366.067 280.029 366.806 279.762C367.545 279.496 368.189 279.017 368.656 278.386C369.124 277.755 369.394 277 369.434 276.215C369.473 275.431 369.28 274.652 368.878 273.977C368.476 273.302 367.884 272.761 367.175 272.422C366.466 272.083 365.673 271.961 364.896 272.072C364.373 272.146 363.871 272.323 363.418 272.593C362.964 272.863 362.569 273.22 362.255 273.644C361.941 274.068 361.715 274.55 361.588 275.063C361.462 275.575 361.439 276.107 361.52 276.629Z" fill="#263238" stroke="#263238" stroke-miterlimit="10" stroke-linecap="round"/>
<path d="M365.884 275.391L377.777 273.535C378.054 273.48 378.299 273.324 378.466 273.097C378.633 272.87 378.708 272.588 378.677 272.308C378.62 272.034 378.463 271.791 378.236 271.627C378.009 271.462 377.729 271.388 377.451 271.42L365.547 273.265C365.273 273.322 365.03 273.479 364.865 273.706C364.701 273.933 364.627 274.213 364.658 274.491C364.713 274.768 364.869 275.013 365.096 275.18C365.323 275.347 365.604 275.422 365.884 275.391Z" fill="white" stroke="#263238" stroke-miterlimit="10" stroke-linecap="round"/>
<path d="M366.326 278.316L378.263 276.471C378.538 276.414 378.781 276.257 378.945 276.03C379.11 275.803 379.183 275.523 379.152 275.245C379.133 275.105 379.086 274.971 379.014 274.851C378.942 274.73 378.847 274.625 378.733 274.542C378.62 274.459 378.491 274.4 378.354 274.368C378.218 274.336 378.076 274.332 377.937 274.356L365.999 276.201C365.723 276.256 365.477 276.412 365.311 276.639C365.144 276.866 365.069 277.147 365.099 277.427C365.156 277.702 365.314 277.945 365.541 278.109C365.767 278.273 366.047 278.347 366.326 278.316Z" fill="white" stroke="#263238" stroke-miterlimit="10" stroke-linecap="round"/>
<path d="M363.545 289.601C363.657 290.383 364 291.114 364.529 291.701C365.058 292.288 365.75 292.704 366.516 292.897C367.283 293.09 368.089 293.05 368.833 292.783C369.576 292.516 370.224 292.034 370.693 291.398C371.162 290.762 371.431 290.001 371.467 289.212C371.502 288.422 371.301 287.64 370.891 286.965C370.48 286.29 369.878 285.752 369.161 285.42C368.444 285.088 367.645 284.977 366.864 285.1C365.831 285.264 364.903 285.828 364.282 286.67C363.661 287.512 363.396 288.565 363.545 289.601Z" fill="#263238" stroke="#263238" stroke-miterlimit="10" stroke-linecap="round"/>
<path d="M367.889 288.374L379.793 286.518C380.068 286.46 380.311 286.303 380.475 286.076C380.639 285.849 380.713 285.569 380.682 285.291C380.625 285.019 380.47 284.778 380.245 284.614C380.021 284.449 379.744 284.374 379.467 284.402L367.563 286.247C367.287 286.302 367.041 286.458 366.874 286.686C366.708 286.913 366.632 287.194 366.663 287.474C366.718 287.75 366.874 287.996 367.101 288.163C367.328 288.329 367.609 288.405 367.889 288.374Z" fill="white" stroke="#263238" stroke-miterlimit="10" stroke-linecap="round"/>
<path d="M368.349 291.3L380.242 289.454C380.518 289.4 380.764 289.244 380.931 289.016C381.097 288.789 381.173 288.508 381.142 288.228C381.087 287.952 380.931 287.706 380.704 287.539C380.477 287.373 380.196 287.297 379.916 287.328L368.023 289.184C367.747 289.239 367.501 289.395 367.334 289.622C367.168 289.85 367.092 290.131 367.123 290.411C367.18 290.685 367.337 290.928 367.564 291.093C367.791 291.257 368.071 291.331 368.349 291.3Z" fill="white" stroke="#263238" stroke-miterlimit="10" stroke-linecap="round"/>
<path d="M365.56 302.585C365.67 303.365 366.01 304.095 366.535 304.683C367.061 305.27 367.749 305.688 368.512 305.884C369.276 306.08 370.08 306.045 370.824 305.784C371.568 305.523 372.217 305.047 372.69 304.416C373.163 303.786 373.438 303.029 373.481 302.242C373.523 301.455 373.331 300.673 372.929 299.995C372.527 299.317 371.933 298.774 371.222 298.433C370.511 298.093 369.715 297.972 368.935 298.084C367.893 298.237 366.953 298.796 366.321 299.639C365.688 300.482 365.415 301.541 365.56 302.585Z" fill="#263238" stroke="#263238" stroke-miterlimit="10" stroke-linecap="round"/>
<path d="M369.913 301.347L381.806 299.502C382.082 299.447 382.328 299.291 382.494 299.064C382.661 298.837 382.736 298.555 382.706 298.275C382.651 297.999 382.495 297.753 382.268 297.587C382.041 297.42 381.759 297.345 381.479 297.375L369.587 299.232C369.31 299.286 369.064 299.443 368.898 299.67C368.731 299.897 368.656 300.178 368.686 300.458C368.743 300.732 368.901 300.976 369.128 301.14C369.354 301.304 369.634 301.378 369.913 301.347Z" fill="white" stroke="#263238" stroke-miterlimit="10" stroke-linecap="round"/>
<path d="M370.384 304.328L382.288 302.483C382.562 302.426 382.805 302.269 382.97 302.042C383.134 301.815 383.208 301.535 383.177 301.257C383.122 300.983 382.968 300.738 382.743 300.572C382.518 300.406 382.24 300.329 381.962 300.357L370.058 302.213C369.784 302.27 369.54 302.428 369.376 302.654C369.212 302.881 369.138 303.161 369.169 303.439C369.189 303.578 369.237 303.711 369.31 303.831C369.382 303.951 369.478 304.055 369.591 304.138C369.704 304.221 369.832 304.28 369.968 304.313C370.104 304.345 370.246 304.351 370.384 304.328Z" fill="white" stroke="#263238" stroke-miterlimit="10" stroke-linecap="round"/>
<path d="M367.584 315.581C367.696 316.363 368.039 317.094 368.568 317.681C369.097 318.268 369.789 318.684 370.555 318.877C371.321 319.07 372.128 319.03 372.871 318.763C373.615 318.496 374.263 318.014 374.732 317.378C375.201 316.742 375.47 315.981 375.505 315.192C375.54 314.402 375.34 313.62 374.93 312.945C374.519 312.27 373.917 311.732 373.2 311.4C372.483 311.068 371.683 310.957 370.903 311.08C369.869 311.244 368.942 311.808 368.321 312.65C367.7 313.492 367.435 314.545 367.584 315.581Z" fill="#263238" stroke="#263238" stroke-miterlimit="10" stroke-linecap="round"/>
<path d="M371.927 314.332L383.888 312.487C384.027 312.466 384.162 312.418 384.282 312.345C384.403 312.272 384.508 312.175 384.591 312.061C384.674 311.947 384.733 311.817 384.765 311.679C384.796 311.542 384.801 311.399 384.777 311.26C384.722 310.986 384.567 310.742 384.343 310.576C384.118 310.409 383.84 310.332 383.561 310.36L371.601 312.205C371.461 312.226 371.327 312.274 371.207 312.347C371.086 312.42 370.981 312.517 370.898 312.631C370.815 312.745 370.756 312.875 370.724 313.013C370.692 313.15 370.688 313.293 370.712 313.432C370.732 313.571 370.778 313.706 370.85 313.827C370.922 313.948 371.017 314.054 371.131 314.137C371.244 314.221 371.373 314.282 371.509 314.315C371.646 314.348 371.788 314.354 371.927 314.332Z" fill="white" stroke="#263238" stroke-miterlimit="10" stroke-linecap="round"/>
<path d="M372.387 317.268L384.279 315.412C384.419 315.392 384.553 315.345 384.674 315.274C384.796 315.202 384.901 315.106 384.985 314.993C385.069 314.88 385.129 314.751 385.163 314.614C385.196 314.478 385.202 314.335 385.18 314.196C385.125 313.92 384.969 313.674 384.742 313.508C384.514 313.341 384.233 313.266 383.953 313.296L372.06 315.153C371.786 315.207 371.542 315.362 371.376 315.587C371.209 315.811 371.133 316.09 371.16 316.368C371.215 316.644 371.371 316.89 371.598 317.057C371.825 317.223 372.107 317.299 372.387 317.268Z" fill="white" stroke="#263238" stroke-miterlimit="10" stroke-linecap="round"/>
<path d="M369.598 328.553C369.709 329.333 370.048 330.064 370.574 330.651C371.1 331.238 371.788 331.656 372.551 331.852C373.315 332.049 374.119 332.014 374.863 331.752C375.606 331.491 376.256 331.015 376.729 330.384C377.201 329.754 377.477 328.997 377.519 328.21C377.562 327.423 377.37 326.641 376.968 325.963C376.566 325.285 375.972 324.742 375.261 324.402C374.55 324.062 373.754 323.94 372.974 324.052C371.931 324.206 370.992 324.765 370.359 325.608C369.727 326.451 369.454 327.509 369.598 328.553Z" fill="#263238" stroke="#263238" stroke-miterlimit="10" stroke-linecap="round"/>
<path d="M373.95 327.316L385.843 325.459C386.117 325.405 386.361 325.25 386.528 325.026C386.694 324.801 386.771 324.522 386.743 324.244C386.688 323.968 386.532 323.722 386.305 323.555C386.078 323.389 385.797 323.313 385.517 323.344L373.624 325.201C373.35 325.255 373.106 325.41 372.939 325.634C372.773 325.859 372.696 326.138 372.724 326.416C372.778 326.692 372.935 326.938 373.162 327.104C373.389 327.271 373.67 327.347 373.95 327.316Z" fill="white" stroke="#263238" stroke-miterlimit="10" stroke-linecap="round"/>
<path d="M374.414 330.207L386.306 328.351C386.583 328.296 386.828 328.14 386.995 327.913C387.162 327.686 387.237 327.404 387.206 327.124C387.149 326.85 386.992 326.607 386.765 326.443C386.538 326.278 386.258 326.204 385.98 326.235L374.076 328.081C373.802 328.138 373.559 328.295 373.394 328.522C373.23 328.749 373.156 329.029 373.187 329.307C373.242 329.583 373.398 329.829 373.625 329.996C373.852 330.162 374.134 330.238 374.414 330.207Z" fill="white" stroke="#263238" stroke-miterlimit="10" stroke-linecap="round"/>
<path d="M371.622 341.537C371.735 342.319 372.077 343.05 372.606 343.637C373.136 344.224 373.827 344.64 374.594 344.833C375.36 345.026 376.166 344.986 376.91 344.719C377.654 344.452 378.301 343.97 378.77 343.334C379.239 342.698 379.509 341.937 379.544 341.148C379.579 340.358 379.379 339.576 378.968 338.901C378.558 338.226 377.956 337.688 377.239 337.356C376.522 337.024 375.722 336.913 374.942 337.036C373.908 337.2 372.98 337.764 372.359 338.606C371.738 339.448 371.474 340.501 371.622 341.537Z" fill="#263238" stroke="#263238" stroke-miterlimit="10" stroke-linecap="round"/>
<path d="M376.012 340.335L387.905 338.478C388.181 338.424 388.427 338.267 388.593 338.04C388.76 337.813 388.835 337.532 388.805 337.252C388.748 336.978 388.59 336.734 388.364 336.57C388.137 336.406 387.857 336.332 387.578 336.363L375.674 338.208C375.4 338.265 375.157 338.423 374.993 338.649C374.828 338.876 374.754 339.156 374.786 339.435C374.84 339.711 374.996 339.957 375.224 340.123C375.451 340.29 375.732 340.365 376.012 340.335Z" fill="white" stroke="#263238" stroke-miterlimit="10" stroke-linecap="round"/>
<path d="M376.428 343.236L388.388 341.379C388.662 341.322 388.905 341.165 389.07 340.938C389.234 340.711 389.308 340.431 389.277 340.153C389.22 339.878 389.062 339.635 388.835 339.471C388.609 339.307 388.329 339.233 388.05 339.264L376.158 341.109C375.881 341.164 375.636 341.32 375.469 341.547C375.302 341.774 375.227 342.055 375.257 342.335C375.311 342.601 375.459 342.839 375.674 343.004C375.889 343.17 376.157 343.252 376.428 343.236Z" fill="white" stroke="#263238" stroke-miterlimit="10" stroke-linecap="round"/>
<path d="M373.647 354.52C373.768 355.296 374.115 356.019 374.646 356.598C375.177 357.177 375.867 357.586 376.63 357.774C377.392 357.962 378.194 357.92 378.933 357.654C379.672 357.388 380.315 356.909 380.783 356.278C381.25 355.646 381.521 354.891 381.56 354.107C381.6 353.322 381.406 352.544 381.004 351.869C380.602 351.194 380.01 350.653 379.301 350.314C378.593 349.975 377.8 349.853 377.022 349.963C376.5 350.038 375.997 350.215 375.544 350.485C375.091 350.755 374.696 351.112 374.382 351.536C374.068 351.96 373.841 352.442 373.715 352.954C373.589 353.467 373.566 353.999 373.647 354.52Z" fill="#263238" stroke="#263238" stroke-miterlimit="10" stroke-linecap="round"/>
<path d="M377.994 353.283L389.898 351.426C390.172 351.369 390.416 351.212 390.58 350.985C390.744 350.758 390.818 350.478 390.787 350.2C390.725 349.921 390.559 349.677 390.323 349.516C390.087 349.355 389.798 349.29 389.516 349.334L377.623 351.179C377.347 351.234 377.101 351.39 376.934 351.617C376.768 351.844 376.692 352.125 376.723 352.405C376.783 352.686 376.948 352.934 377.184 353.097C377.421 353.26 377.71 353.327 377.994 353.283Z" fill="white" stroke="#263238" stroke-miterlimit="10" stroke-linecap="round"/>
<path d="M378.452 356.209L390.345 354.364C390.621 354.309 390.867 354.153 391.034 353.926C391.2 353.699 391.276 353.417 391.245 353.137C391.191 352.861 391.034 352.615 390.807 352.449C390.58 352.282 390.299 352.206 390.019 352.237L378.115 354.094C377.841 354.151 377.598 354.308 377.433 354.535C377.269 354.762 377.195 355.042 377.226 355.32C377.283 355.594 377.44 355.837 377.667 356.002C377.894 356.166 378.174 356.24 378.452 356.209Z" fill="white" stroke="#263238" stroke-miterlimit="10" stroke-linecap="round"/>
<path d="M375.661 367.495C375.774 368.277 376.116 369.008 376.645 369.595C377.174 370.182 377.866 370.598 378.632 370.791C379.399 370.984 380.205 370.944 380.949 370.677C381.693 370.41 382.34 369.928 382.809 369.292C383.278 368.656 383.547 367.895 383.583 367.106C383.618 366.316 383.418 365.534 383.007 364.859C382.597 364.184 381.994 363.646 381.277 363.314C380.56 362.982 379.761 362.871 378.98 362.994C377.947 363.158 377.019 363.722 376.398 364.564C375.777 365.406 375.512 366.459 375.661 367.495Z" fill="#263238" stroke="#263238" stroke-miterlimit="10" stroke-linecap="round"/>
<path d="M380.016 366.212L391.909 364.367C392.185 364.312 392.431 364.156 392.597 363.929C392.764 363.702 392.839 363.421 392.809 363.141C392.788 363.001 392.74 362.867 392.667 362.746C392.594 362.625 392.497 362.52 392.383 362.438C392.269 362.355 392.139 362.296 392.001 362.264C391.864 362.232 391.721 362.228 391.582 362.252L379.678 364.097C379.404 364.154 379.161 364.311 378.997 364.538C378.832 364.765 378.758 365.045 378.789 365.323C378.81 365.463 378.858 365.597 378.931 365.718C379.004 365.839 379.101 365.944 379.215 366.026C379.329 366.109 379.459 366.168 379.597 366.2C379.734 366.232 379.877 366.236 380.016 366.212Z" fill="white" stroke="#263238" stroke-miterlimit="10" stroke-linecap="round"/>
<path d="M380.51 369.193L392.369 367.336C392.644 367.279 392.887 367.122 393.051 366.895C393.215 366.668 393.289 366.388 393.258 366.11C393.203 365.834 393.047 365.588 392.82 365.421C392.593 365.255 392.312 365.179 392.032 365.21L380.139 367.066C379.863 367.121 379.617 367.277 379.45 367.504C379.284 367.731 379.208 368.013 379.239 368.293C379.294 368.578 379.457 368.831 379.694 368.998C379.931 369.166 380.223 369.236 380.51 369.193Z" fill="white" stroke="#263238" stroke-miterlimit="10" stroke-linecap="round"/>
<path d="M377.689 380.478C377.801 381.26 378.144 381.991 378.673 382.578C379.202 383.165 379.894 383.581 380.66 383.774C381.426 383.967 382.233 383.927 382.976 383.66C383.72 383.393 384.368 382.911 384.837 382.275C385.306 381.639 385.575 380.878 385.61 380.089C385.645 379.299 385.445 378.517 385.035 377.842C384.624 377.167 384.022 376.629 383.305 376.297C382.588 375.965 381.788 375.854 381.008 375.977C379.974 376.141 379.047 376.705 378.426 377.547C377.805 378.389 377.54 379.442 377.689 380.478Z" fill="#263238" stroke="#263238" stroke-miterlimit="10" stroke-linecap="round"/>
<path d="M382.033 379.241L393.937 377.396C394.211 377.339 394.454 377.182 394.619 376.955C394.783 376.728 394.857 376.448 394.826 376.17C394.771 375.893 394.615 375.647 394.388 375.481C394.161 375.314 393.879 375.239 393.599 375.269L381.707 377.126C381.43 377.181 381.185 377.337 381.018 377.564C380.851 377.791 380.776 378.072 380.807 378.352C380.864 378.627 381.021 378.87 381.248 379.034C381.475 379.198 381.755 379.272 382.033 379.241Z" fill="white" stroke="#263238" stroke-miterlimit="10" stroke-linecap="round"/>
<path d="M382.491 382.178L394.384 380.321C394.658 380.267 394.902 380.112 395.068 379.887C395.235 379.663 395.311 379.384 395.284 379.106C395.229 378.83 395.073 378.584 394.846 378.417C394.619 378.251 394.337 378.175 394.057 378.206L382.153 380.062C381.879 380.119 381.636 380.277 381.472 380.504C381.307 380.73 381.233 381.01 381.265 381.289C381.322 381.563 381.479 381.806 381.706 381.971C381.933 382.135 382.213 382.209 382.491 382.178Z" fill="white" stroke="#263238" stroke-miterlimit="10" stroke-linecap="round"/>
<path d="M379.703 393.462C379.813 394.243 380.153 394.973 380.678 395.56C381.204 396.147 381.892 396.566 382.656 396.762C383.419 396.958 384.223 396.923 384.967 396.662C385.711 396.4 386.36 395.924 386.833 395.294C387.306 394.663 387.581 393.906 387.624 393.119C387.666 392.332 387.474 391.55 387.072 390.872C386.67 390.194 386.076 389.651 385.365 389.311C384.654 388.971 383.858 388.849 383.078 388.962C382.034 389.112 381.093 389.67 380.46 390.514C379.827 391.358 379.555 392.418 379.703 393.462Z" fill="#263238" stroke="#263238" stroke-miterlimit="10" stroke-linecap="round"/>
<path d="M384.055 392.225L395.947 390.38C396.224 390.325 396.469 390.169 396.636 389.942C396.803 389.715 396.878 389.433 396.847 389.153C396.793 388.877 396.636 388.631 396.409 388.465C396.182 388.298 395.901 388.223 395.621 388.253L383.717 390.11C383.443 390.167 383.2 390.324 383.035 390.551C382.871 390.778 382.797 391.058 382.828 391.336C382.885 391.61 383.043 391.853 383.269 392.018C383.496 392.182 383.776 392.256 384.055 392.225Z" fill="white" stroke="#263238" stroke-miterlimit="10" stroke-linecap="round"/>
<path d="M384.505 395.162L396.409 393.306C396.684 393.248 396.927 393.091 397.091 392.864C397.255 392.638 397.329 392.358 397.298 392.079C397.278 391.941 397.23 391.808 397.157 391.688C397.085 391.568 396.989 391.463 396.876 391.381C396.763 391.298 396.635 391.239 396.499 391.206C396.363 391.173 396.221 391.168 396.083 391.19L384.179 393.047C384.04 393.066 383.906 393.113 383.785 393.185C383.665 393.257 383.56 393.352 383.477 393.466C383.394 393.579 383.335 393.708 383.302 393.845C383.27 393.982 383.266 394.124 383.29 394.262C383.345 394.536 383.499 394.78 383.724 394.947C383.949 395.113 384.227 395.19 384.505 395.162Z" fill="white" stroke="#263238" stroke-miterlimit="10" stroke-linecap="round"/>
<path opacity="0.3" d="M209.583 173.262L212.542 172.812" stroke="black" stroke-miterlimit="10" stroke-linecap="round"/>
<path opacity="0.3" d="M215.502 172.35L218.461 171.889" stroke="black" stroke-miterlimit="10" stroke-linecap="round"/>
<path opacity="0.3" d="M180.666 181.937L183.614 181.476" stroke="black" stroke-miterlimit="10" stroke-linecap="round"/>
<path opacity="0.3" d="M186.571 181.015L189.53 180.553" stroke="black" stroke-miterlimit="10" stroke-linecap="round"/>
<path opacity="0.3" d="M192.49 180.103L195.437 179.642" stroke="black" stroke-miterlimit="10" stroke-linecap="round"/>
<path opacity="0.3" d="M198.394 179.18L201.353 178.719" stroke="black" stroke-miterlimit="10" stroke-linecap="round"/>
<path opacity="0.3" d="M204.303 178.258L207.262 177.796" stroke="black" stroke-miterlimit="10" stroke-linecap="round"/>
<path opacity="0.3" d="M210.222 177.335L213.17 176.874" stroke="black" stroke-miterlimit="10" stroke-linecap="round"/>
<path opacity="0.3" d="M216.129 176.412L219.088 175.962" stroke="black" stroke-miterlimit="10" stroke-linecap="round"/>
<path opacity="0.3" d="M181.297 186.01L184.256 185.549" stroke="black" stroke-miterlimit="10" stroke-linecap="round"/>
<path opacity="0.3" d="M187.202 185.087L190.161 184.626" stroke="black" stroke-miterlimit="10" stroke-linecap="round"/>
<path opacity="0.3" d="M193.121 184.163L196.08 183.713" stroke="black" stroke-miterlimit="10" stroke-linecap="round"/>
<path opacity="0.3" d="M199.026 183.253L201.985 182.792" stroke="black" stroke-miterlimit="10" stroke-linecap="round"/>
<path opacity="0.3" d="M204.945 182.33L207.893 181.869" stroke="black" stroke-miterlimit="10" stroke-linecap="round"/>
<path opacity="0.3" d="M210.854 181.407L213.813 180.946" stroke="black" stroke-miterlimit="10" stroke-linecap="round"/>
<path opacity="0.3" d="M216.759 180.484L219.718 180.023" stroke="black" stroke-miterlimit="10" stroke-linecap="round"/>
<path opacity="0.3" d="M181.927 190.081L184.886 189.62" stroke="black" stroke-miterlimit="10" stroke-linecap="round"/>
<path opacity="0.3" d="M187.842 189.16L190.79 188.698" stroke="black" stroke-miterlimit="10" stroke-linecap="round"/>
<path opacity="0.3" d="M193.751 188.237L196.71 187.775" stroke="black" stroke-miterlimit="10" stroke-linecap="round"/>
<path opacity="0.3" d="M199.666 187.326L202.614 186.865" stroke="black" stroke-miterlimit="10" stroke-linecap="round"/>
<path opacity="0.3" d="M205.574 186.404L208.534 185.943" stroke="black" stroke-miterlimit="10" stroke-linecap="round"/>
<path opacity="0.3" d="M211.483 185.481L214.442 185.02" stroke="black" stroke-miterlimit="10" stroke-linecap="round"/>
<path opacity="0.3" d="M217.398 184.559L220.346 184.098" stroke="black" stroke-miterlimit="10" stroke-linecap="round"/>
<path opacity="0.3" d="M182.569 194.156L185.516 193.694" stroke="black" stroke-miterlimit="10" stroke-linecap="round"/>
<path opacity="0.3" d="M188.473 193.233L191.432 192.771" stroke="black" stroke-miterlimit="10" stroke-linecap="round"/>
<path opacity="0.3" d="M194.382 192.311L197.341 191.85" stroke="black" stroke-miterlimit="10" stroke-linecap="round"/>
<path opacity="0.3" d="M200.301 191.388L203.26 190.938" stroke="black" stroke-miterlimit="10" stroke-linecap="round"/>
<path opacity="0.3" d="M206.206 190.476L209.165 190.015" stroke="black" stroke-miterlimit="10" stroke-linecap="round"/>
<path opacity="0.3" d="M212.125 189.554L215.073 189.093" stroke="black" stroke-miterlimit="10" stroke-linecap="round"/>
<path opacity="0.3" d="M218.03 188.631L220.989 188.17" stroke="black" stroke-miterlimit="10" stroke-linecap="round"/>
<path opacity="0.3" d="M179.19 172.52L182.149 172.059" stroke="black" stroke-miterlimit="10" stroke-linecap="round"/>
<path opacity="0.3" d="M185.109 171.597L188.068 171.146" stroke="black" stroke-miterlimit="10" stroke-linecap="round"/>
<path opacity="0.3" d="M191.018 170.685L193.977 170.224" stroke="black" stroke-miterlimit="10" stroke-linecap="round"/>
<path opacity="0.3" d="M196.935 169.763L199.883 169.302" stroke="black" stroke-miterlimit="10" stroke-linecap="round"/>
<path opacity="0.3" d="M202.842 168.84L205.801 168.379" stroke="black" stroke-miterlimit="10" stroke-linecap="round"/>
<path opacity="0.3" d="M208.759 167.916L211.707 167.466" stroke="black" stroke-miterlimit="10" stroke-linecap="round"/>
<path opacity="0.3" d="M214.668 167.006L217.627 166.544" stroke="black" stroke-miterlimit="10" stroke-linecap="round"/>
<path opacity="0.3" d="M218.232 168.794L179.302 174.847" stroke="black" stroke-miterlimit="10" stroke-linecap="round"/>
<path opacity="0.3" d="M190.106 165.61L205.127 163.27" stroke="black" stroke-miterlimit="10" stroke-linecap="round"/>
<path opacity="0.3" d="M171.452 207.602L337.106 181.825" stroke="black" stroke-miterlimit="10" stroke-linecap="round"/>
<path opacity="0.3" d="M173.533 220.945L339.176 195.168" stroke="black" stroke-miterlimit="10" stroke-linecap="round"/>
<path opacity="0.3" d="M175.603 234.278L341.257 208.501" stroke="black" stroke-miterlimit="10" stroke-linecap="round"/>
<path opacity="0.3" d="M177.684 247.622L343.327 221.845" stroke="black" stroke-miterlimit="10" stroke-linecap="round"/>
<path opacity="0.3" d="M179.754 260.967L345.408 235.19" stroke="black" stroke-miterlimit="10" stroke-linecap="round"/>
<path opacity="0.3" d="M181.835 274.311L347.478 248.522" stroke="black" stroke-miterlimit="10" stroke-linecap="round"/>
<path opacity="0.3" d="M183.905 287.644L349.559 261.867" stroke="black" stroke-miterlimit="10" stroke-linecap="round"/>
<path opacity="0.3" d="M185.986 300.987L351.629 275.21" stroke="black" stroke-miterlimit="10" stroke-linecap="round"/>
<path opacity="0.3" d="M188.056 314.333L353.711 288.556" stroke="black" stroke-miterlimit="10" stroke-linecap="round"/>
<path opacity="0.3" d="M190.139 327.675L355.782 301.887" stroke="black" stroke-miterlimit="10" stroke-linecap="round"/>
<path opacity="0.3" d="M192.21 341.008L357.864 315.231" stroke="black" stroke-miterlimit="10" stroke-linecap="round"/>
<path opacity="0.3" d="M194.29 354.353L359.944 328.576" stroke="black" stroke-miterlimit="10" stroke-linecap="round"/>
<path opacity="0.3" d="M196.361 367.697L362.015 341.92" stroke="black" stroke-miterlimit="10" stroke-linecap="round"/>
<path opacity="0.3" d="M201.301 399.381L366.944 373.604" stroke="black" stroke-miterlimit="10" stroke-linecap="round"/>
<path opacity="0.3" d="M202.942 409.945L368.585 384.157" stroke="black" stroke-miterlimit="10" stroke-linecap="round"/>
<path opacity="0.3" d="M204.585 420.5L370.228 394.723" stroke="black" stroke-miterlimit="10" stroke-linecap="round"/>
<path d="M195.08 220.44C195.08 220.44 180.948 235.73 189.116 233.323C197.285 230.915 208.458 214.938 206.084 221.576C203.71 228.215 203.833 232.738 207.67 228.158C211.507 223.579 213.656 222.668 212.879 225.064C212.103 227.461 215.276 225.829 215.276 225.829C215.276 225.829 223.152 221.194 222.331 223.579C221.509 225.964 221.014 226.066 223.242 225.717L230.465 224.592C230.465 224.592 229.993 225.244 236.665 224.198C243.337 223.151 245.936 221.621 249.278 221.104" stroke="#263238" stroke-miterlimit="10" stroke-linecap="round"/>
<path d="M188.663 241.322C188.663 241.322 199.555 234.504 200.927 236C202.3 237.497 200.421 240.062 205.338 238.734C210.255 237.407 214.733 233.289 215.082 235.505C215.43 237.722 218.592 236.101 218.592 236.101L221.371 235.663C221.371 235.663 226.457 235.449 228.043 234.627C229.63 233.806 231.272 226.155 230.057 236.596C228.842 247.038 224.578 238.014 234.715 233.592C244.853 229.171 246.732 233.997 246.732 233.997C247.854 233.744 248.945 233.366 249.983 232.872C252.11 231.961 253.989 229.396 256.003 231.365C258.017 233.334 261.629 227.078 261.629 227.078C263.034 227.34 264.421 227.693 265.78 228.135C267.083 228.59 268.468 228.763 269.842 228.642C271.541 228.707 273.242 228.632 274.928 228.417C277.178 228.068 279.035 225.503 280.869 226.358C282.703 227.213 285.482 219.371 284.086 228.698C282.691 238.025 273.668 242.278 277.336 236.574C280.573 231.591 284.732 227.272 289.588 223.849C293.695 220.934 294.888 221.317 295.788 223.455C296.688 225.593 297.802 225.413 299.94 224.512C302.077 223.612 300.243 222.757 302.077 223.612C302.688 223.959 303.361 224.183 304.058 224.27C304.755 224.357 305.462 224.305 306.139 224.119C307.816 223.86 299.996 228.495 307.816 223.86C315.635 219.224 318.426 200.569 314.33 210.887C310.235 221.205 311.787 223.815 317.267 222.386" stroke="#263238" stroke-miterlimit="10" stroke-linecap="round"/>
<path d="M189.847 259.965C189.847 259.965 203.214 247.071 202.392 245.484C201.571 243.898 197.307 245.709 194.19 251.313C191.073 256.916 193.267 259.999 201.65 255.284C210.032 250.57 197.835 256.409 206.443 256.814C215.05 257.22 217.593 251.661 217.852 253.327C218.11 254.992 215.241 254.868 222.003 254.452C228.765 254.035 225.458 251.076 232.388 251.695C239.319 252.314 242.402 250.131 242.402 250.131L246.846 249.445C246.846 249.445 237.845 250.266 249.536 248.455C261.226 246.643 266.356 232.174 260.731 239.881C255.105 247.588 257.749 250.007 263.521 246.846L269.293 243.673C269.293 243.673 276.584 235.707 273.141 246.486C269.698 257.265 265.625 249.366 278.44 243.954C291.256 238.542 290.929 243.718 295.205 241.918C299.48 240.117 298.783 235.662 301.618 239.206C304.454 242.75 304.273 241.648 308.718 240.95C313.162 240.252 311.969 239.825 315.862 239.274L324.256 237.946" stroke="#263238" stroke-miterlimit="10" stroke-linecap="round"/>
<path d="M192.095 300.042C192.095 300.042 201.411 294.034 202.896 285.258C204.382 276.482 197.034 287.879 197.833 300.278C198.632 312.677 194.267 295.71 207.262 291.412C220.257 287.114 206.137 295.013 207.577 297.038C209.017 299.063 219.672 290.602 219.548 293.46C219.425 296.318 221.799 297.094 228.347 291.525C234.895 285.955 224.24 287.024 223.734 291.108C223.228 295.193 226.389 293.539 234.468 290.568C242.546 287.598 234.637 291.694 239.643 290.906C244.65 290.118 255.665 280.442 253.494 284.763C251.322 289.083 253.415 291.615 255.845 288.959C258.276 286.304 263.451 279.227 263.879 282.006C264.137 283.647 263.78 285.326 262.878 286.72" stroke="#263238" stroke-miterlimit="10" stroke-linecap="round"/>
<path opacity="0.3" d="M139.877 194.167C139.66 193.937 139.427 193.723 139.18 193.526C138.466 192.969 137.683 192.508 136.851 192.153L136.356 191.973H136.232C131.799 190.6 116.643 189.948 111.558 189.723C110.289 189.679 109.043 190.065 108.021 190.818C107 191.572 106.264 192.649 105.932 193.874V193.998C104.852 198.127 89.4374 299.997 89.4374 299.997C89.4374 299.997 89.3249 302.248 89.1673 305.769C89.0998 307.311 89.0323 309.145 88.9423 311.001C88.9423 311.485 88.9423 311.969 88.9423 312.464C88.9423 313.454 88.8636 314.467 88.8186 315.491C88.6723 319.102 88.5373 322.905 88.436 326.382C88.3572 328.857 88.301 331.175 88.2672 333.133C88.2672 334.697 88.2672 336.024 88.2672 337.037C88.2542 339.394 88.3857 341.75 88.661 344.092C89.0998 346.994 90.1125 348.333 92.6103 348.772C93.2291 348.885 94.1292 349.02 95.2206 349.155L95.8957 349.234L98.9898 349.571L99.8449 349.65L102.489 349.864L104.312 349.976L106.146 350.066C107.35 350.122 108.542 350.145 109.679 350.145C111.333 350.169 112.988 350.075 114.629 349.864H114.775L115.192 349.785L115.653 349.672H115.743L116.204 349.526L116.981 349.234L117.69 348.941C118.644 348.559 119.554 348.072 120.401 347.49C120.675 347.294 120.938 347.084 121.189 346.859C121.429 346.649 121.654 346.424 121.864 346.184L122.156 345.836C122.566 345.321 122.942 344.779 123.282 344.215C123.338 344.127 123.383 344.033 123.417 343.934L123.484 343.765L123.597 343.473C123.622 343.385 123.652 343.298 123.687 343.214C123.687 343.09 123.754 342.989 123.799 342.854L123.9 342.539C123.9 342.393 123.979 342.258 124.024 342.1C124.069 341.943 124.103 341.853 124.137 341.729C124.17 341.605 124.227 341.391 124.283 341.211C124.339 341.031 124.362 340.907 124.407 340.761C124.452 340.615 124.497 340.401 124.553 340.199C124.609 339.996 124.643 339.861 124.688 339.692C124.733 339.524 124.789 339.287 124.845 339.062L124.98 338.533L125.149 337.847C125.149 337.656 125.251 337.442 125.307 337.24L125.476 336.519C125.532 336.317 125.577 336.092 125.633 335.878C125.689 335.664 125.757 335.372 125.813 335.113L125.982 334.427C125.982 334.168 126.106 333.909 126.162 333.639C126.218 333.369 126.274 333.144 126.342 332.897C126.409 332.649 126.466 332.356 126.522 332.075C126.527 331.996 126.527 331.918 126.522 331.839C126.522 331.681 126.601 331.524 126.634 331.366C126.668 331.209 126.769 330.759 126.848 330.444C126.927 330.129 126.949 329.971 127.006 329.724C127.062 329.476 127.141 329.105 127.22 328.79L127.388 328.047L127.591 327.113C127.591 326.843 127.715 326.562 127.771 326.292L127.973 325.403C127.973 325.122 128.097 324.829 128.153 324.548L128.356 323.659C128.356 323.524 128.356 323.389 128.435 323.254C128.513 323.119 128.513 322.939 128.547 322.781C128.581 322.624 128.671 322.196 128.727 321.904C128.783 321.611 128.851 321.33 128.918 321.038C128.986 320.745 129.042 320.43 129.11 320.137C129.177 319.845 129.234 319.552 129.301 319.26C129.369 318.967 129.414 318.697 129.481 318.416C129.549 318.135 129.605 317.797 129.672 317.482L129.841 316.672C129.909 316.379 129.965 316.098 130.021 315.817C130.077 315.536 130.145 315.221 130.212 314.928L130.381 314.084C130.381 313.825 130.494 313.567 130.539 313.308C130.584 313.049 130.617 312.925 130.662 312.734L130.73 312.408C130.73 312.16 130.831 311.913 130.876 311.665C130.921 311.418 131 311.103 131.056 310.821C131.113 310.54 131.146 310.337 131.203 310.101L131.371 309.235C131.371 309.044 131.45 308.841 131.484 308.65L131.619 307.997C131.619 307.918 131.619 307.84 131.619 307.75C131.619 307.66 131.698 307.378 131.731 307.187L131.9 306.366L132.001 305.803C132.058 305.544 132.103 305.286 132.148 305.049L132.249 304.554L132.384 303.8C132.384 303.665 132.384 303.542 132.463 303.418L132.598 302.687L132.665 302.326C132.665 302.101 132.744 301.888 132.778 301.685C132.778 301.415 132.868 301.145 132.913 300.909C133.104 299.784 133.363 297.297 133.678 293.82C133.802 292.515 133.925 291.075 134.06 289.5C134.544 283.762 135.107 276.381 135.703 268.28C135.703 267.548 135.804 266.806 135.861 266.03C138.111 235.403 140.609 196.102 140.609 196.102C140.623 195.747 140.566 195.393 140.44 195.06C140.314 194.728 140.123 194.424 139.877 194.167Z" fill="black"/>
<path d="M84.1851 298.872C84.1851 298.872 82.8011 327.856 82.9587 335.889C83.1162 343.923 83.3075 346.927 87.2904 347.636C91.2734 348.345 106.643 349.886 110.918 348.333C115.194 346.781 116.544 345.408 117.984 343.034C119.424 340.66 126.198 308.639 127.728 299.649C129.258 290.659 135.435 194.876 135.435 194.876C135.435 194.876 135.671 192.839 131.565 191.028C128.189 189.509 111.627 188.778 106.272 188.598C104.995 188.54 103.737 188.918 102.704 189.671C101.671 190.423 100.926 191.505 100.59 192.738C100.59 192.738 100.59 192.828 100.59 192.862C99.5657 196.991 84.1851 298.872 84.1851 298.872Z" fill="#325294"/>
<path opacity="0.5" d="M108.644 348.807C109.409 348.735 110.164 348.577 110.894 348.334C115.215 346.781 116.52 345.409 117.96 343.035C119.4 340.661 126.173 308.639 127.704 299.649C129.234 290.66 135.411 194.877 135.411 194.877C135.411 194.877 135.647 192.84 131.54 191.029C131.144 190.863 130.733 190.731 130.314 190.635C129.425 212.856 126.421 239.241 121.144 270.587C116.216 300.246 110.624 336.093 108.644 348.807Z" fill="black"/>
<path d="M84.1851 298.872C84.1851 298.872 82.8011 327.856 82.9587 335.889C83.1162 343.923 83.3075 346.927 87.2904 347.636C91.2734 348.345 106.643 349.886 110.918 348.333C115.194 346.781 116.544 345.408 117.984 343.034C119.424 340.66 126.198 308.639 127.728 299.649C129.258 290.659 135.435 194.876 135.435 194.876C135.435 194.876 135.671 192.839 131.565 191.028C128.189 189.509 111.627 188.778 106.272 188.598C104.995 188.54 103.737 188.918 102.704 189.671C101.671 190.423 100.926 191.505 100.59 192.738C100.59 192.738 100.59 192.828 100.59 192.862C99.5657 196.991 84.1851 298.872 84.1851 298.872Z" stroke="#263238" stroke-linecap="round" stroke-linejoin="round"/>
<path d="M115.62 302.237C110.816 302.237 90.1248 300.054 86.9181 299.368C86.0053 299.178 85.1039 298.937 84.2178 298.647V298.872C84.2178 298.872 82.8339 327.856 82.9914 335.89C83.1489 343.923 83.3402 346.927 87.3232 347.636C91.3061 348.345 106.676 349.886 110.951 348.334C115.227 346.781 116.577 345.408 118.017 343.034C119.457 340.66 125.893 310.405 127.626 300.436C123.575 302.54 119.57 302.203 115.62 302.237Z" fill="#263238"/>
<path opacity="0.5" d="M108.644 348.807C109.409 348.735 110.164 348.577 110.894 348.334C115.215 346.781 116.52 345.409 117.96 343.035C119.4 340.661 126.173 308.639 127.704 299.649C129.234 290.66 135.411 194.877 135.411 194.877C135.411 194.877 135.647 192.84 131.54 191.029C131.144 190.863 130.733 190.731 130.314 190.635C129.425 212.856 126.421 239.241 121.144 270.587C116.216 300.246 110.624 336.093 108.644 348.807Z" fill="black"/>
<path opacity="0.26" d="M115.665 304.915C118.825 304.781 121.96 304.298 125.014 303.475" stroke="white" stroke-linecap="round" stroke-linejoin="round"/>
<path d="M85.826 301.595C85.826 301.595 111.22 305.071 115.665 304.914" stroke="white" stroke-linecap="round" stroke-linejoin="round"/>
<path d="M115.62 302.237C110.816 302.237 90.1248 300.054 86.9181 299.368C86.0053 299.178 85.1039 298.937 84.2178 298.647V298.872C84.2178 298.872 82.8339 327.856 82.9914 335.89C83.1489 343.923 83.3402 346.927 87.3232 347.636C91.3061 348.345 106.676 349.886 110.951 348.334C115.227 346.781 116.577 345.408 118.017 343.034C119.457 340.66 125.893 310.405 127.626 300.436C123.575 302.54 119.57 302.203 115.62 302.237Z" stroke="#263238" stroke-linecap="round" stroke-linejoin="round"/>
<path d="M446.534 183.394C470.183 171.077 479.371 141.922 467.054 118.272C454.738 94.6231 425.582 85.4359 401.933 97.7522C378.284 110.068 369.097 139.224 381.413 162.873C393.729 186.523 422.885 195.71 446.534 183.394Z" fill="#263238" stroke="#263238" stroke-linecap="round" stroke-linejoin="round"/>
<path d="M468.534 141.739C471.825 115.278 453.043 91.1601 426.583 87.869C400.123 84.5779 376.004 103.36 372.713 129.82C369.422 156.281 388.205 180.399 414.665 183.69C441.125 186.981 465.243 168.199 468.534 141.739Z" fill="white" stroke="#263238" stroke-linecap="round" stroke-linejoin="round"/>
<path d="M463.543 142.837C467.437 119.138 451.381 96.7695 427.682 92.8759C403.983 88.9822 381.614 105.038 377.72 128.737C373.827 152.436 389.882 174.805 413.582 178.699C437.281 182.592 459.649 166.537 463.543 142.837Z" fill="#263238" stroke="#263238" stroke-linecap="round" stroke-linejoin="round"/>
<path opacity="0.5" d="M415.538 103.098C415.538 103.098 410.745 91.1041 402.341 82.6768C396.19 76.5099 376.242 71.9819 365.984 69.9965C364.065 69.6251 362.872 71.9664 364.207 73.393C368.003 77.4472 371.526 81.7513 374.752 86.2772C382.549 97.0673 408.349 121.663 408.349 121.663C408.349 121.663 395.747 110.862 384.35 109.669C372.952 108.476 344.171 114.462 342.371 114.462C340.571 114.462 353.161 119.266 362.162 123.463C371.163 127.66 405.941 131.26 405.941 131.26C405.941 131.26 390.954 135.457 380.749 139.057C370.544 142.658 360.958 169.042 360.958 169.042C360.958 169.042 374.156 157.048 385.554 154.044C396.951 151.04 413.142 145.685 413.142 145.685C413.142 145.685 402.948 157.082 400.552 164.879C399.326 168.868 399.195 175.524 399.36 181.075C399.424 183.243 402.507 183.68 403.364 181.687C405.546 176.61 408.588 170.626 411.938 167.276C418.531 160.683 425.732 149.274 425.732 149.274C429.055 154.69 432.06 160.296 434.733 166.061C437.605 172.175 439.835 180.006 441.161 185.302C441.63 187.177 444.202 187.428 444.914 185.63C447.152 179.975 450.107 171.355 449.731 166.061C449.135 157.656 440.145 142.68 440.145 142.68C440.145 142.68 446.142 138.484 455.132 142.084C464.122 145.685 479.728 160.683 479.728 160.683C479.728 160.683 476.127 140.891 470.13 133.094C464.133 125.297 438.345 122.889 438.345 122.889C438.345 122.889 452.736 114.496 461.737 112.695C466.605 111.722 472.349 112.502 476.597 113.425C478.509 113.84 480.044 111.609 478.778 110.116C473.893 104.356 465.342 95.5461 458.136 94.7045C447.346 93.4444 431.133 110.299 431.133 110.299C431.133 110.299 434.733 92.2967 435.937 86.311C436.798 82.0335 435.813 72.3494 435.182 67.1702C434.996 65.6449 433.274 64.9865 432.167 66.053C429.543 68.5833 425.174 73.2523 420.343 80.314C418.055 83.5955 416.451 87.3037 415.625 91.2178C414.8 95.132 414.771 99.1722 415.538 103.098Z" fill="#98A8C9"/>
<path d="M427.353 84.8484C427.769 83.1157 428.231 81.4055 428.737 79.7065" stroke="#263238" stroke-width="0.5" stroke-linecap="round" stroke-linejoin="round"/>
<path d="M387.26 84.8369C392.886 88.9437 399.896 94.5806 403.508 99.4637C410.101 108.465 423.299 127.66 423.299 127.66C422.924 114.772 423.946 101.881 426.348 89.2137" stroke="#263238" stroke-width="0.5" stroke-linecap="round" stroke-linejoin="round"/>
<path d="M378.958 79.1099C378.958 79.1099 380.702 80.235 383.324 82.024" stroke="#263238" stroke-width="0.5" stroke-linecap="round" stroke-linejoin="round"/>
<path d="M423.337 127.683C423.337 127.683 446.132 104.887 455.73 103.087C465.327 101.287 473.732 108.488 473.732 108.488" stroke="#263238" stroke-width="0.5" stroke-linecap="round" stroke-linejoin="round"/>
<path d="M382.604 146.81C377.057 150.343 376.551 152.334 376.551 152.334" stroke="#263238" stroke-width="0.5" stroke-linecap="round" stroke-linejoin="round"/>
<path d="M473.124 148.688C473.124 148.688 469.524 139.687 456.922 135.49C444.321 131.294 424.541 130.686 424.541 130.686C424.541 130.686 396.784 139.777 386.635 144.514" stroke="#263238" stroke-width="0.5" stroke-linecap="round" stroke-linejoin="round"/>
<path d="M412.421 127.266C419.171 129.212 424.538 130.641 424.538 130.641" stroke="#263238" stroke-width="0.5" stroke-linecap="round" stroke-linejoin="round"/>
<path d="M370.17 116.611C376.684 117.005 385.078 117.893 389.747 119.896C393.55 121.528 401.055 123.89 408.121 125.994" stroke="#263238" stroke-width="0.5" stroke-linecap="round" stroke-linejoin="round"/>
<path d="M360.954 116.295C360.954 116.295 363.148 116.295 366.388 116.419" stroke="#263238" stroke-width="0.5" stroke-linecap="round" stroke-linejoin="round"/>
<path d="M423.335 134.287C423.335 134.287 406.548 159.479 405.332 165.476C404.611 169.033 404.208 172.648 404.129 176.277" stroke="#263238" stroke-width="0.5" stroke-linecap="round" stroke-linejoin="round"/>
<path d="M430.805 142.22C434.034 146.394 437.916 151.952 439.525 156.486C441.422 161.947 442.83 167.564 443.733 173.274" stroke="#263238" stroke-width="0.5" stroke-linecap="round" stroke-linejoin="round"/>
<path d="M425.73 136.088C425.73 136.088 427.069 137.573 428.926 139.857" stroke="#263238" stroke-width="0.5" stroke-linecap="round" stroke-linejoin="round"/>
<path d="M400.934 98.6485C401.926 99.558 406.325 97.777 406.242 96.4338C406.005 92.6066 406.042 88.2516 406.739 84.0044C407.79 77.6044 415.606 67.4626 422.488 59.5714C425.7 55.8887 431.701 58.8407 431.437 63.7201C431.308 66.1014 431.248 68.4871 431.256 70.8741C431.256 75.9577 430.288 84.2067 429.09 92.4651C428.958 93.3752 436.42 96.1259 437.107 95.5146C442.642 90.5899 455.83 83.8452 464.856 79.3883C466.826 78.4159 469.962 81.7545 468.867 83.6582C467.075 86.774 465.044 90.329 463.176 93.6581C460.041 99.247 448.042 110.885 439.92 118.442C438.304 119.946 439.984 122.744 442.071 122.028C446.789 120.411 452.421 118.546 457.168 117.162C463.955 115.184 476.226 121.285 483.914 125.75C485.719 126.798 484.793 129.583 482.706 129.543C476.613 129.426 468.271 129.809 462.062 132.183C455.729 134.605 447.64 137.31 441.915 139.17C439.965 139.804 440.052 142.81 442.012 143.412C446.745 144.866 452.666 147.051 456.133 149.701C459.427 152.219 463.405 157.541 466.508 162.145C467.721 163.945 465.467 166.104 463.607 164.984C458.88 162.137 452.935 159.062 448.268 158.297C441.851 157.246 433.83 154.466 429.563 152.879C428.173 152.363 426.694 153.457 426.832 154.933C427.323 160.193 428.063 165.427 429.051 170.618C430.277 177.255 433.034 184.915 435.047 189.99C435.76 191.788 433.816 193.493 432.19 192.447C427.074 189.158 419.654 183.88 416.877 179.36C413.343 173.608 411.716 161.284 411.209 156.612C411.095 155.568 410.208 154.798 409.184 155.031C406.674 155.602 402.081 157.395 398.492 163.023C395.058 168.407 392.187 179.487 390.628 186.414C390.202 188.307 387.634 188.598 386.899 186.802C384.376 180.637 380.853 170.812 381.064 164.463C381.288 157.708 390.587 147.575 396.386 141.893C397.776 140.532 396.687 138.129 394.762 138.408C389.172 139.219 381.063 140.701 375.989 142.995C371.461 145.043 367.246 149.039 364.334 152.272C363.025 153.725 360.479 152.813 360.633 150.864C361.226 143.329 363.016 131.154 368.417 126.287C373.682 121.543 385.265 121.663 392.694 122.323C394.683 122.5 395.927 119.895 394.467 118.533L381.559 106.485C379.095 104.206 375.958 99.106 373.622 94.9558C371.933 91.9544 373.917 88.5921 377.328 89.0658C380.7 89.534 385.22 90.5174 390.74 92.5217C394.515 93.8584 397.982 95.9421 400.934 98.6485Z" fill="#325294"/>
<path d="M387.679 100.33C386.329 99.1679 384.956 98.0427 383.561 96.9551" stroke="#263238" stroke-width="0.5" stroke-linecap="round" stroke-linejoin="round"/>
<path d="M420.208 76.9619C418.037 83.5665 415.629 92.2413 415.561 98.3395C415.449 109.49 415.933 132.78 415.933 132.78C408.724 122.089 400.375 112.212 391.033 103.324" stroke="#263238" stroke-width="0.5" stroke-linecap="round" stroke-linejoin="round"/>
<path d="M423.65 67.4424C423.65 67.4424 422.863 69.3664 421.794 72.3592" stroke="#263238" stroke-width="0.5" stroke-linecap="round" stroke-linejoin="round"/>
<path d="M415.93 132.79C415.93 132.79 384.122 127.569 375.278 131.664C366.435 135.76 363.813 146.539 363.813 146.539" stroke="#263238" stroke-width="0.5" stroke-linecap="round" stroke-linejoin="round"/>
<path d="M460.139 124.509C466.71 124.149 468.274 125.476 468.274 125.476" stroke="#263238" stroke-width="0.5" stroke-linecap="round" stroke-linejoin="round"/>
<path d="M387.737 178.875C387.737 178.875 385.419 169.469 393.194 158.713C400.969 147.957 416.71 135.929 416.71 135.929C416.71 135.929 444.545 127.119 455.561 125.049" stroke="#263238" stroke-width="0.5" stroke-linecap="round" stroke-linejoin="round"/>
<path d="M424.55 126.084C420.241 131.575 416.674 135.929 416.674 135.929" stroke="#263238" stroke-width="0.5" stroke-linecap="round" stroke-linejoin="round"/>
<path d="M452.657 92.8037C447.583 96.9217 441.294 102.536 438.661 106.89C436.523 110.435 431.82 116.735 427.308 122.564" stroke="#263238" stroke-width="0.5" stroke-linecap="round" stroke-linejoin="round"/>
<path d="M459.946 87.1768C459.946 87.1768 458.168 88.4482 455.614 90.4397" stroke="#263238" stroke-width="0.5" stroke-linecap="round" stroke-linejoin="round"/>
<path d="M419.781 138.146C419.781 138.146 448.112 148.812 452.59 152.987C455.244 155.457 457.676 158.157 459.858 161.054" stroke="#263238" stroke-width="0.5" stroke-linecap="round" stroke-linejoin="round"/>
<path d="M418.338 148.937C418.147 154.225 418.237 161.009 419.564 165.622C421.213 171.164 423.352 176.549 425.955 181.712" stroke="#263238" stroke-width="0.5" stroke-linecap="round" stroke-linejoin="round"/>
<path d="M418.881 141.016C418.881 141.016 418.656 142.985 418.487 145.932" stroke="#263238" stroke-width="0.5" stroke-linecap="round" stroke-linejoin="round"/>
<path opacity="0.3" d="M430.252 384.585C428.092 378.498 427.709 346.567 428.193 323.828L440.828 326.562C443.022 327.037 445.314 326.697 447.275 325.606C447.752 325.34 448.204 325.031 448.625 324.683C449.038 324.347 449.415 323.97 449.751 323.558C450.948 322.233 451.73 320.586 452.001 318.821C452.048 318.508 452.078 318.192 452.091 317.876C452.177 316.051 451.719 314.242 450.775 312.678C450.468 312.169 450.114 311.69 449.717 311.249C448.276 309.649 446.322 308.603 444.192 308.29L428.936 306.039C429.071 304.059 429.228 302.518 429.386 301.539C429.659 300.055 429.772 298.546 429.723 297.038L430.77 293.663C432.311 288.723 431.141 281.455 426.944 277.326C422.747 273.197 407.817 265.928 403.451 262.114C399.086 258.3 366.4 235.021 360.538 236.393C354.676 237.766 347.746 246.126 341.839 250.75C335.932 255.374 314.655 272.825 314.655 272.825C314.723 272.094 303.719 276.538 301.041 280.848C300.839 281.04 300.683 281.276 300.584 281.537C300.485 281.797 300.445 282.077 300.467 282.355C300.782 283.581 301.391 284.712 302.242 285.65C303.093 286.587 304.16 287.302 305.35 287.733L295.809 286.327C295.269 286.248 294.717 286.324 294.219 286.547C293.721 286.77 293.297 287.131 292.996 287.587C289.621 287.081 282.735 286.327 277.762 287.688C277.762 287.688 285.874 291.66 291.939 292.988C292.099 293.457 292.378 293.877 292.749 294.206C293.119 294.535 293.569 294.763 294.054 294.867L306.712 297.578C306.479 298.313 306.306 299.066 306.194 299.829C306.105 300.524 306.202 301.231 306.476 301.876C306.532 302.304 306.611 302.743 306.712 303.204C308.512 310.855 318.233 320.149 325.322 326.292C332.41 332.435 339.195 342.955 343.403 355.152C347.611 367.348 350.243 378.588 359.605 390.965C361.197 393.057 362.93 395.038 364.791 396.894L452.068 452.026C452.068 452.026 433.391 393.53 430.252 384.585ZM316.377 288.633C316.23 288.858 316.084 289.084 315.96 289.32L313.553 288.96C314.5 288.918 315.444 288.809 316.377 288.633Z" fill="black"/>
<path d="M400.943 482L345.226 385.688C345.226 385.688 338.993 341.932 325.705 324.323C312.417 306.715 293.785 293.866 304.597 284.865C315.41 275.864 342.852 258.649 348.477 259.752C354.103 260.854 391.975 280.004 402.675 283.098C413.375 286.192 417.122 290.738 415.524 299.975C413.927 309.213 413.274 373.987 416.436 382.932C419.597 391.877 454.769 455.627 454.769 455.627" fill="white"/>
<path d="M416.515 382.954C413.331 374.009 414.006 309.257 415.604 299.997C416.583 294.371 415.548 290.445 412.139 287.621C412.261 292.752 411.425 297.861 409.675 302.686C406.67 311.204 405.174 317.212 405.174 317.212C405.174 317.212 404.679 347.759 406.682 363.342C408.684 378.926 418.698 406.413 428.217 421.445C435.26 432.561 445.308 442.575 450.067 447.041C440.278 429.219 418.901 389.839 416.515 382.954Z" fill="#325294"/>
<path opacity="0.5" d="M416.515 382.954C413.331 374.009 414.006 309.257 415.604 299.997C416.583 294.371 415.548 290.445 412.139 287.621C412.261 292.752 411.425 297.861 409.675 302.686C406.67 311.204 405.174 317.212 405.174 317.212C405.174 317.212 404.679 347.759 406.682 363.342C408.684 378.926 418.698 406.413 428.217 421.445C435.26 432.561 445.308 442.575 450.067 447.041C440.278 429.219 418.901 389.839 416.515 382.954Z" fill="white"/>
<path d="M400.943 482L345.226 385.688C345.226 385.688 338.993 341.932 325.705 324.323C312.417 306.715 293.785 293.866 304.597 284.865C315.41 275.864 342.852 258.649 348.477 259.752C354.103 260.854 391.975 280.004 402.675 283.098C413.375 286.192 417.122 290.738 415.524 299.975C413.927 309.213 413.274 373.987 416.436 382.932C419.597 391.877 454.769 455.627 454.769 455.627" stroke="#263238" stroke-miterlimit="10" stroke-linecap="round"/>
<path d="M289.914 286.597C298.653 286.114 307.113 283.352 314.453 278.586C326.976 270.575 322.97 269.067 322.97 269.067C322.97 269.067 329.474 267.064 333.479 265.568C336.837 264.07 340.027 262.222 342.998 260.055C342.998 260.055 359.031 270.575 366.536 273.556C370.13 275.083 373.83 276.346 377.607 277.337L388.082 291.086C382.193 293.864 377.171 298.193 373.557 303.609C367.548 312.61 360.055 324.638 356.522 326.112C352.989 327.585 354.519 329.116 338.992 323.107C323.465 317.099 288.912 295.62 289.914 286.597Z" fill="#325294"/>
<path opacity="0.5" d="M289.914 286.597C298.653 286.114 307.113 283.352 314.453 278.586C326.976 270.575 322.97 269.067 322.97 269.067C322.97 269.067 329.474 267.064 333.479 265.568C336.837 264.07 340.027 262.222 342.998 260.055C342.998 260.055 359.031 270.575 366.536 273.556C370.13 275.083 373.83 276.346 377.607 277.337L388.082 291.086C382.193 293.864 377.171 298.193 373.557 303.609C367.548 312.61 360.055 324.638 356.522 326.112C352.989 327.585 354.519 329.116 338.992 323.107C323.465 317.099 288.912 295.62 289.914 286.597Z" fill="white"/>
<path d="M317.662 291.221C317.662 291.221 329.701 289.736 338.185 274.288C338.185 274.288 348.176 278.518 358.572 275.807" stroke="#263238" stroke-miterlimit="10" stroke-linecap="round"/>
<path d="M350.301 280.048C350.301 280.048 344.496 295.417 356.737 315.748" stroke="#263238" stroke-miterlimit="10" stroke-linecap="round"/>
<path d="M337.439 281.455C337.439 281.455 343.504 288.915 344.494 295.418" stroke="#263238" stroke-miterlimit="10" stroke-linecap="round"/>
<path d="M348.793 322.94C348.793 322.94 358.919 316.538 364.308 309.877C369.698 303.216 372.128 296.195 380.623 293.394" stroke="#263238" stroke-miterlimit="10" stroke-linecap="round"/>
<path d="M338.182 274.288L335.718 271.374" stroke="#263238" stroke-miterlimit="10" stroke-linecap="round"/>
<path d="M281.252 286.327C281.252 286.327 270.788 284.212 263.97 286.08C263.97 286.08 274.006 290.996 280.093 291.705L281.252 286.327Z" fill="#263238" stroke="#263238" stroke-miterlimit="10" stroke-linecap="round"/>
<path d="M430.356 306.737L282.017 284.695C281.31 284.59 280.589 284.752 279.994 285.149C279.399 285.546 278.973 286.151 278.799 286.844L278.124 289.702C278.028 290.077 278.008 290.468 278.067 290.85C278.125 291.233 278.26 291.6 278.464 291.929C278.668 292.258 278.937 292.542 279.253 292.765C279.57 292.987 279.928 293.144 280.307 293.224L427.081 324.953C428.321 325.221 429.602 325.231 430.846 324.984C432.09 324.737 433.27 324.237 434.313 323.516C435.356 322.795 436.24 321.867 436.91 320.79C437.58 319.714 438.022 318.511 438.209 317.257C438.386 316.05 438.323 314.821 438.023 313.638C437.724 312.456 437.195 311.345 436.465 310.367C435.736 309.39 434.82 308.567 433.772 307.944C432.724 307.321 431.563 306.911 430.356 306.737Z" fill="#325294" stroke="#263238" stroke-miterlimit="10" stroke-linecap="round"/>
<path d="M430.355 306.737L407.931 303.361C405.884 304.602 404.286 306.464 403.369 308.676C402.453 310.887 402.265 313.334 402.835 315.659C403.213 317.301 403.951 318.838 404.995 320.16L427.036 324.919C428.276 325.187 429.557 325.197 430.801 324.95C432.045 324.703 433.225 324.203 434.268 323.482C435.311 322.761 436.195 321.833 436.865 320.756C437.535 319.68 437.977 318.477 438.164 317.223C438.512 314.798 437.886 312.334 436.423 310.369C434.96 308.404 432.778 307.098 430.355 306.737Z" fill="#263238" stroke="#263238" stroke-miterlimit="10" stroke-linecap="round"/>
<path d="M370.32 320.577C370.32 320.577 357.561 323.57 351.856 322.219C346.152 320.869 334.507 304.487 326.507 299.098C318.507 293.708 313.635 292.426 305.264 291.166C296.893 289.905 291.11 293.945 292.888 301.607C294.666 309.269 304.398 318.552 311.498 324.695C318.597 330.838 325.371 341.347 329.579 353.555C333.787 365.762 336.419 376.98 345.781 389.311C355.142 401.643 366.821 406.717 370.747 407.404" fill="white"/>
<path d="M363.985 322.388L363.085 321.926C359.214 322.489 354.68 322.883 351.833 322.219C346.14 320.869 334.484 304.487 326.495 299.097C318.507 293.708 313.624 292.425 305.253 291.165C303.917 290.957 302.562 290.897 301.213 290.985C307.666 292.605 313.767 295.392 319.216 299.21C328.127 305.646 334.563 321.971 344.452 324.942C354.342 327.912 363.985 322.388 363.985 322.388Z" fill="#325294"/>
<path opacity="0.5" d="M363.985 322.388L363.085 321.926C359.214 322.489 354.68 322.883 351.833 322.219C346.14 320.869 334.484 304.487 326.495 299.097C318.507 293.708 313.624 292.425 305.253 291.165C303.917 290.957 302.562 290.897 301.213 290.985C307.666 292.605 313.767 295.392 319.216 299.21C328.127 305.646 334.563 321.971 344.452 324.942C354.342 327.912 363.985 322.388 363.985 322.388Z" fill="white"/>
<path d="M370.32 320.577C370.32 320.577 357.561 323.57 351.856 322.219C346.152 320.869 334.507 304.487 326.507 299.098C318.507 293.708 313.635 292.426 305.264 291.166C296.893 289.905 291.11 293.945 292.888 301.607C294.666 309.269 304.398 318.552 311.498 324.695C318.597 330.838 325.371 341.347 329.579 353.555C333.787 365.762 336.419 376.98 345.781 389.311C355.142 401.643 366.821 406.717 370.747 407.404" stroke="#263238" stroke-miterlimit="10" stroke-linecap="round"/>
<path d="M299.323 307.096C299.323 307.096 299.931 300.492 308.977 294.337C308.977 294.337 302.935 290.366 298.795 291.074C294.654 291.783 293.023 294.045 292.393 298.23C291.762 302.416 299.323 307.096 299.323 307.096Z" fill="white" stroke="#263238" stroke-miterlimit="10" stroke-linecap="round"/>
<path d="M305.264 314.107C305.959 314.808 306.738 315.42 307.582 315.93" stroke="#263238" stroke-miterlimit="10" stroke-linecap="round"/>
<path d="M311.878 298.501C311.878 298.501 302.27 303.452 303.811 311.17" stroke="#263238" stroke-miterlimit="10" stroke-linecap="round"/>
<path d="M415.393 297.072L416.923 292.132C418.453 287.204 417.294 279.936 413.098 275.807C408.901 271.677 393.97 264.409 389.605 260.595C385.239 256.78 352.565 233.445 346.76 234.874C340.954 236.303 333.967 244.606 328.048 249.219C322.13 253.833 300.91 271.205 300.91 271.205C300.91 271.205 286.002 277.663 286.677 280.701C287.352 283.739 290.446 287.62 299.796 287.317C309.146 287.013 324.729 277.697 327.092 276.324C329.455 274.951 344.16 265.32 344.16 265.32C347.969 269.088 352.342 272.239 357.122 274.659C364.064 277.877 364.998 278.203 364.998 278.203C364.998 278.203 366.81 284.785 371.906 288.161" fill="white"/>
<path d="M407.109 276.076C412.509 280.318 412.858 288.722 411.362 296.25L415.401 297.071L416.931 292.132C418.461 287.204 417.303 279.935 413.106 275.806C408.909 271.677 393.978 264.408 389.613 260.594C388.488 259.604 385.382 257.275 381.366 254.417L380.567 254.541C380.567 254.541 400.099 270.574 407.109 276.076Z" fill="#325294"/>
<path opacity="0.5" d="M407.109 276.076C412.509 280.318 412.858 288.722 411.362 296.25L415.401 297.071L416.931 292.132C418.461 287.204 417.303 279.935 413.106 275.806C408.909 271.677 393.978 264.408 389.613 260.594C388.488 259.604 385.382 257.275 381.366 254.417L380.567 254.541C380.567 254.541 400.099 270.574 407.109 276.076Z" fill="white"/>
<path d="M289.914 286.597C298.653 286.114 307.113 283.352 314.453 278.586C326.976 270.575 322.97 269.067 322.97 269.067C322.97 269.067 329.474 267.064 333.479 265.568C336.837 264.07 340.027 262.222 342.998 260.055C342.998 260.055 359.031 270.575 366.536 273.556C370.13 275.083 373.83 276.346 377.607 277.337L388.082 291.086C382.193 293.864 377.171 298.193 373.557 303.609C367.548 312.61 360.055 324.638 356.522 326.112C352.989 327.585 354.519 329.116 338.992 323.107C323.465 317.099 288.912 295.62 289.914 286.597Z" fill="#325294"/>
<path opacity="0.5" d="M289.914 286.597C298.653 286.114 307.113 283.352 314.453 278.586C326.976 270.575 322.97 269.067 322.97 269.067C322.97 269.067 329.474 267.064 333.479 265.568C336.837 264.07 340.027 262.222 342.998 260.055C342.998 260.055 359.031 270.575 366.536 273.556C370.13 275.083 373.83 276.346 377.607 277.337L388.082 291.086C382.193 293.864 377.171 298.193 373.557 303.609C367.548 312.61 360.055 324.638 356.522 326.112C352.989 327.585 354.519 329.116 338.992 323.107C323.465 317.099 288.912 295.62 289.914 286.597Z" fill="white"/>
<path d="M415.393 297.072L416.923 292.132C418.453 287.204 417.294 279.936 413.098 275.807C408.901 271.677 393.97 264.409 389.605 260.595C385.239 256.78 352.565 233.445 346.76 234.874C340.954 236.303 333.967 244.606 328.048 249.219C322.13 253.833 300.91 271.205 300.91 271.205C300.91 271.205 286.002 277.663 286.677 280.701C287.352 283.739 290.446 287.62 299.796 287.317C309.146 287.013 324.729 277.697 327.092 276.324C329.455 274.951 344.16 265.32 344.16 265.32C347.969 269.088 352.342 272.239 357.122 274.659C364.064 277.877 364.998 278.203 364.998 278.203C364.998 278.203 366.81 284.785 371.906 288.161" stroke="#263238" stroke-miterlimit="10" stroke-linecap="round"/>
<path d="M286.675 280.701C286.675 280.701 288.183 281.421 291.378 280.138C294.574 278.856 300.785 272.015 300.852 271.137C300.92 270.259 287.182 276.031 286.675 280.701Z" fill="white" stroke="#263238" stroke-miterlimit="10" stroke-linecap="round"/>
<path d="M343.562 254.43C343.705 253.758 343.881 253.093 344.091 252.438" stroke="#263238" stroke-miterlimit="10" stroke-linecap="round"/>
<path d="M344.159 265.343C343.302 262.641 342.977 259.798 343.203 256.972" stroke="#263238" stroke-miterlimit="10" stroke-linecap="round"/>
</svg>
