<svg width="534" height="534" viewBox="0 0 534 534" fill="none" xmlns="http://www.w3.org/2000/svg">
<path d="M160.965 487.258C33.9425 438.297 67.4702 369.653 44.1047 278.828C20.7392 188.002 23.3208 153.287 80.2031 89.851C137.085 26.4148 235.36 2.93328 305.446 77.9628C375.532 152.992 440.388 145.831 480.468 201.571C520.549 257.311 513.066 323.313 440.64 369.883C368.213 416.453 317.654 547.626 160.965 487.258Z" fill="#ECEFF5"/>
<path d="M208.719 88.7934L209.745 87.2662L204.565 83.7524L203.539 85.2797L205.291 86.4652L199.097 95.6072L200.773 96.7393L206.968 87.6079L208.719 88.7934Z" fill="#263238"/>
<path d="M215.17 90.9399L208.911 97.743L208.879 97.7217L212.788 89.3272L210.46 87.7466L203.24 98.4159L204.693 99.3984L209.809 91.8691L209.841 91.8797L205.942 100.253L207.534 101.321L213.846 94.4429L213.867 94.4643L208.687 102.111L210.268 103.179L217.498 92.5205L215.17 90.9399Z" fill="#263238"/>
<path d="M218.716 93.3433L211.485 104.002L215.918 107.014L216.953 105.486L214.198 103.617L220.392 94.486L218.716 93.3433Z" fill="#263238"/>
<path d="M413.199 130.189C412.312 128.331 410.828 127.733 409.033 128.587C407.239 129.441 406.769 130.979 407.656 132.859L410.539 138.904C411.426 140.762 412.91 141.36 414.704 140.506C416.499 139.652 416.969 138.114 416.082 136.234L413.199 130.189ZM413.914 138.819C413.337 139.096 412.846 138.957 412.419 138.124L409.428 131.855C409.033 131.022 409.247 130.531 409.824 130.253C410.4 129.975 410.892 130.114 411.319 130.947L414.309 137.227C414.704 138.05 414.491 138.541 413.914 138.84V138.819Z" fill="#263238"/>
<path d="M418.955 126.056L418.165 124.4L412.515 127.092L413.305 128.758L415.217 127.839L419.97 137.804L421.796 136.939L417.043 126.974L418.955 126.056Z" fill="#263238"/>
<path d="M425.609 127.188L423.248 128.309L421.572 124.806L424.583 123.375L423.793 121.72L418.955 124.027L424.498 135.646L426.335 134.771L424.039 129.975L426.399 128.854L425.609 127.188Z" fill="#263238"/>
<path d="M431.688 113.971C425.75 108.785 422.152 110.768 421.296 111.07C421.199 111.106 421.1 111.142 420.999 111.18C417.423 110.553 413.464 100.935 413.464 100.935C405.08 87.775 396.919 94.7927 396.919 94.7927C396.805 94.8568 396.693 94.9219 396.584 94.9866C396.479 95.0588 396.373 95.1317 396.267 95.2078C396.267 95.2078 386.456 99.6381 394.841 112.8C394.841 112.8 401.883 120.452 400.941 123.958C400.865 124.033 400.788 124.106 400.716 124.181C400.08 124.829 396.761 127.254 398.954 134.826C399.253 135.855 399.941 136.739 400.845 137.246C404.21 139.145 412.841 134.89 419.361 130.733C425.88 126.583 433.386 120.557 433.089 116.708C433.005 115.675 432.494 114.678 431.688 113.971ZM416.797 113.246C416.922 113.508 416.962 113.81 416.928 114.14C416.773 115.691 415.433 118.632 412.739 120.348C410.044 122.065 406.81 122.034 405.342 121.522C405.029 121.413 404.772 121.249 404.59 121.023C404.621 120.984 404.695 120.892 404.783 120.76C404.82 120.706 404.855 120.641 404.896 120.577C405.226 120.007 405.609 119.01 405.01 118.071C406.275 118.339 407.524 118.394 408.679 118.167C409.455 118.016 410.19 117.738 410.855 117.314C411.52 116.89 412.083 116.342 412.547 115.703C413.232 114.759 413.71 113.615 414 112.374C414.007 112.372 414.015 112.37 414.021 112.368C414.812 113.568 416.375 113.319 416.787 113.226C416.792 113.234 416.797 113.242 416.797 113.246ZM412.502 103.37C412.813 104.131 412.901 104.866 412.773 105.288C412.719 105.456 412.631 105.574 412.507 105.627C412.44 105.655 412.36 105.663 412.279 105.648C412.885 107.993 412.912 110.698 412.132 112.831C411.676 114.078 410.946 115.128 409.895 115.798C408.835 116.473 407.565 116.69 406.234 116.569C403.98 116.371 401.549 115.204 399.687 113.667C399.666 113.748 399.629 113.815 399.571 113.866C399.457 113.97 399.277 113.996 399.064 113.948C398.63 113.854 398.048 113.476 397.526 112.91C396.839 112.168 396.485 111.349 396.65 110.946C396.671 110.889 396.704 110.843 396.746 110.804C396.841 110.717 396.979 110.686 397.146 110.705C397.146 110.705 397.141 110.695 397.131 110.679C396.936 110.289 394.82 105.883 398.094 104.195L410.625 102.994L410.923 101.777C410.954 101.765 410.987 101.755 411.018 101.751C411.453 101.691 412.094 102.38 412.502 103.37Z" fill="white" stroke="#263238"/>
<path d="M421.901 80.0487L450.904 125.575L401.363 157.136L364.211 98.8184L400.97 75.4004L415.047 78.5213L421.901 80.0487Z" stroke="#263238" stroke-linecap="round" stroke-linejoin="round"/>
<path d="M421.901 80.0487L409.119 88.1917L400.97 75.4004L415.047 78.5213L421.901 80.0487Z" stroke="#263238" stroke-linecap="round" stroke-linejoin="round"/>
<path d="M485.139 132.432L454.968 389.297C454.882 390.029 454.652 390.738 454.292 391.382C453.932 392.026 453.449 392.593 452.869 393.05C452.29 393.508 451.627 393.846 450.917 394.047C450.206 394.248 449.464 394.306 448.731 394.22L252.539 371.194L284.013 103.126L480.205 126.163C480.942 126.247 481.655 126.477 482.302 126.839C482.95 127.2 483.519 127.686 483.978 128.269C484.437 128.852 484.776 129.52 484.975 130.235C485.174 130.949 485.23 131.696 485.139 132.432Z" fill="#325294"/>
<path d="M485.139 132.432L454.968 389.297C454.882 390.029 454.652 390.738 454.292 391.382C453.932 392.026 453.449 392.593 452.869 393.05C452.29 393.508 451.627 393.846 450.917 394.047C450.206 394.248 449.464 394.306 448.731 394.22L252.539 371.194L284.013 103.126L480.205 126.163C480.942 126.247 481.655 126.477 482.302 126.839C482.95 127.2 483.519 127.686 483.978 128.269C484.437 128.852 484.776 129.52 484.975 130.235C485.174 130.949 485.23 131.696 485.139 132.432V132.432Z" stroke="#263238" stroke-miterlimit="10"/>
<path opacity="0.1" d="M374.366 346.032C374.415 348.457 373.504 350.802 371.832 352.559C370.16 354.315 367.862 355.339 365.438 355.409L254.024 358.613L284.024 103.105L369.678 113.166L374.366 346.032Z" fill="black" fill-opacity="0.7"/>
<path opacity="0.2" d="M122.97 306.42C122.97 306.42 129.484 296.124 138.274 291.382C138.274 291.382 163.308 309.837 172.247 349.054C172.247 349.054 179.552 366.869 180.375 380.026C181.197 393.184 164.985 421.283 160.488 432.807C155.992 444.331 140.901 435.391 117.17 473.572L135.049 411.009L125.351 355.056L122.97 306.42Z" fill="#2A4B8E" fill-opacity="0.49"/>
<path opacity="0.4" d="M146.316 425.651C144.038 427.269 142.175 429.403 140.88 431.878C138.744 435.552 133.041 452.8 127.594 470.112C126.018 463.209 126.109 456.03 127.861 449.169C132.037 432.081 138.84 429.592 146.316 425.651Z" fill="#2A4B8E"/>
<path opacity="0.4" d="M123.621 387.481C123.621 387.481 123.706 387.129 123.845 386.477C128.096 393.462 123.621 387.481 123.621 387.481Z" fill="#2A4B8E"/>
<path d="M124.358 480.354C130.574 460.233 138.242 436.278 140.816 431.878C145.419 424.06 148.473 425.534 153.909 420.557C159.346 415.58 164.589 388.773 161.14 377.666C157.69 366.559 153.835 361.208 151.923 357.086C150.011 352.963 150.396 341.301 144.992 324.896C139.588 308.492 136.672 293.999 124.913 298.196C120.107 299.926 117.843 302.746 117.437 314.9C117.031 327.054 116.679 339.741 118.975 343.576C121.271 347.41 123.183 350.849 123.183 350.849C123.183 350.849 99.0677 337.21 92.1363 293.7C92.1363 293.7 82.236 303.707 82.236 316.448C82.236 336.879 79.6835 360.375 79.9398 375.039C80.1 382.985 82.236 405.626 82.236 406.908C82.236 407.282 75.6785 417.673 74.9095 427.862C74.5998 431.995 66.7179 447.759 58.1205 463.886" stroke="#263238" stroke-linecap="round" stroke-linejoin="round"/>
<path d="M123.204 350.87C124.742 354.694 124.272 361.155 124.913 370.948C125.554 380.742 127.797 384.234 127.797 384.234" stroke="#263238" stroke-linecap="round" stroke-linejoin="round"/>
<path d="M125.501 376.502C124.471 381.442 123.705 386.433 123.204 391.454" stroke="#263238" stroke-linecap="round" stroke-linejoin="round"/>
<path d="M96.0239 361.785C96.0239 361.785 99.057 386.477 99.0677 394.893" stroke="#263238" stroke-linecap="round" stroke-linejoin="round"/>
<path d="M143.742 427.83C135.081 433.17 130.478 435.103 127.797 445.441" stroke="#263238" stroke-linecap="round" stroke-linejoin="round"/>
<path d="M82.236 406.908C85.3011 399.913 86.6361 384.266 86.6361 384.266" stroke="#263238" stroke-linecap="round" stroke-linejoin="round"/>
<path d="M92.5337 227.916C92.3875 221.164 89.0805 220.043 88.4023 219.681C87.0664 218.965 85.3011 218.645 84.4594 218.112C84.1109 218.987 80.6871 221.255 78.4592 222.657L78.484 219.58C79.1343 219.401 79.4547 218.705 79.6182 218.094L76.7879 217.336C76.626 217.94 76.5546 218.693 77.0138 219.174L75.5063 221.864C74.2828 219.54 72.4519 215.863 72.5853 214.931C71.5876 214.967 69.8979 214.363 68.3841 214.315C67.6137 214.288 64.1886 213.607 60.6899 219.381C60.2157 220.166 60.0537 221.115 60.2529 221.982C60.9876 225.202 68.604 228.175 74.946 229.872C81.2832 231.574 89.364 232.805 91.6132 230.385C92.2142 229.736 92.5522 228.833 92.5337 227.916Z" fill="#ECEFF5" stroke="#263238"/>
<path d="M73.243 207.482L73.2824 207.498L73.2865 207.541L73.7117 207.297M73.243 207.482C73.0087 207.028 72.9265 206.358 72.9842 205.686M73.243 207.482L73.0072 207.382C73.0067 207.382 72.9959 207.377 72.9761 207.358C72.9549 207.338 72.9269 207.305 72.8951 207.254C72.8305 207.151 72.7645 206.998 72.7098 206.792C72.6005 206.381 72.5526 205.824 72.6044 205.205M73.243 207.482L72.6044 205.205M72.9842 205.686C72.9841 205.688 72.984 205.689 72.9839 205.691L73.4827 205.726M72.9842 205.686C72.9843 205.685 72.9844 205.684 72.9845 205.682L73.4827 205.726M72.9842 205.686C72.9883 205.632 72.9975 205.571 73.0019 205.543C73.0028 205.536 73.0035 205.532 73.0039 205.529L73.0081 205.499L73.0159 205.469C73.1358 205.017 73.2723 204.585 73.418 204.164L73.4389 204.104L73.4744 204.05C73.594 203.871 73.7728 203.664 74.0252 203.566L74.0284 203.565L74.0284 203.565C74.1462 203.52 74.2671 203.503 74.3879 203.512L74.3931 203.512L74.3931 203.512C74.3994 203.513 74.4057 203.514 74.412 203.514M73.4827 205.726C73.4258 206.383 73.5224 206.969 73.7117 207.297M73.4827 205.726C73.4849 205.694 73.4893 205.664 73.4939 205.633C73.4957 205.622 73.4975 205.61 73.4992 205.597C73.6152 205.16 73.7478 204.74 73.8905 204.328C73.9765 204.199 74.0697 204.102 74.1661 204.051C74.1743 204.025 74.1825 204.004 74.1858 203.996C74.1869 203.993 74.1881 203.99 74.1893 203.987C74.1894 203.987 74.1894 203.987 74.1895 203.987C74.2199 203.909 74.2838 203.759 74.3837 203.568C74.3855 203.564 74.3874 203.561 74.3892 203.557C74.3966 203.543 74.4042 203.529 74.412 203.514M73.7117 207.297C73.7801 207.416 73.8611 207.501 73.9521 207.542L73.2866 207.542L73.7117 207.297ZM74.2822 208.046C74.1979 208.067 74.1049 208.077 74.0047 208.066L74.2822 208.046ZM74.2822 208.046C74.4625 209.975 75.1154 211.965 76.2023 213.378C76.8852 214.266 77.7377 214.926 78.7527 215.198C79.7891 215.476 80.8843 215.32 81.9419 214.87L74.2822 208.046ZM74.412 203.514C74.6173 203.131 74.9575 202.603 75.4518 202.146C75.8537 201.775 76.3697 201.441 77.008 201.282C77.6513 201.122 78.3863 201.149 79.2065 201.452L79.2678 201.475L79.3208 201.512L79.3209 201.512L79.3211 201.512C79.3212 201.512 79.3213 201.512 79.0331 201.921M74.412 203.514C74.5998 203.535 74.7513 203.616 74.8699 203.719C75.3642 202.811 76.6765 201.05 79.0331 201.921M88.292 207.226C88.2934 207.276 88.2945 207.327 88.2953 207.378C88.2957 207.402 88.296 207.427 88.2963 207.452C88.2971 207.518 88.2973 207.585 88.2972 207.654C88.2971 207.657 88.2971 207.661 88.2971 207.665C88.2971 207.682 88.297 207.699 88.2969 207.716L88.2964 207.78L88.2876 207.813C88.2873 207.814 88.2871 207.816 88.2868 207.817C88.2865 207.819 88.2861 207.821 88.2857 207.823C88.4928 208.126 88.4103 208.867 88.0546 209.631C87.7535 210.268 87.3436 210.749 87.0054 210.912L84.6783 196.771C86.7474 197.477 88.2264 198.654 89.0494 200.18C89.8718 201.704 90.0728 203.639 89.4675 205.927C89.3822 206.245 89.2846 206.556 89.1819 206.869L89.0672 207.219L89.3654 207.431C89.3687 207.434 89.3943 207.462 89.4178 207.551C89.4466 207.659 89.4612 207.82 89.4451 208.033C89.4131 208.458 89.2649 209.012 88.9904 209.594L88.9898 209.596C88.7388 210.132 88.4362 210.575 88.1481 210.877C87.8357 211.204 87.6243 211.28 87.5615 211.281L87.3607 211.286C87.5673 211.157 87.7598 210.973 87.929 210.768C88.1407 210.512 88.3402 210.197 88.5067 209.844L88.5078 209.842C88.7213 209.383 88.8533 208.917 88.8882 208.512C88.9056 208.311 88.9004 208.107 88.8578 207.92C88.8163 207.737 88.7288 207.526 88.5467 207.372L88.5355 207.362L88.5237 207.353C88.4732 207.315 88.4204 207.286 88.4001 207.274L88.397 207.272L88.3746 207.26L88.3509 207.25C88.3313 207.241 88.3116 207.233 88.292 207.226ZM88.292 207.226C88.1177 207.166 87.9458 207.169 87.7912 207.206C87.7626 206.271 87.6353 205.547 87.4478 204.988C87.4531 204.812 87.4299 204.648 87.414 204.536C87.4131 204.53 87.4122 204.523 87.4114 204.518C87.3984 204.426 87.3903 204.367 87.3875 204.318C87.3859 204.291 87.387 204.28 87.3869 204.28C87.3869 204.28 87.3858 204.291 87.3804 204.307L87.3339 204.292L87.2795 204.274L86.905 204.152L86.806 204.319C86.6996 204.219 86.5866 204.114 86.4668 204.01C86.4562 204 86.4455 203.991 86.4347 203.982M88.292 207.226C88.2533 205.834 88.0036 204.839 87.6257 204.136L87.5887 204.067L87.5325 204.012C87.4317 203.915 87.3115 203.813 87.1608 203.723L86.6233 203.403L86.4347 203.982M86.4347 203.982C86.3944 203.947 86.3533 203.912 86.3115 203.877C85.9438 203.574 85.5048 203.283 84.9299 203.106L84.9289 203.106C84.685 203.031 84.4222 202.963 84.1606 202.898L84.0811 202.879L83.9995 202.885C82.7969 202.984 81.6305 202.649 80.7464 202.273C80.3077 202.086 79.9472 201.893 79.6975 201.748C79.5729 201.675 79.4764 201.615 79.4122 201.573C79.3801 201.552 79.3562 201.536 79.3408 201.526L79.3244 201.515L79.3213 201.512L79.0331 201.921M86.4347 203.982L86.4296 203.998C86.383 204.14 86.3836 204.28 86.3891 204.376C86.3945 204.468 86.4081 204.565 86.4189 204.641C85.9721 204.226 85.4921 203.802 84.7829 203.584C84.5522 203.513 84.3 203.448 84.0402 203.384C81.4111 203.598 79.0331 201.921 79.0331 201.921M87.7959 207.725L87.799 207.713L87.7992 207.712L87.8011 207.705L87.8016 207.703L87.9237 207.248C87.8812 207.236 87.8369 207.23 87.7919 207.231C87.7961 207.379 87.7979 207.533 87.797 207.693C87.797 207.694 87.797 207.696 87.797 207.697C87.7969 207.702 87.7969 207.707 87.7969 207.712C87.7961 207.715 87.7958 207.719 87.7955 207.722C87.7954 207.722 87.7954 207.723 87.7953 207.724L87.7959 207.725ZM87.7959 207.725L87.7948 207.728M87.7959 207.725L87.7948 207.728M87.7948 207.728L87.7947 207.728L87.7948 207.728ZM72.6044 205.205C72.6619 204.531 72.8243 203.953 73.0212 203.567C73.1203 203.373 73.2163 203.251 73.291 203.186C73.3246 203.156 73.3462 203.145 73.3566 203.14M72.6044 205.205L76.1396 198.281C75.5267 198.95 75.017 199.886 74.623 200.979L74.6097 201.016L74.5908 201.051C74.3701 201.452 74.1806 201.873 74.0315 202.314M72.6044 205.205C72.6043 205.205 72.6043 205.205 72.6043 205.205L72.1061 205.163L72.6044 205.204C72.6044 205.205 72.6044 205.205 72.6044 205.205ZM73.3566 203.14L73.6803 203.19L73.8528 202.902C73.8837 202.85 73.8985 202.804 73.9026 202.792L73.9027 202.792C73.9079 202.775 73.9119 202.76 73.9122 202.759L73.9122 202.759L74.0315 202.314M73.3566 203.14L73.3487 203.139C73.3378 203.137 73.3286 203.136 73.3254 203.135L73.3252 203.135L73.3223 203.135C73.3224 203.135 73.324 203.135 73.3256 203.135C73.3292 203.136 73.3375 203.137 73.3487 203.138C73.3487 203.138 73.3488 203.138 73.3488 203.138C73.3491 203.138 73.3494 203.138 73.3497 203.138C73.3516 203.139 73.3535 203.139 73.3555 203.139C73.3579 203.139 73.3598 203.139 73.3612 203.139M73.3566 203.14C73.3573 203.14 73.358 203.14 73.3586 203.14L73.3734 203.141L73.3981 203.141C73.3831 203.141 73.3699 203.14 73.3593 203.139C73.36 203.139 73.3606 203.139 73.3612 203.139M74.0315 202.314C73.9824 202.459 73.9377 202.606 73.8977 202.755L73.4292 202.63L74.1526 200.81C73.9202 201.233 73.7191 201.678 73.5601 202.147L74.0416 202.276L74.0315 202.314ZM73.3612 203.139C73.3631 203.138 73.3641 203.138 73.3641 203.138C73.3641 203.138 73.3632 203.138 73.3612 203.139ZM73.3105 207.796L73.2886 207.564C73.3882 207.732 73.5468 207.919 73.777 208.011C73.9532 210.036 74.633 212.158 75.806 213.683C76.5371 214.634 77.4759 215.374 78.6233 215.681C79.7946 215.995 81.0064 215.812 82.1378 215.33C83.8875 214.585 85.5074 213.103 86.6576 211.463C86.8659 211.491 87.0635 211.436 87.2154 211.366L87.2154 211.366L87.2231 211.363C87.2412 211.354 87.2592 211.345 87.2771 211.335L87.1657 211.492C86.0666 213.042 84.6185 214.436 83.0644 215.334L83.0638 215.334C82.1427 215.867 81.197 216.215 80.2751 216.32L80.2725 216.32C79.6575 216.393 79.0588 216.358 78.4759 216.202C77.8959 216.046 77.3576 215.776 76.8659 215.408L76.8647 215.407C76.1447 214.87 75.5169 214.128 74.9924 213.246C74.0662 211.685 73.4919 209.721 73.3105 207.796ZM76.1397 198.281C77.9748 196.279 81.0517 195.534 84.6781 196.771L76.1397 198.281Z" fill="#ECEFF5" stroke="#263238"/>
<path d="M108.919 202.666L96.5428 248.856L46.28 235.388L62.1339 176.221L99.4283 186.214L105.815 197.276L108.919 202.666Z" stroke="#263238" stroke-linecap="round" stroke-linejoin="round"/>
<path d="M108.919 202.666L95.9511 199.191L99.4285 186.213L105.815 197.276L108.919 202.666Z" stroke="#263238" stroke-linecap="round" stroke-linejoin="round"/>
<path d="M89.7654 366.698L139.684 351.126V80.7836L89.7654 65.2122C86.7857 64.283 84.34 65.9811 84.34 69.0036V362.906C84.372 365.929 86.7857 367.627 89.7654 366.698Z" fill="#2A4B8E" stroke="#263238" stroke-miterlimit="10"/>
<path opacity="0.3" d="M139.694 80.7943V351.126L95.7995 364.807C95.1 365.033 94.3568 365.091 93.631 364.974C92.9051 364.858 92.2171 364.571 91.6233 364.138C91.0295 363.704 90.5467 363.136 90.2145 362.481C89.8823 361.825 89.7101 361.1 89.7119 360.365V71.5561C89.7122 70.8258 89.8842 70.1059 90.2141 69.4545C90.5439 68.803 91.0223 68.2382 91.6107 67.8058C92.1991 67.3733 92.8809 67.0853 93.6012 66.965C94.3214 66.8447 95.0598 66.8954 95.7568 67.1132L139.694 80.7943Z" fill="black" fill-opacity="0.7"/>
<path d="M211.017 86.0306C213.581 80.3422 211.269 78.0928 210.847 77.5213C210.018 76.3925 208.673 75.4237 208.183 74.6444C207.545 75.2351 203.788 75.7646 201.372 76.0481L202.617 73.4919C203.23 73.6016 203.774 73.148 204.154 72.7042L202.095 70.9461C201.72 71.3857 201.361 71.9848 201.552 72.5686L199.225 74.2124C199.13 71.7875 199.065 67.9935 199.547 67.2692C198.701 66.9025 197.532 65.7267 196.289 65.0844C195.657 64.7561 193.072 62.8252 187.858 66.2491C187.151 66.7148 186.638 67.4419 186.459 68.244C185.792 71.2208 190.96 76.7292 195.573 80.6667C200.181 84.6064 206.429 88.847 209.267 87.7238C210.027 87.421 210.667 86.8033 211.017 86.0306Z" fill="#ECEFF5" stroke="#263238"/>
<path d="M203.02 61.2189L203.128 61.3405L203.113 61.3831L203.523 61.3516M203.02 61.2189C203.034 60.7564 203.229 60.2029 203.524 59.6995M203.02 61.2189L202.931 61.1183C202.931 61.1182 202.908 61.0861 202.897 60.987C202.884 60.8802 202.89 60.7299 202.926 60.539C202.997 60.158 203.177 59.6785 203.464 59.1858M203.02 61.2189L203.464 59.1858M203.524 59.6995C203.523 59.701 203.522 59.7026 203.522 59.7041L203.957 59.9502M203.524 59.6995C203.525 59.6986 203.525 59.6977 203.526 59.6968L203.957 59.9502M203.524 59.6995C203.55 59.6548 203.583 59.6055 203.598 59.5841C203.601 59.5798 203.603 59.5767 203.604 59.5749L203.621 59.5494L203.641 59.5261C203.921 59.1963 204.207 58.8896 204.497 58.5958L204.542 58.5502L204.597 58.5174C204.77 58.4137 205.01 58.308 205.271 58.3273L205.274 58.3275L205.274 58.3275C205.395 58.3373 205.508 58.3725 205.609 58.4304M203.957 59.9502C203.648 60.476 203.495 61.003 203.523 61.3516M203.957 59.9502C203.971 59.9249 203.987 59.9018 204.003 59.8779C204.009 59.8688 204.015 59.8595 204.022 59.8499C204.292 59.5316 204.57 59.2341 204.853 58.9467C204.962 58.8818 205.065 58.84 205.157 58.8283L205.147 58.8195C205.172 58.7907 205.197 58.7674 205.205 58.7599C205.215 58.7504 205.227 58.7391 205.241 58.7263C205.242 58.726 205.242 58.7258 205.242 58.7256C205.315 58.6599 205.44 58.5533 205.609 58.4304M203.523 61.3516C203.532 61.4782 203.566 61.581 203.626 61.6513L203.112 61.3839L203.523 61.3516ZM203.687 62.239C203.607 62.2224 203.523 62.1921 203.441 62.142L203.687 62.239ZM203.687 62.239C203.08 63.9105 202.839 65.8142 203.181 67.4132C203.397 68.4254 203.845 69.3147 204.584 69.9452C205.337 70.5889 206.313 70.8946 207.374 70.9397L203.687 62.239ZM205.609 58.4304C205.935 58.1927 206.425 57.8941 207.011 57.7126C207.498 57.5617 208.068 57.487 208.671 57.61C209.279 57.734 209.888 58.0525 210.457 58.6367L210.502 58.6836L210.534 58.74L210.534 58.7402L210.534 58.7403L210.534 58.7404L210.534 58.7406L210.536 58.7433L210.545 58.7589C210.553 58.7735 210.567 58.7961 210.585 58.826C210.622 58.8857 210.678 58.9741 210.753 59.0837C210.902 59.3033 211.125 59.6062 211.415 59.9348C212.001 60.5975 212.836 61.3358 213.869 61.7291L213.946 61.7583L214.009 61.8103C214.202 61.9685 214.394 62.1302 214.569 62.29L214.57 62.2907C214.984 62.6713 215.236 63.0935 215.424 63.4955C215.437 63.5237 215.45 63.5518 215.462 63.5799L215.843 63.1791L216.19 63.6992C216.283 63.8373 216.343 63.9735 216.389 64.0964L216.417 64.1696L216.42 64.2477C216.456 64.9876 216.269 65.9149 215.754 67.0837M205.609 58.4304C205.61 58.4307 205.61 58.4311 205.611 58.4315L205.615 58.434L205.615 58.4341C205.778 58.5296 205.88 58.6657 205.943 58.8058L215.754 67.0837M215.475 67.6374L215.478 67.6401L215.475 67.6374ZM215.475 67.6374C215.485 67.625 215.494 67.6137 215.5 67.6045C215.501 67.6039 215.501 67.6032 215.502 67.6025L215.524 67.5761L215.552 67.5184C215.566 67.4907 215.579 67.463 215.592 67.4355C215.595 67.4306 215.597 67.4258 215.599 67.421C215.629 67.3592 215.657 67.298 215.685 67.2375C215.697 67.2113 215.709 67.1852 215.72 67.1592C215.732 67.1339 215.743 67.1087 215.754 67.0837M215.475 67.6374L216.827 56.9632C218.266 58.3699 219.026 59.9311 219.105 61.5191C219.184 63.1058 218.586 64.7901 217.177 66.4509C216.98 66.6814 216.775 66.9012 216.565 67.1215L216.311 67.388L216.487 67.7036C216.488 67.7116 216.493 67.7412 216.481 67.8031C216.463 67.8992 216.413 68.035 216.316 68.204C216.123 68.5407 215.783 68.9404 215.325 69.3146L215.324 69.3155C214.904 69.661 214.479 69.9075 214.123 70.0429C213.735 70.1907 213.541 70.165 213.502 70.1478L213.451 70.1247C213.639 70.0882 213.831 70.0199 214.013 69.9353C214.295 69.8048 214.589 69.6191 214.871 69.3895L214.873 69.3878C215.236 69.0883 215.534 68.7487 215.727 68.4206C215.823 68.257 215.902 68.0812 215.942 67.9032C215.981 67.7295 215.993 67.5103 215.898 67.2986L215.892 67.2851L215.885 67.2721C215.857 67.2179 215.823 67.1703 215.811 67.1527L215.809 67.15L215.794 67.1289L215.777 67.1095C215.77 67.1006 215.762 67.092 215.754 67.0837M203.464 59.1858C203.779 58.6497 204.141 58.2369 204.454 57.9973C204.611 57.8765 204.735 57.8158 204.817 57.7928C204.842 57.7859 204.859 57.7834 204.869 57.7826L205.13 57.96L205.41 57.7746C205.459 57.7416 205.492 57.7066 205.501 57.6971L205.502 57.6968C205.508 57.6896 205.514 57.6834 205.517 57.6797L205.524 57.6721L205.8 57.3492C206.097 57.0431 206.42 56.7695 206.762 56.5238L206.794 56.5009L206.822 56.4733C207.583 55.7201 208.376 55.1464 209.147 54.8348L203.464 59.1858ZM203.464 59.1858C203.464 59.1857 203.465 59.1856 203.465 59.1855L203.033 58.9334L203.464 59.1862C203.464 59.1861 203.464 59.186 203.464 59.1858ZM215.642 69.7017C214.733 70.4491 213.757 70.8095 213.298 70.6041C211.717 71.4865 209.891 72.0972 208.161 72.2333C207.134 72.3157 206.14 72.2275 205.256 71.9223C204.664 71.7213 204.126 71.4262 203.654 71.0229L215.642 69.7017ZM215.642 69.7017C216.63 68.894 217.181 67.9234 216.927 67.4666L215.642 69.7017ZM203.026 61.6211L203.048 61.5587C203.079 61.701 203.139 61.8534 203.249 61.9814C202.595 63.7399 202.32 65.7781 202.692 67.5178C202.925 68.6073 203.416 69.6059 204.259 70.3254C205.119 71.0598 206.211 71.3907 207.352 71.4392C209.109 71.5144 211.047 70.9253 212.66 70.0185C212.798 70.1037 212.95 70.1396 213.085 70.1501L213.054 70.1675C211.525 71.0208 209.769 71.6053 208.122 71.7349L208.122 71.7349C207.145 71.8132 206.224 71.7273 205.42 71.4497L205.417 71.4488C204.879 71.2664 204.398 71.0013 203.978 70.6427C203.561 70.2858 203.222 69.8507 202.961 69.3516L202.96 69.3502C202.576 68.6216 202.349 67.7588 202.262 66.8183C202.112 65.1544 202.413 63.2941 203.026 61.6211ZM214.554 69.0021C214.05 69.4141 213.517 69.6518 213.17 69.6537L215.478 67.6401L215.478 67.6401L215.478 67.6401L215.478 67.6401L215.478 67.6401L215.478 67.6401L215.478 67.6401L215.478 67.6401L215.478 67.6401L215.478 67.6401L215.478 67.6401L215.478 67.6401L215.478 67.6401L215.478 67.6402L215.478 67.6402L215.478 67.6402L215.478 67.6402L215.478 67.6402L215.478 67.6402L215.478 67.6402L215.478 67.6402L215.478 67.6402L215.478 67.6402L215.478 67.6402L215.478 67.6402L215.478 67.6402L215.478 67.6402L215.478 67.6402L215.478 67.6402L215.478 67.6402L215.478 67.6403L215.478 67.6403L215.478 67.6403L215.478 67.6403L215.478 67.6403L215.478 67.6403L215.478 67.6403L215.478 67.6403L215.478 67.6403L215.478 67.6403L215.478 67.6403L215.478 67.6403L215.478 67.6403L215.478 67.6403L215.478 67.6403L215.478 67.6404L215.477 67.6404L215.477 67.6404L215.477 67.6404L215.477 67.6404L215.477 67.6404L215.477 67.6404L215.477 67.6404L215.477 67.6404L215.477 67.6404L215.477 67.6404L215.477 67.6404L215.477 67.6404L215.477 67.6404L215.477 67.6404L215.477 67.6404L215.477 67.6405L215.477 67.6405L215.477 67.6405L215.477 67.6405L215.477 67.6405L215.477 67.6405L215.477 67.6405L215.477 67.6405L215.477 67.6405L215.477 67.6405L215.477 67.6405L215.477 67.6405L215.477 67.6405L215.477 67.6405L215.477 67.6405L215.477 67.6405L215.477 67.6406L215.477 67.6406L215.477 67.6406L215.477 67.6406L215.477 67.6406L215.477 67.6406L215.477 67.6406L215.477 67.6406L215.477 67.6406L215.477 67.6406L215.477 67.6406L215.477 67.6406L215.477 67.6406L215.477 67.6406L215.477 67.6406L215.477 67.6406L215.477 67.6407L215.477 67.6407L215.477 67.6407L215.477 67.6407L215.477 67.6407L215.477 67.6407L215.477 67.6407L215.477 67.6407L215.477 67.6407L215.477 67.6407L215.477 67.6407L215.477 67.6407L215.477 67.6407L215.477 67.6407L215.477 67.6407L215.477 67.6408L215.477 67.6408L215.477 67.6408L215.477 67.6408L215.477 67.6408L215.477 67.6408L215.477 67.6408L215.477 67.6408L215.477 67.6408L215.477 67.6408L215.477 67.6408L215.477 67.6408L215.477 67.6408L215.477 67.6408C215.475 67.6432 215.473 67.6455 215.471 67.6478C215.475 67.9895 215.12 68.5355 214.554 69.0021ZM215.094 67.3127L215.094 67.3126C215.095 67.3115 215.096 67.3102 215.097 67.3089L215.097 67.31L215.094 67.3127ZM215.529 67.5605C215.529 67.561 215.528 67.5622 215.527 67.5636L215.528 67.562L215.529 67.5605ZM204.881 57.7827C204.881 57.7828 204.88 57.7827 204.878 57.7824C204.88 57.7824 204.881 57.7826 204.881 57.7827ZM209.147 54.8348C211.457 53.9017 214.303 54.4979 216.827 56.9631L209.147 54.8348Z" fill="#ECEFF5" stroke="#263238"/>
<path d="M234.723 71.4932L206.032 105.086L169.476 73.8649L206.229 30.8335L233.352 53.9993L234.278 65.7637L234.723 71.4932Z" stroke="#263238" stroke-linecap="round" stroke-linejoin="round"/>
<path d="M234.723 71.4934L225.291 63.438L233.352 53.9995L234.278 65.7639L234.723 71.4934Z" stroke="#263238" stroke-linecap="round" stroke-linejoin="round"/>
<path d="M342.283 86.4121V345.092C342.28 346.584 341.687 348.014 340.632 349.069C339.577 350.124 338.147 350.718 336.655 350.721H139.075V80.7944H336.655C337.394 80.793 338.125 80.9373 338.808 81.219C339.491 81.5007 340.111 81.9143 340.634 82.436C341.157 82.9578 341.572 83.5776 341.855 84.2599C342.138 84.9421 342.283 85.6735 342.283 86.4121Z" fill="#2A4B8E"/>
<path opacity="0.3" d="M340.35 188.075V349.343C339.328 350.24 338.015 350.733 336.655 350.731H139.075V82.6631H329.04C329.658 82.6617 330.27 82.7822 330.842 83.0177C331.413 83.2533 331.932 83.5992 332.37 84.0357C332.807 84.4722 333.154 84.9907 333.391 85.5615C333.628 86.1323 333.75 86.7443 333.75 87.3623V183.13L335.64 183.215C336.901 183.259 338.096 183.79 338.974 184.696C339.852 185.602 340.345 186.813 340.35 188.075Z" fill="black" fill-opacity="0.7"/>
<path d="M342.283 86.4121V345.092C342.28 346.584 341.687 348.014 340.632 349.069C339.577 350.124 338.147 350.718 336.655 350.721H139.075V80.7944H336.655C337.394 80.793 338.125 80.9373 338.808 81.219C339.491 81.5007 340.111 81.9143 340.634 82.436C341.157 82.9578 341.572 83.5776 341.855 84.2599C342.138 84.9421 342.283 85.6735 342.283 86.4121Z" stroke="#263238" stroke-miterlimit="10"/>
<path d="M337.488 259.321V328.004C337.488 329.188 337.053 330.331 336.265 331.215C335.477 332.1 334.392 332.663 333.216 332.8L330.93 333.056L310.98 335.192V252.048L333.216 254.515C334.393 254.654 335.478 255.22 336.266 256.106C337.053 256.992 337.488 258.136 337.488 259.321Z" fill="#999999"/>
<path opacity="0.2" d="M337.488 259.321V262.6L330.93 263.796V333.024L310.98 335.16V252.048L333.216 254.515C334.393 254.654 335.478 255.22 336.266 256.106C337.053 256.992 337.488 258.136 337.488 259.321Z" fill="black" fill-opacity="0.7"/>
<path d="M337.488 259.321V328.004C337.488 329.188 337.053 330.331 336.265 331.215C335.477 332.1 334.392 332.663 333.216 332.8L330.93 333.056L310.98 335.192V252.048L333.216 254.515C334.393 254.654 335.478 255.22 336.266 256.106C337.053 256.992 337.488 258.136 337.488 259.321V259.321Z" stroke="#263238" stroke-linecap="round" stroke-linejoin="round"/>
<path d="M337.488 181.891V250.574C337.488 251.758 337.053 252.901 336.265 253.785C335.477 254.669 334.392 255.233 333.216 255.369L328.698 255.861V341.536C328.701 342.798 328.256 344.021 327.443 344.987C326.63 345.953 325.5 346.599 324.255 346.812C323.949 346.872 323.638 346.9 323.326 346.897L139.182 346.747V85.4399L323.326 85.5895C323.639 85.5897 323.95 85.6219 324.255 85.6856C325.498 85.8974 326.626 86.5423 327.44 87.5059C328.253 88.4696 328.699 89.6899 328.698 90.9508V176.626L333.216 177.128C334.388 177.261 335.47 177.82 336.257 178.698C337.045 179.575 337.482 180.712 337.488 181.891Z" fill="white"/>
<path d="M337.488 181.891V250.574C337.488 251.759 337.053 252.901 336.265 253.786C335.478 254.67 334.392 255.233 333.216 255.37L328.698 255.861V341.536C328.701 342.799 328.257 344.022 327.443 344.987C326.63 345.953 325.5 346.6 324.256 346.812V85.6538C325.499 85.8656 326.627 86.5105 327.44 87.4742C328.253 88.4378 328.699 89.6581 328.698 90.919V176.594L333.216 177.096C334.393 177.23 335.48 177.793 336.268 178.678C337.056 179.562 337.49 180.707 337.488 181.891Z" fill="#BFBFBF"/>
<path d="M220.489 121.24V173.315H163.821V106.619H205.857L215.693 116.444L220.489 121.24Z" fill="#2A4B8E" stroke="#263238" stroke-linecap="round" stroke-linejoin="round"/>
<path opacity="0.5" d="M215.693 116.444V145.163H168.605V111.083H210.332L215.693 116.444Z" fill="white"/>
<path d="M215.693 116.444V145.163H168.605V111.083H210.332L215.693 116.444Z" stroke="#263238" stroke-linecap="round" stroke-linejoin="round"/>
<path d="M182.927 162.421C183.141 162.421 183.408 162.421 183.621 162.421C184.273 162.421 184.785 162.187 184.785 161.183V151.368H186.804V161.044C186.804 163.618 185.426 164.248 183.899 164.248C183.575 164.27 183.251 164.27 182.927 164.248V162.421Z" fill="#263238"/>
<path d="M194.184 154.572V156.238C194.184 158.299 193.191 159.442 191.161 159.442H190.211V164.28H188.182V151.389H191.172C193.191 151.389 194.184 152.511 194.184 154.572ZM190.211 153.226V157.584H191.172C191.824 157.584 192.165 157.295 192.165 156.366V154.444C192.165 153.514 191.824 153.226 191.172 153.226H190.211Z" fill="#263238"/>
<path d="M198.157 157.092H200.987V161.172C200.987 163.233 199.919 164.376 197.975 164.376C196.031 164.376 194.953 163.201 194.953 161.172V154.475C194.953 152.414 196.021 151.271 197.975 151.271C199.93 151.271 200.987 152.446 200.987 154.475V155.725H199.075V154.347C199.075 153.429 198.669 153.076 198.007 153.076C197.345 153.076 196.939 153.429 196.939 154.347V161.268C196.939 162.186 197.345 162.518 198.007 162.518C198.669 162.518 199.075 162.186 199.075 161.268V158.897H198.157V157.092Z" fill="#263238"/>
<path d="M220.489 121.24H205.857V106.619L215.693 116.444L220.489 121.24Z" fill="#2A4B8E" stroke="#263238" stroke-linecap="round" stroke-linejoin="round"/>
<path d="M215.693 130.745V145.163H168.605V138.093L181.496 128.128L193.49 138.242L209.061 124.967L215.693 130.745Z" fill="#2A4B8E" stroke="#263238" stroke-linecap="round" stroke-linejoin="round"/>
<path d="M185.074 124.967C187.752 124.967 189.923 122.796 189.923 120.118C189.923 117.44 187.752 115.27 185.074 115.27C182.396 115.27 180.225 117.44 180.225 120.118C180.225 122.796 182.396 124.967 185.074 124.967Z" fill="#2A4B8E" stroke="#263238" stroke-linecap="round" stroke-linejoin="round"/>
<path d="M299.211 121.24V173.315H242.543V106.619H284.59L294.426 116.444L299.211 121.24Z" fill="#2A4B8E" stroke="#263238" stroke-linecap="round" stroke-linejoin="round"/>
<path opacity="0.5" d="M294.426 116.444V145.163H247.328V111.083H289.054L294.426 116.444Z" fill="white"/>
<path d="M294.426 116.444V145.163H247.328V111.083H289.054L294.426 116.444Z" stroke="#263238" stroke-linecap="round" stroke-linejoin="round"/>
<path d="M254.697 136.202H287.046" stroke="#263238" stroke-linecap="round" stroke-linejoin="round"/>
<path d="M254.077 121.24C254.077 121.24 254.077 136.267 270.877 136.267C287.677 136.267 287.677 121.24 287.677 121.24" stroke="#263238" stroke-linecap="round" stroke-linejoin="round"/>
<path d="M255.487 121.24C255.456 121.594 255.294 121.924 255.032 122.164C254.77 122.404 254.427 122.537 254.072 122.537C253.717 122.537 253.374 122.404 253.112 122.164C252.85 121.924 252.688 121.594 252.657 121.24C252.64 121.044 252.664 120.846 252.727 120.66C252.79 120.473 252.892 120.302 253.025 120.157C253.158 120.012 253.32 119.896 253.5 119.817C253.68 119.737 253.875 119.696 254.072 119.696C254.269 119.696 254.464 119.737 254.644 119.817C254.824 119.896 254.986 120.012 255.119 120.157C255.252 120.302 255.353 120.473 255.417 120.66C255.48 120.846 255.504 121.044 255.487 121.24Z" fill="#2A4B8E" stroke="#263238" stroke-linecap="round" stroke-linejoin="round"/>
<path d="M289.086 121.24C289.055 121.594 288.893 121.924 288.631 122.164C288.369 122.404 288.027 122.537 287.671 122.537C287.316 122.537 286.973 122.404 286.711 122.164C286.449 121.924 286.287 121.594 286.256 121.24C286.239 121.044 286.263 120.846 286.326 120.66C286.39 120.473 286.491 120.302 286.624 120.157C286.757 120.012 286.919 119.896 287.099 119.817C287.28 119.737 287.474 119.696 287.671 119.696C287.868 119.696 288.063 119.737 288.243 119.817C288.423 119.896 288.585 120.012 288.718 120.157C288.851 120.302 288.953 120.473 289.016 120.66C289.079 120.846 289.103 121.044 289.086 121.24Z" fill="#2A4B8E" stroke="#263238" stroke-linecap="round" stroke-linejoin="round"/>
<path d="M255.316 135.027H252.828V137.516H255.316V135.027Z" fill="#2A4B8E" stroke="#263238" stroke-linecap="round" stroke-linejoin="round"/>
<path d="M272.116 135.027H269.627V137.516H272.116V135.027Z" fill="#2A4B8E" stroke="#263238" stroke-linecap="round" stroke-linejoin="round"/>
<path d="M288.915 135.027H286.427V137.516H288.915V135.027Z" fill="#2A4B8E" stroke="#263238" stroke-linecap="round" stroke-linejoin="round"/>
<path d="M299.211 121.24H284.59V106.619L294.426 116.444L299.211 121.24Z" fill="#2A4B8E" stroke="#263238" stroke-linecap="round" stroke-linejoin="round"/>
<path d="M300.82 121.066V175.045H242.08V105.91H285.665L295.86 116.095L300.82 121.066Z" fill="#325294" stroke="#263238" stroke-linecap="round" stroke-linejoin="round"/>
<path d="M300.82 121.066H285.665V105.91L295.86 116.095L300.82 121.066Z" fill="#325294" stroke="#263238" stroke-linecap="round" stroke-linejoin="round"/>
<path d="M288.948 153.492C286.877 146.381 283.057 146.134 282.236 145.943C280.617 145.563 278.657 145.725 277.614 145.399C277.493 146.425 274.511 149.799 272.549 151.916L271.702 148.65C272.34 148.276 272.481 147.447 272.481 146.755H269.269C269.269 147.441 269.407 148.258 270.029 148.637L269.196 151.915C267.241 149.8 264.258 146.425 264.135 145.4C263.088 145.721 261.127 145.561 259.51 145.94C258.687 146.13 254.865 146.38 252.799 153.49C252.519 154.455 252.617 155.507 253.074 156.368C254.766 159.57 263.677 160.557 270.875 160.555C278.07 160.559 286.979 159.57 288.674 156.368C289.126 155.51 289.228 154.458 288.948 153.492Z" fill="#3D5D9E" stroke="#263238"/>
<path d="M270.906 145.12C271.514 145.099 272.107 144.967 272.689 144.735L272.691 144.734C273.646 144.359 274.554 143.717 275.382 142.887L275.382 142.887C276.779 141.49 277.921 139.596 278.647 137.637L278.734 137.402L278.975 137.331C279.06 137.306 279.271 137.15 279.51 136.713C279.732 136.306 279.929 135.746 280.043 135.102L280.043 135.101C280.17 134.402 280.17 133.767 280.082 133.3C280.038 133.067 279.975 132.895 279.91 132.782C279.879 132.727 279.85 132.693 279.829 132.673C279.809 132.654 279.799 132.65 279.798 132.65L279.453 132.522L279.473 132.154C279.493 131.793 279.508 131.434 279.508 131.072C279.5 128.468 278.735 126.463 277.422 125.071C276.107 123.678 274.194 122.847 271.792 122.685L270.906 145.12ZM270.906 145.12C271.569 145.078 272.295 144.802 272.945 144.473C273.665 144.108 274.356 143.644 274.873 143.239C276.583 141.901 277.573 139.703 278.267 137.629C278.391 137.58 278.499 137.509 278.588 137.435L278.588 137.436L278.594 137.43C278.769 137.279 279.058 137.002 279.325 136.655C279.587 136.316 279.862 135.865 279.952 135.369L279.953 135.367C280.062 134.747 279.926 134.199 279.706 133.78C279.495 133.379 279.182 133.053 278.874 132.907L278.861 132.901L278.847 132.896C278.79 132.872 278.732 132.857 278.705 132.85V132.247L278.448 132.505C278.029 131.206 277.519 130.319 276.966 129.731L276.912 129.674L276.844 129.636C276.712 129.563 276.559 129.49 276.378 129.439L275.777 129.269L275.743 129.894C275.742 129.912 275.742 129.931 275.742 129.949C275.668 129.913 275.593 129.876 275.516 129.841C275.044 129.626 274.503 129.444 273.852 129.42L273.851 129.42C273.573 129.411 273.276 129.414 272.981 129.419L272.899 129.421L272.822 129.448C271.566 129.897 270.227 129.873 269.179 129.725C268.66 129.651 268.221 129.549 267.914 129.465C267.76 129.423 267.64 129.386 267.56 129.36C267.519 129.347 267.489 129.337 267.47 129.33L267.449 129.323L267.444 129.321L267.444 129.321L267.444 129.321L267.444 129.321L267.444 129.321L267.383 129.299L267.318 129.293C266.372 129.205 265.596 129.384 264.969 129.731C264.347 130.076 263.901 130.57 263.583 131.072C263.184 131.704 262.974 132.371 262.869 132.833C262.852 132.835 262.835 132.838 262.817 132.841L262.817 132.841L262.812 132.842C262.689 132.865 262.572 132.914 262.466 132.991L262.466 132.991L262.463 132.993C262.235 133.16 262.109 133.419 262.034 133.639L262.014 133.7L262.009 133.764C261.975 134.25 261.953 134.745 261.954 135.256L261.954 135.287L261.958 135.317C261.958 135.321 261.959 135.327 261.96 135.334C261.963 135.367 261.971 135.431 261.981 135.486C261.987 135.523 261.994 135.559 262 135.596C262.055 135.907 262.112 136.232 262.188 136.515C262.264 136.796 262.377 137.114 262.586 137.354L262.433 137.333C262.419 137.331 262.357 137.315 262.251 137.217C262.149 137.122 262.033 136.974 261.915 136.768C261.679 136.358 261.469 135.777 261.347 135.102C261.216 134.367 261.224 133.703 261.324 133.231C261.375 132.993 261.444 132.83 261.509 132.733C261.551 132.671 261.579 132.652 261.589 132.646C261.59 132.646 261.591 132.646 261.591 132.646L261.925 132.609L262.017 132.287C262.034 132.229 262.036 132.18 262.037 132.167L262.037 132.166C262.038 132.149 262.037 132.133 262.037 132.132L262.037 132.132V131.632H262.037C262.07 131.116 262.152 130.612 262.273 130.118L262.282 130.08L262.285 130.041C262.393 128.767 262.668 127.625 263.131 126.735L270.906 145.12ZM262.833 137.654L262.786 137.529L266.696 143.242C267.198 143.626 267.868 144.089 268.568 144.458C269.201 144.791 269.914 145.078 270.572 145.12C269.963 145.1 269.365 144.968 268.786 144.735L268.785 144.734C267.862 144.367 266.982 143.756 266.172 142.967C264.742 141.57 263.573 139.647 262.833 137.654ZM261.593 132.645C261.593 132.645 261.593 132.645 261.593 132.645C261.592 132.645 261.592 132.645 261.592 132.645C261.593 132.645 261.593 132.645 261.593 132.645ZM263.131 126.734C264.518 124.072 267.586 122.404 271.792 122.685L263.131 126.734Z" fill="#3D5D9E" stroke="#263238"/>
<path d="M299.211 199.46V251.535H242.543V184.828H284.59L294.426 194.664L299.211 199.46Z" fill="#2A4B8E" stroke="#263238" stroke-linecap="round" stroke-linejoin="round"/>
<path opacity="0.5" d="M294.426 194.665V223.383H247.328V189.303H289.054L294.426 194.665Z" fill="white"/>
<path d="M294.426 194.665V223.383H247.328V189.303H289.054L294.426 194.665Z" stroke="#263238" stroke-linecap="round" stroke-linejoin="round"/>
<path d="M299.211 199.46H284.59V184.828L294.426 194.664L299.211 199.46Z" fill="#2A4B8E" stroke="#263238" stroke-linecap="round" stroke-linejoin="round"/>
<path d="M272.5 217.413C275.609 217.413 278.129 215.759 278.129 213.718C278.129 211.677 275.609 210.022 272.5 210.022C269.392 210.022 266.872 211.677 266.872 213.718C266.872 215.759 269.392 217.413 272.5 217.413Z" fill="#263238"/>
<path d="M271.817 194.077L267.951 213.718H266.883L269.713 199.364L270.45 195.636C270.982 195.19 271.446 194.668 271.827 194.088L271.817 194.077Z" fill="#263238"/>
<path d="M271.817 194.088L270.856 198.84C270.488 199.05 270.102 199.225 269.702 199.364C268.502 199.775 267.228 199.931 265.964 199.823C265.111 199.758 264.257 199.937 263.501 200.337C262.745 200.738 262.118 201.345 261.692 202.087C261.692 201.874 262.856 197.676 266.754 197.249C268.12 197.094 269.407 196.532 270.45 195.636C270.978 195.189 271.438 194.667 271.817 194.088Z" fill="#263238"/>
<path d="M263.871 235.622L263.155 242.479H260.378L258.905 229.62H260.87L261.938 239.777L262.899 229.62H264.864L265.857 239.852L266.925 229.62H268.687L267.278 242.436H264.586L263.871 235.622Z" fill="#263238"/>
<path d="M275.993 242.436H273.953L273.6 240.108H271.112L270.77 242.436H268.912L270.973 229.62H273.931L275.993 242.436ZM271.368 238.356H273.323L272.372 231.842L271.368 238.356Z" fill="#263238"/>
<path d="M279.506 240.108L281.034 229.599H282.892L280.937 242.436H277.915L275.939 229.62H277.979L279.506 240.108Z" fill="#263238"/>
<path d="M300.82 200.276V254.255H242.08V185.12H285.654L295.849 195.305L300.82 200.276Z" fill="#325294" stroke="#263238" stroke-linecap="round" stroke-linejoin="round"/>
<path d="M300.82 200.276H285.654V185.12L295.849 195.305L300.82 200.276Z" fill="#325294" stroke="#263238" stroke-linecap="round" stroke-linejoin="round"/>
<path d="M289.713 234.208C287.555 226.86 283.572 226.607 282.714 226.407C282.615 226.386 282.516 226.364 282.413 226.342C279.811 223.962 281.587 214.017 281.587 214.017C281.587 198.859 271.238 200.349 271.238 200.349C271.111 200.342 270.986 200.337 270.863 200.333C270.739 200.338 270.614 200.342 270.488 200.349C270.488 200.349 260.138 198.858 260.138 214.017C260.138 214.017 261.913 223.961 259.311 226.342C259.21 226.364 259.108 226.383 259.01 226.407C258.151 226.606 254.167 226.86 252.011 234.208C251.72 235.207 251.822 236.29 252.298 237.178C254.063 240.49 263.355 241.509 270.865 241.506C278.373 241.509 287.667 240.49 289.432 237.181C289.903 236.291 290.005 235.207 289.713 234.208ZM277.892 225.842C277.858 226.122 277.733 226.39 277.533 226.643C276.596 227.832 273.963 229.542 270.861 229.542C267.757 229.542 265.124 227.829 264.188 226.643C263.989 226.39 263.864 226.122 263.832 225.842C263.878 225.826 263.987 225.789 264.128 225.728C264.186 225.702 264.249 225.667 264.316 225.636C264.884 225.341 265.718 224.724 265.718 223.643C266.614 224.523 267.609 225.219 268.673 225.636C269.388 225.918 270.135 226.073 270.901 226.073C271.667 226.073 272.414 225.918 273.128 225.636C274.182 225.221 275.17 224.533 276.056 223.667C276.062 223.67 276.07 223.672 276.076 223.673C276.098 225.07 277.508 225.681 277.894 225.82C277.894 225.829 277.894 225.838 277.892 225.842ZM279.528 215.51C279.386 216.295 279.074 216.943 278.749 217.222C278.617 217.331 278.484 217.382 278.354 217.36C278.285 217.349 278.215 217.314 278.156 217.259C277.429 219.496 276.039 221.726 274.287 223.067C273.262 223.85 272.116 224.33 270.905 224.33C269.685 224.33 268.531 223.844 267.504 223.051C265.761 221.712 264.378 219.487 263.655 217.256C263.596 217.312 263.53 217.347 263.456 217.359C263.308 217.385 263.148 217.312 262.998 217.161C262.692 216.858 262.412 216.244 262.279 215.508C262.104 214.541 262.242 213.686 262.587 213.442C262.634 213.407 262.685 213.386 262.74 213.376C262.864 213.354 262.992 213.401 263.119 213.504C263.119 213.504 263.12 213.493 263.121 213.474C263.164 213.053 263.731 208.339 267.293 208.665L278.187 214.221L279.066 213.38C279.097 213.386 279.129 213.395 279.157 213.408C279.545 213.586 279.711 214.485 279.528 215.51Z" fill="#3D5D9E" stroke="#263238"/>
<path d="M220.489 277.68V329.756H163.821V263.049H205.857L215.693 272.885L220.489 277.68Z" fill="#2A4B8E" stroke="#263238" stroke-linecap="round" stroke-linejoin="round"/>
<path opacity="0.5" d="M215.693 272.885V301.603H168.594V267.523H210.332L215.693 272.885Z" fill="white"/>
<path d="M215.693 272.885V301.603H168.594V267.523H210.332L215.693 272.885Z" stroke="#263238" stroke-linecap="round" stroke-linejoin="round"/>
<path d="M220.489 277.68H205.857V263.049L215.693 272.885L220.489 277.68Z" fill="#2A4B8E" stroke="#263238" stroke-linecap="round" stroke-linejoin="round"/>
<path d="M185.8 277.712L177.203 286.32L185.8 294.918" stroke="#263238" stroke-linecap="round" stroke-linejoin="round"/>
<path d="M198.488 294.918L207.096 286.32L198.488 277.712" stroke="#263238" stroke-linecap="round" stroke-linejoin="round"/>
<path d="M194.205 277.691L190.093 294.939" stroke="#263238" stroke-linecap="round" stroke-linejoin="round"/>
<path d="M179.616 320.699H177.587V307.819H179.616V313.341H181.912V307.819H183.974V320.699H181.912V315.188H179.616V320.699Z" fill="#263238"/>
<path d="M184.86 307.819H191.108V309.72H188.972V320.753H186.953V309.72H184.817L184.86 307.819Z" fill="#263238"/>
<path d="M196.266 316.972L197.633 307.819H200.442V320.699H198.531V311.461L197.174 320.699H195.262L193.789 311.6V320.699H192.016V307.819H194.835L196.266 316.972Z" fill="#263238"/>
<path d="M201.948 307.819H203.988V318.862H207.32V320.699H201.98L201.948 307.819Z" fill="#263238"/>
<path d="M220.489 199.46V251.535H163.821V184.828H205.857L215.693 194.664L220.489 199.46Z" fill="#2A4B8E" stroke="#263238" stroke-linecap="round" stroke-linejoin="round"/>
<path opacity="0.5" d="M215.693 194.665V223.383H168.594V189.303H210.332L215.693 194.665Z" fill="white"/>
<path d="M215.693 194.665V223.383H168.594V189.303H210.332L215.693 194.665Z" stroke="#263238" stroke-linecap="round" stroke-linejoin="round"/>
<path d="M220.489 199.46H205.857V184.828L215.693 194.664L220.489 199.46Z" fill="#2A4B8E" stroke="#263238" stroke-linecap="round" stroke-linejoin="round"/>
<path d="M186.9 207.31C186.9 207.31 185.373 204.65 181.4 206.808C177.737 208.794 178.196 213.557 181.923 213.557C186.281 213.557 188.118 209.211 190.681 204.65C193.372 199.887 195.604 195.038 195.903 194.408C195.903 194.408 192.838 213.365 192.454 215.854C192.069 218.342 195.23 216.324 195.519 215.181" stroke="#263238" stroke-linecap="round" stroke-linejoin="round"/>
<path d="M203.507 206.573C202.144 206.25 200.709 206.456 199.492 207.15C198.275 207.844 197.367 208.973 196.95 210.311C196.266 212.223 197.484 213.515 198.68 213.515C201.745 213.515 202.952 211.71 204.33 206.53C204.33 206.53 202.397 213.515 203.358 213.515C203.78 213.504 204.191 213.378 204.547 213.15C204.903 212.922 205.19 212.602 205.376 212.223" stroke="#263238" stroke-linecap="round" stroke-linejoin="round"/>
<path d="M190.061 206.573H197.954" stroke="#263238" stroke-linecap="round" stroke-linejoin="round"/>
<path d="M182.628 232.696C182.628 230.635 183.696 229.492 185.704 229.492C187.712 229.492 188.78 230.667 188.78 232.696V239.392C188.78 241.454 187.712 242.596 185.704 242.596C183.696 242.596 182.628 241.422 182.628 239.392V232.696ZM184.657 239.52C184.657 240.439 185.063 240.791 185.725 240.791C186.387 240.791 186.793 240.439 186.793 239.52V232.568C186.793 231.649 186.387 231.297 185.725 231.297C185.063 231.297 184.657 231.649 184.657 232.568V239.52Z" fill="#263238"/>
<path d="M189.506 229.62H195.754V231.468H193.618V242.436H191.599V231.446H189.463L189.506 229.62Z" fill="#263238"/>
<path d="M198.648 235.323H201.265V237.171H198.648V242.511H196.63V229.62H201.97V231.468H198.648V235.323Z" fill="#263238"/>
<path d="M337.488 181.891V250.574C337.488 251.758 337.053 252.901 336.265 253.785C335.477 254.669 334.392 255.233 333.216 255.369L328.698 255.861V341.536C328.701 342.798 328.256 344.021 327.443 344.987C326.63 345.953 325.5 346.599 324.255 346.812C323.949 346.872 323.638 346.9 323.326 346.897L139.182 346.748V85.4399L323.326 85.5895C323.639 85.5897 323.95 85.6219 324.255 85.6856C325.498 85.8974 326.626 86.5423 327.44 87.5059C328.253 88.4696 328.699 89.6899 328.698 90.9508V176.626L333.216 177.128C334.388 177.261 335.47 177.82 336.257 178.698C337.045 179.575 337.482 180.712 337.488 181.891V181.891Z" stroke="#263238" stroke-miterlimit="10"/>
<path d="M139.182 85.4402V347.1L104.92 357.46L104.514 357.567C103.877 357.75 103.204 357.776 102.554 357.643C101.904 357.509 101.297 357.22 100.783 356.8C100.269 356.38 99.8655 355.841 99.6058 355.231C99.3461 354.62 99.2384 353.956 99.2919 353.295V175.409L97.4016 174.234C96.8462 173.903 96.4297 171.574 96.4297 168.894V93.3327C96.4297 90.62 96.8462 88.4519 97.4016 88.3131L99.324 87.8218V79.2778C99.2678 78.6158 99.3738 77.9501 99.6327 77.3382C99.8916 76.7264 100.296 76.1868 100.81 75.7661C101.324 75.3455 101.933 75.0564 102.584 74.9239C103.235 74.7915 103.909 74.8196 104.546 75.0058L104.952 75.1126L139.182 85.4402Z" fill="#C0CADC"/>
<path d="M104.514 74.9952V357.524C103.877 357.707 103.204 357.734 102.554 357.6C101.904 357.467 101.297 357.177 100.783 356.757C100.269 356.337 99.8655 355.799 99.6058 355.188C99.3461 354.578 99.2384 353.913 99.2919 353.252V175.409L97.4016 174.234C96.8462 173.903 96.4297 171.574 96.4297 168.894V93.3327C96.4297 90.62 96.8462 88.452 97.4016 88.3131L99.324 87.8219V79.2779C99.2678 78.6185 99.3725 77.9554 99.6289 77.3455C99.8854 76.7355 100.286 76.1968 100.796 75.7757C101.307 75.3545 101.912 75.0635 102.559 74.9276C103.207 74.7916 103.878 74.8148 104.514 74.9952Z" fill="#263238"/>
<path d="M139.182 85.4402V347.1L104.92 357.46L104.514 357.567C103.877 357.75 103.204 357.776 102.554 357.643C101.904 357.509 101.297 357.22 100.783 356.8C100.269 356.38 99.8655 355.841 99.6058 355.231C99.3461 354.62 99.2384 353.956 99.2919 353.295V175.408L97.4016 174.234C96.8462 173.903 96.4297 171.574 96.4297 168.894V93.3327C96.4297 90.62 96.8462 88.4519 97.4016 88.3131L99.324 87.8218V79.2778C99.2678 78.6158 99.3738 77.9501 99.6327 77.3382C99.8916 76.7264 100.296 76.1868 100.81 75.7661C101.324 75.3455 101.933 75.0564 102.584 74.9239C103.235 74.7915 103.909 74.8196 104.546 75.0058L104.952 75.1126L139.182 85.4402Z" stroke="#263238" stroke-miterlimit="10"/>
<path opacity="0.2" d="M174.426 350.72H139.684V351.126L125.607 355.516L123.204 306.569C123.204 306.569 129.976 295.889 139.118 290.934L139.684 291.372C143.507 294.426 165.914 313.597 174.426 350.72Z" fill="#2A4B8E" fill-opacity="0.5"/>
<path d="M127.797 384.234C127.797 384.234 125.501 380.731 124.913 370.949C124.326 361.166 124.742 354.694 123.204 350.87C123.204 350.87 121.293 347.42 118.997 343.597C116.7 339.774 117.085 327.086 117.459 314.921C117.832 302.757 120.107 299.969 124.935 298.218C136.683 293.946 139.609 308.503 145.013 324.918C150.417 341.333 150.033 352.974 151.944 357.107C153.856 361.24 157.733 366.591 161.161 377.688" fill="white"/>
<path opacity="0.4" d="M157.519 368.001C151.571 361.347 145.707 356.883 144.97 354.832C143.838 351.628 147.811 335.032 141.916 329.542C136.02 324.053 128.512 330.087 124.646 328.73C120.78 327.374 121.229 320.517 121.229 307.37C121.229 300.962 125.501 298.453 129.847 297.555C137.655 298.623 140.431 311.087 144.992 324.896C150.396 341.301 150.011 352.953 151.923 357.086C153.173 359.777 155.266 363.002 157.519 368.001Z" fill="#2A4B8E"/>
<path d="M127.797 384.234C127.797 384.234 125.501 380.731 124.913 370.949C124.326 361.166 124.742 354.694 123.204 350.87C123.204 350.87 121.293 347.42 118.997 343.597C116.7 339.774 117.085 327.086 117.459 314.921C117.832 302.757 120.107 299.969 124.935 298.218C136.683 293.946 139.609 308.503 145.013 324.918C150.417 341.333 150.033 352.974 151.944 357.107C153.856 361.24 157.733 366.591 161.161 377.688" stroke="#263238" stroke-linecap="round" stroke-linejoin="round"/>
<path opacity="0.2" d="M275.127 264.682L262.803 317.965L297.897 325.281C297.897 325.281 296.605 340.756 298.143 341.108C299.681 341.461 309.816 343.458 309.816 343.458C309.816 343.458 307.584 374.676 307.584 385.73C307.584 396.783 320.048 405.701 328.624 422.789C337.2 439.877 355.324 444.865 375.616 480.354L393.836 402.636L350.304 302.03L304.615 268.196L275.127 264.682Z" fill="black" fill-opacity="0.7"/>
<path d="M312.208 334.882C312.208 334.882 314.665 345.252 314.27 348.061C313.874 350.87 316.811 350.87 316.822 350.87C317.783 361.368 318.125 371.568 317.335 375.754C315.797 383.796 323.454 392.298 330.151 407.196C336.847 422.095 341.44 424.829 348.713 431.878C355.986 438.927 354.96 445.762 359.499 454.007C362.116 458.802 366.559 480.418 369.838 497.795H447.257C435.915 475.986 418.528 442.568 416.488 438.66C413.423 432.807 414.961 429.784 409.984 418.848C409.984 418.848 404.387 338.599 399.72 333.056C395.053 327.513 379.866 320.624 375.584 316.406C371.301 312.187 353.284 288.456 346.982 286.929C340.681 285.401 325.943 296.904 325.943 296.904C325.943 296.904 320.603 289.118 313.031 292.632C307.979 294.981 308.193 303.312 309.827 312.134C309.752 312.251 307.157 316.406 305.832 318.691C304.508 320.977 301.817 334.006 301.817 335.352C301.827 336.505 307.83 340.147 312.208 334.882Z" fill="white"/>
<path opacity="0.4" d="M351.789 359.03C351.789 359.03 357.129 366.559 354.085 366.719C351.041 366.879 342.337 362.757 337.531 350.646C336.409 347.826 335.096 344.879 333.739 341.995C333.048 340.527 331.923 339.306 330.516 338.497C329.109 337.688 327.488 337.33 325.872 337.47C324.255 337.611 322.72 338.244 321.475 339.284C320.229 340.325 319.332 341.722 318.905 343.287L316.769 350.87C316.769 350.87 313.832 350.87 314.216 348.061C314.569 345.573 312.678 337.146 312.24 335.245L313.041 333.643L302.511 330.984C302.906 329.04 303.408 326.712 303.931 324.576C304.006 324.277 304.07 323.989 304.156 323.711V323.561C304.22 323.316 304.273 323.091 304.348 322.867C304.675 321.421 305.147 320.011 305.758 318.659C307.071 316.395 309.677 312.251 309.752 312.091C308.107 303.28 307.894 294.939 312.956 292.589C320.571 289.044 325.868 296.861 325.868 296.861L326.456 296.402C326.561 296.343 326.661 296.275 326.755 296.199C327.993 295.27 330.439 293.518 333.291 291.756C333.707 291.5 334.134 291.244 334.572 290.998C336.499 289.839 338.508 288.825 340.585 287.965C341.29 287.698 341.984 287.452 342.657 287.26C342.871 287.207 343.095 287.132 343.319 287.089C344.961 294.036 345.463 301.203 344.804 308.31L351.714 318.851C352.628 322.672 354.134 326.326 356.178 329.681C358.252 333.097 359.949 336.728 361.24 340.51C361.24 340.51 362.511 339.442 364.295 341.279C364.295 341.279 359.051 347.762 357.46 352.194C356.345 355.018 354.358 357.413 351.789 359.03Z" fill="#2A4B8E"/>
<path opacity="0.4" d="M403.106 389.425C402.155 363.547 398.065 349.524 398.065 349.524C398.065 349.524 399.133 370.457 396.281 376.224C396.281 376.224 393.975 357.524 395.213 345.37C396.452 333.216 368.887 316.534 367.755 307.402C371.237 311.536 374.163 315.039 375.552 316.438C379.824 320.656 395.021 327.545 399.678 333.088C404.334 338.631 409.781 416.392 409.952 418.827C407.058 413.316 403.629 403.885 403.106 389.425Z" fill="#2A4B8E"/>
<path opacity="0.4" d="M364.839 473.06C362.853 464.035 360.92 456.581 359.499 454.007C355.334 446.424 355.868 440.016 350.304 433.608C351.143 434.304 352.044 434.922 352.995 435.456C357.78 437.88 363.12 448.047 364.37 455.182C365.021 458.834 365.01 466.46 364.839 473.06Z" fill="#2A4B8E"/>
<path d="M309.838 312.134C309.838 312.134 307.178 316.406 305.843 318.702C304.508 320.998 301.828 334.017 301.828 335.363C301.828 336.708 310.073 341.482 314.27 331.336" stroke="#263238" stroke-linecap="round" stroke-linejoin="round"/>
<path d="M366.751 483.227C363.547 468.115 360.343 453.12 353.465 438.724C349.599 430.009 340.884 425.171 335.085 417.428C328.303 406.748 324.405 395.171 318.627 384.523C316.694 370.009 317.655 355.484 315.722 339.998C313.789 329.318 310.884 318.713 308.951 308.065C308.951 302.255 307.018 296.445 312.817 292.579C317.655 290.646 322.504 293.54 325.943 296.851C331.037 292.942 325.526 296.263 325.943 296.851C331.208 292.579 337.018 286.737 343.789 287.709C359.275 288.67 365.085 307.061 375.733 316.737C378.638 319.642 382.504 320.614 385.409 323.519C391.219 327.385 398.962 329.318 400.895 336.1C407.666 364.167 406.705 390.301 410.571 418.336C411.543 423.174 412.504 429.016 414.448 433.822C419.286 444.502 424.605 454.872 430.041 465.167" stroke="#263238" stroke-linecap="round" stroke-linejoin="round"/>
<path d="M325.943 296.904C330.535 301.689 336.281 316.043 339.154 326.199C342.027 336.356 341.29 348.98 341.29 348.98C341.29 348.98 345.562 355.484 349.332 361.999C353.102 368.513 357.566 367.168 357.566 367.168" stroke="#263238" stroke-linecap="round" stroke-linejoin="round"/>
<path d="M344.868 354.672C346.287 354.956 347.757 354.84 349.114 354.339C350.472 353.837 351.664 352.969 352.557 351.831C356.007 347.805 353.7 343.213 365.576 341.301" stroke="#263238" stroke-linecap="round" stroke-linejoin="round"/>
<path d="M356.242 345.327C355.685 341.013 354.304 336.847 352.173 333.056C348.723 327.128 349.3 322.728 349.3 322.728C349.3 322.728 340.692 315.391 339.923 312.134" stroke="#263238" stroke-linecap="round" stroke-linejoin="round"/>
<path d="M341.76 298.218C341.76 298.218 341.301 303.504 340.895 306.452C340.137 312.134 338.93 313.629 335.416 314.921" stroke="#263238" stroke-linecap="round" stroke-linejoin="round"/>
<path d="M339.154 326.178C341.253 327.701 343.677 328.717 346.235 329.147C346.235 329.147 345.477 335.939 347.004 337.691C348.531 339.442 351.404 340.756 351.789 343.629" stroke="#263238" stroke-linecap="round" stroke-linejoin="round"/>
<path d="M340.991 336.73C342.333 337.551 343.919 337.88 345.477 337.659" stroke="#263238" stroke-linecap="round" stroke-linejoin="round"/>
<path d="M349.492 349.524C349.492 349.524 346.16 353.027 343.234 352.045" stroke="#263238" stroke-linecap="round" stroke-linejoin="round"/>
<path d="M312.208 334.882C312.208 334.882 314.665 345.252 314.27 348.061C313.874 350.87 316.822 350.87 316.822 350.87" stroke="#263238" stroke-linecap="round" stroke-linejoin="round"/>
<path d="M349.3 322.728C349.3 322.728 351.436 318.52 353.252 317.559" stroke="#263238" stroke-linecap="round" stroke-linejoin="round"/>
<path d="M346.363 357.086C349.745 357.663 352.852 359.31 355.227 361.785" stroke="#263238" stroke-linecap="round" stroke-linejoin="round"/>
<path d="M375.594 316.406C383.188 325.601 390.076 330.77 393.526 334.882C396.976 338.994 393.419 348.061 395.256 364.658" stroke="#263238" stroke-linecap="round" stroke-linejoin="round"/>
<path d="M382.942 336.73C382.942 336.73 381.639 343.981 385.281 349.546" stroke="#263238" stroke-linecap="round" stroke-linejoin="round"/>
<path d="M348.723 431.878C359.062 440.08 359.403 442.376 361.742 447.353" stroke="#263238" stroke-linecap="round" stroke-linejoin="round"/>
<path d="M409.995 418.848C404.249 409.834 403.095 394.904 403.095 394.904" stroke="#263238" stroke-linecap="round" stroke-linejoin="round"/>
<path d="M337.883 275.394L326.755 326.263L271.4 314.152L285.647 248.993L326.723 257.975L334.231 269.681L337.883 275.394Z" fill="#2A4B8E" stroke="#263238" stroke-linecap="round" stroke-linejoin="round"/>
<path opacity="0.5" d="M334.231 269.68L328.09 297.737L282.08 287.676L289.364 254.387L330.14 263.305L334.231 269.68Z" fill="white"/>
<path d="M334.231 269.68L328.09 297.737L282.08 287.676L289.364 254.387L330.14 263.305L334.231 269.68Z" stroke="#263238" stroke-linecap="round" stroke-linejoin="round"/>
<path d="M299.627 262.322L326.52 268.196" stroke="#263238" stroke-linecap="round" stroke-linejoin="round"/>
<path d="M295.195 264.479L325.868 271.187" stroke="#263238" stroke-linecap="round" stroke-linejoin="round"/>
<path d="M294.544 267.47L325.217 274.187" stroke="#263238" stroke-linecap="round" stroke-linejoin="round"/>
<path d="M293.882 270.471L324.555 277.178" stroke="#263238" stroke-linecap="round" stroke-linejoin="round"/>
<path d="M293.23 273.461L323.903 280.168" stroke="#263238" stroke-linecap="round" stroke-linejoin="round"/>
<path d="M292.579 276.452L323.252 283.159" stroke="#263238" stroke-linecap="round" stroke-linejoin="round"/>
<path d="M291.927 279.442L322.589 286.149" stroke="#263238" stroke-linecap="round" stroke-linejoin="round"/>
<path d="M291.265 282.433L318.157 288.317" stroke="#263238" stroke-linecap="round" stroke-linejoin="round"/>
<path d="M297.342 298.89L291.233 297.555L290.838 299.36L292.91 299.809L290.549 310.596L292.525 311.023L294.885 300.236L296.957 300.695L297.342 298.89Z" fill="#263238"/>
<path d="M303.152 300.161L300.61 304.465L300.129 299.51L298.079 299.051L298.816 305.619L295.185 311.61L297.043 312.016L299.766 307.392L300.29 312.721L302.372 313.18L301.582 306.227L304.978 300.567L303.152 300.161Z" fill="#263238"/>
<path d="M305.715 300.727L305.32 302.522L307.392 302.981L305.031 313.757L307.007 314.195L309.368 303.408L311.439 303.857L311.835 302.062L305.715 300.727Z" fill="#263238"/>
<path d="M337.883 275.394L323.604 272.265L326.723 257.975L334.231 269.681L337.883 275.394Z" fill="#2A4B8E" stroke="#263238" stroke-linecap="round" stroke-linejoin="round"/>
<path d="M338.071 275.655L326.919 326.63L271.45 314.493L285.727 249.2L326.887 258.2L334.411 269.93L338.071 275.655Z" fill="#325294" stroke="#263238" stroke-linecap="round" stroke-linejoin="round"/>
<path d="M321.153 302.568C320.437 295.445 316.849 294.536 316.102 294.21C314.631 293.564 312.738 293.373 311.805 292.88C311.509 293.833 308.08 296.514 305.842 298.182L305.612 294.928C306.284 294.685 306.565 293.922 306.687 293.263L303.633 292.697C303.512 293.35 303.499 294.151 304.025 294.621L302.655 297.589C301.169 295.235 298.928 291.502 298.992 290.505C297.94 290.627 296.105 290.129 294.501 290.204C293.685 290.24 290.008 289.804 286.791 296.198C286.355 297.067 286.263 298.083 286.546 298.983C287.59 302.324 295.886 304.832 302.729 306.098C309.568 307.37 318.21 307.999 320.385 305.254C320.966 304.518 321.249 303.537 321.153 302.568Z" fill="#3D5D9E" stroke="#263238"/>
<path d="M299.084 282.616L299.135 282.91C299.488 284.932 300.259 286.964 301.371 288.541C302 289.433 302.728 290.167 303.538 290.677L303.539 290.678C304.092 291.029 304.687 291.271 305.317 291.388C305.95 291.505 306.59 291.492 307.237 291.363L307.239 291.363C308.21 291.175 309.184 290.727 310.116 290.084L310.116 290.084C311.688 289.004 313.105 287.407 314.14 285.674L314.268 285.459L314.518 285.433C314.597 285.425 314.82 285.319 315.124 284.946C315.406 284.6 315.69 284.104 315.912 283.513L315.913 283.512C316.155 282.871 316.267 282.269 316.265 281.813C316.264 281.584 316.235 281.412 316.194 281.296C316.155 281.185 316.118 281.159 316.118 281.159L315.802 280.97L315.889 280.612C315.972 280.273 316.049 279.935 316.113 279.591C316.564 277.118 316.19 275.082 315.189 273.531C314.187 271.98 312.519 270.855 310.268 270.279L299.084 282.616ZM299.084 282.616L298.8 282.521M299.084 282.616L298.8 282.521M298.8 282.521C298.792 282.519 298.738 282.495 298.657 282.385C298.578 282.278 298.494 282.119 298.418 281.904C298.267 281.475 298.17 280.886 298.173 280.225C298.178 279.505 298.302 278.877 298.48 278.449C298.569 278.233 298.662 278.092 298.739 278.014C298.783 277.969 298.81 277.955 298.821 277.951L299.155 277.975L299.304 277.674C299.331 277.621 299.342 277.573 299.345 277.56L299.345 277.56C299.349 277.543 299.352 277.528 299.352 277.527L299.352 277.526L299.441 277.045M298.8 282.521L299.441 277.045M307.334 291.854C306.63 291.994 305.927 292.009 305.226 291.879C304.529 291.75 303.874 291.483 303.271 291.101L307.334 291.854ZM307.334 291.854C308.388 291.65 309.426 291.167 310.4 290.496L307.334 291.854ZM299.441 277.045C299.563 276.565 299.729 276.103 299.929 275.658L299.946 275.622L299.956 275.584C300.282 274.393 300.744 273.358 301.34 272.596L299.441 277.045ZM298.826 277.949C298.826 277.949 298.825 277.949 298.824 277.95L298.826 277.949ZM299.053 278.948L299.022 279.004L299.005 279.066C298.887 279.522 298.778 279.99 298.69 280.476L298.684 280.506L298.682 280.536C298.682 280.54 298.682 280.545 298.681 280.552C298.679 280.584 298.674 280.647 298.675 280.702C298.669 281.45 298.826 282.177 299.135 282.627C299.255 282.802 299.442 282.995 299.702 283.07C300.054 285.197 300.948 287.386 302.314 288.899C303.162 289.839 304.21 290.539 305.441 290.766C306.696 290.999 307.955 290.707 309.106 290.106C310.892 289.174 312.481 287.47 313.558 285.638C313.78 285.656 313.985 285.583 314.141 285.495L314.141 285.495L314.149 285.491C314.407 285.34 314.64 285.091 314.836 284.813C315.037 284.527 315.22 284.179 315.366 283.795L315.367 283.792C315.553 283.293 315.653 282.793 315.656 282.366C315.658 282.154 315.636 281.942 315.576 281.751C315.518 281.565 315.411 281.357 315.213 281.214L315.201 281.205L315.189 281.197C315.134 281.162 315.077 281.136 315.055 281.126L315.052 281.124L315.028 281.113L315.004 281.105C314.976 281.095 314.949 281.088 314.922 281.081C314.767 279.605 314.42 278.573 313.963 277.862L313.921 277.797L313.86 277.747C313.747 277.653 313.613 277.556 313.449 277.476L312.888 277.199L312.742 277.807C312.74 277.816 312.738 277.825 312.736 277.834C312.679 277.791 312.62 277.749 312.561 277.707C312.149 277.419 311.664 277.149 311.047 277.012L311.046 277.011C310.783 276.953 310.5 276.903 310.219 276.857L310.138 276.843L310.057 276.856C308.788 277.061 307.522 276.803 306.554 276.478C306.073 276.317 305.675 276.143 305.398 276.009C305.26 275.943 305.153 275.886 305.081 275.848C305.045 275.828 305.018 275.813 305.001 275.803L304.983 275.793L304.979 275.791L304.979 275.79L304.979 275.79L304.979 275.79L304.978 275.79L304.923 275.757L304.86 275.739C303.973 275.489 303.2 275.522 302.54 275.742C301.885 275.961 301.371 276.354 300.98 276.777C300.491 277.305 300.175 277.898 299.992 278.319C299.979 278.319 299.966 278.318 299.952 278.318L299.952 278.318L299.947 278.318C299.823 278.319 299.701 278.345 299.584 278.401L299.584 278.401L299.581 278.402C299.331 278.523 299.163 278.75 299.053 278.948ZM314.466 281.629L314.466 281.629C314.466 281.627 314.466 281.626 314.466 281.624L314.467 281.625L314.466 281.629ZM301.34 272.596C303.121 270.316 306.324 269.272 310.268 270.279L301.34 272.596Z" fill="#3D5D9E" stroke="#263238"/>
<path d="M338.071 275.655L323.762 272.52L326.887 258.2L334.411 269.93L338.071 275.655Z" fill="#8C9DC0" stroke="#263238" stroke-linecap="round" stroke-linejoin="round"/>
<path d="M330.162 407.196C323.454 392.298 315.797 383.796 317.346 375.754C318.894 367.712 316.192 337.467 313.074 325.558C309.955 313.65 305.373 296.188 313.074 292.6C320.774 289.012 325.986 296.872 325.986 296.872C330.578 301.657 336.324 316.011 339.197 326.167C342.07 336.324 341.333 348.948 341.333 348.948C341.333 348.948 345.605 355.452 349.375 361.967C353.145 368.481 357.609 367.136 357.609 367.136" fill="white"/>
<path opacity="0.4" d="M329.531 348.061C329.531 348.061 316.822 349.46 317.783 365.961C317.506 353.508 315.423 334.444 313.073 325.601C310.873 317.303 307.99 306.259 309.079 299.136C312.539 296.733 316.619 295.227 320.592 296.882C330.525 301.005 328.741 311.397 328.741 311.397C328.741 311.397 317.175 313.362 316.865 320.144C316.555 326.925 324.811 326.915 329.531 348.061Z" fill="#2A4B8E"/>
<path d="M330.162 407.196C323.454 392.298 315.797 383.796 317.346 375.754C318.894 367.712 316.192 337.467 313.074 325.558C309.955 313.65 305.373 296.188 313.074 292.6C320.774 289.012 325.986 296.872 325.986 296.872C330.578 301.657 336.324 316.011 339.197 326.167C342.07 336.324 341.333 348.948 341.333 348.948C341.333 348.948 345.605 355.452 349.375 361.967C353.145 368.481 357.609 367.136 357.609 367.136" stroke="#263238" stroke-linecap="round" stroke-linejoin="round"/>
<path d="M260.048 432.646C255.944 425.914 251.916 426.723 251.01 426.753C250.906 426.758 250.801 426.763 250.692 426.769C247.471 425.096 246.587 414.733 246.587 414.733C242.548 399.66 232.655 403.899 232.655 403.899C232.527 403.926 232.401 403.954 232.277 403.983C232.156 404.021 232.033 404.058 231.908 404.099C231.908 404.099 221.219 405.374 225.258 420.448C225.258 420.448 229.673 429.863 227.721 432.924C227.626 432.973 227.53 433.019 227.438 433.069C226.637 433.496 222.743 434.81 222.557 442.691C222.534 443.763 222.924 444.812 223.633 445.568C226.272 448.391 235.783 446.928 243.25 444.925C250.716 442.927 259.687 439.437 260.561 435.676C260.791 434.666 260.604 433.562 260.048 432.646ZM246.064 427.476C246.105 427.764 246.052 428.063 245.92 428.368C245.306 429.8 243.143 432.202 240.058 433.029C236.972 433.856 233.897 432.854 232.65 431.924C232.384 431.726 232.189 431.492 232.083 431.222C232.125 431.194 232.223 431.129 232.347 431.03C232.398 430.989 232.451 430.937 232.509 430.889C232.995 430.445 233.66 429.609 233.372 428.533C234.497 429.17 235.672 429.597 236.842 429.728C237.628 429.818 238.411 429.773 239.173 429.569C239.935 429.364 240.637 429.011 241.272 428.541C242.209 427.847 243.008 426.9 243.659 425.803C243.666 425.804 243.674 425.803 243.681 425.804C244.074 427.186 245.639 427.418 246.06 427.454C246.063 427.463 246.065 427.472 246.064 427.476ZM244.938 416.766C245.005 417.585 244.868 418.312 244.619 418.676C244.517 418.82 244.398 418.906 244.264 418.919C244.191 418.926 244.113 418.91 244.039 418.871C243.913 421.289 243.125 423.877 241.74 425.677C240.929 426.729 239.918 427.512 238.713 427.834C237.5 428.16 236.223 427.984 234.991 427.469C232.9 426.602 230.933 424.758 229.619 422.732C229.575 422.803 229.519 422.856 229.449 422.887C229.308 422.952 229.129 422.923 228.94 422.813C228.555 422.593 228.113 422.057 227.785 421.361C227.354 420.446 227.263 419.559 227.541 419.224C227.578 419.176 227.623 419.142 227.675 419.117C227.793 419.063 227.933 419.075 228.086 419.143C228.086 419.143 228.085 419.132 228.08 419.114C228.011 418.683 227.318 413.845 230.948 413.22L243.261 415.842L243.911 414.771C243.943 414.769 243.978 414.77 244.009 414.775C244.442 414.849 244.846 415.698 244.938 416.766Z" fill="#ECEFF5" stroke="#263238"/>
<path d="M260.914 397.35L274.885 449.49L218.146 464.693L200.25 397.903L242.349 386.623L254.837 393.832L260.914 397.35Z" stroke="#263238" stroke-linecap="round" stroke-linejoin="round"/>
<path d="M260.914 397.35L246.275 401.272L242.349 386.623L254.837 393.832L260.914 397.35Z" stroke="#263238" stroke-linecap="round" stroke-linejoin="round"/>
<path d="M222.5 121.066V175.045H163.76V105.91H207.333L217.529 116.095L222.5 121.066Z" fill="#325294" stroke="#263238" stroke-linecap="round" stroke-linejoin="round"/>
<path d="M222.5 121.066H207.333V105.91L217.529 116.095L222.5 121.066Z" fill="#325294" stroke="#263238" stroke-linecap="round" stroke-linejoin="round"/>
<path d="M211.393 154.998C209.235 147.65 205.252 147.397 204.394 147.197C204.295 147.176 204.196 147.154 204.092 147.132C201.491 144.752 203.267 134.807 203.267 134.807C203.267 119.649 192.918 121.139 192.918 121.139C192.791 121.132 192.666 121.127 192.543 121.123C192.419 121.128 192.294 121.132 192.168 121.139C192.168 121.139 181.818 119.648 181.818 134.807C181.818 134.807 183.593 144.751 180.991 147.132C180.89 147.154 180.788 147.173 180.69 147.197C179.831 147.396 175.847 147.65 173.691 154.998C173.4 155.997 173.502 157.08 173.978 157.968C175.743 161.28 185.035 162.299 192.545 162.296C200.053 162.299 209.347 161.28 211.112 157.971C211.583 157.081 211.685 155.997 211.393 154.998ZM199.572 146.632C199.538 146.912 199.413 147.18 199.213 147.433C198.276 148.622 195.643 150.332 192.541 150.332C189.437 150.332 186.804 148.619 185.868 147.433C185.669 147.18 185.544 146.912 185.512 146.632C185.558 146.616 185.667 146.579 185.808 146.518C185.866 146.492 185.929 146.457 185.996 146.426C186.564 146.132 187.398 145.514 187.398 144.433C188.294 145.313 189.289 146.009 190.353 146.426C191.068 146.708 191.815 146.863 192.581 146.863C193.347 146.863 194.094 146.708 194.808 146.426C195.862 146.011 196.85 145.323 197.736 144.457C197.742 144.46 197.75 144.462 197.756 144.463C197.778 145.86 199.188 146.471 199.574 146.61C199.574 146.619 199.574 146.628 199.572 146.632ZM201.208 136.3C201.065 137.085 200.754 137.733 200.428 138.012C200.297 138.121 200.164 138.172 200.034 138.15C199.965 138.139 199.895 138.104 199.836 138.049C199.109 140.286 197.719 142.516 195.967 143.857C194.942 144.64 193.796 145.12 192.585 145.12C191.365 145.12 190.211 144.634 189.184 143.841C187.441 142.502 186.058 140.277 185.335 138.046C185.276 138.102 185.21 138.137 185.136 138.149C184.988 138.175 184.828 138.102 184.678 137.951C184.372 137.648 184.092 137.034 183.959 136.298C183.784 135.332 183.922 134.476 184.267 134.232C184.314 134.197 184.365 134.176 184.42 134.166C184.544 134.144 184.672 134.191 184.799 134.294C184.799 134.294 184.8 134.283 184.801 134.264C184.844 133.843 185.411 129.129 188.973 129.455L199.867 135.011L200.746 134.17C200.777 134.176 200.809 134.185 200.837 134.198C201.225 134.376 201.391 135.275 201.208 136.3Z" fill="#3D5D9E" stroke="#263238"/>
<path d="M222.5 199.385V253.365H163.76V184.23H207.345L217.54 194.415L222.5 199.385Z" fill="#325294" stroke="#263238" stroke-linecap="round" stroke-linejoin="round"/>
<path d="M222.5 199.385H207.344V184.23L217.54 194.415L222.5 199.385Z" fill="#325294" stroke="#263238" stroke-linecap="round" stroke-linejoin="round"/>
<path d="M210.628 231.812C208.557 224.702 204.737 224.454 203.916 224.263C202.297 223.883 200.337 224.045 199.294 223.719C199.173 224.745 196.191 228.119 194.229 230.236L193.382 226.97C194.02 226.596 194.162 225.767 194.162 225.075H190.949C190.949 225.761 191.087 226.578 191.709 226.957L190.876 230.235C188.921 228.12 185.938 224.745 185.815 223.72C184.768 224.042 182.807 223.881 181.19 224.26C180.367 224.451 176.546 224.7 174.479 231.81C174.199 232.775 174.297 233.827 174.754 234.688C176.446 237.89 185.357 238.877 192.555 238.875C199.751 238.879 208.659 237.89 210.354 234.688C210.806 233.83 210.909 232.778 210.628 231.812Z" fill="#3D5D9E" stroke="#263238"/>
<path d="M192.586 223.439C193.194 223.418 193.787 223.286 194.369 223.054L194.371 223.053C195.326 222.678 196.234 222.037 197.062 221.207L197.062 221.207C198.459 219.81 199.601 217.916 200.327 215.957L200.414 215.721L200.655 215.651C200.74 215.626 200.951 215.47 201.19 215.033C201.412 214.626 201.609 214.066 201.723 213.422L201.723 213.42C201.85 212.721 201.85 212.086 201.762 211.62C201.718 211.386 201.655 211.215 201.59 211.102C201.559 211.047 201.53 211.013 201.509 210.993C201.489 210.974 201.479 210.97 201.478 210.97L201.133 210.841L201.153 210.474C201.173 210.112 201.188 209.754 201.188 209.392C201.18 206.788 200.415 204.783 199.101 203.391C197.787 201.998 195.874 201.167 193.472 201.005L192.586 223.439ZM192.586 223.439C193.249 223.397 193.974 223.122 194.625 222.792C195.345 222.427 196.036 221.964 196.553 221.559C198.263 220.221 199.253 218.023 199.947 215.949C200.071 215.9 200.179 215.829 200.268 215.755L200.268 215.755L200.274 215.75C200.449 215.599 200.738 215.322 201.005 214.975C201.267 214.635 201.542 214.184 201.632 213.689L201.633 213.687C201.742 213.067 201.606 212.518 201.386 212.1C201.175 211.699 200.862 211.373 200.554 211.227L200.541 211.221L200.527 211.215C200.47 211.192 200.412 211.177 200.385 211.17V210.567L200.127 210.825C199.709 209.526 199.199 208.639 198.646 208.051L198.592 207.994L198.524 207.956C198.392 207.882 198.239 207.81 198.058 207.759L197.457 207.589L197.423 208.213C197.422 208.232 197.422 208.251 197.422 208.269C197.348 208.232 197.273 208.196 197.196 208.161C196.724 207.946 196.183 207.764 195.532 207.74L195.531 207.74C195.253 207.731 194.956 207.733 194.661 207.739L194.579 207.74L194.502 207.768C193.246 208.217 191.907 208.192 190.859 208.045C190.339 207.971 189.901 207.869 189.594 207.785C189.44 207.743 189.32 207.706 189.24 207.68C189.199 207.667 189.169 207.657 189.15 207.65L189.129 207.643L189.124 207.641L189.124 207.641L189.124 207.641L189.124 207.641L189.124 207.641L189.063 207.619L188.998 207.613C188.052 207.525 187.276 207.704 186.649 208.051C186.027 208.395 185.581 208.89 185.263 209.392C184.863 210.024 184.654 210.691 184.549 211.153C184.532 211.155 184.515 211.157 184.497 211.161L184.497 211.161L184.492 211.161C184.369 211.185 184.252 211.234 184.146 211.311L184.146 211.311L184.143 211.313C183.915 211.48 183.789 211.738 183.714 211.959L183.694 212.02L183.689 212.083C183.654 212.57 183.633 213.065 183.634 213.576L183.634 213.607L183.638 213.637C183.638 213.641 183.639 213.647 183.64 213.654C183.643 213.687 183.65 213.751 183.661 213.806C183.667 213.842 183.674 213.879 183.68 213.916C183.735 214.227 183.792 214.552 183.868 214.835C183.944 215.116 184.057 215.434 184.266 215.674L184.112 215.653C184.099 215.651 184.037 215.635 183.931 215.537C183.829 215.442 183.713 215.294 183.595 215.088C183.359 214.678 183.149 214.096 183.027 213.422C182.896 212.687 182.903 212.022 183.004 211.55C183.055 211.313 183.124 211.15 183.189 211.053C183.23 210.991 183.259 210.971 183.269 210.966C183.27 210.966 183.271 210.966 183.271 210.966L183.605 210.929L183.697 210.606C183.714 210.548 183.716 210.5 183.717 210.486L183.717 210.486C183.717 210.469 183.717 210.453 183.717 210.452L183.717 210.451V209.951H183.717C183.75 209.436 183.832 208.931 183.953 208.438L183.962 208.4L183.965 208.361C184.073 207.087 184.348 205.944 184.811 205.054L192.586 223.439ZM184.513 215.974L184.466 215.849L188.376 221.562C188.878 221.946 189.548 222.409 190.248 222.777C190.881 223.111 191.594 223.398 192.252 223.44C191.643 223.42 191.045 223.288 190.466 223.055L190.464 223.054C189.542 222.687 188.662 222.076 187.852 221.287C186.422 219.89 185.253 217.967 184.513 215.974ZM183.273 210.965C183.273 210.965 183.273 210.965 183.273 210.965C183.272 210.965 183.272 210.965 183.272 210.965C183.273 210.965 183.273 210.965 183.273 210.965ZM184.811 205.054C186.198 202.392 189.266 200.724 193.472 201.005L184.811 205.054Z" fill="#3D5D9E" stroke="#263238"/>
<path d="M222.5 277.706V331.685H163.76V262.55H207.345L217.54 272.735L222.5 277.706Z" fill="#325294" stroke="#263238" stroke-linecap="round" stroke-linejoin="round"/>
<path d="M212.283 310.747C210.125 303.4 206.142 303.146 205.284 302.946C205.185 302.925 205.086 302.903 204.982 302.882C202.381 300.502 204.157 290.556 204.157 290.556C204.157 275.399 193.808 276.888 193.808 276.888C193.681 276.882 193.556 276.877 193.433 276.873C193.309 276.877 193.184 276.882 193.058 276.888C193.058 276.888 182.708 275.397 182.708 290.556C182.708 290.556 184.483 300.501 181.881 302.882C181.78 302.903 181.678 302.923 181.58 302.946C180.721 303.145 176.737 303.4 174.581 310.747C174.29 311.747 174.392 312.83 174.868 313.718C176.633 317.029 185.925 318.048 193.435 318.046C200.943 318.048 210.237 317.029 212.002 313.72C212.473 312.83 212.575 311.747 212.283 310.747ZM200.462 302.381C200.428 302.661 200.303 302.929 200.103 303.182C199.166 304.372 196.533 306.082 193.431 306.082C190.327 306.082 187.694 304.368 186.758 303.182C186.559 302.929 186.434 302.661 186.402 302.381C186.448 302.366 186.557 302.329 186.698 302.267C186.756 302.241 186.819 302.206 186.886 302.175C187.454 301.881 188.288 301.264 188.288 300.182C189.184 301.062 190.179 301.759 191.243 302.175C191.958 302.457 192.705 302.612 193.471 302.612C194.237 302.612 194.984 302.457 195.698 302.175C196.752 301.761 197.74 301.072 198.626 300.207C198.632 300.209 198.64 300.211 198.646 300.213C198.668 301.609 200.078 302.22 200.464 302.359C200.464 302.369 200.464 302.378 200.462 302.381ZM202.098 292.049C201.955 292.834 201.644 293.482 201.318 293.761C201.187 293.87 201.054 293.921 200.924 293.9C200.855 293.889 200.785 293.853 200.726 293.798C199.999 296.036 198.609 298.266 196.857 299.607C195.832 300.389 194.686 300.87 193.475 300.87C192.255 300.87 191.101 300.384 190.074 299.591C188.331 298.252 186.948 296.027 186.225 293.796C186.166 293.852 186.1 293.887 186.026 293.899C185.878 293.924 185.718 293.852 185.568 293.701C185.262 293.398 184.982 292.784 184.849 292.048C184.674 291.081 184.812 290.226 185.157 289.982C185.204 289.947 185.255 289.925 185.31 289.915C185.434 289.894 185.562 289.941 185.689 290.043C185.689 290.043 185.69 290.033 185.691 290.014C185.734 289.593 186.301 284.878 189.863 285.205L200.757 290.761L201.636 289.92C201.667 289.926 201.699 289.935 201.727 289.947C202.115 290.126 202.281 291.025 202.098 292.049Z" fill="#3D5D9E" stroke="#263238"/>
<path d="M222.5 277.706H207.344V262.55L217.54 272.735L222.5 277.706Z" fill="#325294" stroke="#263238" stroke-linecap="round" stroke-linejoin="round"/>
<path opacity="0.1" d="M138.84 80.9902L178.89 221.706V346.21H139.094L138.84 80.9902Z" fill="black" fill-opacity="0.7"/>
</svg>
