<svg width="53" height="53" viewBox="0 0 53 53" fill="none" xmlns="http://www.w3.org/2000/svg">
<path d="M36.6507 18.8132C36.6507 18.8132 31.684 18.9582 31.858 24.1712C31.858 24.1712 36.7618 23.8427 36.6507 18.8132Z" fill="white"/>
<path d="M40.207 25.901C40.207 25.901 36.395 24.3598 34.791 28.3457C34.791 28.3457 38.5836 29.7371 40.207 25.901Z" fill="white"/>
<path d="M8.33867 27.9302C8.33867 27.9302 5.11614 25.3744 2.44922 28.7467C2.44922 28.7467 5.72972 31.1624 8.33867 27.9302Z" fill="white"/>
<path d="M14.2473 30.0703C14.2473 30.0703 11.3774 27.128 8.30469 30.1283C8.30469 30.1476 11.2373 32.9692 14.2473 30.0703Z" fill="white"/>
<path d="M11.8505 10.4696C11.8505 10.4696 8.59899 12.9867 11.2321 16.3832C11.2321 16.3832 14.358 13.7888 11.8505 10.4696Z" fill="white"/>
<path d="M23.8862 4.72506C23.8862 4.72506 20.8086 2.00016 17.9629 5.2082C17.9629 5.22269 21.0936 7.80748 23.8862 4.72506Z" fill="white"/>
<path d="M12.2188 35.3848C12.2188 35.3848 7.72563 34.6118 6.9043 39.3079C6.92362 39.3079 11.3878 39.9167 12.2188 35.3848Z" fill="white"/>
<path d="M44.0628 10.9913C44.0628 10.9913 40.0334 13.8902 43.0965 18.1176C43.0869 18.1128 46.9664 15.0932 44.0628 10.9913Z" fill="white"/>
<path d="M36.6509 15.2478C36.6509 15.2478 32.2157 12.9964 29.887 17.6297C29.8483 17.6297 34.3028 19.7072 36.6509 15.2478Z" fill="white"/>
<path d="M36.6508 6.15015C36.6508 6.15015 32.0272 7.9764 33.9404 12.8126C33.9549 12.8126 38.4626 10.8462 36.6508 6.15015Z" fill="white"/>
<path d="M29.3165 20.2046C29.3165 20.2046 24.8909 22.4705 27.268 27.099C27.268 27.099 31.5631 24.7074 29.3165 20.2046Z" fill="white"/>
<path d="M16.5332 35.351C16.5332 35.351 21.0312 37.4671 23.2392 32.7614C23.2392 32.7614 18.7218 30.8192 16.5332 35.351Z" fill="white"/>
<path d="M29.3691 32.486C29.3691 32.486 29.7605 37.443 34.9397 37.0323C34.9445 37.013 34.3889 32.1285 29.3691 32.486Z" fill="white"/>
<path d="M36.7288 33.5199C36.7288 33.5199 35.5113 38.3513 40.5505 39.6074C40.5505 39.6074 41.594 34.805 36.7288 33.5199Z" fill="white"/>
<path d="M18.687 42.8687C18.687 42.8687 23.4797 41.54 22.0689 36.5299C22.0834 36.5299 17.3922 38.0035 18.687 42.8687Z" fill="white"/>
<path d="M42.8008 30.6403C42.8008 30.6403 47.3664 32.6067 49.4198 27.8333C49.4198 27.8333 44.8638 26.0408 42.8008 30.6403Z" fill="white"/>
<path d="M44.4043 24.8718C44.4043 24.8718 49.3758 24.9152 49.4144 19.7167C49.4193 19.7167 44.5058 19.8423 44.4043 24.8718Z" fill="white"/>
<path d="M15.9336 25.1182C15.9336 25.1182 18.3783 29.4665 22.9004 26.8914C22.9004 26.8865 20.3398 22.6929 15.9336 25.1182Z" fill="white"/>
<path d="M12.3047 18.1997C12.3047 18.1997 12.5946 23.1615 17.8076 22.8523C17.8076 22.8523 17.3245 17.9581 12.3047 18.1997Z" fill="white"/>
<path d="M5.12191 16.9097C5.12191 16.9097 3.18936 21.4898 7.97726 23.5093C7.97726 23.5045 9.73588 18.9147 5.12191 16.9097Z" fill="white"/>
<path d="M19.6384 13.0156C19.6384 13.0156 18.1117 17.7504 23.059 19.3399C23.0638 19.3399 24.4118 14.61 19.6384 13.0156Z" fill="white"/>
<path d="M15.5723 7.92821C15.5723 7.92821 16.8333 12.7596 21.8531 11.4165C21.8627 11.4165 20.452 6.70588 15.5723 7.92821Z" fill="white"/>
<path d="M26.8243 3.28528C26.8243 3.28528 24.2009 7.5079 28.6167 10.2618C28.6167 10.2618 31.0711 5.98602 26.8243 3.28528Z" fill="white"/>
<path d="M31.5485 1.63757C31.5485 1.63757 34.254 9.41609 28.2486 14.8514C22.823 19.7601 24.3014 28.6208 26.2388 31.8433C29.7657 37.6941 29.5821 46.8206 24.3594 51.7196" stroke="white" stroke-miterlimit="10"/>
<path d="M28.577 51.7198C23.5233 46.9803 22.9339 37.7475 26.3497 32.3653C26.5394 32.0719 26.7136 31.7687 26.8715 31.457C27.4368 30.312 29.6109 26.9156 36.2105 24.6931C44.2403 21.9682 47.4628 17.6345 48.4001 13.4457" stroke="white" stroke-miterlimit="10"/>
<path d="M38.1003 3.79749C38.1003 3.79749 43.3134 15.9677 37.0664 24.3647" stroke="white" stroke-miterlimit="10"/>
<path d="M26.9883 31.2009C28.5164 30.4764 30.1864 30.1005 31.8776 30.1005C33.5688 30.1005 35.2389 30.4764 36.767 31.2009C41.8593 33.7084 46.4297 35.0371 51.7153 30.6453" stroke="white" stroke-miterlimit="10"/>
<path d="M40.7188 32.8533C40.7188 32.8533 46.8353 36.4188 46.6517 42.1199" stroke="white" stroke-miterlimit="10"/>
<path d="M28.3984 43.2261C28.3984 43.2261 30.1667 39.2112 35.3025 39.6412" stroke="white" stroke-miterlimit="10"/>
<path d="M18.1024 30.4763C16.6093 31.2992 15.4012 32.556 14.6377 34.0803C13.8742 35.6046 13.5914 37.3248 13.8266 39.0134" stroke="white" stroke-miterlimit="10"/>
<path d="M35.2012 30.5536C35.2012 30.5536 40.8104 31.0367 43.028 26.0121" stroke="white" stroke-miterlimit="10"/>
<path d="M25.9965 31.2009C24.4684 30.4764 22.7984 30.1005 21.1072 30.1005C19.416 30.1005 17.7459 30.4764 16.2178 31.2009C11.1255 33.7084 6.55506 35.0371 1.26953 30.6453" stroke="white" stroke-miterlimit="10"/>
<path d="M8.35842 8.58533C8.35842 8.58533 7.39215 25.7995 18.7169 30.3265" stroke="white" stroke-miterlimit="10"/>
<path d="M1.70508 20.5283C1.70508 20.5283 5.1885 26.8091 12.8172 26.1762" stroke="white" stroke-miterlimit="10"/>
<path d="M21.3262 7.68164C21.3262 7.68164 27.6553 9.13105 27.6843 15.378" stroke="white" stroke-miterlimit="10"/>
<path d="M14.4805 11.5905C14.4805 11.5905 16.4517 20.1565 24.5104 22.2195" stroke="white" stroke-miterlimit="10"/>
<path d="M26.5 52C40.5833 52 52 40.5833 52 26.5C52 12.4167 40.5833 1 26.5 1C12.4167 1 1 12.4167 1 26.5C1 40.5833 12.4167 52 26.5 52Z" stroke="white" stroke-miterlimit="10"/>
</svg>
