<svg width="45" height="45" viewBox="0 0 45 45" fill="none" xmlns="http://www.w3.org/2000/svg">
<path d="M31.0584 16.019C31.0584 16.019 26.8708 16.1412 27.0174 20.5366C27.0174 20.5366 31.152 20.2596 31.0584 16.019Z" fill="#112D3D"/>
<path d="M34.0566 21.9947C34.0566 21.9947 30.8426 20.6952 29.4902 24.0559C29.4902 24.0559 32.6879 25.2291 34.0566 21.9947Z" fill="#112D3D"/>
<path d="M7.18827 23.7056C7.18827 23.7056 4.47124 21.5507 2.22266 24.394C2.22266 24.394 4.98857 26.4308 7.18827 23.7056Z" fill="#112D3D"/>
<path d="M12.1706 25.5101C12.1706 25.5101 9.75091 23.0293 7.16016 25.559C7.16016 25.5753 9.63278 27.9542 12.1706 25.5101Z" fill="#112D3D"/>
<path d="M10.1487 8.98389C10.1487 8.98389 7.40726 11.1062 9.62732 13.9699C9.62732 13.9699 12.2629 11.7824 10.1487 8.98389Z" fill="#112D3D"/>
<path d="M20.2969 4.14078C20.2969 4.14078 17.702 1.84332 15.3027 4.54813C15.3027 4.56035 17.9424 6.73968 20.2969 4.14078Z" fill="#112D3D"/>
<path d="M10.4594 29.9912C10.4594 29.9912 6.67101 29.3394 5.97852 33.2988C5.99481 33.2988 9.75874 33.8121 10.4594 29.9912Z" fill="#112D3D"/>
<path d="M37.3071 9.42383C37.3071 9.42383 33.9098 11.8679 36.4924 15.4323C36.4843 15.4282 39.7553 12.8822 37.3071 9.42383Z" fill="#112D3D"/>
<path d="M31.0586 13.0129C31.0586 13.0129 27.3191 11.1146 25.3557 15.0211C25.3231 15.0211 29.0789 16.7727 31.0586 13.0129Z" fill="#112D3D"/>
<path d="M31.0592 5.34229C31.0592 5.34229 27.1608 6.88207 28.7739 10.9597C28.7861 10.9597 32.5867 9.30174 31.0592 5.34229Z" fill="#112D3D"/>
<path d="M24.8753 17.1924C24.8753 17.1924 21.144 19.1029 23.1482 23.0053C23.1482 23.0053 26.7695 20.9889 24.8753 17.1924Z" fill="#112D3D"/>
<path d="M14.0957 29.9624C14.0957 29.9624 17.8881 31.7466 19.7497 27.779C19.7497 27.779 15.941 26.1415 14.0957 29.9624Z" fill="#112D3D"/>
<path d="M24.9199 27.547C24.9199 27.547 25.2499 31.7265 29.6167 31.3802C29.6208 31.3639 29.1523 27.2456 24.9199 27.547Z" fill="#112D3D"/>
<path d="M31.1246 28.4189C31.1246 28.4189 30.0981 32.4925 34.3467 33.5516C34.3467 33.5516 35.2266 29.5025 31.1246 28.4189Z" fill="#112D3D"/>
<path d="M15.9132 36.301C15.9132 36.301 19.9542 35.1808 18.7647 30.9565C18.7769 30.9565 14.8215 32.199 15.9132 36.301Z" fill="#112D3D"/>
<path d="M36.2441 25.9911C36.2441 25.9911 40.0936 27.6491 41.8249 23.6244C41.8249 23.6244 37.9835 22.1131 36.2441 25.9911Z" fill="#112D3D"/>
<path d="M37.5957 21.1272C37.5957 21.1272 41.7873 21.1639 41.8199 16.7808C41.824 16.7808 37.6812 16.8867 37.5957 21.1272Z" fill="#112D3D"/>
<path d="M13.5918 21.3348C13.5918 21.3348 15.653 25.0009 19.4658 22.8298C19.4658 22.8257 17.3068 19.2899 13.5918 21.3348Z" fill="#112D3D"/>
<path d="M10.5312 15.5019C10.5312 15.5019 10.7757 19.6854 15.171 19.4247C15.171 19.4247 14.7636 15.2983 10.5312 15.5019Z" fill="#112D3D"/>
<path d="M4.47549 14.4141C4.47549 14.4141 2.84609 18.2758 6.88294 19.9785C6.88294 19.9744 8.3657 16.1046 4.47549 14.4141Z" fill="#112D3D"/>
<path d="M16.7148 11.1309C16.7148 11.1309 15.4276 15.1229 19.5989 16.4631C19.603 16.4631 20.7395 12.4751 16.7148 11.1309Z" fill="#112D3D"/>
<path d="M13.2852 6.84164C13.2852 6.84164 14.3483 10.9152 18.5807 9.78271C18.5889 9.78271 17.3994 5.81104 13.2852 6.84164Z" fill="#112D3D"/>
<path d="M22.7733 2.92676C22.7733 2.92676 20.5614 6.48701 24.2845 8.80891C24.2845 8.80891 26.3539 5.20385 22.7733 2.92676Z" fill="#112D3D"/>
<path d="M26.7567 1.5376C26.7567 1.5376 29.0379 8.09595 23.9745 12.6787C19.3999 16.8173 20.6464 24.2882 22.2799 27.0052C25.2536 31.9382 25.0988 39.6331 20.6953 43.7636" stroke="#112D3D" stroke-miterlimit="10"/>
<path d="M24.2516 43.7635C19.9907 39.7674 19.4937 31.9829 22.3737 27.445C22.5336 27.1976 22.6805 26.942 22.8136 26.6792C23.2902 25.7138 25.1233 22.8501 30.6877 20.9763C37.4579 18.6788 40.1749 15.0249 40.9652 11.4932" stroke="#112D3D" stroke-miterlimit="10"/>
<path d="M32.2799 3.3584C32.2799 3.3584 36.6753 13.6196 31.4082 20.6993" stroke="#112D3D" stroke-miterlimit="10"/>
<path d="M22.9121 26.4635C24.2005 25.8526 25.6086 25.5356 27.0345 25.5356C28.4604 25.5356 29.8685 25.8526 31.1569 26.4635C35.4504 28.5777 39.3039 29.6979 43.7603 25.9951" stroke="#112D3D" stroke-miterlimit="10"/>
<path d="M34.4883 27.8564C34.4883 27.8564 39.6453 30.8627 39.4906 35.6694" stroke="#112D3D" stroke-miterlimit="10"/>
<path d="M24.1016 36.6025C24.1016 36.6025 25.5925 33.2174 29.9226 33.5799" stroke="#112D3D" stroke-miterlimit="10"/>
<path d="M15.421 25.8525C14.1621 26.5464 13.1435 27.606 12.4998 28.8912C11.8561 30.1764 11.6176 31.6268 11.816 33.0504" stroke="#112D3D" stroke-miterlimit="10"/>
<path d="M29.8359 25.9175C29.8359 25.9175 34.5653 26.3248 36.435 22.0884" stroke="#112D3D" stroke-miterlimit="10"/>
<path d="M22.0768 26.4635C20.7883 25.8526 19.3803 25.5356 17.9544 25.5356C16.5284 25.5356 15.1204 25.8526 13.832 26.4635C9.53848 28.5777 5.68494 29.6979 1.22852 25.9951" stroke="#112D3D" stroke-miterlimit="10"/>
<path d="M7.20481 7.39551C7.20481 7.39551 6.39011 21.9094 15.9384 25.7263" stroke="#112D3D" stroke-miterlimit="10"/>
<path d="M1.59375 17.4653C1.59375 17.4653 4.53075 22.7609 10.9628 22.2273" stroke="#112D3D" stroke-miterlimit="10"/>
<path d="M18.1367 6.63379C18.1367 6.63379 23.473 7.85584 23.4975 13.1229" stroke="#112D3D" stroke-miterlimit="10"/>
<path d="M12.3652 9.9292C12.3652 9.9292 14.0272 17.1515 20.8218 18.8909" stroke="#112D3D" stroke-miterlimit="10"/>
<path d="M22.5 44C34.3741 44 44 34.3741 44 22.5C44 10.6259 34.3741 1 22.5 1C10.6259 1 1 10.6259 1 22.5C1 34.3741 10.6259 44 22.5 44Z" stroke="#112D3D" stroke-miterlimit="10"/>
</svg>
