<svg width="24" height="24" viewBox="0 0 24 24" fill="none" xmlns="http://www.w3.org/2000/svg">
<path d="M19.3584 15.4209C21.6156 16.098 23 17.08 23 18.5C23 20.235 20.703 21.4704 17.2922 22.0762L16.7295 22.1689C16.5388 22.1979 16.345 22.2251 16.1484 22.2504L15.55 22.3207C15.2467 22.353 14.9373 22.381 14.6225 22.4047L13.9858 22.4462L13.3357 22.476C13.2263 22.48 13.1164 22.4835 13.006 22.4865L12.338 22.4985H11.662L10.994 22.4865C10.8836 22.4835 10.7737 22.48 10.6643 22.476L10.0142 22.4462L9.37754 22.4047C9.06272 22.381 8.75333 22.353 8.45 22.3207L7.85162 22.2504C7.7533 22.2378 7.6557 22.2246 7.55884 22.2111L6.9868 22.1239C3.4228 21.5368 1 20.2819 1 18.5C1 17.08 2.38443 16.098 4.64158 15.4209C5.17057 15.2622 5.72806 15.5624 5.88675 16.0913C6.04545 16.6203 5.74527 17.1778 5.21628 17.3365C4.40049 17.5813 3.76627 17.8629 3.36438 18.1479C3.2256 18.2464 3.1345 18.3274 3.0781 18.3873L3.0179 18.4609C3.00543 18.4798 3 18.493 3 18.5C3 18.7039 3.27641 18.9375 3.77269 19.1714L4.03889 19.2883C4.13356 19.3272 4.23407 19.3659 4.34017 19.4044L4.67494 19.519C4.79194 19.5568 4.91427 19.5942 5.04165 19.6311L5.43872 19.74C5.50734 19.7579 5.57716 19.7756 5.64815 19.7931L6.08782 19.8957C6.23887 19.929 6.39432 19.9615 6.55392 19.993L7.04488 20.0843L7.55914 20.1687C7.64671 20.1821 7.73518 20.1953 7.82452 20.2081L8.37077 20.2806L8.93639 20.3442L9.5198 20.3981C9.71707 20.4144 9.91703 20.4289 10.1194 20.4415L10.7337 20.4734L11.3611 20.4932C11.4667 20.4955 11.5727 20.4972 11.6792 20.4983L12 20.5C12.2147 20.5 12.4278 20.4977 12.6389 20.4932L13.2663 20.4734L13.8806 20.4415C14.083 20.4289 14.2829 20.4144 14.4802 20.3981L15.0636 20.3442L15.6292 20.2806L16.1755 20.2081L16.7008 20.1274C16.7865 20.1133 16.8713 20.099 16.9551 20.0843L17.4461 19.993L17.6823 19.945L18.1354 19.845C18.282 19.8107 18.424 19.7757 18.5613 19.74L18.9583 19.6311C19.022 19.6127 19.0845 19.5941 19.1456 19.5754L19.4965 19.4619C19.664 19.4046 19.8191 19.3466 19.9611 19.2883L20.2273 19.1714C20.7236 18.9375 21 18.7039 21 18.5C21 18.493 20.9946 18.4798 20.9821 18.4609L20.9219 18.3873C20.8655 18.3274 20.7744 18.2464 20.6356 18.148C20.2337 17.8629 19.5995 17.5813 18.7837 17.3365C18.2547 17.1778 17.9545 16.6203 18.1132 16.0914C18.2719 15.5624 18.8294 15.2622 19.3584 15.4209ZM12 1C16.1367 1 19.5 4.28101 19.5 8.3409C19.5 10.8052 18.1628 13.1946 15.9679 15.4582C15.2223 16.2273 14.4265 16.9277 13.6304 17.5482L13.2902 17.8087L12.8622 18.1215L12.5471 18.3371C12.2147 18.5543 11.7853 18.5543 11.4529 18.3371C11.4248 18.3187 11.3942 18.2984 11.3614 18.2763L11.0069 18.0279L10.7098 17.8087L10.3696 17.5482C9.57354 16.9277 8.77774 16.2273 8.03208 15.4582C5.83722 13.1946 4.5 10.8052 4.5 8.3409C4.5 4.28101 7.86334 1 12 1ZM12 3C8.95696 3 6.5 5.39683 6.5 8.3409C6.5 10.1738 7.60028 12.1399 9.46792 14.066C10.1441 14.7634 10.8718 15.4038 11.5991 15.9708C11.7262 16.0698 11.8485 16.1629 11.9653 16.2497L12 16.274L12.1234 16.1834L12.4009 15.9708C13.1282 15.4038 13.8559 14.7634 14.5321 14.066C16.3997 12.1399 17.5 10.1738 17.5 8.3409C17.5 5.39683 15.043 3 12 3ZM12 5C13.933 5 15.5 6.56702 15.5 8.5C15.5 10.433 13.933 12 12 12C10.067 12 8.5 10.433 8.5 8.5C8.5 6.56702 10.067 5 12 5ZM12 7C11.1716 7 10.5 7.67158 10.5 8.5C10.5 9.32841 11.1716 10 12 10C12.8284 10 13.5 9.32841 13.5 8.5C13.5 7.67158 12.8284 7 12 7Z" fill="#3B5C9F" fill-opacity="0.55"/>
</svg>
