<svg width="20" height="23" viewBox="0 0 20 23" fill="none" xmlns="http://www.w3.org/2000/svg">
<path d="M19.1087 20.329V21.6036H0.85004L0.850045 20.329L0.850036 20.3262C0.848463 19.8528 0.898723 19.3805 0.999976 18.9176C1.65564 15.9335 4.51696 14.1097 8.27166 14.1097H11.6871C15.4408 14.1097 18.3055 15.9437 18.9587 18.9172C19.06 19.3803 19.1103 19.8526 19.1087 20.3262L19.9584 20.329H19.1087ZM12.6431 9.44886C11.8558 9.96678 10.9288 10.244 9.97938 10.244C8.70647 10.244 7.4883 9.74628 6.59201 8.86441C5.69617 7.98298 5.19507 6.79029 5.19445 5.54932C5.19398 4.62325 5.47246 3.71672 5.99625 2.94432C6.52015 2.17175 7.26645 1.56749 8.14228 1.21C9.01822 0.852456 9.98296 0.758466 10.9139 0.940462C11.8448 1.12244 12.6982 1.57178 13.3667 2.22961C14.0352 2.8873 14.4889 3.72372 14.6727 4.63234C14.8565 5.54088 14.7625 6.48281 14.4021 7.33956C14.0417 8.19645 13.4303 8.93104 12.6431 9.44886Z" stroke="white" stroke-width="1.7" stroke-linecap="square"/>
</svg>
