<svg width="127" height="117" viewBox="0 0 127 117" fill="none" xmlns="http://www.w3.org/2000/svg">
<path d="M23.1 95C19.2333 95 15.8667 94 13 92C10.2 90 8.03333 87.2667 6.5 83.8C5.03333 80.2667 4.3 76.2333 4.3 71.7C4.3 66.5667 5.13333 61.7333 6.8 57.2C8.53333 52.6667 10.9 48.7 13.9 45.3C16.9 41.8333 20.3 39.1333 24.1 37.2C27.9 35.2667 31.8667 34.3 36 34.3C39.8667 34.3 43.2 35.3 46 37.3C48.8 39.3 50.9667 42.0667 52.5 45.6C54.1 49.1333 54.9 53.1667 54.9 57.7C54.9 62.9 54 67.7667 52.2 72.3C50.4667 76.7667 48.1 80.7 45.1 84.1C42.1667 87.5 38.8 90.1667 35 92.1C31.2 94.0333 27.2333 95 23.1 95ZM25.2 84.8C28.4667 84.8 31.4667 83.6333 34.2 81.3C37 78.9667 39.2667 75.8667 41 72C42.7333 68.0667 43.6 63.7 43.6 58.9C43.6 54.6333 42.7333 51.1667 41 48.5C39.2667 45.8333 36.9 44.5 33.9 44.5C30.5667 44.5 27.5 45.7 24.7 48.1C21.9 50.4333 19.6333 53.5667 17.9 57.5C16.2333 61.4333 15.4 65.7667 15.4 70.5C15.4 74.7667 16.2667 78.2333 18 80.9C19.7333 83.5 22.1333 84.8 25.2 84.8ZM57.075 94C57.875 90.2667 59.0083 86.9 60.475 83.9C61.9417 80.8333 64.0417 78.0333 66.775 75.5C69.5083 72.9 73.175 70.4 77.775 68C81.375 66.1333 84.6417 64.5 87.575 63.1C90.5083 61.6333 92.8417 60.1 94.575 58.5C96.3083 56.9 97.175 54.9333 97.175 52.6C97.175 50.7333 96.475 49.1 95.075 47.7C93.7417 46.3 91.675 45.6 88.875 45.6C86.675 45.6 84.6083 46.0333 82.675 46.9C80.8083 47.7 79.075 48.7 77.475 49.9C75.9417 51.1 74.575 52.3 73.375 53.5L68.075 45.4C69.275 44.4 71.075 43.1667 73.475 41.7C75.9417 40.1667 78.8417 38.8333 82.175 37.7C85.5083 36.5 89.1083 35.9 92.975 35.9C98.375 35.9 102.508 37.2 105.375 39.8C108.242 42.3333 109.675 45.5667 109.675 49.5C109.675 52.4333 109.075 55 107.875 57.2C106.742 59.3333 105.242 61.2333 103.375 62.9C101.508 64.5 99.5417 65.9 97.475 67.1C95.4083 68.3 93.475 69.3667 91.675 70.3C89.875 71.2333 87.8083 72.3667 85.475 73.7C83.2083 74.9667 81.0417 76.5 78.975 78.3C76.975 80.0333 75.4417 81.9667 74.375 84.1H103.575L101.475 94H57.075Z" fill="#3B5C9F"/>
<path opacity="0.5" d="M21 92L20.4187 92.8138L20.4278 92.8201L21 92ZM14.5 83.8L13.5764 84.1834L13.5808 84.194L13.5855 84.2045L14.5 83.8ZM14.8 57.2L13.8659 56.8428L13.8614 56.8549L14.8 57.2ZM21.9 45.3L22.6499 45.9617L22.6562 45.9544L21.9 45.3ZM32.1 37.2L31.6465 36.3087L32.1 37.2ZM54 37.3L54.5812 36.4863L54 37.3ZM60.5 45.6L59.5827 45.9981L59.5858 46.0053L59.5891 46.0125L60.5 45.6ZM60.2 72.3L59.2706 71.931L59.2677 71.9382L60.2 72.3ZM53.1 84.1L52.3501 83.4383L52.3428 83.4468L53.1 84.1ZM43 92.1L43.4535 92.9913L43 92.1ZM42.2 81.3L41.5598 80.5317L41.5507 80.5394L42.2 81.3ZM49 72L49.9125 72.4091L49.9151 72.4033L49 72ZM49 48.5L49.8384 47.955L49 48.5ZM32.7 48.1L33.3402 48.8683L33.3508 48.8593L32.7 48.1ZM25.9 57.5L24.9849 57.0967L24.982 57.1033L24.9792 57.1099L25.9 57.5ZM26 80.9L25.1615 81.445L25.1679 81.4547L26 80.9ZM31.1 94C27.4153 94 24.2533 93.0504 21.5722 91.1799L20.4278 92.8201C23.48 94.9496 27.0514 96 31.1 96V94ZM21.5812 91.1863C18.9415 89.3007 16.883 86.7155 15.4145 83.3955L13.5855 84.2045C15.1837 87.8178 17.4585 90.6993 20.4188 92.8137L21.5812 91.1863ZM15.4236 83.4166C14.0158 80.0251 13.3 76.1257 13.3 71.7H11.3C11.3 76.341 12.0509 80.5082 13.5764 84.1834L15.4236 83.4166ZM13.3 71.7C13.3 66.677 14.115 61.9611 15.7386 57.5451L13.8614 56.8549C12.1516 61.5056 11.3 66.4564 11.3 71.7H13.3ZM15.7341 57.5571C17.4277 53.1276 19.7344 49.2658 22.6498 45.9616L21.1502 44.6384C18.0656 48.1342 15.639 52.2057 13.8659 56.8429L15.7341 57.5571ZM22.6562 45.9544C25.578 42.5781 28.8772 39.9617 32.5535 38.0913L31.6465 36.3087C27.7228 38.305 24.222 41.0886 21.1438 44.6456L22.6562 45.9544ZM32.5535 38.0913C36.2176 36.2271 40.0293 35.3 44 35.3V33.3C39.704 33.3 35.5824 34.3062 31.6465 36.3087L32.5535 38.0913ZM44 35.3C47.6851 35.3 50.809 36.2496 53.4188 38.1137L54.5812 36.4863C51.591 34.3504 48.0482 33.3 44 33.3V35.3ZM53.4188 38.1137C56.054 39.996 58.1127 42.6109 59.5827 45.9981L61.4173 45.2019C59.8206 41.5225 57.546 38.604 54.5812 36.4863L53.4188 38.1137ZM59.5891 46.0125C61.1213 49.3962 61.9 53.2851 61.9 57.7H63.9C63.9 53.0482 63.0787 48.8705 61.411 45.1875L59.5891 46.0125ZM61.9 57.7C61.9 62.7821 61.0209 67.5227 59.2706 71.931L61.1294 72.669C62.9791 68.0107 63.9 63.0179 63.9 57.7H61.9ZM59.2677 71.9382C57.5746 76.3013 55.2678 80.1317 52.3502 83.4384L53.8498 84.7616C56.9322 81.2683 59.3587 77.2321 61.1323 72.6618L59.2677 71.9382ZM52.3428 83.4468C49.4897 86.7538 46.2247 89.3374 42.5465 91.2087L43.4535 92.9913C47.3753 90.996 50.8436 88.2462 53.8572 84.7532L52.3428 83.4468ZM42.5465 91.2087C38.8824 93.0729 35.0707 94 31.1 94V96C35.396 96 39.5176 94.9938 43.4535 92.9913L42.5465 91.2087ZM33.2 85.8C36.7291 85.8 39.9544 84.5318 42.8493 82.0606L41.5507 80.5394C38.979 82.7348 36.2043 83.8 33.2 83.8V85.8ZM42.8402 82.0682C45.7747 79.6228 48.127 76.3921 49.9125 72.4091L48.0875 71.5909C46.4063 75.3413 44.2253 78.3105 41.5598 80.5318L42.8402 82.0682ZM49.9151 72.4033C51.7106 68.3288 52.6 63.8226 52.6 58.9H50.6C50.6 63.5774 49.7561 67.8046 48.0849 71.5967L49.9151 72.4033ZM52.6 58.9C52.6 54.5043 51.7076 50.8306 49.8384 47.955L48.1616 49.045C49.7591 51.5027 50.6 54.7623 50.6 58.9H52.6ZM49.8384 47.955C47.9339 45.025 45.2622 43.5 41.9 43.5V45.5C44.5378 45.5 46.5994 46.6417 48.1616 49.045L49.8384 47.955ZM41.9 43.5C38.3021 43.5 35.0098 44.8031 32.0492 47.3407L33.3508 48.8593C35.9902 46.5969 38.8313 45.5 41.9 45.5V43.5ZM32.0598 47.3318C29.1218 49.7801 26.7694 53.0474 24.9849 57.0967L26.8151 57.9033C28.4973 54.086 30.6782 51.0865 33.3402 48.8682L32.0598 47.3318ZM24.9792 57.1099C23.2549 61.1793 22.4 65.6471 22.4 70.5H24.4C24.4 65.8862 25.2118 61.6874 26.8208 57.8901L24.9792 57.1099ZM22.4 70.5C22.4 74.8957 23.2924 78.5694 25.1616 81.445L26.8384 80.355C25.2409 77.8972 24.4 74.6376 24.4 70.5H22.4ZM25.1679 81.4547C27.0825 84.3265 29.7914 85.8 33.2 85.8V83.8C30.4753 83.8 28.3842 82.6735 26.8321 80.3453L25.1679 81.4547ZM65.075 94L64.0972 93.7905L63.838 95H65.075V94ZM68.475 83.9L69.3734 84.3392L69.3771 84.3315L68.475 83.9ZM74.775 75.5L75.4548 76.2335L75.4642 76.2246L74.775 75.5ZM85.775 68L85.3147 67.1122L85.3124 67.1134L85.775 68ZM95.575 63.1L96.0057 64.0025L96.014 63.9985L96.0222 63.9944L95.575 63.1ZM102.575 58.5L103.253 59.2348L102.575 58.5ZM103.075 47.7L102.351 48.3897L102.359 48.3985L102.368 48.4071L103.075 47.7ZM90.675 46.9L91.0689 47.8191L91.0765 47.8159L91.0841 47.8125L90.675 46.9ZM85.475 49.9L84.875 49.1L84.8668 49.1062L84.8587 49.1125L85.475 49.9ZM81.375 53.5L80.5382 54.0475L81.212 55.0772L82.0821 54.2071L81.375 53.5ZM76.075 45.4L75.4348 44.6318L74.7505 45.2021L75.2382 45.9475L76.075 45.4ZM81.475 41.7L81.9965 42.5533L82.0029 42.5493L81.475 41.7ZM90.175 37.7L90.4969 38.6468L90.5053 38.6439L90.5137 38.6409L90.175 37.7ZM113.375 39.8L112.703 40.5408L112.713 40.5493L113.375 39.8ZM115.875 57.2L114.997 56.7211L114.992 56.7308L115.875 57.2ZM111.375 62.9L112.026 63.6593L112.033 63.6527L112.041 63.6459L111.375 62.9ZM105.475 67.1L104.973 66.2352H104.973L105.475 67.1ZM99.675 70.3L99.2147 69.4122L99.675 70.3ZM93.475 73.7L93.9628 74.573L93.9711 74.5682L93.475 73.7ZM86.975 78.3L87.6299 79.0557L87.6318 79.0541L86.975 78.3ZM82.375 84.1L81.4806 83.6528L80.757 85.1H82.375V84.1ZM111.575 84.1L112.553 84.3075L112.809 83.1H111.575V84.1ZM109.475 94V95H110.285L110.453 94.2075L109.475 94ZM66.0528 94.2095C66.8381 90.5446 67.9471 87.2566 69.3734 84.3392L67.5766 83.4608C66.0696 86.5434 64.9119 89.9887 64.0972 93.7905L66.0528 94.2095ZM69.3771 84.3315C70.7844 81.3891 72.805 78.6893 75.4548 76.2334L74.0952 74.7666C71.2783 77.3774 69.099 80.2776 67.5729 83.4685L69.3771 84.3315ZM75.4642 76.2246C78.11 73.7079 81.6917 71.2584 86.2376 68.8866L85.3124 67.1134C80.6583 69.5416 76.9067 72.0921 74.0858 74.7754L75.4642 76.2246ZM86.2353 68.8877C89.8278 67.025 93.0844 65.3967 96.0057 64.0025L95.1443 62.1975C92.1989 63.6033 88.9222 65.2417 85.3147 67.1122L86.2353 68.8877ZM96.0222 63.9944C99.0095 62.5008 101.43 60.918 103.253 59.2348L101.897 57.7652C100.254 59.282 98.0071 60.7659 95.1278 62.2056L96.0222 63.9944ZM103.253 59.2348C105.189 57.4479 106.175 55.2159 106.175 52.6H104.175C104.175 54.6508 103.428 56.3521 101.897 57.7652L103.253 59.2348ZM106.175 52.6C106.175 50.4508 105.357 48.5678 103.782 46.9929L102.368 48.4071C103.593 49.6322 104.175 51.0159 104.175 52.6H106.175ZM103.799 47.0103C102.206 45.3375 99.8248 44.6 96.875 44.6V46.6C99.5252 46.6 101.277 47.2625 102.351 48.3897L103.799 47.0103ZM96.875 44.6C94.5396 44.6 92.3329 45.0609 90.2659 45.9875L91.0841 47.8125C92.8838 47.0057 94.8105 46.6 96.875 46.6V44.6ZM90.2811 45.9809C88.3424 46.8117 86.5397 47.8515 84.875 49.1L86.075 50.7C87.6103 49.5485 89.2743 48.5883 91.0689 47.8191L90.2811 45.9809ZM84.8587 49.1125C83.298 50.3339 81.9003 51.5605 80.6679 52.7929L82.0821 54.2071C83.2497 53.0395 84.5853 51.8661 86.0913 50.6875L84.8587 49.1125ZM82.2118 52.9525L76.9118 44.8525L75.2382 45.9475L80.5382 54.0475L82.2118 52.9525ZM76.7152 46.1682C77.8593 45.2148 79.6108 44.0112 81.9965 42.5533L80.9536 40.8467C78.5392 42.3221 76.6907 43.5852 75.4348 44.6318L76.7152 46.1682ZM82.0029 42.5493C84.3929 41.0636 87.2211 39.7605 90.4969 38.6468L89.8531 36.7532C86.4622 37.9061 83.4904 39.2697 80.9471 40.8507L82.0029 42.5493ZM90.5137 38.6409C93.7289 37.4834 97.2133 36.9 100.975 36.9V34.9C97.0034 34.9 93.2878 35.5166 89.8363 36.7591L90.5137 38.6409ZM100.975 36.9C106.225 36.9 110.082 38.1636 112.703 40.5407L114.047 39.0593C110.934 36.2364 106.525 34.9 100.975 34.9V36.9ZM112.713 40.5493C115.358 42.8868 116.675 45.8441 116.675 49.5H118.675C118.675 45.2892 117.125 41.7798 114.037 39.0507L112.713 40.5493ZM116.675 49.5C116.675 52.2947 116.104 54.6913 114.997 56.7211L116.753 57.6788C118.046 55.3087 118.675 52.572 118.675 49.5H116.675ZM114.992 56.7308C113.916 58.7561 112.491 60.5632 110.709 62.1541L112.041 63.6459C113.993 61.9034 115.567 59.9106 116.758 57.6692L114.992 56.7308ZM110.724 62.1407C108.902 63.7023 106.985 65.0667 104.973 66.2352L105.977 67.9648C108.098 66.7333 110.114 65.2977 112.026 63.6593L110.724 62.1407ZM104.973 66.2352C102.918 67.4286 100.998 68.4874 99.2147 69.4122L100.135 71.1878C101.952 70.2459 103.899 69.1714 105.977 67.9648L104.973 66.2352ZM99.2147 69.4122C97.3995 70.3535 95.3205 71.4937 92.9789 72.8318L93.9711 74.5682C96.2962 73.2396 98.3505 72.1132 100.135 71.1878L99.2147 69.4122ZM92.9872 72.8271C90.657 74.1292 88.4341 75.7031 86.3182 77.5459L87.6318 79.0541C89.6493 77.2969 91.7597 75.8041 93.9628 74.5729L92.9872 72.8271ZM86.3201 77.5443C84.2316 79.3543 82.6122 81.3896 81.4806 83.6528L83.2694 84.5472C84.2712 82.5437 85.7184 80.7124 87.6299 79.0557L86.3201 77.5443ZM82.375 85.1H111.575V83.1H82.375V85.1ZM110.597 83.8925L108.497 93.7925L110.453 94.2075L112.553 84.3075L110.597 83.8925ZM109.475 93H65.075V95H109.475V93Z" fill="#112D3D"/>
</svg>
