<svg width="127" height="118" viewBox="0 0 127 118" fill="none" xmlns="http://www.w3.org/2000/svg">
<path d="M23.1 96C19.2333 96 15.8667 95 13 93C10.2 91 8.03333 88.2667 6.5 84.8C5.03333 81.2667 4.3 77.2333 4.3 72.7C4.3 67.5667 5.13333 62.7333 6.8 58.2C8.53333 53.6667 10.9 49.7 13.9 46.3C16.9 42.8333 20.3 40.1333 24.1 38.2C27.9 36.2667 31.8667 35.3 36 35.3C39.8667 35.3 43.2 36.3 46 38.3C48.8 40.3 50.9667 43.0667 52.5 46.6C54.1 50.1333 54.9 54.1667 54.9 58.7C54.9 63.9 54 68.7667 52.2 73.3C50.4667 77.7667 48.1 81.7 45.1 85.1C42.1667 88.5 38.8 91.1667 35 93.1C31.2 95.0333 27.2333 96 23.1 96ZM25.2 85.8C28.4667 85.8 31.4667 84.6333 34.2 82.3C37 79.9667 39.2667 76.8667 41 73C42.7333 69.0667 43.6 64.7 43.6 59.9C43.6 55.6333 42.7333 52.1667 41 49.5C39.2667 46.8333 36.9 45.5 33.9 45.5C30.5667 45.5 27.5 46.7 24.7 49.1C21.9 51.4333 19.6333 54.5667 17.9 58.5C16.2333 62.4333 15.4 66.7667 15.4 71.5C15.4 75.7667 16.2667 79.2333 18 81.9C19.7333 84.5 22.1333 85.8 25.2 85.8ZM74.675 109.7C69.875 109.7 65.8083 108.8 62.475 107C59.1417 105.267 56.7083 102.733 55.175 99.4L63.375 91.8C64.375 94.2667 65.9083 96.2 67.975 97.6C70.0417 99 72.875 99.7 76.475 99.7C81.4083 99.7 85.2417 98.5 87.975 96.1C90.7083 93.7 92.075 90.3 92.075 85.9C92.075 82.9 91.0083 80.5333 88.875 78.8C86.8083 77 83.675 76.1 79.475 76.1H76.875L78.775 67.5H81.575C86.375 67.5 90.175 66.2333 92.975 63.7C95.8417 61.1667 97.275 58.0667 97.275 54.4C97.275 52 96.4417 50.2 94.775 49C93.175 47.7333 91.0083 47.1 88.275 47.1C85.1417 47.1 82.2083 47.8333 79.475 49.3C76.7417 50.7667 74.3417 52.8667 72.275 55.6L67.075 48.1C68.7417 45.9667 70.875 44.1 73.475 42.5C76.075 40.9 78.9083 39.6667 81.975 38.8C85.1083 37.8667 88.3083 37.4 91.575 37.4C97.0417 37.4 101.375 38.7333 104.575 41.4C107.775 44.0667 109.375 47.6 109.375 52C109.375 55 108.642 57.9 107.175 60.7C105.775 63.4333 103.875 65.7667 101.475 67.7C99.075 69.6333 96.4083 70.8667 93.475 71.4C96.6083 72 99.0417 73.5667 100.775 76.1C102.575 78.6333 103.475 81.7 103.475 85.3C103.475 90.1 102.208 94.3333 99.675 98C97.2083 101.667 93.8083 104.533 89.475 106.6C85.1417 108.667 80.2083 109.7 74.675 109.7Z" fill="#3B5C9F"/>
<path opacity="0.5" d="M21 92L20.4187 92.8138L20.4278 92.8201L21 92ZM14.5 83.8L13.5764 84.1834L13.5808 84.194L13.5855 84.2045L14.5 83.8ZM14.8 57.2L13.8659 56.8428L13.8614 56.8549L14.8 57.2ZM21.9 45.3L22.6499 45.9617L22.6562 45.9544L21.9 45.3ZM32.1 37.2L31.6465 36.3087L32.1 37.2ZM54 37.3L54.5812 36.4863L54 37.3ZM60.5 45.6L59.5827 45.9981L59.5858 46.0053L59.5891 46.0125L60.5 45.6ZM60.2 72.3L59.2706 71.931L59.2677 71.9382L60.2 72.3ZM53.1 84.1L52.3501 83.4383L52.3428 83.4468L53.1 84.1ZM43 92.1L43.4535 92.9913L43 92.1ZM42.2 81.3L41.5598 80.5317L41.5507 80.5394L42.2 81.3ZM49 72L49.9125 72.4091L49.9151 72.4033L49 72ZM49 48.5L49.8384 47.955L49 48.5ZM32.7 48.1L33.3402 48.8683L33.3508 48.8593L32.7 48.1ZM25.9 57.5L24.9849 57.0967L24.982 57.1033L24.9792 57.1099L25.9 57.5ZM26 80.9L25.1615 81.445L25.1679 81.4547L26 80.9ZM31.1 94C27.4153 94 24.2533 93.0504 21.5722 91.1799L20.4278 92.8201C23.48 94.9496 27.0514 96 31.1 96V94ZM21.5812 91.1863C18.9415 89.3007 16.883 86.7155 15.4145 83.3955L13.5855 84.2045C15.1837 87.8178 17.4585 90.6993 20.4188 92.8137L21.5812 91.1863ZM15.4236 83.4166C14.0158 80.0251 13.3 76.1257 13.3 71.7H11.3C11.3 76.341 12.0509 80.5082 13.5764 84.1834L15.4236 83.4166ZM13.3 71.7C13.3 66.677 14.115 61.9611 15.7386 57.5451L13.8614 56.8549C12.1516 61.5056 11.3 66.4564 11.3 71.7H13.3ZM15.7341 57.5571C17.4277 53.1276 19.7344 49.2658 22.6498 45.9616L21.1502 44.6384C18.0656 48.1342 15.639 52.2057 13.8659 56.8429L15.7341 57.5571ZM22.6562 45.9544C25.578 42.5781 28.8772 39.9617 32.5535 38.0913L31.6465 36.3087C27.7228 38.305 24.222 41.0886 21.1438 44.6456L22.6562 45.9544ZM32.5535 38.0913C36.2176 36.2271 40.0293 35.3 44 35.3V33.3C39.704 33.3 35.5824 34.3062 31.6465 36.3087L32.5535 38.0913ZM44 35.3C47.6851 35.3 50.809 36.2496 53.4188 38.1137L54.5812 36.4863C51.591 34.3504 48.0482 33.3 44 33.3V35.3ZM53.4188 38.1137C56.054 39.996 58.1127 42.6109 59.5827 45.9981L61.4173 45.2019C59.8206 41.5225 57.546 38.604 54.5812 36.4863L53.4188 38.1137ZM59.5891 46.0125C61.1213 49.3962 61.9 53.2851 61.9 57.7H63.9C63.9 53.0482 63.0787 48.8705 61.411 45.1875L59.5891 46.0125ZM61.9 57.7C61.9 62.7821 61.0209 67.5227 59.2706 71.931L61.1294 72.669C62.9791 68.0107 63.9 63.0179 63.9 57.7H61.9ZM59.2677 71.9382C57.5746 76.3013 55.2678 80.1317 52.3502 83.4384L53.8498 84.7616C56.9322 81.2683 59.3587 77.2321 61.1323 72.6618L59.2677 71.9382ZM52.3428 83.4468C49.4897 86.7538 46.2247 89.3374 42.5465 91.2087L43.4535 92.9913C47.3753 90.996 50.8436 88.2462 53.8572 84.7532L52.3428 83.4468ZM42.5465 91.2087C38.8824 93.0729 35.0707 94 31.1 94V96C35.396 96 39.5176 94.9938 43.4535 92.9913L42.5465 91.2087ZM33.2 85.8C36.7291 85.8 39.9544 84.5318 42.8493 82.0606L41.5507 80.5394C38.979 82.7348 36.2043 83.8 33.2 83.8V85.8ZM42.8402 82.0682C45.7747 79.6228 48.127 76.3921 49.9125 72.4091L48.0875 71.5909C46.4063 75.3413 44.2253 78.3105 41.5598 80.5318L42.8402 82.0682ZM49.9151 72.4033C51.7106 68.3288 52.6 63.8226 52.6 58.9H50.6C50.6 63.5774 49.7561 67.8046 48.0849 71.5967L49.9151 72.4033ZM52.6 58.9C52.6 54.5043 51.7076 50.8306 49.8384 47.955L48.1616 49.045C49.7591 51.5027 50.6 54.7623 50.6 58.9H52.6ZM49.8384 47.955C47.9339 45.025 45.2622 43.5 41.9 43.5V45.5C44.5378 45.5 46.5994 46.6417 48.1616 49.045L49.8384 47.955ZM41.9 43.5C38.3021 43.5 35.0098 44.8031 32.0492 47.3407L33.3508 48.8593C35.9902 46.5969 38.8313 45.5 41.9 45.5V43.5ZM32.0598 47.3318C29.1218 49.7801 26.7694 53.0474 24.9849 57.0967L26.8151 57.9033C28.4973 54.086 30.6782 51.0865 33.3402 48.8682L32.0598 47.3318ZM24.9792 57.1099C23.2549 61.1793 22.4 65.6471 22.4 70.5H24.4C24.4 65.8862 25.2118 61.6874 26.8208 57.8901L24.9792 57.1099ZM22.4 70.5C22.4 74.8957 23.2924 78.5694 25.1616 81.445L26.8384 80.355C25.2409 77.8972 24.4 74.6376 24.4 70.5H22.4ZM25.1679 81.4547C27.0825 84.3265 29.7914 85.8 33.2 85.8V83.8C30.4753 83.8 28.3842 82.6735 26.8321 80.3453L25.1679 81.4547ZM70.475 106L70.9501 105.12L70.9433 105.116L70.9364 105.113L70.475 106ZM63.175 98.4L62.4952 97.6666L61.9636 98.1593L62.2665 98.8179L63.175 98.4ZM71.375 90.8L72.3017 90.4243L71.7576 89.082L70.6952 90.0666L71.375 90.8ZM75.975 96.6L75.4142 97.4279L75.975 96.6ZM96.875 77.8L96.2182 78.5541L96.2311 78.5653L96.2444 78.5761L96.875 77.8ZM84.875 75.1L83.8985 74.8843L83.63 76.1H84.875V75.1ZM86.775 66.5V65.5H85.9718L85.7985 66.2843L86.775 66.5ZM100.975 62.7L100.313 61.9506L100.304 61.9585L100.975 62.7ZM102.775 48L102.154 48.784L102.172 48.7982L102.191 48.8115L102.775 48ZM87.475 48.3L87.9478 49.1812L87.475 48.3ZM80.275 54.6L79.4532 55.1698L80.2399 56.3045L81.0727 55.2031L80.275 54.6ZM75.075 47.1L74.287 46.4844L73.8336 47.0646L74.2532 47.6698L75.075 47.1ZM81.475 41.5L80.9509 40.6483L81.475 41.5ZM89.975 37.8L90.247 38.7624L90.2605 38.7584L89.975 37.8ZM112.575 40.4L111.935 41.1682L112.575 40.4ZM115.175 59.7L114.289 59.236L114.285 59.2441L115.175 59.7ZM109.475 66.7L110.102 67.4788L109.475 66.7ZM101.475 70.4L101.296 69.4161L101.287 71.3822L101.475 70.4ZM108.775 75.1L107.95 75.6647L107.955 75.672L107.96 75.6792L108.775 75.1ZM107.675 97L106.852 96.4315L106.845 96.4418L107.675 97ZM97.475 105.6L97.9055 106.503L97.475 105.6ZM82.675 107.7C77.9976 107.7 74.1036 106.823 70.9501 105.12L69.9999 106.88C73.513 108.777 77.7524 109.7 82.675 109.7V107.7ZM70.9364 105.113C67.7949 103.479 65.5216 101.109 64.0835 97.9821L62.2665 98.8179C63.895 102.358 66.4884 105.054 70.0136 106.887L70.9364 105.113ZM63.8548 99.1334L72.0548 91.5334L70.6952 90.0666L62.4952 97.6666L63.8548 99.1334ZM70.4483 91.1757C71.5175 93.8132 73.1723 95.9093 75.4142 97.4279L76.5359 95.7721C74.6443 94.4907 73.2325 92.7201 72.3017 90.4243L70.4483 91.1757ZM75.4142 97.4279C77.7046 98.9795 80.7594 99.7 84.475 99.7V97.7C80.9906 97.7 78.3787 97.0205 76.5359 95.7721L75.4142 97.4279ZM84.475 99.7C89.564 99.7 93.6627 98.4611 96.6348 95.8514L95.3152 94.3486C92.8206 96.5389 89.2527 97.7 84.475 97.7V99.7ZM96.6348 95.8514C99.6293 93.2221 101.075 89.522 101.075 84.9H99.075C99.075 89.078 97.7873 92.1779 95.3152 94.3486L96.6348 95.8514ZM101.075 84.9C101.075 81.6303 99.896 78.966 97.5056 77.0239L96.2444 78.5761C98.1207 80.1006 99.075 82.1697 99.075 84.9H101.075ZM97.5318 77.0459C95.2076 75.0217 91.793 74.1 87.475 74.1V76.1C91.557 76.1 94.409 76.9783 96.2182 78.5541L97.5318 77.0459ZM87.475 74.1H84.875V76.1H87.475V74.1ZM85.8515 75.3157L87.7515 66.7157L85.7985 66.2843L83.8985 74.8843L85.8515 75.3157ZM86.775 67.5H89.575V65.5H86.775V67.5ZM89.575 67.5C94.5534 67.5 98.6163 66.1826 101.646 63.4415L100.304 61.9585C97.7337 64.284 94.1966 65.5 89.575 65.5V67.5ZM101.637 63.4493C104.708 60.7355 106.275 57.3672 106.275 53.4H104.275C104.275 56.7662 102.975 59.5978 100.313 61.9507L101.637 63.4493ZM106.275 53.4C106.275 50.7403 105.333 48.6099 103.359 47.1885L102.191 48.8115C103.55 49.7901 104.275 51.2597 104.275 53.4H106.275ZM103.396 47.216C101.567 45.7685 99.1573 45.1 96.275 45.1V47.1C98.8593 47.1 100.783 47.6982 102.154 48.784L103.396 47.216ZM96.275 45.1C92.9784 45.1 89.8824 45.8733 87.0022 47.4188L87.9478 49.1812C90.5342 47.7933 93.3049 47.1 96.275 47.1V45.1ZM87.0022 47.4188C84.129 48.9605 81.6218 51.1607 79.4773 53.9969L81.0727 55.2031C83.0615 52.5726 85.3543 50.5728 87.9478 49.1812L87.0022 47.4188ZM81.0968 54.0302L75.8968 46.5302L74.2532 47.6698L79.4532 55.1698L81.0968 54.0302ZM75.863 47.7156C77.4477 45.6872 79.4876 43.8972 81.9991 42.3517L80.9509 40.6483C78.2624 42.3028 76.0356 44.2461 74.287 46.4844L75.863 47.7156ZM81.9991 42.3517C84.5172 40.8021 87.2651 39.605 90.247 38.7623L89.703 36.8377C86.5515 37.7283 83.6328 38.9979 80.9509 40.6483L81.9991 42.3517ZM90.2605 38.7584C93.3012 37.8526 96.4051 37.4 99.575 37.4V35.4C96.2116 35.4 92.9154 35.8807 89.6895 36.8416L90.2605 38.7584ZM99.575 37.4C104.882 37.4 108.964 38.6927 111.935 41.1682L113.215 39.6318C109.786 36.774 105.202 35.4 99.575 35.4V37.4ZM111.935 41.1682C114.893 43.633 116.375 46.8776 116.375 51H118.375C118.375 46.3224 116.657 42.5004 113.215 39.6318L111.935 41.1682ZM116.375 51C116.375 53.8297 115.685 56.5712 114.289 59.236L116.061 60.164C117.598 57.2288 118.375 54.1703 118.375 51H116.375ZM114.285 59.2441C112.949 61.8521 111.139 64.0756 108.848 65.9212L110.102 67.4788C112.611 65.4577 114.601 63.0145 116.065 60.1559L114.285 59.2441ZM108.848 65.9212C106.573 67.7535 104.06 68.9137 101.296 69.4161L101.654 71.3839C104.757 70.8196 107.577 69.5132 110.102 67.4788L108.848 65.9212ZM101.287 71.3822C104.172 71.9347 106.372 73.3585 107.95 75.6647L109.6 74.5353C107.712 71.7748 105.044 70.0653 101.663 69.4178L101.287 71.3822ZM107.96 75.6792C109.621 78.0176 110.475 80.8736 110.475 84.3H112.475C112.475 80.5264 111.529 77.2491 109.59 74.5208L107.96 75.6792ZM110.475 84.3C110.475 88.9134 109.261 92.945 106.852 96.4316L108.498 97.5684C111.156 93.7216 112.475 89.2866 112.475 84.3H110.475ZM106.845 96.4418C104.487 99.9473 101.231 102.701 97.0445 104.697L97.9055 106.503C102.386 104.366 105.93 101.386 108.505 97.5582L106.845 96.4418ZM97.0445 104.697C92.8647 106.691 88.0821 107.7 82.675 107.7V109.7C88.3346 109.7 93.4186 108.642 97.9055 106.503L97.0445 104.697Z" fill="#112D3D"/>
</svg>
