<svg width="127" height="117" viewBox="0 0 127 117" fill="none" xmlns="http://www.w3.org/2000/svg">
<path d="M23.1 95C19.2333 95 15.8667 94 13 92C10.2 90 8.03333 87.2667 6.5 83.8C5.03333 80.2667 4.3 76.2333 4.3 71.7C4.3 66.5667 5.13333 61.7333 6.8 57.2C8.53333 52.6667 10.9 48.7 13.9 45.3C16.9 41.8333 20.3 39.1333 24.1 37.2C27.9 35.2667 31.8667 34.3 36 34.3C39.8667 34.3 43.2 35.3 46 37.3C48.8 39.3 50.9667 42.0667 52.5 45.6C54.1 49.1333 54.9 53.1667 54.9 57.7C54.9 62.9 54 67.7667 52.2 72.3C50.4667 76.7667 48.1 80.7 45.1 84.1C42.1667 87.5 38.8 90.1667 35 92.1C31.2 94.0333 27.2333 95 23.1 95ZM25.2 84.8C28.4667 84.8 31.4667 83.6333 34.2 81.3C37 78.9667 39.2667 75.8667 41 72C42.7333 68.0667 43.6 63.7 43.6 58.9C43.6 54.6333 42.7333 51.1667 41 48.5C39.2667 45.8333 36.9 44.5 33.9 44.5C30.5667 44.5 27.5 45.7 24.7 48.1C21.9 50.4333 19.6333 53.5667 17.9 57.5C16.2333 61.4333 15.4 65.7667 15.4 70.5C15.4 74.7667 16.2667 78.2333 18 80.9C19.7333 83.5 22.1333 84.8 25.2 84.8ZM61.675 84.1H75.175L82.575 49.2C81.575 50.2 80.0417 51.3 77.975 52.5C75.9083 53.7 73.7083 54.7 71.375 55.5C69.1083 56.3 67.1417 56.7 65.475 56.7L67.675 46.4C68.9417 46.4 70.475 46 72.275 45.2C74.1417 44.4 75.975 43.4667 77.775 42.4C79.6417 41.2667 81.2417 40.2 82.575 39.2C83.9083 38.1333 84.7417 37.3667 85.075 36.9H96.375L86.375 84.1H98.475L96.375 94H59.475L61.675 84.1Z" fill="#3B5C9F"/>
<path opacity="0.5" d="M21 92L20.4187 92.8138L20.4278 92.8201L21 92ZM14.5 83.8L13.5764 84.1834L13.5808 84.194L13.5855 84.2045L14.5 83.8ZM14.8 57.2L13.8659 56.8428L13.8614 56.8549L14.8 57.2ZM21.9 45.3L22.6499 45.9617L22.6562 45.9544L21.9 45.3ZM32.1 37.2L31.6465 36.3087L32.1 37.2ZM54 37.3L54.5812 36.4863L54.5812 36.4863L54 37.3ZM60.5 45.6L59.5827 45.9981L59.5858 46.0053L59.589 46.0125L60.5 45.6ZM60.2 72.3L59.2706 71.931L59.2677 71.9382L60.2 72.3ZM53.1 84.1L52.3501 83.4383L52.3428 83.4468L53.1 84.1ZM43 92.1L43.4535 92.9913L43.4535 92.9913L43 92.1ZM42.2 81.3L41.5598 80.5317L41.5507 80.5394L42.2 81.3ZM49 72L49.9125 72.4091L49.9151 72.4033L49 72ZM49 48.5L49.8384 47.955L49.8384 47.955L49 48.5ZM32.7 48.1L33.3402 48.8683L33.3508 48.8593L32.7 48.1ZM25.9 57.5L24.9849 57.0967L24.982 57.1033L24.9792 57.1099L25.9 57.5ZM26 80.9L25.1615 81.445L25.168 81.4547L26 80.9ZM31.1 94C27.4153 94 24.2533 93.0504 21.5722 91.1799L20.4278 92.8201C23.48 94.9496 27.0514 96 31.1 96V94ZM21.5812 91.1863C18.9415 89.3007 16.883 86.7155 15.4145 83.3955L13.5855 84.2045C15.1837 87.8178 17.4585 90.6993 20.4188 92.8137L21.5812 91.1863ZM15.4236 83.4166C14.0158 80.0251 13.3 76.1257 13.3 71.7H11.3C11.3 76.341 12.0509 80.5082 13.5764 84.1834L15.4236 83.4166ZM13.3 71.7C13.3 66.677 14.115 61.9611 15.7386 57.5451L13.8614 56.8549C12.1516 61.5056 11.3 66.4564 11.3 71.7H13.3ZM15.7341 57.5571C17.4277 53.1276 19.7344 49.2658 22.6498 45.9616L21.1502 44.6384C18.0656 48.1342 15.639 52.2057 13.8659 56.8429L15.7341 57.5571ZM22.6562 45.9544C25.578 42.5781 28.8772 39.9617 32.5535 38.0913L31.6465 36.3087C27.7228 38.305 24.222 41.0886 21.1438 44.6456L22.6562 45.9544ZM32.5535 38.0913C36.2176 36.2271 40.0293 35.3 44 35.3V33.3C39.704 33.3 35.5824 34.3062 31.6465 36.3087L32.5535 38.0913ZM44 35.3C47.6851 35.3 50.809 36.2496 53.4188 38.1137L54.5812 36.4863C51.591 34.3504 48.0482 33.3 44 33.3V35.3ZM53.4188 38.1137C56.054 39.996 58.1127 42.6109 59.5827 45.9981L61.4173 45.2019C59.8206 41.5225 57.546 38.604 54.5812 36.4863L53.4188 38.1137ZM59.589 46.0125C61.1213 49.3962 61.9 53.2851 61.9 57.7H63.9C63.9 53.0482 63.0787 48.8705 61.411 45.1875L59.589 46.0125ZM61.9 57.7C61.9 62.7821 61.0209 67.5227 59.2706 71.931L61.1294 72.669C62.9791 68.0107 63.9 63.0179 63.9 57.7H61.9ZM59.2677 71.9382C57.5746 76.3013 55.2678 80.1317 52.3502 83.4384L53.8498 84.7616C56.9322 81.2683 59.3587 77.2321 61.1323 72.6618L59.2677 71.9382ZM52.3428 83.4468C49.4897 86.7538 46.2247 89.3374 42.5465 91.2087L43.4535 92.9913C47.3753 90.996 50.8436 88.2462 53.8572 84.7532L52.3428 83.4468ZM42.5465 91.2087C38.8824 93.0729 35.0707 94 31.1 94V96C35.396 96 39.5176 94.9938 43.4535 92.9913L42.5465 91.2087ZM33.2 85.8C36.7291 85.8 39.9544 84.5318 42.8493 82.0606L41.5507 80.5394C38.979 82.7348 36.2043 83.8 33.2 83.8V85.8ZM42.8402 82.0682C45.7747 79.6228 48.127 76.3921 49.9125 72.4091L48.0875 71.5909C46.4063 75.3413 44.2253 78.3105 41.5598 80.5318L42.8402 82.0682ZM49.9151 72.4033C51.7106 68.3288 52.6 63.8226 52.6 58.9H50.6C50.6 63.5774 49.7561 67.8046 48.0849 71.5967L49.9151 72.4033ZM52.6 58.9C52.6 54.5043 51.7076 50.8306 49.8384 47.955L48.1616 49.045C49.7591 51.5027 50.6 54.7623 50.6 58.9H52.6ZM49.8384 47.955C47.9339 45.025 45.2622 43.5 41.9 43.5V45.5C44.5378 45.5 46.5994 46.6417 48.1616 49.045L49.8384 47.955ZM41.9 43.5C38.3021 43.5 35.0098 44.8031 32.0492 47.3407L33.3508 48.8593C35.9902 46.5969 38.8313 45.5 41.9 45.5V43.5ZM32.0598 47.3318C29.1218 49.7801 26.7694 53.0474 24.9849 57.0967L26.8151 57.9033C28.4973 54.086 30.6782 51.0865 33.3402 48.8682L32.0598 47.3318ZM24.9792 57.1099C23.2549 61.1793 22.4 65.6471 22.4 70.5H24.4C24.4 65.8862 25.2118 61.6874 26.8208 57.8901L24.9792 57.1099ZM22.4 70.5C22.4 74.8957 23.2924 78.5694 25.1616 81.445L26.8384 80.355C25.2409 77.8972 24.4 74.6377 24.4 70.5H22.4ZM25.168 81.4547C27.0825 84.3265 29.7914 85.8 33.2 85.8V83.8C30.4753 83.8 28.3842 82.6735 26.8321 80.3453L25.168 81.4547ZM69.675 84.1V83.1H68.8728L68.6988 83.8831L69.675 84.1ZM83.175 84.1V85.1H83.9852L84.1533 84.3074L83.175 84.1ZM90.575 49.2L91.5533 49.4074L92.2529 46.1079L89.8679 48.4929L90.575 49.2ZM79.375 55.5L79.0507 54.554L79.0422 54.557L79.375 55.5ZM73.475 56.7L72.4971 56.4911L72.2389 57.7H73.475V56.7ZM75.675 46.4V45.4H74.866L74.6971 46.1911L75.675 46.4ZM80.275 45.2L79.881 44.2808L79.8689 44.2862L80.275 45.2ZM85.775 42.4L86.2848 43.2603L86.294 43.2548L85.775 42.4ZM90.575 39.2L91.175 40L91.1875 39.9906L91.1997 39.9809L90.575 39.2ZM93.075 36.9V35.9H92.5604L92.2613 36.3188L93.075 36.9ZM104.375 36.9L105.353 37.1073L105.609 35.9H104.375V36.9ZM94.375 84.1L93.3967 83.8927L93.1409 85.1H94.375V84.1ZM106.475 84.1L107.453 84.3075L107.709 83.1H106.475V84.1ZM104.375 94V95H105.185L105.353 94.2075L104.375 94ZM67.475 94L66.4988 93.7831L66.2284 95H67.475V94ZM69.675 85.1H83.175V83.1H69.675V85.1ZM84.1533 84.3074L91.5533 49.4074L89.5967 48.9926L82.1967 83.8926L84.1533 84.3074ZM89.8679 48.4929C88.9568 49.404 87.5085 50.4532 85.4729 51.6352L86.4771 53.3648C88.5748 52.1468 90.1932 50.996 91.2821 49.9071L89.8679 48.4929ZM85.4729 51.6352C83.4645 52.8014 81.3242 53.7746 79.0507 54.5541L79.6993 56.4459C82.0925 55.6254 84.3522 54.5986 86.4771 53.3648L85.4729 51.6352ZM79.0422 54.557C76.8393 55.3345 74.9902 55.7 73.475 55.7V57.7C75.2932 57.7 77.3774 57.2655 79.7078 56.443L79.0422 54.557ZM74.4529 56.9089L76.6529 46.6089L74.6971 46.1911L72.4971 56.4911L74.4529 56.9089ZM75.675 47.4C77.1375 47.4 78.8169 46.9424 80.6811 46.1138L79.8689 44.2862C78.1331 45.0576 76.7458 45.4 75.675 45.4V47.4ZM80.6689 46.1191C82.5766 45.3016 84.4486 44.3484 86.2848 43.2603L85.2652 41.5397C83.5014 42.5849 81.7067 43.4984 79.8811 44.2809L80.6689 46.1191ZM86.294 43.2548C88.1805 42.1094 89.809 41.0245 91.175 40L89.975 38.4C88.6743 39.3755 87.1028 40.4239 85.256 41.5452L86.294 43.2548ZM91.1997 39.9809C92.5146 38.9289 93.4614 38.0795 93.8887 37.4812L92.2613 36.3188C92.0219 36.6538 91.3021 37.3377 89.9503 38.4191L91.1997 39.9809ZM93.075 37.9H104.375V35.9H93.075V37.9ZM103.397 36.6927L93.3967 83.8927L95.3533 84.3073L105.353 37.1073L103.397 36.6927ZM94.375 85.1H106.475V83.1H94.375V85.1ZM105.497 83.8925L103.397 93.7925L105.353 94.2075L107.453 84.3075L105.497 83.8925ZM104.375 93H67.475V95H104.375V93ZM68.4512 94.2169L70.6512 84.3169L68.6988 83.8831L66.4988 93.7831L68.4512 94.2169Z" fill="#112D3D"/>
</svg>
