<svg width="16" height="20" viewBox="0 0 16 20" fill="none" xmlns="http://www.w3.org/2000/svg">
<path d="M14.5425 18.9999H1.45752C1.22876 18.9999 1 18.8172 1 18.5419V8.23658C1 8.00757 1.18301 7.77856 1.45752 7.77856H14.5425C14.7712 7.77856 15 7.96177 15 8.23658V18.5419C15 18.7709 14.7712 18.9999 14.5425 18.9999ZM1.91503 18.0839H14.1307V8.69459H1.91503V18.0839Z" fill="#325294" stroke="#325294"/>
<path d="M11.7518 8.46563C11.523 8.46563 11.2943 8.28242 11.2943 8.00761V5.12213C11.2943 3.29007 9.83023 1.82442 8.00017 1.82442C6.1701 1.82442 4.70605 3.29007 4.70605 5.12213V7.96181C4.70605 8.19082 4.52304 8.41983 4.24853 8.41983C4.01977 8.41983 3.79102 8.23662 3.79102 7.96181V5.16793C3.79102 2.87786 5.66683 1 7.95441 1C10.242 1 12.1178 2.87786 12.1178 5.16793V8.05342C12.1636 8.28242 11.9806 8.46563 11.7518 8.46563Z" fill="#325294" stroke="#325294"/>
</svg>
