<svg width="61" height="61" viewBox="0 0 61 61" fill="none" xmlns="http://www.w3.org/2000/svg">
<path d="M30.6036 60.9371C24.7662 60.9585 19.0453 59.3039 14.1205 56.1698C9.19579 53.0356 5.27421 48.5537 2.82168 43.2565C0.369148 37.9592 -0.511257 32.0693 0.285059 26.2864C1.08137 20.5035 3.52094 15.0707 7.31393 10.6335C11.6028 5.66353 17.3731 2.20066 23.7764 0.754034C30.1798 -0.692596 36.8783 -0.0466693 42.8872 2.59685C43.0681 2.66995 43.2324 2.77873 43.3702 2.91672C43.5081 3.0547 43.6168 3.21905 43.6897 3.39995C43.7627 3.58086 43.7984 3.77461 43.7949 3.96963C43.7913 4.16466 43.7485 4.35697 43.6689 4.53508C43.5894 4.71319 43.4748 4.87344 43.3319 5.00628C43.1891 5.13912 43.0209 5.24181 42.8375 5.30823C42.6541 5.37465 42.4592 5.40343 42.2644 5.39286C42.0697 5.38229 41.879 5.33258 41.7039 5.2467C36.2709 2.83281 30.2035 2.23858 24.4054 3.55251C18.6073 4.86644 13.3888 8.01823 9.5272 12.5384C5.66559 17.0586 3.36748 22.7053 2.9752 28.6374C2.58292 34.5696 4.11746 40.4697 7.35023 45.4591C10.5886 50.4513 15.3543 54.2626 20.9363 56.3243C26.5183 58.386 32.6172 58.5876 38.3232 56.899C44.0291 55.2104 49.0361 51.7222 52.5971 46.9547C56.1581 42.1873 58.0821 36.3962 58.0821 30.4457V27.7886C58.0821 27.4035 58.2351 27.0342 58.5074 26.7619C58.7797 26.4896 59.149 26.3366 59.5341 26.3366C59.9192 26.3366 60.2885 26.4896 60.5608 26.7619C60.8331 27.0342 60.9861 27.4035 60.9861 27.7886V30.4457C60.9573 37.016 58.819 43.4034 54.8861 48.6668C50.9533 53.9302 45.4339 57.7912 39.1412 59.6811C36.3706 60.5088 33.4951 60.9318 30.6036 60.9371Z" fill="#325294"/>
<path d="M30.495 37.7491C30.1115 37.7494 29.7436 37.5981 29.4713 37.3281L20.7595 28.6162C20.487 28.3438 20.334 27.9743 20.334 27.589C20.334 27.2037 20.487 26.8341 20.7595 26.5617C21.0319 26.2892 21.4015 26.1362 21.7868 26.1362C22.1721 26.1362 22.5416 26.2892 22.814 26.5617L30.495 34.2426L58.5035 6.20505C58.6384 6.07015 58.7986 5.96314 58.9748 5.89013C59.1511 5.81712 59.34 5.77954 59.5308 5.77954C59.7216 5.77954 59.9105 5.81712 60.0867 5.89013C60.263 5.96314 60.4231 6.07015 60.558 6.20505C60.6929 6.33995 60.8 6.50011 60.873 6.67637C60.946 6.85262 60.9835 7.04154 60.9835 7.23232C60.9835 7.4231 60.946 7.61202 60.873 7.78827C60.8 7.96453 60.6929 8.12469 60.558 8.25959L31.5186 37.299C31.3829 37.4336 31.222 37.5401 31.0451 37.6123C30.8682 37.6846 30.6788 37.7212 30.4877 37.7201L30.495 37.7491Z" fill="#325294"/>
</svg>
