<svg width="23" height="23" viewBox="0 0 23 23" fill="none" xmlns="http://www.w3.org/2000/svg">
<path d="M10.2217 0C4.5878 0 0 4.58777 0 10.2217C0 15.8556 4.58777 20.4434 10.2217 20.4434C12.6943 20.4434 14.9698 19.5656 16.7401 18.0976L21.3618 22.7194C21.736 23.0935 22.3451 23.0935 22.7194 22.7194C23.0935 22.3451 23.0935 21.736 22.7194 21.3618L18.0976 16.74C19.5656 14.9698 20.4434 12.6943 20.4434 10.2217C20.4434 4.58777 15.8556 0 10.2217 0ZM10.2217 1.91659C14.8198 1.91659 18.5268 5.62358 18.5268 10.2217C18.5268 14.8198 14.8198 18.5268 10.2217 18.5268C5.6236 18.5268 1.91657 14.8198 1.91657 10.2217C1.91657 5.62358 5.6236 1.91659 10.2217 1.91659Z" fill="#325294"/>
</svg>
