<svg width="534" height="534" viewBox="0 0 534 534" fill="none" xmlns="http://www.w3.org/2000/svg">
<path d="M160.965 487.258C33.9422 438.297 67.4699 369.654 44.1045 278.828C20.739 188.002 23.3205 153.287 80.2028 89.8511C137.085 26.4149 235.36 2.9334 305.446 77.9629C375.531 152.992 440.388 145.831 480.468 201.571C520.548 257.311 513.066 323.313 440.64 369.883C368.213 416.453 317.654 547.626 160.965 487.258Z" fill="#ECEFF5"/>
<path d="M208.718 88.7935L209.744 87.2663L204.564 83.7526L203.539 85.2798L205.29 86.4653L199.096 95.6074L200.772 96.7394L206.967 87.608L208.718 88.7935Z" fill="#263238"/>
<path d="M215.17 90.9401L208.911 97.7433L208.879 97.7219L212.788 89.3275L210.46 87.7468L203.24 98.4161L204.693 99.3987L209.808 91.8693L209.84 91.88L205.942 100.253L207.534 101.321L213.845 94.4432L213.867 94.4645L208.687 102.111L210.268 103.179L217.498 92.5208L215.17 90.9401Z" fill="#263238"/>
<path d="M218.715 93.3433L211.484 104.002L215.917 107.014L216.953 105.486L214.197 103.617L220.391 94.486L218.715 93.3433Z" fill="#263238"/>
<path d="M413.197 130.189C412.311 128.331 410.826 127.733 409.032 128.587C407.238 129.442 406.768 130.98 407.654 132.859L410.538 138.904C411.424 140.762 412.909 141.36 414.703 140.506C416.497 139.652 416.967 138.114 416.081 136.234L413.197 130.189ZM413.913 138.819C413.336 139.096 412.845 138.957 412.418 138.124L409.427 131.855C409.032 131.022 409.246 130.531 409.822 130.253C410.399 129.976 410.89 130.114 411.318 130.947L414.308 137.227C414.703 138.05 414.49 138.541 413.913 138.84V138.819Z" fill="#263238"/>
<path d="M418.954 126.056L418.163 124.401L412.514 127.092L413.304 128.758L415.216 127.84L419.968 137.804L421.795 136.939L417.042 126.975L418.954 126.056Z" fill="#263238"/>
<path d="M425.609 127.188L423.248 128.31L421.572 124.806L424.583 123.375L423.793 121.72L418.955 124.027L424.498 135.647L426.335 134.771L424.039 129.976L426.399 128.854L425.609 127.188Z" fill="#263238"/>
<path d="M431.688 113.971C425.75 108.785 422.151 110.768 421.296 111.069C421.198 111.106 421.1 111.142 420.998 111.18C417.423 110.553 413.463 100.935 413.463 100.935C405.079 87.7749 396.918 94.7926 396.918 94.7926C396.804 94.8567 396.692 94.9217 396.584 94.9865C396.479 95.0587 396.373 95.1315 396.266 95.2076C396.266 95.2076 386.455 99.638 394.84 112.8C394.84 112.8 401.882 120.452 400.94 123.958C400.865 124.033 400.787 124.106 400.715 124.181C400.079 124.829 396.76 127.254 398.953 134.826C399.253 135.855 399.94 136.738 400.844 137.246C404.209 139.144 412.84 134.89 419.36 130.733C425.879 126.583 433.385 120.557 433.088 116.707C433.004 115.675 432.494 114.678 431.688 113.971ZM416.797 113.246C416.922 113.508 416.962 113.81 416.928 114.14C416.772 115.691 415.432 118.632 412.738 120.348C410.044 122.065 406.809 122.034 405.341 121.522C405.028 121.412 404.771 121.249 404.589 121.023C404.62 120.984 404.694 120.892 404.783 120.76C404.819 120.706 404.854 120.64 404.895 120.577C405.225 120.007 405.608 119.01 405.01 118.071C406.275 118.339 407.524 118.393 408.678 118.167C409.455 118.016 410.189 117.738 410.854 117.314C411.519 116.89 412.082 116.342 412.546 115.703C413.232 114.759 413.709 113.615 413.999 112.373C414.006 112.372 414.014 112.37 414.021 112.368C414.812 113.568 416.374 113.318 416.786 113.226C416.791 113.234 416.796 113.242 416.797 113.246ZM412.502 103.37C412.812 104.131 412.901 104.866 412.772 105.288C412.718 105.456 412.63 105.573 412.506 105.626C412.44 105.655 412.36 105.663 412.278 105.648C412.884 107.993 412.911 110.698 412.132 112.831C411.675 114.077 410.946 115.128 409.894 115.798C408.835 116.473 407.564 116.69 406.234 116.569C403.979 116.371 401.548 115.204 399.686 113.666C399.665 113.748 399.628 113.815 399.57 113.866C399.456 113.97 399.276 113.996 399.063 113.948C398.63 113.854 398.047 113.476 397.525 112.91C396.838 112.167 396.485 111.349 396.649 110.946C396.671 110.889 396.703 110.843 396.745 110.804C396.841 110.717 396.979 110.686 397.145 110.705C397.145 110.705 397.14 110.695 397.131 110.678C396.935 110.289 394.819 105.882 398.093 104.195L410.625 102.994L410.923 101.777C410.953 101.765 410.986 101.755 411.017 101.75C411.452 101.691 412.094 102.38 412.502 103.37Z" fill="white" stroke="#263238"/>
<path d="M421.901 80.0487L450.904 125.575L401.363 157.136L364.211 98.8184L400.97 75.4004L415.047 78.5213L421.901 80.0487Z" stroke="#263238" stroke-linecap="round" stroke-linejoin="round"/>
<path d="M421.9 80.0487L409.118 88.1917L400.969 75.4004L415.046 78.5213L421.9 80.0487Z" stroke="#263238" stroke-linecap="round" stroke-linejoin="round"/>
<path d="M485.139 132.432L454.968 389.297C454.882 390.03 454.652 390.738 454.292 391.382C453.932 392.026 453.448 392.593 452.869 393.051C452.29 393.508 451.626 393.846 450.916 394.047C450.206 394.248 449.464 394.307 448.731 394.22L252.539 371.194L284.013 103.126L480.205 126.163C480.942 126.248 481.654 126.477 482.302 126.839C482.95 127.2 483.519 127.687 483.978 128.269C484.437 128.852 484.775 129.52 484.975 130.235C485.174 130.949 485.23 131.696 485.139 132.432V132.432Z" fill="#325294"/>
<path d="M485.139 132.432L454.968 389.297C454.882 390.03 454.652 390.738 454.292 391.382C453.932 392.026 453.448 392.593 452.869 393.051C452.29 393.508 451.626 393.846 450.916 394.047C450.206 394.248 449.464 394.307 448.731 394.22L252.539 371.194L284.013 103.126L480.205 126.163C480.942 126.248 481.654 126.477 482.302 126.839C482.95 127.2 483.519 127.687 483.978 128.269C484.437 128.852 484.775 129.52 484.975 130.235C485.174 130.949 485.23 131.696 485.139 132.432V132.432Z" stroke="#263238" stroke-miterlimit="10"/>
<path opacity="0.1" d="M374.366 346.032C374.415 348.456 373.504 350.802 371.832 352.558C370.159 354.315 367.861 355.339 365.437 355.409L254.023 358.613L284.024 103.105L369.677 113.165L374.366 346.032Z" fill="black" fill-opacity="0.7"/>
<path opacity="0.2" d="M122.969 306.42C122.969 306.42 129.484 296.124 138.274 291.382C138.274 291.382 163.308 309.837 172.247 349.054C172.247 349.054 179.552 366.869 180.374 380.026C181.197 393.184 164.984 421.283 160.488 432.807C155.992 444.331 140.901 435.392 117.17 473.573L135.048 411.009L125.351 355.057L122.969 306.42Z" fill="#2A4B8E" fill-opacity="0.49"/>
<path opacity="0.4" d="M146.315 425.651C144.037 427.269 142.174 429.403 140.879 431.878C138.743 435.552 133.04 452.8 127.593 470.112C126.016 463.209 126.108 456.03 127.86 449.169C132.036 432.081 138.839 429.592 146.315 425.651Z" fill="#2A4B8E"/>
<path opacity="0.4" d="M123.621 387.481C123.621 387.481 123.707 387.129 123.845 386.477C128.096 393.462 123.621 387.481 123.621 387.481Z" fill="#2A4B8E"/>
<path d="M124.357 480.354C130.572 460.233 138.241 436.278 140.814 431.878C145.417 424.06 148.472 425.534 153.908 420.557C159.344 415.58 164.588 388.773 161.138 377.666C157.689 366.559 153.833 361.208 151.922 357.086C150.01 352.963 150.394 341.301 144.99 324.896C139.586 308.492 136.671 293.999 124.912 298.196C120.106 299.926 117.842 302.746 117.436 314.9C117.03 327.054 116.678 339.741 118.974 343.576C121.27 347.41 123.182 350.849 123.182 350.849C123.182 350.849 99.0663 337.21 92.1349 293.7C92.1349 293.7 82.2346 303.707 82.2346 316.448C82.2346 336.879 79.6821 360.375 79.9384 375.039C80.0986 382.985 82.2346 405.626 82.2346 406.908C82.2346 407.282 75.6771 417.673 74.9081 427.862C74.5984 431.995 66.7165 447.759 58.1191 463.886" stroke="#263238" stroke-linecap="round" stroke-linejoin="round"/>
<path d="M123.203 350.87C124.741 354.694 124.271 361.155 124.912 370.948C125.553 380.742 127.796 384.234 127.796 384.234" stroke="#263238" stroke-linecap="round" stroke-linejoin="round"/>
<path d="M125.499 376.502C124.47 381.442 123.703 386.433 123.203 391.454" stroke="#263238" stroke-linecap="round" stroke-linejoin="round"/>
<path d="M96.0234 361.785C96.0234 361.785 99.0566 386.477 99.0672 394.893" stroke="#263238" stroke-linecap="round" stroke-linejoin="round"/>
<path d="M143.742 427.83C135.081 433.17 130.478 435.103 127.797 445.441" stroke="#263238" stroke-linecap="round" stroke-linejoin="round"/>
<path d="M82.2344 406.908C85.2995 399.913 86.6345 384.266 86.6345 384.266" stroke="#263238" stroke-linecap="round" stroke-linejoin="round"/>
<path d="M92.5328 227.915C92.3866 221.163 89.0796 220.043 88.4014 219.681C87.0655 218.964 85.3002 218.645 84.4585 218.112C84.11 218.986 80.6862 221.254 78.4583 222.657L78.4831 219.579C79.1334 219.401 79.4538 218.704 79.6173 218.094L76.787 217.335C76.6251 217.94 76.5537 218.692 77.0129 219.173L75.5054 221.864C74.2819 219.539 72.451 215.863 72.5843 214.93C71.5866 214.967 69.897 214.362 68.3832 214.314C67.6128 214.288 64.1877 213.606 60.689 219.381C60.2148 220.166 60.0528 221.115 60.252 221.982C60.9867 225.201 68.603 228.174 74.945 229.871C81.2823 231.573 89.3631 232.805 91.6123 230.385C92.2132 229.735 92.5513 228.833 92.5328 227.915Z" fill="#ECEFF5" stroke="#263238"/>
<path d="M73.2851 207.541L73.2811 207.498L73.2416 207.481M73.2851 207.541L73.9507 207.541C73.8598 207.5 73.7787 207.415 73.7103 207.296C73.521 206.969 73.4244 206.383 73.4813 205.725M73.2851 207.541L73.7103 207.296L73.2852 207.542M73.2851 207.541L73.2852 207.542M73.2416 207.481C73.0074 207.028 72.9252 206.358 72.9829 205.685M73.2416 207.481L73.0058 207.382C73.0054 207.381 72.9945 207.376 72.9748 207.358C72.9536 207.337 72.9256 207.304 72.8938 207.254C72.8291 207.151 72.7632 206.997 72.7084 206.791C72.5992 206.38 72.5513 205.823 72.603 205.204M73.2416 207.481C73.2531 207.503 73.2649 207.525 73.277 207.546C73.2771 207.546 73.2772 207.546 73.2773 207.546L73.2852 207.542M72.9829 205.685C72.9828 205.687 72.9826 205.689 72.9825 205.69L73.4813 205.725M72.9829 205.685C72.983 205.684 72.9831 205.683 72.9832 205.682L73.4813 205.725M72.9829 205.685C72.9869 205.632 72.9962 205.571 73.0006 205.542C73.0015 205.536 73.0022 205.531 73.0026 205.528L73.0068 205.498L73.0146 205.469C73.1344 205.017 73.271 204.585 73.4166 204.164L73.4376 204.103L73.473 204.05C73.5926 203.87 73.7715 203.664 74.0239 203.565L74.0271 203.564L74.0271 203.564C74.1449 203.519 74.2657 203.502 74.3866 203.511L74.3917 203.512L74.3917 203.512C74.3981 203.512 74.4044 203.513 74.4106 203.514M73.4813 205.725C73.4835 205.694 73.488 205.664 73.4926 205.633C73.4944 205.621 73.4962 205.609 73.4979 205.597C73.6138 205.16 73.7465 204.74 73.8892 204.327C73.9751 204.198 74.0684 204.101 74.1648 204.05C74.1729 204.024 74.1811 204.004 74.1844 203.996C74.1856 203.993 74.1868 203.99 74.188 203.987C74.188 203.986 74.1881 203.986 74.1882 203.986C74.2186 203.909 74.2824 203.759 74.3824 203.567C74.3842 203.564 74.386 203.56 74.3878 203.557C74.3952 203.543 74.4028 203.528 74.4106 203.514M74.4106 203.514C74.6159 203.13 74.9561 202.602 75.4504 202.146C75.8524 201.775 76.3684 201.44 77.0067 201.282C77.65 201.122 78.385 201.148 79.2051 201.451L79.2665 201.474L79.3194 201.511L79.3196 201.512L79.3197 201.512L79.3198 201.512L79.3199 201.512L79.323 201.514L79.3395 201.525C79.3548 201.536 79.3788 201.552 79.4109 201.572C79.4751 201.614 79.5715 201.674 79.6962 201.747C79.9458 201.893 80.3064 202.086 80.745 202.272C81.6291 202.648 82.7956 202.983 83.9982 202.885L84.0798 202.878L84.1592 202.898C84.4209 202.963 84.6836 203.031 84.9276 203.105L84.9286 203.105C85.5034 203.282 85.9424 203.574 86.3101 203.877C86.352 203.911 86.393 203.946 86.4334 203.981M74.4106 203.514C74.5984 203.534 74.7499 203.616 74.8686 203.718C75.3629 202.81 76.6752 201.049 79.0317 201.92C79.0317 201.92 81.4097 203.598 84.0388 203.383C84.2987 203.448 84.5509 203.513 84.7816 203.583C85.4908 203.801 85.9708 204.225 86.4176 204.641C86.4068 204.565 86.3931 204.468 86.3878 204.375C86.3823 204.28 86.3816 204.14 86.4282 203.997L86.4334 203.981M87.0041 210.912C86.9085 210.956 86.8184 210.976 86.7381 210.968L87.0041 210.912ZM87.0041 210.912C87.3422 210.748 87.7521 210.268 88.0532 209.63C88.409 208.866 88.4915 208.125 88.2843 207.823L87.0041 210.912ZM86.2015 211.239C85.095 212.796 83.5625 214.179 81.9406 214.869C80.8829 215.32 79.7878 215.475 78.7514 215.198C77.7364 214.926 76.8839 214.266 76.201 213.378L86.2015 211.239ZM86.2015 211.239C86.2647 211.301 86.3396 211.354 86.4271 211.394L86.2015 211.239ZM86.4334 203.981L86.622 203.402L87.1594 203.722C87.3102 203.812 87.4304 203.914 87.5312 204.012L87.5874 204.066L87.6244 204.135C88.0023 204.839 88.252 205.833 88.2906 207.226C88.3103 207.233 88.3299 207.24 88.3496 207.249L88.3732 207.259L88.3957 207.272L88.3988 207.274C88.4191 207.285 88.4719 207.315 88.5224 207.353L88.5341 207.361L88.5453 207.371C88.7275 207.526 88.815 207.736 88.8565 207.919C88.899 208.106 88.9043 208.31 88.8869 208.512C88.852 208.916 88.7199 209.383 88.5065 209.841L88.5054 209.844C88.3388 210.196 88.1394 210.512 87.9277 210.768C87.7585 210.972 87.5659 211.157 87.3594 211.286L87.5601 211.281C87.623 211.279 87.8343 211.203 88.1467 210.876C88.4349 210.574 88.7374 210.132 88.9885 209.595L88.9891 209.594C89.2636 209.011 89.4117 208.457 89.4438 208.032C89.4599 207.819 89.4452 207.658 89.4164 207.55C89.3929 207.462 89.3674 207.434 89.364 207.43L89.0659 207.218L89.1805 206.869C89.2833 206.555 89.3809 206.244 89.4661 205.926C90.0715 203.639 89.8705 201.704 89.048 200.179C88.225 198.654 86.746 197.476 84.677 196.77L86.4334 203.981ZM72.603 205.204L73.2852 207.542M72.603 205.204C72.6606 204.53 72.8229 203.953 73.0199 203.567C73.119 203.373 73.215 203.25 73.2896 203.185C73.3232 203.156 73.3448 203.144 73.3553 203.14M72.603 205.204L84.6768 196.77C81.0503 195.534 77.9734 196.278 76.1383 198.281M72.603 205.204C72.603 205.204 72.603 205.205 72.603 205.205L72.1051 205.162L72.603 205.204C72.603 205.204 72.603 205.204 72.603 205.204ZM73.3553 203.14L73.679 203.189L73.8515 202.901C73.8823 202.85 73.8972 202.804 73.9012 202.791L73.9013 202.791C73.9066 202.775 73.9106 202.759 73.9108 202.758L73.9108 202.758L74.0301 202.313M73.3553 203.14L73.3474 203.138C73.3365 203.137 73.3273 203.135 73.3241 203.134L73.3238 203.134L73.321 203.134C73.3209 203.134 73.3226 203.134 73.3242 203.135C73.3278 203.135 73.3362 203.136 73.3474 203.138C73.3474 203.138 73.3474 203.138 73.3475 203.138C73.3478 203.138 73.3481 203.138 73.3484 203.138C73.3502 203.138 73.3521 203.138 73.3542 203.138C73.3566 203.138 73.3585 203.138 73.3599 203.138M73.3553 203.14C73.356 203.139 73.3566 203.139 73.3572 203.139L73.372 203.14L73.3968 203.14C73.3817 203.14 73.3686 203.139 73.3579 203.139C73.3587 203.138 73.3593 203.138 73.3599 203.138M74.0301 202.313C74.1793 201.872 74.3688 201.452 74.5894 201.05L74.6083 201.016L74.6216 200.979C75.0156 199.885 75.5254 198.95 76.1383 198.281M74.0301 202.313C73.9811 202.458 73.9364 202.605 73.8964 202.754L73.4279 202.629L73.5587 202.146L74.0403 202.275L74.0301 202.313ZM76.1383 198.281C76.1383 198.281 76.1383 198.281 76.1383 198.281L75.7696 197.943L76.1383 198.281ZM73.3599 203.138C73.3618 203.138 73.3628 203.137 73.3628 203.137C73.3628 203.137 73.3618 203.137 73.3599 203.138ZM73.3091 207.795L73.2873 207.563C73.3869 207.731 73.5455 207.918 73.7757 208.011C73.9518 210.035 74.6317 212.158 75.8047 213.683C76.5358 214.633 77.4745 215.373 78.622 215.681C79.7932 215.995 81.0049 215.811 82.1363 215.329C83.886 214.585 85.506 213.103 86.6563 211.462C86.8646 211.491 87.0622 211.436 87.214 211.366L87.2141 211.366L87.2218 211.362C87.2398 211.353 87.2578 211.344 87.2758 211.334L87.1643 211.491C86.0652 213.042 84.6171 214.436 83.0631 215.333L83.0625 215.333C82.1413 215.867 81.1957 216.215 80.2738 216.319L80.2711 216.319C79.6561 216.392 79.0574 216.357 78.4745 216.201C77.8946 216.046 77.3563 215.776 76.8646 215.407L76.8634 215.406C76.1434 214.869 75.5156 214.128 74.991 213.246C74.0649 211.684 73.4906 209.72 73.3091 207.795ZM87.7945 207.724L87.7935 207.728L87.794 207.723L87.7945 207.724ZM87.7956 207.697C87.7956 207.702 87.7956 207.707 87.7955 207.712L87.7906 207.23C87.7948 207.379 87.7965 207.533 87.7956 207.692C87.7956 207.694 87.7956 207.695 87.7956 207.697Z" fill="#ECEFF5" stroke="#263238"/>
<path d="M108.918 202.666L96.5418 248.855L46.279 235.388L62.1328 176.22L99.4273 186.213L105.814 197.276L108.918 202.666Z" stroke="#263238" stroke-linecap="round" stroke-linejoin="round"/>
<path d="M108.919 202.666L95.9504 199.191L99.4277 186.213L105.814 197.275L108.919 202.666Z" stroke="#263238" stroke-linecap="round" stroke-linejoin="round"/>
<path d="M89.7653 366.698L139.684 351.126V80.7836L89.7653 65.2122C86.7856 64.283 84.3398 65.9811 84.3398 69.0036V362.906C84.3719 365.929 86.7856 367.627 89.7653 366.698Z" fill="#2A4B8E" stroke="#263238" stroke-miterlimit="10"/>
<path opacity="0.3" d="M139.693 80.7943V351.126L95.7985 364.807C95.099 365.033 94.3559 365.091 93.63 364.974C92.9041 364.858 92.2161 364.571 91.6223 364.138C91.0285 363.704 90.5457 363.136 90.2135 362.481C89.8813 361.825 89.7091 361.1 89.711 360.365V71.5561C89.7112 70.8258 89.8832 70.1059 90.2131 69.4545C90.5429 68.803 91.0214 68.2382 91.6097 67.8058C92.1981 67.3733 92.88 67.0853 93.6002 66.965C94.3204 66.8447 95.0588 66.8954 95.7558 67.1132L139.693 80.7943Z" fill="black" fill-opacity="0.7"/>
<path d="M211.018 86.0305C213.581 80.3421 211.269 78.0927 210.848 77.5212C210.019 76.3924 208.674 75.4236 208.184 74.6443C207.546 75.2349 203.789 75.7645 201.373 76.048L202.618 73.4918C203.231 73.6015 203.775 73.1479 204.154 72.7041L202.096 70.946C201.72 71.3856 201.362 71.9847 201.553 72.5685L199.226 74.2123C199.13 71.7873 199.066 67.9934 199.548 67.2691C198.702 66.9024 197.533 65.7266 196.29 65.0843C195.658 64.756 193.073 62.8251 187.859 66.249C187.151 66.7147 186.639 67.4418 186.46 68.2439C185.792 71.2207 190.961 76.7291 195.574 80.6665C200.181 84.6063 206.43 88.8469 209.268 87.7236C210.027 87.4209 210.668 86.8032 211.018 86.0305Z" fill="#ECEFF5" stroke="#263238"/>
<path d="M203.021 61.2188C203.034 60.7563 203.229 60.2027 203.525 59.6993C203.55 59.6547 203.584 59.6054 203.598 59.584C203.601 59.5797 203.603 59.5766 203.604 59.5748L203.621 59.5493L203.641 59.526C203.921 59.1962 204.208 58.8895 204.497 58.5956L204.542 58.5501L204.597 58.5173C204.771 58.4135 205.01 58.3079 205.271 58.3271L205.275 58.3274L205.275 58.3274C205.396 58.3371 205.508 58.3724 205.609 58.4303C205.936 58.1926 206.425 57.8939 207.011 57.7124C207.499 57.5616 208.068 57.4868 208.672 57.6098C209.28 57.7339 209.889 58.0524 210.457 58.6366L210.503 58.6834L210.534 58.7399L210.534 58.7401L210.534 58.7402L210.534 58.7402L210.535 58.7405L210.536 58.7432L210.545 58.7588C210.554 58.7734 210.567 58.796 210.586 58.8259C210.622 58.8856 210.678 58.9739 210.753 59.0836C210.903 59.3032 211.125 59.6061 211.416 59.9347C212.001 60.5974 212.836 61.3356 213.87 61.729L213.946 61.7581L214.01 61.8102C214.202 61.9684 214.395 62.13 214.569 62.2899L214.57 62.2906C214.984 62.6711 215.237 63.0934 215.424 63.4954C215.437 63.5235 215.45 63.5517 215.463 63.5798L215.844 63.179L216.191 63.6991C216.283 63.8372 216.344 63.9733 216.39 64.0963L216.417 64.1695L216.421 64.2475C216.456 64.9875 216.269 65.9148 215.754 67.0835C215.762 67.0919 215.77 67.1005 215.778 67.1094L215.795 67.1288L215.809 67.1499L215.811 67.1526C215.824 67.1702 215.857 67.2178 215.886 67.272L215.892 67.285L215.898 67.2984C215.993 67.5102 215.981 67.7294 215.942 67.9031C215.902 68.0811 215.824 68.2569 215.728 68.4205C215.535 68.7486 215.236 69.0882 214.873 69.3877L214.871 69.3893C214.59 69.619 214.295 69.8046 214.014 69.9351C213.831 70.0198 213.639 70.088 213.451 70.1245L213.503 70.1476C213.541 70.1649 213.735 70.1906 214.124 70.0428C214.479 69.9074 214.904 69.6609 215.324 69.3154L215.326 69.3145C215.783 68.9403 216.124 68.5406 216.317 68.2039C216.414 68.0349 216.463 67.8991 216.481 67.8029C216.493 67.741 216.489 67.7115 216.487 67.7035L216.311 67.3879L216.566 67.1214C216.776 66.9011 216.98 66.6813 217.177 66.4507C218.587 64.79 219.184 63.1057 219.105 61.5189C219.026 59.931 218.267 58.3697 216.828 56.9631L203.021 61.2188ZM203.021 61.2188L202.931 61.1182C202.931 61.1181 202.908 61.086 202.897 60.9869C202.885 60.8801 202.89 60.7298 202.926 60.5389C202.997 60.1579 203.177 59.6784 203.465 59.1857C203.779 58.6496 204.141 58.2368 204.454 57.9971C204.611 57.8764 204.736 57.8156 204.818 57.7927C204.842 57.7858 204.859 57.7833 204.869 57.7825L205.13 57.9599L205.41 57.7745C205.46 57.7415 205.493 57.7065 205.502 57.697L205.502 57.6967C205.509 57.6895 205.514 57.6833 205.518 57.6795L205.524 57.6719L205.8 57.3491C206.098 57.043 206.421 56.7694 206.763 56.5237L206.795 56.5008L206.822 56.4732C207.584 55.72 208.377 55.1463 209.148 54.8347L203.021 61.2188ZM213.298 70.604C211.717 71.4864 209.891 72.0971 208.162 72.2332L213.298 70.604ZM213.298 70.604C213.757 70.8094 214.733 70.449 215.642 69.7016M213.298 70.604L215.642 69.7016M215.642 69.7016C216.63 68.8939 217.182 67.9233 216.927 67.4665L215.642 69.7016ZM203.026 61.621L203.049 61.5586C203.079 61.7009 203.139 61.8533 203.25 61.9813C202.595 63.7398 202.32 65.778 202.692 67.5176C202.925 68.6072 203.417 69.6058 204.259 70.3253C205.119 71.0597 206.211 71.3906 207.353 71.4391C209.109 71.5143 211.048 70.9252 212.66 70.0184C212.798 70.1036 212.95 70.1394 213.086 70.15L213.055 70.1674C211.526 71.0207 209.769 71.6052 208.123 71.7347L208.122 71.7348C207.145 71.813 206.224 71.7272 205.42 71.4496L205.417 71.4487C204.88 71.2663 204.399 71.0012 203.979 70.6425C203.561 70.2857 203.222 69.8506 202.961 69.3514L202.96 69.3501C202.577 68.6215 202.349 67.7587 202.263 66.8182C202.112 65.1543 202.413 63.294 203.026 61.621ZM215.095 67.3126L215.095 67.3125C215.096 67.3113 215.096 67.3101 215.097 67.3088L215.097 67.3098L215.095 67.3126ZM204.881 57.7826C204.881 57.7826 204.88 57.7826 204.878 57.7822C204.88 57.7823 204.881 57.7825 204.881 57.7826ZM209.148 54.8346C211.457 53.9016 214.303 54.4978 216.828 56.9629L209.148 54.8346Z" fill="#ECEFF5" stroke="#263238"/>
<path d="M234.723 71.4932L206.032 105.086L169.476 73.8649L206.229 30.8335L233.352 53.9993L234.278 65.7637L234.723 71.4932Z" stroke="#263238" stroke-linecap="round" stroke-linejoin="round"/>
<path d="M234.722 71.4931L225.29 63.4378L233.352 53.9993L234.277 65.7637L234.722 71.4931Z" stroke="#263238" stroke-linecap="round" stroke-linejoin="round"/>
<path d="M342.283 86.4119V345.092C342.28 346.584 341.686 348.014 340.631 349.069C339.576 350.124 338.146 350.718 336.654 350.721H139.074V80.7942H336.654C337.393 80.7928 338.125 80.9371 338.807 81.2188C339.49 81.5004 340.111 81.914 340.633 82.4358C341.156 82.9576 341.571 83.5774 341.854 84.2596C342.137 84.9419 342.283 85.6733 342.283 86.4119Z" fill="#2A4B8E"/>
<path opacity="0.3" d="M340.349 188.075V349.343C339.328 350.24 338.014 350.734 336.654 350.731H139.074V82.6632H329.039C329.657 82.6618 330.27 82.7823 330.841 83.0179C331.412 83.2534 331.932 83.5993 332.369 84.0358C332.807 84.4723 333.154 84.9908 333.391 85.5616C333.627 86.1325 333.749 86.7444 333.749 87.3624V183.13L335.64 183.215C336.901 183.26 338.095 183.79 338.973 184.696C339.852 185.602 340.345 186.813 340.349 188.075Z" fill="black" fill-opacity="0.7"/>
<path d="M342.283 86.4119V345.092C342.28 346.584 341.686 348.014 340.631 349.069C339.576 350.124 338.146 350.718 336.654 350.721H139.074V80.7942H336.654C337.393 80.7928 338.125 80.9371 338.807 81.2188C339.49 81.5004 340.111 81.914 340.633 82.4358C341.156 82.9576 341.571 83.5774 341.854 84.2596C342.137 84.9419 342.283 85.6733 342.283 86.4119Z" stroke="#263238" stroke-miterlimit="10"/>
<path d="M337.486 259.321V328.004C337.486 329.188 337.051 330.331 336.263 331.215C335.476 332.1 334.391 332.663 333.214 332.8L330.929 333.056L310.979 335.192V252.048L333.214 254.515C334.391 254.654 335.477 255.22 336.264 256.106C337.052 256.992 337.487 258.136 337.486 259.321V259.321Z" fill="#999999"/>
<path opacity="0.2" d="M337.486 259.321V262.6L330.929 263.796V333.024L310.979 335.16V252.048L333.214 254.515C334.391 254.654 335.477 255.22 336.264 256.106C337.052 256.992 337.487 258.136 337.486 259.321V259.321Z" fill="black" fill-opacity="0.7"/>
<path d="M337.486 259.321V328.004C337.486 329.188 337.051 330.331 336.263 331.215C335.476 332.1 334.391 332.663 333.214 332.8L330.929 333.056L310.979 335.192V252.048L333.214 254.515C334.391 254.654 335.477 255.22 336.264 256.106C337.052 256.992 337.487 258.136 337.486 259.321V259.321Z" stroke="#263238" stroke-linecap="round" stroke-linejoin="round"/>
<path d="M337.488 181.891V250.574C337.488 251.758 337.053 252.901 336.265 253.785C335.477 254.669 334.392 255.233 333.216 255.37L328.698 255.861V341.536C328.701 342.799 328.256 344.021 327.443 344.987C326.63 345.953 325.5 346.6 324.255 346.812C323.949 346.872 323.638 346.9 323.326 346.897L139.182 346.748V85.4401L323.326 85.5896C323.638 85.5898 323.95 85.622 324.255 85.6857C325.498 85.8975 326.626 86.5424 327.439 87.506C328.253 88.4697 328.699 89.69 328.698 90.9509V176.626L333.216 177.128C334.388 177.261 335.47 177.82 336.257 178.698C337.044 179.576 337.482 180.712 337.488 181.891V181.891Z" fill="white"/>
<path d="M337.488 181.891V250.574C337.488 251.758 337.053 252.901 336.265 253.785C335.478 254.67 334.393 255.233 333.216 255.37L328.699 255.861V341.536C328.702 342.799 328.257 344.021 327.443 344.987C326.63 345.953 325.501 346.6 324.256 346.812V85.6537C325.499 85.8655 326.627 86.5104 327.44 87.474C328.253 88.4377 328.699 89.658 328.699 90.9189V176.594L333.216 177.096C334.394 177.23 335.48 177.793 336.268 178.678C337.056 179.562 337.491 180.706 337.488 181.891V181.891Z" fill="#BFBFBF"/>
<path d="M220.488 121.239V173.315H163.82V106.619H205.857L215.693 116.444L220.488 121.239Z" fill="#2A4B8E" stroke="#263238" stroke-linecap="round" stroke-linejoin="round"/>
<path opacity="0.5" d="M215.694 116.444V145.163H168.605V111.083H210.332L215.694 116.444Z" fill="white"/>
<path d="M215.694 116.444V145.163H168.605V111.083H210.332L215.694 116.444Z" stroke="#263238" stroke-linecap="round" stroke-linejoin="round"/>
<path d="M182.928 162.421C183.141 162.421 183.408 162.421 183.622 162.421C184.273 162.421 184.786 162.187 184.786 161.183V151.368H186.805V161.044C186.805 163.618 185.427 164.248 183.9 164.248C183.576 164.27 183.251 164.27 182.928 164.248V162.421Z" fill="#263238"/>
<path d="M194.184 154.572V156.238C194.184 158.299 193.191 159.442 191.161 159.442H190.211V164.28H188.182V151.389H191.172C193.191 151.389 194.184 152.51 194.184 154.572ZM190.211 153.226V157.583H191.172C191.824 157.583 192.165 157.295 192.165 156.366V154.444C192.165 153.514 191.824 153.226 191.172 153.226H190.211Z" fill="#263238"/>
<path d="M198.157 157.092H200.987V161.172C200.987 163.233 199.919 164.376 197.976 164.376C196.032 164.376 194.953 163.201 194.953 161.172V154.476C194.953 152.414 196.021 151.272 197.976 151.272C199.93 151.272 200.987 152.446 200.987 154.476V155.725H199.076V154.347C199.076 153.429 198.67 153.077 198.008 153.077C197.345 153.077 196.94 153.429 196.94 154.347V161.268C196.94 162.187 197.345 162.518 198.008 162.518C198.67 162.518 199.076 162.187 199.076 161.268V158.897H198.157V157.092Z" fill="#263238"/>
<path d="M220.489 121.239H205.857V106.619L215.694 116.444L220.489 121.239Z" fill="#2A4B8E" stroke="#263238" stroke-linecap="round" stroke-linejoin="round"/>
<path d="M215.694 130.745V145.163H168.605V138.093L181.496 128.128L193.49 138.242L209.061 124.967L215.694 130.745Z" fill="#2A4B8E" stroke="#263238" stroke-linecap="round" stroke-linejoin="round"/>
<path d="M185.073 124.967C187.751 124.967 189.922 122.796 189.922 120.118C189.922 117.44 187.751 115.269 185.073 115.269C182.395 115.269 180.225 117.44 180.225 120.118C180.225 122.796 182.395 124.967 185.073 124.967Z" fill="#2A4B8E" stroke="#263238" stroke-linecap="round" stroke-linejoin="round"/>
<path d="M299.211 121.239V173.315H242.543V106.619H284.59L294.426 116.444L299.211 121.239Z" fill="#2A4B8E" stroke="#263238" stroke-linecap="round" stroke-linejoin="round"/>
<path opacity="0.5" d="M294.427 116.444V145.163H247.328V111.083H289.055L294.427 116.444Z" fill="white"/>
<path d="M294.427 116.444V145.163H247.328V111.083H289.055L294.427 116.444Z" stroke="#263238" stroke-linecap="round" stroke-linejoin="round"/>
<path d="M254.697 136.202H287.047" stroke="#263238" stroke-linecap="round" stroke-linejoin="round"/>
<path d="M254.076 121.239C254.076 121.239 254.076 136.266 270.876 136.266C287.675 136.266 287.675 121.239 287.675 121.239" stroke="#263238" stroke-linecap="round" stroke-linejoin="round"/>
<path d="M255.486 121.239C255.455 121.593 255.293 121.923 255.031 122.163C254.769 122.404 254.426 122.537 254.071 122.537C253.715 122.537 253.373 122.404 253.111 122.163C252.849 121.923 252.687 121.593 252.656 121.239C252.639 121.043 252.663 120.846 252.726 120.659C252.789 120.473 252.891 120.302 253.024 120.156C253.157 120.011 253.319 119.895 253.499 119.816C253.679 119.737 253.874 119.696 254.071 119.696C254.268 119.696 254.462 119.737 254.643 119.816C254.823 119.895 254.985 120.011 255.118 120.156C255.251 120.302 255.352 120.473 255.416 120.659C255.479 120.846 255.503 121.043 255.486 121.239V121.239Z" fill="#2A4B8E" stroke="#263238" stroke-linecap="round" stroke-linejoin="round"/>
<path d="M289.086 121.239C289.055 121.593 288.892 121.923 288.63 122.163C288.368 122.404 288.026 122.537 287.67 122.537C287.315 122.537 286.973 122.404 286.711 122.163C286.449 121.923 286.286 121.593 286.255 121.239C286.238 121.043 286.262 120.846 286.326 120.659C286.389 120.473 286.49 120.302 286.623 120.156C286.757 120.011 286.918 119.895 287.099 119.816C287.279 119.737 287.474 119.696 287.67 119.696C287.867 119.696 288.062 119.737 288.242 119.816C288.423 119.895 288.584 120.011 288.717 120.156C288.851 120.302 288.952 120.473 289.015 120.659C289.079 120.846 289.103 121.043 289.086 121.239V121.239Z" fill="#2A4B8E" stroke="#263238" stroke-linecap="round" stroke-linejoin="round"/>
<path d="M255.317 135.027H252.828V137.516H255.317V135.027Z" fill="#2A4B8E" stroke="#263238" stroke-linecap="round" stroke-linejoin="round"/>
<path d="M272.115 135.027H269.627V137.516H272.115V135.027Z" fill="#2A4B8E" stroke="#263238" stroke-linecap="round" stroke-linejoin="round"/>
<path d="M288.914 135.027H286.426V137.516H288.914V135.027Z" fill="#2A4B8E" stroke="#263238" stroke-linecap="round" stroke-linejoin="round"/>
<path d="M299.211 121.239H284.59V106.619L294.426 116.444L299.211 121.239Z" fill="#2A4B8E" stroke="#263238" stroke-linecap="round" stroke-linejoin="round"/>
<path d="M300.82 121.066V175.045H242.08V105.91H285.665L295.86 116.095L300.82 121.066Z" fill="#325294" stroke="#263238" stroke-linecap="round" stroke-linejoin="round"/>
<path d="M300.82 121.066H285.664V105.91L295.86 116.095L300.82 121.066Z" fill="#325294" stroke="#263238" stroke-linecap="round" stroke-linejoin="round"/>
<path d="M288.948 153.492C286.877 146.382 283.057 146.134 282.236 145.943C280.617 145.563 278.657 145.725 277.614 145.4C277.493 146.425 274.511 149.799 272.549 151.917L271.702 148.65C272.34 148.276 272.482 147.447 272.482 146.755H269.269C269.269 147.441 269.407 148.258 270.03 148.637L269.196 151.915C267.241 149.8 264.258 146.425 264.135 145.4C263.088 145.722 261.127 145.561 259.51 145.94C258.687 146.131 254.866 146.38 252.799 153.49C252.519 154.456 252.617 155.507 253.074 156.369C254.766 159.57 263.677 160.557 270.875 160.555C278.071 160.559 286.979 159.57 288.674 156.369C289.126 155.51 289.229 154.459 288.948 153.492Z" fill="#3D5D9E" stroke="#263238"/>
<path d="M262.685 137.368L262.585 137.354M262.685 137.368L263.174 137.489C263.159 137.468 263.146 137.445 263.134 137.421C263.088 137.324 263.081 137.231 263.087 137.163C263.088 137.15 263.089 137.139 263.091 137.128C263.054 137.11 263.022 137.087 262.995 137.06C262.717 136.782 262.61 136.177 262.492 135.508C262.485 135.471 262.479 135.433 262.472 135.396M262.685 137.368L262.995 137.06L262.687 137.368M262.685 137.368L262.687 137.368M262.585 137.354C262.376 137.114 262.263 136.796 262.188 136.515C262.112 136.233 262.055 135.908 262 135.596C261.993 135.559 261.987 135.523 261.98 135.486M262.585 137.354L262.432 137.333C262.419 137.331 262.356 137.315 262.251 137.217C262.149 137.122 262.032 136.974 261.914 136.769C261.679 136.359 261.468 135.777 261.347 135.102M262.585 137.354C262.603 137.375 262.622 137.394 262.641 137.413C262.641 137.414 262.641 137.414 262.641 137.414L262.687 137.368M261.98 135.486C261.981 135.488 261.981 135.49 261.981 135.491L262.472 135.396M261.98 135.486C261.97 135.431 261.963 135.367 261.959 135.334C261.958 135.327 261.958 135.321 261.957 135.317L261.953 135.287L261.953 135.257C261.952 134.746 261.974 134.25 262.009 133.764L262.013 133.7L262.034 133.639C262.108 133.419 262.235 133.16 262.462 132.993L262.465 132.991L262.465 132.991C262.571 132.914 262.688 132.865 262.812 132.842L262.817 132.841L262.817 132.841C262.834 132.838 262.851 132.835 262.868 132.833C262.974 132.372 263.183 131.704 263.583 131.072C263.9 130.57 264.346 130.076 264.968 129.731C265.595 129.384 266.371 129.205 267.317 129.293L267.382 129.299L267.443 129.321L267.443 129.321L267.444 129.322L267.444 129.322L267.444 129.322L267.448 129.323L267.469 129.331C267.489 129.337 267.519 129.348 267.559 129.361C267.64 129.387 267.76 129.424 267.913 129.465C268.22 129.549 268.659 129.652 269.179 129.725C270.226 129.873 271.565 129.897 272.821 129.448L272.898 129.421L272.98 129.419C273.276 129.414 273.572 129.411 273.85 129.421L273.851 129.421C274.502 129.444 275.043 129.626 275.515 129.841C275.592 129.876 275.668 129.913 275.742 129.949C275.741 129.931 275.742 129.912 275.743 129.894L275.776 129.269L276.378 129.439C276.558 129.49 276.711 129.563 276.844 129.636L276.912 129.674L276.965 129.731C277.518 130.319 278.028 131.206 278.447 132.505L278.704 132.247V132.85C278.731 132.857 278.789 132.872 278.847 132.896L278.86 132.901L278.874 132.908C279.181 133.053 279.494 133.379 279.705 133.781C279.925 134.199 280.061 134.747 279.952 135.367L279.951 135.369C279.862 135.865 279.586 136.316 279.324 136.655C279.057 137.003 278.768 137.279 278.594 137.43L278.587 137.436L278.587 137.436C278.499 137.509 278.39 137.581 278.266 137.629M261.98 135.486C261.98 135.485 261.98 135.484 261.98 135.483L262.472 135.396M262.472 135.396C262.466 135.362 262.462 135.329 262.458 135.295C262.456 135.282 262.455 135.269 262.453 135.255L278.266 137.629M278.266 137.629C277.573 139.703 276.582 141.901 274.873 143.239C274.355 143.644 273.665 144.108 272.944 144.473C272.294 144.802 271.569 145.078 270.906 145.12C271.514 145.099 272.107 144.967 272.688 144.735L272.691 144.734C273.645 144.359 274.553 143.717 275.381 142.887L275.382 142.887C276.779 141.49 277.92 139.596 278.646 137.637L278.733 137.402L278.974 137.331C279.06 137.306 279.27 137.15 279.509 136.713C279.732 136.306 279.928 135.746 280.042 135.102L280.043 135.101C280.169 134.402 280.169 133.767 280.081 133.3C280.037 133.067 279.974 132.895 279.91 132.782C279.878 132.727 279.85 132.693 279.829 132.673C279.809 132.654 279.798 132.65 279.798 132.65L279.453 132.522L279.473 132.154C279.493 131.793 279.508 131.435 279.508 131.072C279.5 128.468 278.735 126.463 277.421 125.071C276.106 123.678 274.193 122.847 271.792 122.686L278.266 137.629ZM261.347 135.102L262.687 137.368M261.347 135.102C261.215 134.367 261.223 133.703 261.324 133.231C261.374 132.993 261.443 132.83 261.508 132.733C261.55 132.671 261.578 132.652 261.588 132.647M261.347 135.102L271.792 122.686C267.585 122.405 264.517 124.072 263.131 126.735M261.347 135.102C261.347 135.102 261.347 135.102 261.347 135.102L260.854 135.19L261.346 135.102C261.347 135.102 261.347 135.102 261.347 135.102ZM261.588 132.647C261.589 132.646 261.59 132.646 261.591 132.646L261.924 132.609L262.016 132.287C262.033 132.229 262.035 132.18 262.036 132.167L262.036 132.166C262.037 132.149 262.037 132.132 262.037 132.132V131.632H262.036M261.588 132.647C261.578 132.648 261.57 132.648 261.567 132.649L261.566 132.649C261.563 132.649 261.563 132.649 261.564 132.649C261.564 132.649 261.565 132.649 261.566 132.649C261.569 132.648 261.577 132.647 261.588 132.646C261.588 132.646 261.589 132.646 261.589 132.646C261.59 132.645 261.59 132.645 261.591 132.645C261.591 132.645 261.591 132.645 261.591 132.645M261.588 132.647C261.589 132.646 261.589 132.646 261.59 132.646L261.591 132.646L261.612 132.642L261.636 132.635C261.619 132.64 261.603 132.643 261.592 132.645M262.036 131.632C262.069 131.117 262.151 130.612 262.272 130.118L262.282 130.08L262.285 130.041C262.392 128.767 262.668 127.625 263.131 126.735M262.036 131.632C262.026 131.797 262.02 131.964 262.02 132.132H261.537L261.535 131.632H261.537H262.036ZM263.131 126.735L262.687 126.504L263.131 126.735C263.131 126.735 263.131 126.735 263.131 126.735ZM261.591 132.645C261.592 132.645 261.592 132.645 261.592 132.645C261.592 132.645 261.592 132.645 261.592 132.645M261.591 132.645C261.592 132.645 261.592 132.645 261.592 132.645M261.591 132.645C261.591 132.645 261.591 132.645 261.591 132.645C261.591 132.646 261.59 132.646 261.59 132.646C261.59 132.646 261.591 132.646 261.591 132.646C261.591 132.645 261.592 132.645 261.592 132.645M262.832 137.654L262.785 137.529C262.942 137.628 263.112 137.666 263.228 137.682C263.231 137.683 263.235 137.683 263.238 137.684C263.943 139.774 264.97 141.922 266.696 143.242C267.197 143.626 267.867 144.089 268.567 144.458C269.2 144.791 269.913 145.078 270.572 145.12C269.963 145.1 269.365 144.968 268.785 144.735L268.784 144.735C267.862 144.367 266.981 143.756 266.171 142.967C264.741 141.57 263.572 139.647 262.832 137.654ZM263.36 132.924C263.612 131.841 264.487 129.533 267.271 129.791L263.36 132.924Z" fill="#3D5D9E" stroke="#263238"/>
<path d="M299.211 199.46V251.535H242.543V184.828H284.59L294.426 194.664L299.211 199.46Z" fill="#2A4B8E" stroke="#263238" stroke-linecap="round" stroke-linejoin="round"/>
<path opacity="0.5" d="M294.427 194.664V223.383H247.328V189.303H289.055L294.427 194.664Z" fill="white"/>
<path d="M294.427 194.664V223.383H247.328V189.303H289.055L294.427 194.664Z" stroke="#263238" stroke-linecap="round" stroke-linejoin="round"/>
<path d="M299.211 199.46H284.59V184.828L294.426 194.664L299.211 199.46Z" fill="#2A4B8E" stroke="#263238" stroke-linecap="round" stroke-linejoin="round"/>
<path d="M272.499 217.413C275.608 217.413 278.128 215.758 278.128 213.717C278.128 211.677 275.608 210.022 272.499 210.022C269.391 210.022 266.871 211.677 266.871 213.717C266.871 215.758 269.391 217.413 272.499 217.413Z" fill="#263238"/>
<path d="M271.817 194.077L267.951 213.718H266.883L269.713 199.364L270.45 195.636C270.982 195.19 271.446 194.668 271.828 194.088L271.817 194.077Z" fill="#263238"/>
<path d="M271.816 194.088L270.855 198.84C270.487 199.05 270.101 199.225 269.701 199.364C268.501 199.775 267.228 199.931 265.963 199.823C265.11 199.758 264.256 199.936 263.5 200.337C262.744 200.738 262.117 201.345 261.691 202.087C261.691 201.874 262.856 197.676 266.754 197.249C268.119 197.094 269.407 196.532 270.449 195.636C270.977 195.189 271.438 194.667 271.816 194.088V194.088Z" fill="#263238"/>
<path d="M263.871 235.622L263.155 242.479H260.378L258.904 229.62H260.869L261.937 239.777L262.899 229.62H264.864L265.857 239.852L266.925 229.62H268.687L267.277 242.436H264.586L263.871 235.622Z" fill="#263238"/>
<path d="M275.993 242.436H273.953L273.601 240.108H271.112L270.77 242.436H268.912L270.973 229.62H273.932L275.993 242.436ZM271.369 238.356H273.323L272.372 231.842L271.369 238.356Z" fill="#263238"/>
<path d="M279.507 240.108L281.034 229.599H282.892L280.938 242.436H277.915L275.939 229.62H277.979L279.507 240.108Z" fill="#263238"/>
<path d="M300.82 200.276V254.255H242.08V185.12H285.654L295.849 195.305L300.82 200.276Z" fill="#325294" stroke="#263238" stroke-linecap="round" stroke-linejoin="round"/>
<path d="M300.821 200.276H285.654V185.12L295.85 195.305L300.821 200.276Z" fill="#325294" stroke="#263238" stroke-linecap="round" stroke-linejoin="round"/>
<path d="M289.713 234.208C287.555 226.86 283.572 226.606 282.714 226.407C282.615 226.385 282.515 226.363 282.412 226.342C279.81 223.962 281.586 214.017 281.586 214.017C281.586 198.859 271.238 200.349 271.238 200.349C271.111 200.342 270.985 200.337 270.862 200.333C270.739 200.337 270.614 200.342 270.487 200.349C270.487 200.349 260.137 198.858 260.137 214.017C260.137 214.017 261.912 223.961 259.311 226.342C259.21 226.363 259.108 226.383 259.01 226.407C258.151 226.606 254.166 226.86 252.011 234.208C251.719 235.207 251.821 236.29 252.297 237.178C254.063 240.489 263.354 241.508 270.865 241.506C278.372 241.508 287.666 240.489 289.432 237.18C289.902 236.291 290.004 235.207 289.713 234.208ZM277.892 225.842C277.858 226.122 277.733 226.39 277.532 226.643C276.596 227.832 273.963 229.542 270.86 229.542C267.757 229.542 265.123 227.829 264.188 226.643C263.988 226.39 263.863 226.122 263.832 225.842C263.878 225.826 263.986 225.789 264.128 225.727C264.186 225.702 264.249 225.667 264.316 225.636C264.883 225.341 265.717 224.724 265.717 223.643C266.613 224.523 267.608 225.219 268.673 225.636C269.387 225.918 270.134 226.073 270.9 226.073C271.667 226.073 272.413 225.918 273.128 225.636C274.182 225.221 275.17 224.533 276.056 223.667C276.062 223.67 276.07 223.671 276.076 223.673C276.098 225.07 277.508 225.68 277.894 225.82C277.894 225.829 277.894 225.838 277.892 225.842ZM279.528 215.509C279.385 216.295 279.074 216.943 278.748 217.221C278.616 217.331 278.483 217.382 278.354 217.36C278.284 217.349 278.214 217.314 278.155 217.258C277.428 219.496 276.039 221.726 274.287 223.067C273.262 223.85 272.116 224.33 270.905 224.33C269.685 224.33 268.531 223.844 267.504 223.051C265.76 221.712 264.378 219.487 263.655 217.256C263.595 217.312 263.53 217.347 263.456 217.359C263.307 217.385 263.147 217.312 262.998 217.161C262.691 216.858 262.411 216.244 262.279 215.508C262.104 214.541 262.241 213.686 262.586 213.442C262.634 213.407 262.684 213.386 262.74 213.376C262.863 213.354 262.992 213.401 263.119 213.504C263.119 213.504 263.12 213.493 263.12 213.474C263.164 213.053 263.73 208.339 267.293 208.665L278.187 214.221L279.066 213.38C279.097 213.386 279.129 213.395 279.157 213.408C279.544 213.586 279.71 214.485 279.528 215.509Z" fill="#3D5D9E" stroke="#263238"/>
<path d="M220.488 277.68V329.756H163.82V263.048H205.857L215.693 272.885L220.488 277.68Z" fill="#2A4B8E" stroke="#263238" stroke-linecap="round" stroke-linejoin="round"/>
<path opacity="0.5" d="M215.693 272.885V301.603H168.594V267.523H210.331L215.693 272.885Z" fill="white"/>
<path d="M215.693 272.885V301.603H168.594V267.523H210.331L215.693 272.885Z" stroke="#263238" stroke-linecap="round" stroke-linejoin="round"/>
<path d="M220.489 277.68H205.857V263.048L215.694 272.885L220.489 277.68Z" fill="#2A4B8E" stroke="#263238" stroke-linecap="round" stroke-linejoin="round"/>
<path d="M185.801 277.712L177.203 286.32L185.801 294.918" stroke="#263238" stroke-linecap="round" stroke-linejoin="round"/>
<path d="M198.488 294.918L207.096 286.32L198.488 277.712" stroke="#263238" stroke-linecap="round" stroke-linejoin="round"/>
<path d="M194.206 277.691L190.094 294.939" stroke="#263238" stroke-linecap="round" stroke-linejoin="round"/>
<path d="M179.615 320.699H177.586V307.819H179.615V313.341H181.911V307.819H183.973V320.699H181.911V315.188H179.615V320.699Z" fill="#263238"/>
<path d="M184.859 307.819H191.107V309.72H188.971V320.753H186.952V309.72H184.816L184.859 307.819Z" fill="#263238"/>
<path d="M196.266 316.972L197.633 307.819H200.442V320.699H198.53V311.461L197.174 320.699H195.262L193.789 311.6V320.699H192.016V307.819H194.835L196.266 316.972Z" fill="#263238"/>
<path d="M201.947 307.819H203.987V318.862H207.319V320.699H201.979L201.947 307.819Z" fill="#263238"/>
<path d="M220.488 199.46V251.535H163.82V184.828H205.857L215.693 194.664L220.488 199.46Z" fill="#2A4B8E" stroke="#263238" stroke-linecap="round" stroke-linejoin="round"/>
<path opacity="0.5" d="M215.693 194.664V223.383H168.594V189.303H210.331L215.693 194.664Z" fill="white"/>
<path d="M215.693 194.664V223.383H168.594V189.303H210.331L215.693 194.664Z" stroke="#263238" stroke-linecap="round" stroke-linejoin="round"/>
<path d="M220.489 199.46H205.857V184.828L215.694 194.664L220.489 199.46Z" fill="#2A4B8E" stroke="#263238" stroke-linecap="round" stroke-linejoin="round"/>
<path d="M186.899 207.31C186.899 207.31 185.372 204.65 181.399 206.808C177.736 208.794 178.195 213.557 181.922 213.557C186.28 213.557 188.117 209.211 190.68 204.65C193.371 199.887 195.603 195.038 195.902 194.408C195.902 194.408 192.837 213.365 192.453 215.854C192.068 218.342 195.23 216.323 195.518 215.181" stroke="#263238" stroke-linecap="round" stroke-linejoin="round"/>
<path d="M203.507 206.573C202.144 206.25 200.709 206.456 199.492 207.15C198.274 207.843 197.366 208.973 196.949 210.311C196.266 212.222 197.483 213.515 198.679 213.515C201.745 213.515 202.951 211.71 204.329 206.53C204.329 206.53 202.396 213.515 203.357 213.515C203.78 213.504 204.191 213.377 204.547 213.15C204.902 212.922 205.189 212.601 205.376 212.222" stroke="#263238" stroke-linecap="round" stroke-linejoin="round"/>
<path d="M190.061 206.573H197.953" stroke="#263238" stroke-linecap="round" stroke-linejoin="round"/>
<path d="M182.627 232.696C182.627 230.635 183.695 229.492 185.703 229.492C187.711 229.492 188.779 230.667 188.779 232.696V239.392C188.779 241.454 187.711 242.596 185.703 242.596C183.695 242.596 182.627 241.422 182.627 239.392V232.696ZM184.656 239.52C184.656 240.439 185.062 240.791 185.724 240.791C186.386 240.791 186.792 240.439 186.792 239.52V232.568C186.792 231.649 186.386 231.297 185.724 231.297C185.062 231.297 184.656 231.649 184.656 232.568V239.52Z" fill="#263238"/>
<path d="M189.506 229.62H195.753V231.468H193.617V242.436H191.599V231.446H189.463L189.506 229.62Z" fill="#263238"/>
<path d="M198.647 235.323H201.264V237.171H198.647V242.511H196.629V229.62H201.969V231.468H198.647V235.323Z" fill="#263238"/>
<path d="M337.488 181.891V250.574C337.488 251.758 337.053 252.901 336.265 253.785C335.477 254.669 334.392 255.233 333.216 255.37L328.698 255.861V341.536C328.701 342.799 328.256 344.021 327.443 344.987C326.63 345.953 325.5 346.6 324.255 346.812C323.949 346.872 323.638 346.9 323.326 346.897L139.182 346.748V85.4401L323.326 85.5896C323.638 85.5898 323.95 85.622 324.255 85.6857C325.498 85.8975 326.626 86.5424 327.439 87.506C328.253 88.4697 328.699 89.69 328.698 90.9509V176.626L333.216 177.128C334.388 177.261 335.47 177.82 336.257 178.698C337.044 179.576 337.482 180.712 337.488 181.891V181.891Z" stroke="#263238" stroke-miterlimit="10"/>
<path d="M139.182 85.4401V347.1L104.92 357.46L104.514 357.566C103.877 357.75 103.204 357.776 102.554 357.643C101.904 357.509 101.297 357.22 100.783 356.8C100.269 356.38 99.8655 355.841 99.6058 355.231C99.3461 354.62 99.2384 353.956 99.2919 353.294V175.408L97.4016 174.234C96.8462 173.902 96.4297 171.574 96.4297 168.894V93.3326C96.4297 90.6199 96.8462 88.4518 97.4016 88.313L99.324 87.8217V79.2777C99.2678 78.6157 99.3738 77.95 99.6327 77.3381C99.8916 76.7262 100.296 76.1867 100.81 75.766C101.324 75.3453 101.933 75.0563 102.584 74.9238C103.235 74.7913 103.909 74.8194 104.546 75.0057L104.952 75.1125L139.182 85.4401Z" fill="#C0CADC"/>
<path d="M104.514 74.9951V357.524C103.877 357.707 103.204 357.734 102.554 357.6C101.904 357.466 101.297 357.177 100.783 356.757C100.269 356.337 99.8655 355.799 99.6058 355.188C99.3461 354.578 99.2384 353.913 99.2919 353.252V175.408L97.4016 174.234C96.8462 173.903 96.4297 171.574 96.4297 168.894V93.3326C96.4297 90.6199 96.8462 88.4519 97.4016 88.313L99.324 87.8217V79.2777C99.2678 78.6184 99.3725 77.9553 99.6289 77.3453C99.8854 76.7353 100.286 76.1967 100.796 75.7756C101.307 75.3544 101.912 75.0634 102.559 74.9275C103.207 74.7915 103.878 74.8147 104.514 74.9951V74.9951Z" fill="#263238"/>
<path d="M139.182 85.4401V347.1L104.92 357.46L104.514 357.566C103.877 357.75 103.204 357.776 102.554 357.643C101.904 357.509 101.297 357.22 100.783 356.8C100.269 356.38 99.8655 355.841 99.6058 355.231C99.3461 354.62 99.2384 353.956 99.2919 353.294V175.408L97.4016 174.234C96.8462 173.902 96.4297 171.574 96.4297 168.894V93.3326C96.4297 90.6199 96.8462 88.4518 97.4016 88.313L99.324 87.8217V79.2777C99.2678 78.6157 99.3738 77.95 99.6327 77.3381C99.8916 76.7262 100.296 76.1867 100.81 75.766C101.324 75.3453 101.933 75.0563 102.584 74.9238C103.235 74.7913 103.909 74.8194 104.546 75.0057L104.952 75.1125L139.182 85.4401Z" stroke="#263238" stroke-miterlimit="10"/>
<path opacity="0.2" d="M174.424 350.72H139.682V351.126L125.606 355.516L123.203 306.569C123.203 306.569 129.974 295.889 139.116 290.934L139.682 291.372C143.506 294.426 165.912 313.597 174.424 350.72Z" fill="#2A4B8E" fill-opacity="0.5"/>
<path d="M127.797 384.234C127.797 384.234 125.501 380.731 124.914 370.949C124.326 361.166 124.743 354.694 123.205 350.87C123.205 350.87 121.293 347.42 118.997 343.597C116.701 339.774 117.085 327.086 117.459 314.921C117.833 302.757 120.108 299.969 124.935 298.218C136.683 293.946 139.609 308.503 145.013 324.918C150.417 341.333 150.033 352.974 151.945 357.107C153.856 361.24 157.733 366.591 161.161 377.688" fill="white"/>
<path opacity="0.4" d="M157.519 368.001C151.571 361.347 145.707 356.883 144.97 354.832C143.838 351.628 147.811 335.032 141.916 329.542C136.021 324.053 128.513 330.087 124.646 328.73C120.78 327.374 121.229 320.517 121.229 307.37C121.229 300.962 125.501 298.453 129.848 297.555C137.655 298.623 140.431 311.087 144.992 324.896C150.396 341.301 150.011 352.953 151.923 357.086C153.173 359.777 155.266 363.002 157.519 368.001Z" fill="#2A4B8E"/>
<path d="M127.797 384.234C127.797 384.234 125.501 380.731 124.914 370.949C124.326 361.166 124.743 354.694 123.205 350.87C123.205 350.87 121.293 347.42 118.997 343.597C116.701 339.774 117.085 327.086 117.459 314.921C117.833 302.757 120.108 299.969 124.935 298.218C136.683 293.946 139.609 308.503 145.013 324.918C150.417 341.333 150.033 352.974 151.945 357.107C153.856 361.24 157.733 366.591 161.161 377.688" stroke="#263238" stroke-linecap="round" stroke-linejoin="round"/>
<path opacity="0.2" d="M275.127 264.682L262.803 317.965L297.897 325.281C297.897 325.281 296.605 340.756 298.143 341.108C299.681 341.461 309.816 343.458 309.816 343.458C309.816 343.458 307.584 374.676 307.584 385.73C307.584 396.783 320.048 405.701 328.624 422.789C337.2 439.877 355.324 444.865 375.616 480.354L393.836 402.636L350.304 302.03L304.615 268.196L275.127 264.682Z" fill="black" fill-opacity="0.7"/>
<path d="M312.208 334.882C312.208 334.882 314.664 345.252 314.269 348.061C313.874 350.87 316.811 350.87 316.822 350.87C317.783 361.368 318.125 371.568 317.334 375.754C315.797 383.796 323.454 392.298 330.15 407.196C336.847 422.095 341.439 424.829 348.712 431.878C355.985 438.927 354.96 445.762 359.499 454.007C362.116 458.802 366.559 480.418 369.837 497.795H447.257C435.914 475.986 418.527 442.569 416.488 438.66C413.422 432.807 414.96 429.785 409.983 418.848C409.983 418.848 404.387 338.599 399.72 333.056C395.053 327.513 379.866 320.624 375.583 316.406C371.3 312.187 353.283 288.456 346.982 286.929C340.681 285.402 325.943 296.904 325.943 296.904C325.943 296.904 320.603 289.118 313.03 292.632C307.979 294.982 308.192 303.312 309.826 312.134C309.752 312.251 307.156 316.406 305.832 318.691C304.508 320.977 301.816 334.006 301.816 335.352C301.827 336.505 307.829 340.147 312.208 334.882Z" fill="white"/>
<path opacity="0.4" d="M351.789 359.029C351.789 359.029 357.129 366.559 354.085 366.719C351.042 366.879 342.337 362.757 337.531 350.646C336.41 347.826 335.096 344.878 333.74 341.995C333.049 340.527 331.924 339.306 330.517 338.497C329.11 337.688 327.489 337.329 325.872 337.47C324.256 337.611 322.721 338.244 321.475 339.284C320.23 340.324 319.333 341.721 318.906 343.287L316.77 350.87C316.77 350.87 313.833 350.87 314.217 348.061C314.569 345.573 312.679 337.146 312.241 335.245L313.042 333.643L302.512 330.984C302.907 329.04 303.409 326.712 303.932 324.576C304.007 324.277 304.071 323.988 304.156 323.711V323.561C304.221 323.316 304.274 323.091 304.349 322.867C304.676 321.42 305.148 320.011 305.758 318.659C307.072 316.395 309.678 312.251 309.753 312.091C308.108 303.28 307.894 294.939 312.957 292.589C320.572 289.043 325.869 296.861 325.869 296.861L326.456 296.402C326.562 296.343 326.662 296.275 326.755 296.199C327.994 295.27 330.44 293.518 333.291 291.756C333.708 291.5 334.135 291.244 334.573 290.998C336.499 289.839 338.509 288.825 340.586 287.965C341.291 287.698 341.985 287.452 342.658 287.26C342.871 287.206 343.096 287.132 343.32 287.089C344.962 294.035 345.464 301.203 344.805 308.31L351.714 318.851C352.629 322.672 354.135 326.326 356.179 329.681C358.252 333.097 359.95 336.728 361.241 340.51C361.241 340.51 362.512 339.442 364.296 341.279C364.296 341.279 359.052 347.762 357.46 352.194C356.346 355.018 354.359 357.413 351.789 359.029V359.029Z" fill="#2A4B8E"/>
<path opacity="0.4" d="M403.107 389.425C402.156 363.547 398.066 349.524 398.066 349.524C398.066 349.524 399.134 370.457 396.282 376.224C396.282 376.224 393.975 357.524 395.214 345.37C396.453 333.216 368.888 316.534 367.756 307.402C371.238 311.536 374.164 315.039 375.552 316.438C379.824 320.656 395.022 327.545 399.678 333.088C404.335 338.631 409.782 416.392 409.953 418.827C407.058 413.316 403.63 403.885 403.107 389.425Z" fill="#2A4B8E"/>
<path opacity="0.4" d="M364.84 473.06C362.854 464.035 360.921 456.581 359.5 454.007C355.335 446.424 355.869 440.016 350.305 433.608C351.144 434.304 352.045 434.922 352.996 435.456C357.781 437.88 363.121 448.047 364.37 455.182C365.022 458.834 365.011 466.46 364.84 473.06Z" fill="#2A4B8E"/>
<path d="M309.838 312.134C309.838 312.134 307.179 316.406 305.844 318.702C304.509 320.998 301.828 334.017 301.828 335.363C301.828 336.708 310.073 341.482 314.27 331.336" stroke="#263238" stroke-linecap="round" stroke-linejoin="round"/>
<path d="M366.752 483.227C363.548 468.115 360.344 453.12 353.466 438.724C349.6 430.009 340.885 425.171 335.086 417.428C328.304 406.748 324.406 395.171 318.628 384.523C316.695 370.008 317.656 355.484 315.723 339.998C313.79 329.318 310.885 318.712 308.952 308.064C308.952 302.255 307.019 296.445 312.818 292.579C317.656 290.645 322.505 293.54 325.944 296.85C331.038 292.942 325.527 296.263 325.944 296.85C331.209 292.578 337.019 286.737 343.79 287.708C359.276 288.67 365.086 307.061 375.734 316.737C378.639 319.642 382.505 320.613 385.41 323.518C391.22 327.385 398.963 329.318 400.896 336.099C407.667 364.167 406.706 390.3 410.572 418.335C411.544 423.174 412.505 429.015 414.449 433.821C419.287 444.501 424.606 454.872 430.042 465.167" stroke="#263238" stroke-linecap="round" stroke-linejoin="round"/>
<path d="M325.943 296.904C330.536 301.689 336.282 316.042 339.154 326.199C342.027 336.356 341.29 348.98 341.29 348.98C341.29 348.98 345.562 355.484 349.333 361.999C353.103 368.513 357.567 367.168 357.567 367.168" stroke="#263238" stroke-linecap="round" stroke-linejoin="round"/>
<path d="M344.867 354.672C346.286 354.955 347.756 354.84 349.114 354.339C350.471 353.837 351.663 352.969 352.557 351.831C356.006 347.805 353.7 343.212 365.576 341.301" stroke="#263238" stroke-linecap="round" stroke-linejoin="round"/>
<path d="M356.243 345.327C355.686 341.014 354.305 336.847 352.174 333.056C348.724 327.128 349.301 322.728 349.301 322.728C349.301 322.728 340.693 315.391 339.924 312.134" stroke="#263238" stroke-linecap="round" stroke-linejoin="round"/>
<path d="M341.76 298.218C341.76 298.218 341.301 303.504 340.895 306.452C340.137 312.134 338.93 313.629 335.416 314.921" stroke="#263238" stroke-linecap="round" stroke-linejoin="round"/>
<path d="M339.154 326.178C341.254 327.701 343.677 328.717 346.235 329.147C346.235 329.147 345.477 335.939 347.004 337.691C348.531 339.442 351.404 340.756 351.789 343.629" stroke="#263238" stroke-linecap="round" stroke-linejoin="round"/>
<path d="M340.99 336.73C342.332 337.551 343.918 337.88 345.476 337.659" stroke="#263238" stroke-linecap="round" stroke-linejoin="round"/>
<path d="M349.493 349.524C349.493 349.524 346.161 353.027 343.234 352.045" stroke="#263238" stroke-linecap="round" stroke-linejoin="round"/>
<path d="M312.209 334.882C312.209 334.882 314.665 345.252 314.27 348.061C313.875 350.87 316.823 350.87 316.823 350.87" stroke="#263238" stroke-linecap="round" stroke-linejoin="round"/>
<path d="M349.301 322.728C349.301 322.728 351.437 318.52 353.252 317.559" stroke="#263238" stroke-linecap="round" stroke-linejoin="round"/>
<path d="M346.363 357.086C349.745 357.663 352.852 359.31 355.228 361.785" stroke="#263238" stroke-linecap="round" stroke-linejoin="round"/>
<path d="M375.594 316.406C383.187 325.601 390.076 330.77 393.525 334.882C396.975 338.994 393.419 348.061 395.256 364.658" stroke="#263238" stroke-linecap="round" stroke-linejoin="round"/>
<path d="M382.942 336.73C382.942 336.73 381.639 343.981 385.28 349.546" stroke="#263238" stroke-linecap="round" stroke-linejoin="round"/>
<path d="M348.723 431.878C359.061 440.08 359.403 442.376 361.742 447.353" stroke="#263238" stroke-linecap="round" stroke-linejoin="round"/>
<path d="M409.995 418.848C404.249 409.834 403.096 394.904 403.096 394.904" stroke="#263238" stroke-linecap="round" stroke-linejoin="round"/>
<path d="M337.883 275.394L326.755 326.263L271.4 314.152L285.648 248.993L326.723 257.975L334.231 269.681L337.883 275.394Z" fill="#2A4B8E" stroke="#263238" stroke-linecap="round" stroke-linejoin="round"/>
<path opacity="0.5" d="M334.231 269.681L328.09 297.737L282.08 287.676L289.364 254.387L330.14 263.305L334.231 269.681Z" fill="white"/>
<path d="M334.231 269.681L328.09 297.737L282.08 287.676L289.364 254.387L330.14 263.305L334.231 269.681Z" stroke="#263238" stroke-linecap="round" stroke-linejoin="round"/>
<path d="M299.627 262.322L326.519 268.196" stroke="#263238" stroke-linecap="round" stroke-linejoin="round"/>
<path d="M295.195 264.479L325.868 271.187" stroke="#263238" stroke-linecap="round" stroke-linejoin="round"/>
<path d="M294.543 267.47L325.216 274.188" stroke="#263238" stroke-linecap="round" stroke-linejoin="round"/>
<path d="M293.881 270.471L324.554 277.178" stroke="#263238" stroke-linecap="round" stroke-linejoin="round"/>
<path d="M293.23 273.461L323.903 280.168" stroke="#263238" stroke-linecap="round" stroke-linejoin="round"/>
<path d="M292.578 276.452L323.251 283.159" stroke="#263238" stroke-linecap="round" stroke-linejoin="round"/>
<path d="M291.928 279.442L322.59 286.149" stroke="#263238" stroke-linecap="round" stroke-linejoin="round"/>
<path d="M291.266 282.432L318.158 288.317" stroke="#263238" stroke-linecap="round" stroke-linejoin="round"/>
<path d="M297.341 298.89L291.232 297.555L290.837 299.36L292.909 299.809L290.549 310.596L292.525 311.023L294.885 300.236L296.957 300.695L297.341 298.89Z" fill="#263238"/>
<path d="M303.151 300.161L300.609 304.465L300.128 299.51L298.078 299.051L298.815 305.619L295.184 311.61L297.042 312.016L299.765 307.392L300.289 312.721L302.371 313.18L301.581 306.228L304.977 300.567L303.151 300.161Z" fill="#263238"/>
<path d="M305.715 300.727L305.32 302.522L307.392 302.981L305.031 313.757L307.007 314.195L309.367 303.408L311.439 303.857L311.834 302.062L305.715 300.727Z" fill="#263238"/>
<path d="M337.883 275.394L323.604 272.265L326.722 257.975L334.23 269.681L337.883 275.394Z" fill="#2A4B8E" stroke="#263238" stroke-linecap="round" stroke-linejoin="round"/>
<path d="M338.07 275.656L326.919 326.63L271.449 314.494L285.726 249.2L326.886 258.2L334.41 269.93L338.07 275.656Z" fill="#325294" stroke="#263238" stroke-linecap="round" stroke-linejoin="round"/>
<path d="M321.151 302.568C320.435 295.445 316.847 294.536 316.1 294.21C314.629 293.564 312.737 293.373 311.803 292.88C311.507 293.833 308.078 296.514 305.84 298.182L305.61 294.928C306.283 294.685 306.563 293.922 306.685 293.263L303.631 292.697C303.511 293.35 303.498 294.151 304.023 294.621L302.654 297.589C301.167 295.235 298.927 291.502 298.99 290.505C297.939 290.627 296.103 290.129 294.499 290.204C293.683 290.24 290.007 289.804 286.79 296.198C286.354 297.067 286.262 298.083 286.544 298.983C287.588 302.324 295.884 304.832 302.728 306.098C309.566 307.37 318.208 307.999 320.384 305.254C320.965 304.518 321.247 303.537 321.151 302.568Z" fill="#3D5D9E" stroke="#263238"/>
<path d="M299.083 282.616L299.134 282.91C299.486 284.933 300.258 286.965 301.37 288.542C301.999 289.433 302.727 290.168 303.537 290.678L303.538 290.678C304.091 291.029 304.686 291.271 305.316 291.388C305.949 291.505 306.588 291.492 307.236 291.363L307.238 291.363C308.209 291.175 309.183 290.727 310.115 290.085L310.115 290.084C311.687 289.004 313.104 287.407 314.139 285.674L314.267 285.459L314.517 285.433C314.595 285.425 314.819 285.319 315.123 284.946C315.405 284.6 315.689 284.104 315.911 283.513L315.911 283.512C316.154 282.871 316.265 282.27 316.264 281.813C316.263 281.585 316.234 281.412 316.193 281.296C316.154 281.185 316.117 281.16 316.117 281.159L315.801 280.971L315.888 280.613C315.971 280.273 316.048 279.935 316.112 279.591C316.562 277.118 316.189 275.082 315.188 273.531C314.186 271.98 312.518 270.855 310.267 270.279L299.083 282.616ZM299.083 282.616L298.799 282.521M299.083 282.616L298.799 282.521M298.799 282.521C298.791 282.519 298.737 282.495 298.656 282.385C298.576 282.279 298.493 282.119 298.417 281.904C298.266 281.475 298.169 280.887 298.172 280.225C298.177 279.505 298.301 278.877 298.478 278.449C298.568 278.233 298.661 278.093 298.738 278.014C298.782 277.969 298.809 277.955 298.82 277.951L299.153 277.975L299.303 277.675C299.33 277.621 299.341 277.574 299.344 277.561L299.344 277.56C299.348 277.543 299.351 277.527 299.351 277.527L299.44 277.045M298.799 282.521L299.44 277.045M299.44 277.045C299.562 276.565 299.728 276.103 299.928 275.658L299.944 275.622L299.955 275.585C300.281 274.394 300.743 273.359 301.338 272.596L299.44 277.045ZM298.825 277.949C298.825 277.949 298.824 277.95 298.823 277.95L298.825 277.949ZM299.051 278.948L299.02 279.004L299.004 279.066C298.885 279.523 298.777 279.99 298.688 280.476L298.683 280.506L298.681 280.537C298.681 280.54 298.68 280.546 298.68 280.553C298.678 280.584 298.673 280.647 298.673 280.702C298.668 281.45 298.825 282.177 299.134 282.627C299.253 282.802 299.441 282.995 299.701 283.07C300.053 285.197 300.947 287.386 302.313 288.899C303.161 289.839 304.209 290.539 305.439 290.767C306.695 290.999 307.953 290.707 309.105 290.106C310.891 289.174 312.48 287.47 313.557 285.639C313.779 285.657 313.984 285.583 314.14 285.495L314.14 285.495L314.148 285.491C314.405 285.34 314.639 285.092 314.835 284.813C315.036 284.527 315.219 284.179 315.365 283.795L315.366 283.793C315.552 283.293 315.652 282.793 315.655 282.366C315.657 282.154 315.635 281.942 315.575 281.752C315.517 281.565 315.41 281.357 315.212 281.214L315.2 281.205L315.188 281.197C315.133 281.162 315.076 281.136 315.054 281.126L315.05 281.124L315.027 281.114L315.003 281.105C314.975 281.096 314.948 281.088 314.921 281.081C314.765 279.605 314.419 278.573 313.962 277.863L313.92 277.797L313.859 277.747C313.746 277.654 313.612 277.557 313.448 277.476L312.887 277.199L312.741 277.807C312.739 277.816 312.736 277.825 312.735 277.834C312.678 277.792 312.619 277.749 312.56 277.708C312.148 277.419 311.663 277.15 311.046 277.012L311.045 277.012C310.782 276.953 310.499 276.904 310.217 276.857L310.137 276.843L310.056 276.856C308.786 277.061 307.521 276.803 306.553 276.478C306.072 276.317 305.674 276.143 305.397 276.009C305.259 275.943 305.152 275.887 305.08 275.848C305.044 275.828 305.017 275.813 305 275.804L304.981 275.793L304.978 275.791L304.978 275.791L304.977 275.791L304.977 275.791L304.977 275.79L304.921 275.757L304.859 275.74C303.972 275.489 303.199 275.522 302.539 275.743C301.883 275.962 301.37 276.355 300.979 276.777C300.49 277.305 300.174 277.899 299.991 278.32C299.978 278.319 299.964 278.319 299.951 278.318L299.951 278.318L299.946 278.318C299.822 278.319 299.7 278.346 299.583 278.401L299.583 278.401L299.58 278.403C299.33 278.524 299.162 278.75 299.051 278.948ZM314.465 281.629L314.465 281.629C314.465 281.627 314.465 281.626 314.465 281.624L314.465 281.625L314.465 281.629ZM301.338 272.596C303.12 270.316 306.323 269.272 310.267 270.279L301.338 272.596Z" fill="#3D5D9E" stroke="#263238"/>
<path d="M338.07 275.655L323.762 272.52L326.887 258.2L334.41 269.93L338.07 275.655Z" fill="#8C9DC0" stroke="#263238" stroke-linecap="round" stroke-linejoin="round"/>
<path d="M330.161 407.196C323.454 392.298 315.796 383.796 317.345 375.754C318.894 367.712 316.191 337.467 313.073 325.558C309.954 313.65 305.373 296.188 313.073 292.6C320.773 289.012 325.985 296.872 325.985 296.872C330.577 301.657 336.323 316.011 339.196 326.167C342.069 336.324 341.332 348.948 341.332 348.948C341.332 348.948 345.604 355.452 349.374 361.967C353.144 368.481 357.608 367.136 357.608 367.136" fill="white"/>
<path opacity="0.4" d="M329.532 348.061C329.532 348.061 316.823 349.46 317.784 365.961C317.506 353.508 315.424 334.444 313.074 325.601C310.874 317.303 307.99 306.26 309.08 299.136C312.54 296.733 316.62 295.227 320.593 296.883C330.525 301.005 328.741 311.397 328.741 311.397C328.741 311.397 317.175 313.362 316.865 320.144C316.556 326.925 324.811 326.915 329.532 348.061Z" fill="#2A4B8E"/>
<path d="M330.161 407.196C323.454 392.298 315.796 383.796 317.345 375.754C318.894 367.712 316.191 337.467 313.073 325.558C309.954 313.65 305.373 296.188 313.073 292.6C320.773 289.012 325.985 296.872 325.985 296.872C330.577 301.657 336.323 316.011 339.196 326.167C342.069 336.324 341.332 348.948 341.332 348.948C341.332 348.948 345.604 355.452 349.374 361.967C353.144 368.481 357.608 367.136 357.608 367.136" stroke="#263238" stroke-linecap="round" stroke-linejoin="round"/>
<path d="M260.048 432.646C255.945 425.914 251.917 426.723 251.01 426.753C250.906 426.758 250.801 426.763 250.693 426.769C247.472 425.096 246.588 414.733 246.588 414.733C242.549 399.66 232.655 403.899 232.655 403.899C232.527 403.926 232.401 403.954 232.278 403.983C232.156 404.021 232.033 404.058 231.909 404.099C231.909 404.099 221.22 405.374 225.259 420.448C225.259 420.448 229.674 429.863 227.721 432.924C227.627 432.973 227.53 433.019 227.439 433.069C226.638 433.496 222.743 434.81 222.558 442.691C222.534 443.763 222.924 444.812 223.634 445.568C226.272 448.391 235.783 446.928 243.251 444.925C250.717 442.927 259.687 439.437 260.561 435.676C260.792 434.666 260.605 433.562 260.048 432.646ZM246.065 427.476C246.105 427.764 246.052 428.063 245.921 428.368C245.306 429.8 243.144 432.202 240.059 433.029C236.972 433.856 233.897 432.854 232.651 431.924C232.385 431.726 232.189 431.492 232.083 431.222C232.125 431.194 232.223 431.129 232.347 431.03C232.398 430.989 232.451 430.937 232.51 430.889C232.996 430.445 233.66 429.609 233.372 428.533C234.498 429.17 235.673 429.597 236.842 429.728C237.628 429.818 238.412 429.773 239.174 429.569C239.936 429.364 240.637 429.011 241.272 428.541C242.21 427.847 243.009 426.9 243.659 425.803C243.666 425.804 243.674 425.803 243.681 425.804C244.075 427.186 245.64 427.418 246.061 427.454C246.063 427.463 246.065 427.472 246.065 427.476ZM244.938 416.766C245.006 417.585 244.869 418.312 244.619 418.676C244.517 418.82 244.398 418.906 244.264 418.919C244.192 418.926 244.113 418.91 244.04 418.871C243.913 421.289 243.125 423.877 241.74 425.677C240.93 426.729 239.918 427.512 238.714 427.834C237.501 428.16 236.224 427.984 234.991 427.469C232.901 426.602 230.933 424.758 229.62 422.732C229.575 422.803 229.52 422.856 229.449 422.887C229.309 422.952 229.13 422.923 228.941 422.813C228.556 422.593 228.114 422.057 227.786 421.361C227.354 420.446 227.263 419.559 227.541 419.224C227.579 419.176 227.624 419.142 227.676 419.117C227.793 419.063 227.933 419.075 228.087 419.143C228.087 419.143 228.085 419.132 228.081 419.114C228.011 418.683 227.319 413.845 230.948 413.22L243.261 415.842L243.911 414.771C243.944 414.769 243.978 414.77 244.01 414.775C244.442 414.849 244.847 415.698 244.938 416.766Z" fill="#ECEFF5" stroke="#263238"/>
<path d="M260.914 397.35L274.885 449.49L218.146 464.693L200.25 397.903L242.349 386.623L254.837 393.832L260.914 397.35Z" stroke="#263238" stroke-linecap="round" stroke-linejoin="round"/>
<path d="M260.914 397.35L246.275 401.272L242.35 386.623L254.837 393.832L260.914 397.35Z" stroke="#263238" stroke-linecap="round" stroke-linejoin="round"/>
<path d="M222.5 121.066V175.045H163.76V105.91H207.333L217.529 116.095L222.5 121.066Z" fill="#325294" stroke="#263238" stroke-linecap="round" stroke-linejoin="round"/>
<path d="M222.501 121.066H207.334V105.91L217.53 116.095L222.501 121.066Z" fill="#325294" stroke="#263238" stroke-linecap="round" stroke-linejoin="round"/>
<path d="M211.392 154.998C209.234 147.65 205.252 147.396 204.393 147.197C204.295 147.175 204.195 147.153 204.092 147.132C201.49 144.752 203.266 134.806 203.266 134.806C203.266 119.649 192.917 121.139 192.917 121.139C192.79 121.132 192.665 121.127 192.542 121.123C192.418 121.127 192.294 121.132 192.167 121.139C192.167 121.139 181.817 119.648 181.817 134.806C181.817 134.806 183.592 144.751 180.99 147.132C180.89 147.153 180.788 147.173 180.689 147.197C179.831 147.396 175.846 147.65 173.69 154.998C173.399 155.997 173.501 157.08 173.977 157.968C175.743 161.279 185.034 162.298 192.545 162.296C200.052 162.298 209.346 161.279 211.112 157.97C211.582 157.081 211.684 155.997 211.392 154.998ZM199.571 146.632C199.537 146.912 199.412 147.18 199.212 147.433C198.275 148.622 195.643 150.332 192.54 150.332C189.436 150.332 186.803 148.619 185.867 147.433C185.668 147.18 185.543 146.912 185.511 146.632C185.558 146.616 185.666 146.579 185.807 146.517C185.866 146.492 185.928 146.456 185.996 146.426C186.563 146.131 187.397 145.514 187.397 144.432C188.293 145.313 189.288 146.009 190.352 146.426C191.067 146.708 191.814 146.863 192.58 146.863C193.346 146.863 194.093 146.708 194.807 146.426C195.861 146.011 196.849 145.323 197.735 144.457C197.742 144.459 197.749 144.461 197.756 144.463C197.777 145.859 199.187 146.47 199.573 146.61C199.573 146.619 199.573 146.628 199.571 146.632ZM201.207 136.299C201.065 137.085 200.754 137.733 200.428 138.011C200.296 138.121 200.163 138.171 200.034 138.15C199.964 138.139 199.894 138.104 199.835 138.048C199.108 140.286 197.718 142.516 195.966 143.857C194.942 144.64 193.796 145.12 192.584 145.12C191.364 145.12 190.21 144.634 189.184 143.841C187.44 142.502 186.058 140.277 185.334 138.046C185.275 138.102 185.21 138.137 185.135 138.149C184.987 138.175 184.827 138.102 184.677 137.951C184.371 137.648 184.091 137.034 183.958 136.298C183.784 135.331 183.921 134.476 184.266 134.232C184.313 134.197 184.364 134.176 184.419 134.165C184.543 134.144 184.672 134.191 184.798 134.294C184.798 134.294 184.8 134.283 184.8 134.264C184.843 133.843 185.41 129.129 188.972 129.455L199.866 135.011L200.745 134.17C200.776 134.176 200.809 134.185 200.837 134.197C201.224 134.376 201.39 135.275 201.207 136.299Z" fill="#3D5D9E" stroke="#263238"/>
<path d="M222.5 199.385V253.365H163.76V184.23H207.344L217.54 194.415L222.5 199.385Z" fill="#325294" stroke="#263238" stroke-linecap="round" stroke-linejoin="round"/>
<path d="M222.499 199.385H207.344V184.23L217.54 194.415L222.499 199.385Z" fill="#325294" stroke="#263238" stroke-linecap="round" stroke-linejoin="round"/>
<path d="M210.628 231.812C208.557 224.702 204.736 224.454 203.915 224.263C202.297 223.883 200.337 224.045 199.294 223.719C199.173 224.745 196.19 228.119 194.229 230.236L193.382 226.97C194.02 226.596 194.161 225.767 194.161 225.075H190.948C190.948 225.761 191.086 226.578 191.709 226.957L190.876 230.235C188.92 228.12 185.938 224.745 185.815 223.72C184.768 224.042 182.807 223.881 181.19 224.26C180.367 224.451 176.545 224.7 174.479 231.81C174.199 232.775 174.297 233.827 174.754 234.688C176.446 237.89 185.356 238.877 192.555 238.875C199.75 238.879 208.659 237.89 210.354 234.688C210.806 233.83 210.908 232.778 210.628 231.812Z" fill="#3D5D9E" stroke="#263238"/>
<path d="M184.365 215.688L184.265 215.674M184.365 215.688L184.853 215.809C184.839 215.788 184.826 215.765 184.814 215.741C184.768 215.644 184.761 215.551 184.767 215.483C184.768 215.47 184.769 215.459 184.771 215.448C184.734 215.429 184.701 215.407 184.674 215.38C184.396 215.102 184.29 214.497 184.172 213.828C184.165 213.791 184.158 213.753 184.152 213.716M184.365 215.688L184.674 215.38L184.366 215.688M184.365 215.688L184.366 215.688M184.265 215.674C184.056 215.434 183.943 215.116 183.868 214.835C183.791 214.552 183.734 214.228 183.679 213.916C183.673 213.879 183.667 213.843 183.66 213.806M184.265 215.674L184.112 215.653C184.098 215.651 184.036 215.635 183.931 215.537C183.828 215.442 183.712 215.294 183.594 215.088C183.358 214.678 183.148 214.097 183.026 213.422M184.265 215.674C184.283 215.695 184.301 215.714 184.32 215.733C184.32 215.733 184.321 215.734 184.321 215.734L184.366 215.688M183.66 213.806C183.66 213.808 183.661 213.81 183.661 213.811L184.152 213.716M183.66 213.806C183.65 213.751 183.642 213.687 183.639 213.654C183.638 213.647 183.637 213.641 183.637 213.637L183.633 213.607L183.633 213.576C183.632 213.065 183.654 212.57 183.688 212.084L183.693 212.02L183.713 211.959C183.788 211.739 183.915 211.48 184.142 211.313L184.145 211.311L184.145 211.311C184.251 211.234 184.368 211.185 184.491 211.162L184.496 211.161L184.496 211.161C184.514 211.158 184.531 211.155 184.548 211.153C184.653 210.691 184.863 210.024 185.262 209.392C185.58 208.89 186.026 208.396 186.648 208.051C187.275 207.704 188.051 207.525 188.997 207.613L189.062 207.619L189.123 207.641L189.123 207.641L189.123 207.641L189.123 207.642L189.123 207.642L189.128 207.643L189.149 207.65C189.168 207.657 189.199 207.668 189.239 207.681C189.319 207.707 189.439 207.744 189.593 207.785C189.9 207.869 190.339 207.971 190.859 208.045C191.906 208.193 193.245 208.217 194.501 207.768L194.578 207.741L194.66 207.739C194.955 207.734 195.252 207.731 195.53 207.741L195.531 207.741C196.182 207.764 196.723 207.946 197.195 208.161C197.272 208.196 197.347 208.233 197.421 208.269C197.421 208.251 197.421 208.232 197.422 208.214L197.456 207.589L198.058 207.759C198.238 207.81 198.391 207.883 198.523 207.956L198.592 207.994L198.645 208.051C199.198 208.639 199.708 209.526 200.127 210.825L200.384 210.567V211.17M183.66 213.806C183.66 213.805 183.66 213.804 183.659 213.803L184.152 213.716M184.152 213.716C184.145 213.682 184.141 213.649 184.138 213.615C184.136 213.602 184.135 213.589 184.133 213.575L200.384 211.17M199.946 215.949C199.253 218.023 198.262 220.221 196.552 221.559C196.035 221.964 195.344 222.428 194.624 222.793C193.974 223.122 193.248 223.398 192.585 223.44C193.193 223.419 193.787 223.287 194.368 223.055L194.37 223.054C195.325 222.679 196.233 222.037 197.061 221.207L197.061 221.207C198.458 219.81 199.6 217.916 200.326 215.957L200.413 215.722L200.654 215.651C200.739 215.626 200.95 215.47 201.189 215.033C201.412 214.626 201.608 214.066 201.722 213.422L201.722 213.421C201.849 212.722 201.849 212.087 201.761 211.62C201.717 211.387 201.654 211.215 201.589 211.102C201.558 211.047 201.529 211.013 201.509 210.993C201.489 210.974 201.478 210.97 201.477 210.97L201.132 210.842L201.153 210.474C201.172 210.113 201.188 209.755 201.188 209.392C201.18 206.788 200.415 204.783 199.101 203.391C197.786 201.998 195.873 201.167 193.472 201.006L199.946 215.949ZM199.946 215.949C200.07 215.9 200.179 215.829 200.267 215.756L200.267 215.756L200.273 215.75C200.448 215.599 200.737 215.322 201.004 214.975C201.266 214.636 201.541 214.185 201.631 213.689L201.632 213.687C201.741 213.067 201.605 212.519 201.385 212.1C201.174 211.699 200.861 211.373 200.553 211.227L200.54 211.221L200.527 211.216C200.469 211.192 200.411 211.177 200.384 211.17M199.946 215.949L200.384 211.17M183.026 213.422C182.895 212.687 182.903 212.023 183.003 211.551C183.054 211.313 183.123 211.15 183.188 211.053C183.23 210.991 183.258 210.972 183.268 210.966C183.269 210.966 183.27 210.966 183.271 210.966L183.604 210.929L183.696 210.607C183.713 210.549 183.715 210.5 183.716 210.487L183.716 210.486C183.717 210.469 183.717 210.452 183.717 210.452V209.952H183.716C183.749 209.436 183.831 208.932 183.952 208.438L183.961 208.4L183.965 208.361C184.072 207.087 184.347 205.945 184.81 205.055C186.197 202.392 189.265 200.724 193.471 201.006L183.026 213.422ZM183.026 213.422L184.366 215.688M183.026 213.422C183.026 213.422 183.026 213.422 183.026 213.421L182.534 213.51L183.026 213.422C183.026 213.422 183.026 213.422 183.026 213.422ZM184.512 215.974L184.465 215.849C184.622 215.948 184.792 215.986 184.907 216.002C184.911 216.003 184.914 216.003 184.918 216.004C185.622 218.094 186.65 220.242 188.375 221.562C188.877 221.946 189.547 222.409 190.247 222.778C190.88 223.111 191.593 223.398 192.252 223.44C191.643 223.42 191.044 223.288 190.465 223.055L190.464 223.054C189.541 222.687 188.661 222.076 187.851 221.287C186.421 219.89 185.252 217.967 184.512 215.974ZM184.454 211.69C184.453 211.694 184.453 211.699 184.452 211.707L184.454 211.69ZM185.04 211.244C185.292 210.161 186.167 207.853 188.951 208.111L185.04 211.244ZM183.272 210.965C183.272 210.965 183.272 210.965 183.272 210.965C183.272 210.965 183.271 210.965 183.271 210.965C183.272 210.965 183.272 210.965 183.272 210.965Z" fill="#3D5D9E" stroke="#263238"/>
<path d="M222.5 277.706V331.685H163.76V262.55H207.344L217.54 272.735L222.5 277.706Z" fill="#325294" stroke="#263238" stroke-linecap="round" stroke-linejoin="round"/>
<path d="M212.283 310.748C210.125 303.4 206.142 303.146 205.284 302.947C205.185 302.925 205.086 302.903 204.982 302.882C202.381 300.502 204.157 290.556 204.157 290.556C204.157 275.399 193.808 276.889 193.808 276.889C193.681 276.882 193.556 276.877 193.433 276.873C193.309 276.877 193.184 276.882 193.057 276.889C193.057 276.889 182.708 275.398 182.708 290.556C182.708 290.556 184.483 300.501 181.881 302.882C181.78 302.903 181.678 302.923 181.58 302.947C180.721 303.146 176.736 303.4 174.581 310.748C174.289 311.747 174.391 312.83 174.867 313.718C176.633 317.029 185.925 318.048 193.435 318.046C200.943 318.048 210.237 317.029 212.002 313.72C212.473 312.831 212.575 311.747 212.283 310.748ZM200.462 302.382C200.428 302.662 200.303 302.93 200.103 303.183C199.166 304.372 196.533 306.082 193.431 306.082C190.327 306.082 187.694 304.368 186.758 303.183C186.558 302.93 186.434 302.662 186.402 302.382C186.448 302.366 186.557 302.329 186.698 302.267C186.756 302.242 186.819 302.206 186.886 302.176C187.453 301.881 188.287 301.264 188.287 300.182C189.184 301.063 190.179 301.759 191.243 302.176C191.958 302.457 192.704 302.613 193.471 302.613C194.237 302.613 194.984 302.457 195.698 302.176C196.752 301.761 197.74 301.073 198.626 300.207C198.632 300.209 198.64 300.211 198.646 300.213C198.668 301.609 200.078 302.22 200.464 302.36C200.464 302.369 200.464 302.378 200.462 302.382ZM202.098 292.049C201.955 292.835 201.644 293.482 201.318 293.761C201.187 293.87 201.053 293.921 200.924 293.9C200.854 293.889 200.785 293.854 200.726 293.798C199.999 296.036 198.609 298.266 196.857 299.607C195.832 300.39 194.686 300.87 193.475 300.87C192.255 300.87 191.101 300.384 190.074 299.591C188.331 298.252 186.948 296.027 186.225 293.796C186.166 293.852 186.1 293.887 186.026 293.899C185.878 293.924 185.717 293.852 185.568 293.701C185.262 293.398 184.982 292.784 184.849 292.048C184.674 291.081 184.812 290.226 185.157 289.982C185.204 289.947 185.255 289.925 185.31 289.915C185.433 289.894 185.562 289.941 185.689 290.043C185.689 290.043 185.69 290.033 185.691 290.014C185.734 289.593 186.301 284.879 189.863 285.205L200.757 290.761L201.636 289.92C201.667 289.926 201.699 289.935 201.727 289.947C202.114 290.126 202.28 291.025 202.098 292.049Z" fill="#3D5D9E" stroke="#263238"/>
<path d="M222.499 277.706H207.344V262.55L217.54 272.735L222.499 277.706Z" fill="#325294" stroke="#263238" stroke-linecap="round" stroke-linejoin="round"/>
<path opacity="0.1" d="M138.84 80.99L178.89 221.706V346.21H139.094L138.84 80.99Z" fill="black" fill-opacity="0.7"/>
</svg>
