<svg width="17" height="17" viewBox="0 0 17 17" fill="none" xmlns="http://www.w3.org/2000/svg">
<path d="M15.1643 11.9425C15.2558 11.7655 15.2732 11.5593 15.2127 11.3695C15.1522 11.1796 15.0188 11.0215 14.8418 10.93C14.6647 10.8385 14.4586 10.8211 14.2687 10.8815C14.0788 10.942 13.9208 11.0755 13.8293 11.2525C13.2123 12.4476 12.2116 13.4007 10.9879 13.9589C9.76426 14.5171 8.38854 14.6479 7.08159 14.3304C5.77463 14.013 4.61223 13.2656 3.78098 12.2083C2.94974 11.1509 2.49785 9.84496 2.49785 8.5C2.49785 7.15504 2.94974 5.84908 3.78098 4.79174C4.61223 3.73441 5.77463 2.98702 7.08159 2.66955C8.38854 2.35208 9.76426 2.48293 10.9879 3.04111C12.2116 3.59929 13.2123 4.55241 13.8293 5.7475C13.8746 5.83516 13.9367 5.91303 14.0121 5.97668C14.0875 6.04033 14.1747 6.0885 14.2687 6.11845C14.3627 6.14839 14.4617 6.15953 14.5601 6.15122C14.6584 6.1429 14.7541 6.11531 14.8418 6.07C14.9294 6.0247 15.0073 5.96257 15.0709 5.88717C15.1346 5.81176 15.1828 5.72456 15.2127 5.63054C15.2427 5.53652 15.2538 5.43753 15.2455 5.3392C15.2372 5.24088 15.2096 5.14516 15.1643 5.0575C14.3927 3.56402 13.1417 2.37306 11.6121 1.67573C10.0826 0.978409 8.36308 0.815162 6.7296 1.21219C5.09614 1.60922 3.64341 2.54349 2.60456 3.86509C1.56572 5.18669 1.00098 6.81898 1.00098 8.5C1.00098 10.181 1.56572 11.8133 2.60456 13.1349C3.64341 14.4565 5.09614 15.3908 6.7296 15.7878C8.36308 16.1848 10.0826 16.0216 11.6121 15.3243C13.1417 14.6269 14.3927 13.436 15.1643 11.9425Z" fill="white"/>
</svg>
