<svg width="708" height="220" viewBox="0 0 708 220" fill="none" xmlns="http://www.w3.org/2000/svg">
<mask id="mask0" mask-type="alpha" maskUnits="userSpaceOnUse" x="0" y="0" width="708" height="220">
<path d="M0 4C0 1.79086 1.79086 0 4 0H704C706.209 0 708 1.79086 708 4V216C708 218.209 706.209 220 704 220H4.00002C1.79088 220 0 218.209 0 216V4Z" fill="#325294"/>
</mask>
<g mask="url(#mask0)">
<g opacity="0.5">
<path d="M630.642 198.891C630.642 198.891 562.603 201.044 564.918 271.822C564.918 271.822 632.061 267.366 630.642 198.891Z" fill="#3B5C9F"/>
<path d="M290.893 85.2599C290.893 85.2599 246.081 119.498 282.378 165.767C282.453 165.767 325.249 130.415 290.893 85.2599Z" fill="#3B5C9F"/>
<path d="M735.577 94.8407C735.577 94.8407 680.458 134.574 722.283 191.835C722.208 191.835 775.385 150.765 735.577 94.8407Z" fill="#3B5C9F"/>
<path d="M620.632 158.117C620.632 158.117 564.617 119.572 524.137 177.873C524.212 177.798 580.824 214.041 620.632 158.117Z" fill="#3B5C9F"/>
<path d="M630.717 34.7574C630.717 34.7574 567.382 59.4145 593.598 125.513C593.598 125.513 655.363 98.7767 630.717 34.7574Z" fill="#3B5C9F"/>
<path d="M530.113 217.829C530.113 217.829 469.542 248.724 502.255 311.927C502.255 311.927 560.884 279.174 530.113 217.829Z" fill="#3B5C9F"/>
<path d="M295.074 182.626C295.074 182.626 299.032 250.21 369.76 246.051C370.134 246.051 363.86 179.432 295.074 182.626Z" fill="#3B5C9F"/>
<path d="M193.799 167.475C193.799 167.475 167.285 229.86 232.935 257.34C232.935 257.34 256.984 194.806 193.799 167.475Z" fill="#3B5C9F"/>
<path d="M397.694 119.943C397.694 119.943 376.782 184.408 444.597 206.094C444.448 206.02 462.896 141.63 397.694 119.943Z" fill="#3B5C9F"/>
<path d="M341.828 50.6511C341.828 50.6511 359.081 116.156 427.942 98.1085C428.017 98.1085 408.673 34.015 341.828 50.6511Z" fill="#3B5C9F"/>
<path d="M503.749 0C503.749 0 467.75 57.4837 528.321 94.8406C528.321 94.8406 562.005 37.1341 503.749 0Z" fill="#3B5C9F"/>
<path d="M564.843 3.63916C564.843 3.63916 591.133 79.3928 515.475 144.749C439.818 210.105 458.489 334.207 487.991 376.317C517.492 418.427 533.773 542.678 462.224 609" stroke="#3B5C9F" stroke-width="7" stroke-miterlimit="10" stroke-linecap="round" stroke-linejoin="round"/>
<path d="M520.032 609C448.482 542.678 464.913 418.279 494.265 376.317C494.265 376.317 514.505 315.789 624.444 278.655C734.382 241.521 765.751 191.389 776.804 145.566" stroke="#3B5C9F" stroke-width="7" stroke-miterlimit="10" stroke-linecap="round" stroke-linejoin="round"/>
<path d="M661.487 40.3276C661.487 40.3276 728.108 177.427 636.691 274.793" stroke="#3B5C9F" stroke-width="7" stroke-miterlimit="10" stroke-linecap="round" stroke-linejoin="round"/>
<path d="M243.391 100.485C243.391 100.485 229.947 293.954 385.295 355.745" stroke="#3B5C9F" stroke-width="7" stroke-miterlimit="10" stroke-linecap="round" stroke-linejoin="round"/>
<path d="M420.698 47.3088C420.698 47.3088 507.409 66.8414 507.783 152.101" stroke="#3B5C9F" stroke-width="7" stroke-miterlimit="10" stroke-linecap="round" stroke-linejoin="round"/>
<path d="M326.891 100.485C326.891 100.485 353.853 217.16 464.239 245.085" stroke="#3B5C9F" stroke-width="7" stroke-miterlimit="10" stroke-linecap="round" stroke-linejoin="round"/>
</g>
</g>
</svg>
