<svg width="368" height="336" viewBox="0 0 368 336" fill="none" xmlns="http://www.w3.org/2000/svg">
<mask id="mask0" mask-type="alpha" maskUnits="userSpaceOnUse" x="0" y="0" width="368" height="336">
<path d="M0 4C0 1.79087 1.79086 0 4 0H364C366.209 0 368 1.79086 368 4V332C368 334.209 366.209 336 364 336H4C1.79086 336 0 334.209 0 332V4Z" fill="#325294"/>
</mask>
<g mask="url(#mask0)">
<g opacity="0.5">
<path d="M113.151 314.624C113.151 314.624 63.6341 288.556 36 340.396C36 340.396 86.0401 364.458 113.151 314.624Z" fill="#3B5C9F"/>
<path d="M180.893 90.26C180.893 90.26 136.081 124.498 172.379 170.767C172.453 170.767 215.249 135.415 180.893 90.26Z" fill="#3B5C9F"/>
<path d="M420.113 222.829C420.113 222.829 359.542 253.724 392.255 316.927C392.255 316.927 450.884 284.174 420.113 222.829Z" fill="#3B5C9F"/>
<path d="M232.352 289.745C232.352 289.745 265.812 348.714 327.802 313.882C327.802 313.808 292.773 256.695 232.352 289.745Z" fill="#3B5C9F"/>
<path d="M185.074 187.626C185.074 187.626 189.032 255.21 259.76 251.051C260.134 251.051 253.86 184.432 185.074 187.626Z" fill="#3B5C9F"/>
<path d="M83.7988 172.475C83.7988 172.475 57.2851 234.86 122.935 262.34C122.935 262.34 146.984 199.806 83.7988 172.475Z" fill="#3B5C9F"/>
<path d="M102.994 358.666C102.994 358.666 155.275 402.41 200.908 348.268C200.908 348.268 148.03 306.826 102.994 358.666Z" fill="#3B5C9F"/>
<path d="M287.694 124.943C287.694 124.943 266.782 189.408 334.597 211.095C334.448 211.02 352.896 146.63 287.694 124.943Z" fill="#3B5C9F"/>
<path d="M231.828 55.6511C231.828 55.6511 249.081 121.156 317.942 103.108C318.017 103.108 298.673 39.015 231.828 55.6511Z" fill="#3B5C9F"/>
<path d="M393.749 5C393.749 5 357.75 62.4837 418.321 99.8406C418.321 99.8406 452.005 42.1341 393.749 5Z" fill="#3B5C9F"/>
<path d="M454.843 8.63916C454.843 8.63916 481.133 84.3928 405.475 149.749C329.818 215.105 348.489 339.207 377.991 381.317C407.492 423.427 423.773 547.678 352.224 614" stroke="#3B5C9F" stroke-width="7" stroke-miterlimit="10" stroke-linecap="round" stroke-linejoin="round"/>
<path d="M410.032 614C338.482 547.678 354.913 423.279 384.265 381.317C384.265 381.317 404.505 320.789 514.444 283.655C624.382 246.521 655.751 196.389 666.804 150.566" stroke="#3B5C9F" stroke-width="7" stroke-miterlimit="10" stroke-linecap="round" stroke-linejoin="round"/>
<path d="M133.391 105.485C133.391 105.485 119.947 298.954 275.295 360.745" stroke="#3B5C9F" stroke-width="7" stroke-miterlimit="10" stroke-linecap="round" stroke-linejoin="round"/>
<path d="M53.3275 236.791C53.3275 236.791 89.6999 312.916 194.261 304.153" stroke="#3B5C9F" stroke-width="7" stroke-miterlimit="10" stroke-linecap="round" stroke-linejoin="round"/>
<path d="M310.698 52.3088C310.698 52.3088 397.41 71.8414 397.783 157.101" stroke="#3B5C9F" stroke-width="7" stroke-miterlimit="10" stroke-linecap="round" stroke-linejoin="round"/>
<path d="M216.891 105.485C216.891 105.485 243.853 222.161 354.24 250.085" stroke="#3B5C9F" stroke-width="7" stroke-miterlimit="10" stroke-linecap="round" stroke-linejoin="round"/>
</g>
</g>
</svg>
