<svg width="368" height="336" viewBox="0 0 368 336" fill="none" xmlns="http://www.w3.org/2000/svg">
<mask id="mask0" mask-type="alpha" maskUnits="userSpaceOnUse" x="0" y="0" width="368" height="336">
<path d="M0 4C0 1.79087 1.79086 0 4 0H364C366.209 0 368 1.79086 368 4V332C368 334.209 366.209 336 364 336H4C1.79086 336 0 334.209 0 332V4Z" fill="#325294"/>
</mask>
<g mask="url(#mask0)">
<g opacity="0.5">
<path d="M161.642 298.89C161.642 298.89 93.6026 301.044 95.9179 371.822C95.9179 371.822 163.061 367.366 161.642 298.89Z" fill="#3B5C9F"/>
<path d="M266.577 194.841C266.577 194.841 211.458 234.574 253.283 291.835C253.208 291.835 306.385 250.765 266.577 194.841Z" fill="#3B5C9F"/>
<path d="M151.632 258.117C151.632 258.117 95.6174 219.572 55.1372 277.873C55.2119 277.798 111.824 314.041 151.632 258.117Z" fill="#3B5C9F"/>
<path d="M161.717 134.758C161.717 134.758 98.3825 159.415 124.598 225.513C124.598 225.513 186.363 198.777 161.717 134.758Z" fill="#3B5C9F"/>
<path d="M61.1133 317.829C61.1133 317.829 0.542337 348.724 33.2551 411.927C33.2551 411.927 91.8842 379.174 61.1133 317.829Z" fill="#3B5C9F"/>
<path d="M263.59 392.468C263.59 392.468 331.704 393.063 332.227 322.285C332.003 322.211 264.785 323.919 263.59 392.468Z" fill="#3B5C9F"/>
<path d="M34.7491 100C34.7491 100 -1.24989 157.484 59.321 194.841C59.321 194.841 93.0047 137.134 34.7491 100Z" fill="#3B5C9F"/>
<path d="M95.8431 103.639C95.8431 103.639 122.133 179.393 46.4753 244.749C-29.1824 310.105 -10.5107 434.207 18.9905 476.317C48.4918 518.427 64.7735 642.678 -6.77637 709" stroke="#3B5C9F" stroke-width="7" stroke-miterlimit="10" stroke-linecap="round" stroke-linejoin="round"/>
<path d="M51.0316 709C-20.5183 642.678 -4.08722 518.279 25.2647 476.317C25.2647 476.317 45.5048 415.789 155.444 378.655C265.382 341.521 296.751 291.389 307.804 245.566" stroke="#3B5C9F" stroke-width="7" stroke-miterlimit="10" stroke-linecap="round" stroke-linejoin="round"/>
<path d="M192.487 140.328C192.487 140.328 259.108 277.427 167.691 374.793" stroke="#3B5C9F" stroke-width="7" stroke-miterlimit="10" stroke-linecap="round" stroke-linejoin="round"/>
<path d="M-48.3016 147.309C-48.3016 147.309 38.4096 166.841 38.783 252.101" stroke="#3B5C9F" stroke-width="7" stroke-miterlimit="10" stroke-linecap="round" stroke-linejoin="round"/>
</g>
</g>
</svg>
