<svg width="290" height="280" viewBox="0 0 290 280" fill="none" xmlns="http://www.w3.org/2000/svg">
<mask id="mask0" mask-type="alpha" maskUnits="userSpaceOnUse" x="0" y="0" width="290" height="280">
<path d="M0 3.99999C0 1.79085 1.79086 0 4 0H286C288.209 0 290 1.79086 290 4V276C290 278.209 288.209 280 286 280H4C1.79086 280 0 278.209 0 276V3.99999Z" fill="#325294"/>
</mask>
<g mask="url(#mask0)">
<g opacity="0.5">
<path d="M65.9134 158.242C65.9134 158.242 12.2952 160.037 14.1197 219.018C14.1197 219.018 67.0316 215.305 65.9134 158.242Z" fill="#3B5C9F"/>
<path d="M104.23 238.637C104.23 238.637 63.0301 221.122 45.7852 266.364C45.7264 266.364 86.9258 282.208 104.23 238.637Z" fill="#3B5C9F"/>
<path d="M148.607 71.5337C148.607 71.5337 105.171 104.645 138.131 152.362C138.072 152.362 179.978 118.137 148.607 71.5337Z" fill="#3B5C9F"/>
<path d="M58.0248 124.264C58.0248 124.264 13.8826 92.1431 -18.0176 140.727C-17.9587 140.665 26.6544 170.868 58.0248 124.264Z" fill="#3B5C9F"/>
<path d="M65.9723 21.4644C65.9723 21.4644 16.0622 42.0119 36.7207 97.0942C36.7207 97.0942 85.3949 74.8137 65.9723 21.4644Z" fill="#3B5C9F"/>
<path d="M-13.3079 174.024C-13.3079 174.024 -61.0404 199.77 -35.2613 252.439C-35.2613 252.439 10.9409 225.145 -13.3079 174.024Z" fill="#3B5C9F"/>
<path d="M126.064 298.857C126.064 298.857 175.327 321.199 197.516 266.983C197.516 267.045 148.136 246.683 126.064 298.857Z" fill="#3B5C9F"/>
<path d="M146.252 236.224C146.252 236.224 199.929 236.719 200.341 177.737C200.164 177.676 147.194 179.099 146.252 236.224Z" fill="#3B5C9F"/>
<path d="M-34.0836 -7.5C-34.0836 -7.5 -62.4524 40.403 -14.7199 71.5338C-14.7199 71.5338 11.8243 23.4451 -34.0836 -7.5Z" fill="#3B5C9F"/>
<path d="M14.062 -4.46753C14.062 -4.46753 34.7795 58.6605 -24.842 113.124C-84.4635 167.587 -69.7495 271.006 -46.5012 306.098C-23.2529 341.189 -10.4222 444.732 -66.8066 500" stroke="#3B5C9F" stroke-width="7" stroke-miterlimit="10" stroke-linecap="round" stroke-linejoin="round"/>
<path d="M-21.2517 500C-77.6361 444.732 -64.6877 341.066 -41.5572 306.098C-41.5572 306.098 -25.6071 255.657 61.0295 224.712C147.666 193.767 172.386 151.991 181.096 113.805" stroke="#3B5C9F" stroke-width="7" stroke-miterlimit="10" stroke-linecap="round" stroke-linejoin="round"/>
<path d="M90.222 26.1062C90.222 26.1062 142.722 140.356 70.6816 221.494" stroke="#3B5C9F" stroke-width="7" stroke-miterlimit="10" stroke-linecap="round" stroke-linejoin="round"/>
<path d="M50.1387 291.677C50.1387 291.677 109.937 294.71 126.063 245.074" stroke="#3B5C9F" stroke-width="7" stroke-miterlimit="10" stroke-linecap="round" stroke-linejoin="round"/>
</g>
</g>
</svg>
