<svg width="368" height="336" viewBox="0 0 368 336" fill="none" xmlns="http://www.w3.org/2000/svg">
<mask id="mask0" mask-type="alpha" maskUnits="userSpaceOnUse" x="0" y="0" width="368" height="336">
<path d="M0 4C0 1.79087 1.79086 0 4 0H364C366.209 0 368 1.79086 368 4V332C368 334.209 366.209 336 364 336H4C1.79086 336 0 334.209 0 332V4Z" fill="#325294"/>
</mask>
<g mask="url(#mask0)">
<g opacity="0.5">
<path d="M83.6421 189.89C83.6421 189.89 15.6025 192.044 17.9178 262.822C17.9178 262.822 85.0612 258.366 83.6421 189.89Z" fill="#3B5C9F"/>
<path d="M132.263 286.365C132.263 286.365 79.982 265.347 58.0988 319.637C58.0241 319.637 110.305 338.65 132.263 286.365Z" fill="#3B5C9F"/>
<path d="M188.577 85.8406C188.577 85.8406 133.458 125.574 175.283 182.835C175.208 182.835 228.385 141.765 188.577 85.8406Z" fill="#3B5C9F"/>
<path d="M73.6324 149.117C73.6324 149.117 17.6174 110.572 -22.8628 168.873C-22.7881 168.798 33.8244 205.041 73.6324 149.117Z" fill="#3B5C9F"/>
<path d="M83.7167 25.7576C83.7167 25.7576 20.3825 50.4146 46.5975 116.513C46.5975 116.513 108.363 89.7768 83.7167 25.7576Z" fill="#3B5C9F"/>
<path d="M-16.8867 208.829C-16.8867 208.829 -77.4577 239.724 -44.7449 302.927C-44.7449 302.927 13.8842 270.174 -16.8867 208.829Z" fill="#3B5C9F"/>
<path d="M159.973 358.628C159.973 358.628 222.486 385.439 250.643 320.38C250.643 320.454 187.98 296.02 159.973 358.628Z" fill="#3B5C9F"/>
<path d="M185.59 283.468C185.59 283.468 253.704 284.063 254.227 213.285C254.003 213.211 186.785 214.919 185.59 283.468Z" fill="#3B5C9F"/>
<path d="M-43.2509 -9C-43.2509 -9 -79.2499 48.4837 -18.679 85.8406C-18.679 85.8406 15.0047 28.1341 -43.2509 -9Z" fill="#3B5C9F"/>
<path d="M17.8431 -5.36084C17.8431 -5.36084 44.1329 70.3928 -31.5247 135.749C-107.182 201.105 -88.5107 325.207 -59.0095 367.317C-29.5082 409.427 -13.2265 533.678 -84.7764 600" stroke="#3B5C9F" stroke-width="7" stroke-miterlimit="10" stroke-linecap="round" stroke-linejoin="round"/>
<path d="M-26.9684 600C-98.5183 533.678 -82.0872 409.279 -52.7353 367.317C-52.7353 367.317 -32.4952 306.789 77.4436 269.655C187.382 232.521 218.751 182.389 229.804 136.566" stroke="#3B5C9F" stroke-width="7" stroke-miterlimit="10" stroke-linecap="round" stroke-linejoin="round"/>
<path d="M114.487 31.3276C114.487 31.3276 181.108 168.427 89.6913 265.793" stroke="#3B5C9F" stroke-width="7" stroke-miterlimit="10" stroke-linecap="round" stroke-linejoin="round"/>
<path d="M63.6255 350.013C63.6255 350.013 139.507 353.652 159.971 294.089" stroke="#3B5C9F" stroke-width="7" stroke-miterlimit="10" stroke-linecap="round" stroke-linejoin="round"/>
</g>
</g>
</svg>
