<svg width="708" height="224" viewBox="0 0 708 224" fill="none" xmlns="http://www.w3.org/2000/svg">
<mask id="mask0" mask-type="alpha" maskUnits="userSpaceOnUse" x="0" y="0" width="708" height="224">
<path d="M0 4C0 1.79086 1.79086 0 4 0H704C706.209 0 708 1.79086 708 4V220C708 222.209 706.209 224 704 224H4.00002C1.79088 224 0 222.209 0 220V4Z" fill="#325294"/>
</mask>
<g mask="url(#mask0)">
<g opacity="0.5">
<path d="M83.6422 189.891C83.6422 189.891 15.6026 192.044 17.9179 262.822C17.9179 262.822 85.0612 258.366 83.6422 189.891Z" fill="#3B5C9F"/>
<path d="M188.577 85.8407C188.577 85.8407 133.458 125.574 175.283 182.835C175.208 182.835 228.385 141.765 188.577 85.8407Z" fill="#3B5C9F"/>
<path d="M73.6324 149.117C73.6324 149.117 17.6174 110.572 -22.8628 168.873C-22.7881 168.798 33.8244 205.041 73.6324 149.117Z" fill="#3B5C9F"/>
<path d="M83.7167 25.7576C83.7167 25.7576 20.3825 50.4146 46.5975 116.513C46.5975 116.513 108.363 89.7768 83.7167 25.7576Z" fill="#3B5C9F"/>
<path d="M-16.8867 208.829C-16.8867 208.829 -77.4577 239.724 -44.7449 302.927C-44.7449 302.927 13.8842 270.174 -16.8867 208.829Z" fill="#3B5C9F"/>
<path d="M185.59 283.469C185.59 283.469 253.704 284.063 254.227 213.285C254.003 213.211 186.785 214.919 185.59 283.469Z" fill="#3B5C9F"/>
<path d="M-43.2509 -9C-43.2509 -9 -79.2499 48.4837 -18.679 85.8406C-18.679 85.8406 15.0047 28.1341 -43.2509 -9Z" fill="#3B5C9F"/>
<path d="M17.8431 -5.36084C17.8431 -5.36084 44.1329 70.3928 -31.5247 135.749C-107.182 201.105 -88.5107 325.207 -59.0095 367.317C-29.5082 409.427 -13.2265 533.678 -84.7764 600" stroke="#3B5C9F" stroke-width="7" stroke-miterlimit="10" stroke-linecap="round" stroke-linejoin="round"/>
<path d="M-26.9684 600C-98.5183 533.678 -82.0872 409.279 -52.7353 367.317C-52.7353 367.317 -32.4952 306.789 77.4436 269.655C187.382 232.521 218.751 182.389 229.804 136.566" stroke="#3B5C9F" stroke-width="7" stroke-miterlimit="10" stroke-linecap="round" stroke-linejoin="round"/>
<path d="M114.487 31.3276C114.487 31.3276 181.108 168.427 89.6913 265.793" stroke="#3B5C9F" stroke-width="7" stroke-miterlimit="10" stroke-linecap="round" stroke-linejoin="round"/>
</g>
</g>
</svg>
