<svg width="41" height="32" viewBox="0 0 41 32" fill="none" xmlns="http://www.w3.org/2000/svg">
<path d="M36.7856 7.97497C36.8117 8.32495 36.8117 8.67501 36.8117 9.025C36.8117 19.6999 28.3567 32 12.9036 32C8.14278 32 3.7202 30.6749 0 28.375C0.676423 28.45 1.32674 28.475 2.02919 28.475C5.95744 28.475 9.57362 27.2 12.4613 25.025C8.76715 24.95 5.67132 22.625 4.60467 19.425C5.12502 19.4999 5.64529 19.55 6.19166 19.55C6.94608 19.55 7.70058 19.4499 8.40295 19.275C4.5527 18.5249 1.66491 15.275 1.66491 11.35V11.25C2.78353 11.85 4.0844 12.225 5.46311 12.275C3.19977 10.8249 1.71696 8.34996 1.71696 5.54994C1.71696 4.04997 2.13313 2.67497 2.8616 1.47496C6.99805 6.37496 13.2157 9.57491 20.1878 9.92496C20.0577 9.32496 19.9797 8.70002 19.9797 8.07501C19.9797 3.62496 23.7259 0 28.3826 0C30.802 0 32.9873 0.974998 34.5222 2.55C36.4213 2.20002 38.2423 1.52498 39.8554 0.600004C39.2309 2.47505 37.9042 4.05005 36.1612 5.04998C37.8522 4.87506 39.4912 4.42496 41 3.80003C39.8555 5.39996 38.4246 6.8249 36.7856 7.97497Z" fill="#365799"/>
</svg>
