<svg width="1440" height="1023" viewBox="0 0 1440 1023" fill="none" xmlns="http://www.w3.org/2000/svg">
<path d="M1190.12 533.815C1190.12 533.815 1109.24 536.358 1111.99 619.92C1111.99 619.92 1191.81 614.659 1190.12 533.815Z" fill="#E5EAF3"/>
<path d="M1247.92 647.715C1247.92 647.715 1185.77 622.901 1159.75 686.997C1159.67 686.997 1221.81 709.444 1247.92 647.715Z" fill="#E5EAF3"/>
<path d="M705.714 664.55C705.714 664.55 646.85 633.774 614 694.976C614 694.976 673.485 723.385 705.714 664.55Z" fill="#E5EAF3"/>
<path d="M786.24 399.66C786.24 399.66 732.969 440.082 776.118 494.708C776.207 494.708 827.08 452.971 786.24 399.66Z" fill="#E5EAF3"/>
<path d="M933.978 765.298C933.978 765.298 878.754 727.945 839.246 785.026C839.246 785.026 895.446 820.012 933.978 765.298Z" fill="#E5EAF3"/>
<path d="M1314.86 410.971C1314.86 410.971 1249.34 457.882 1299.06 525.485C1298.97 525.485 1362.18 476.996 1314.86 410.971Z" fill="#E5EAF3"/>
<path d="M1178.22 485.677C1178.22 485.677 1111.63 440.17 1063.51 509.001C1063.6 508.913 1130.9 551.702 1178.22 485.677Z" fill="#E5EAF3"/>
<path d="M1190.21 340.036C1190.21 340.036 1114.92 369.146 1146.08 447.184C1146.08 447.184 1219.51 415.618 1190.21 340.036Z" fill="#E5EAF3"/>
<path d="M1070.62 556.174C1070.62 556.174 998.612 592.65 1037.5 667.268C1037.5 667.268 1107.19 628.6 1070.62 556.174Z" fill="#E5EAF3"/>
<path d="M1064.13 759.335C1064.13 759.335 1103.02 829.482 1177.24 789.148C1177.42 789.148 1136.58 721.193 1064.13 759.335Z" fill="#E5EAF3"/>
<path d="M1280.86 733.031C1280.86 733.031 1355.17 764.684 1388.64 687.874C1388.64 687.962 1314.15 659.114 1280.86 733.031Z" fill="#E5EAF3"/>
<path d="M1311.31 644.295C1311.31 644.295 1392.28 644.997 1392.9 561.435C1392.63 561.347 1312.73 563.364 1311.31 644.295Z" fill="#E5EAF3"/>
<path d="M847.413 635.176C847.413 635.176 887.188 704.796 960.879 663.673C960.879 663.585 919.239 596.157 847.413 635.176Z" fill="#E5EAF3"/>
<path d="M791.211 514.612C791.211 514.612 795.916 594.404 879.995 589.494C880.439 589.494 872.981 510.842 791.211 514.612Z" fill="#E5EAF3"/>
<path d="M670.82 496.725C670.82 496.725 639.302 570.379 717.343 602.821C717.343 602.821 745.931 528.992 670.82 496.725Z" fill="#E5EAF3"/>
<path d="M693.641 716.546C693.641 716.546 755.789 768.191 810.036 704.27C810.036 704.27 747.177 655.343 693.641 716.546Z" fill="#E5EAF3"/>
<path d="M913.2 440.608C913.2 440.608 888.34 516.717 968.956 542.32C968.778 542.232 990.708 466.211 913.2 440.608Z" fill="#E5EAF3"/>
<path d="M846.789 358.8C846.789 358.8 867.298 436.136 949.157 414.829C949.246 414.829 926.251 339.159 846.789 358.8Z" fill="#E5EAF3"/>
<path d="M1039.28 299C1039.28 299 996.481 366.867 1068.49 410.971C1068.49 410.971 1108.53 342.841 1039.28 299Z" fill="#E5EAF3"/>
<path d="M1111.9 303.296C1111.9 303.296 1143.15 392.733 1053.21 469.894C963.275 547.055 985.471 693.573 1020.54 743.289C1055.61 793.005 1074.97 939.699 989.91 1018" stroke="#E7EAF1" stroke-width="5" stroke-miterlimit="10" stroke-linecap="round" stroke-linejoin="round"/>
<path d="M1058.63 1018C973.575 939.699 993.108 792.83 1028 743.289C1028 743.289 1052.06 671.828 1182.75 627.986C1313.44 584.145 1350.73 524.959 1363.87 470.858" stroke="#E7EAF1" stroke-width="5" stroke-miterlimit="10" stroke-linecap="round" stroke-linejoin="round"/>
<path d="M1226.78 346.612C1226.78 346.612 1305.98 508.474 1197.31 623.427" stroke="#E7EAF1" stroke-width="5" stroke-miterlimit="10" stroke-linecap="round" stroke-linejoin="round"/>
<path d="M1032.97 732.943C1057.84 721.291 1085.03 715.246 1112.56 715.246C1140.1 715.246 1167.28 721.291 1192.16 732.943C1275.08 773.189 1349.66 794.321 1435.52 724.175" stroke="#E7EAF1" stroke-width="5" stroke-miterlimit="10" stroke-linecap="round" stroke-linejoin="round"/>
<path d="M1166.32 722.859C1166.32 722.859 1256.53 727.156 1280.86 656.834" stroke="#E7EAF1" stroke-width="5" stroke-miterlimit="10" stroke-linecap="round" stroke-linejoin="round"/>
<path d="M1016.55 732.943C991.671 721.291 964.484 715.246 936.952 715.246C909.42 715.246 882.233 721.291 857.357 732.943C774.433 773.189 699.854 794.321 614 724.175" stroke="#E7EAF1" stroke-width="5" stroke-miterlimit="10" stroke-linecap="round" stroke-linejoin="round"/>
<path d="M729.774 417.635C729.774 417.635 713.793 646.049 898.463 719.001" stroke="#E7EAF1" stroke-width="5" stroke-miterlimit="10" stroke-linecap="round" stroke-linejoin="round"/>
<path d="M634.599 572.658C634.599 572.658 677.836 662.533 802.134 652.187" stroke="#E7EAF1" stroke-width="5" stroke-miterlimit="10" stroke-linecap="round" stroke-linejoin="round"/>
<path d="M940.547 354.854C940.547 354.854 1043.63 377.915 1044.07 478.575" stroke="#E7EAF1" stroke-width="5" stroke-miterlimit="10" stroke-linecap="round" stroke-linejoin="round"/>
<path d="M829.035 417.635C829.035 417.635 861.086 555.385 992.309 588.353" stroke="#E7EAF1" stroke-width="5" stroke-miterlimit="10" stroke-linecap="round" stroke-linejoin="round"/>
</svg>
