<svg width="18" height="18" viewBox="0 0 18 18" fill="none" xmlns="http://www.w3.org/2000/svg">
<path d="M9 9.88892C4.52 9.88892 1 11.6489 1 13.8889V16.5556C1 16.8045 1.19556 17 1.44444 17H16.5556C16.8044 17 17 16.8045 17 16.5556V13.8889C17 11.6489 13.48 9.88892 9 9.88892ZM16.1111 16.1111H1.88889V13.8889C1.88889 12.3778 4.75111 10.7778 9 10.7778C13.2489 10.7778 16.1111 12.3778 16.1111 13.8889V16.1111Z" fill="#325294" stroke="#325294"/>
<path d="M13 5C13 2.79556 11.2044 1 9 1C6.79556 1 5 2.79556 5 5C5 7.20444 6.79556 9 9 9C11.2044 9 13 7.20444 13 5ZM5.88889 5C5.88889 3.29333 7.29333 1.88889 9 1.88889C10.7067 1.88889 12.1111 3.29333 12.1111 5C12.1111 6.70667 10.7067 8.11111 9 8.11111C7.29333 8.11111 5.88889 6.70667 5.88889 5Z" fill="#325294" stroke="#325294"/>
</svg>
