<svg width="32" height="32" viewBox="0 0 32 32" fill="none" xmlns="http://www.w3.org/2000/svg">
<path d="M32 27.5556C32 30.0107 30.0107 32 27.5556 32H4.44444C1.99022 32 0 30.0107 0 27.5556V4.44444C0 1.98933 1.99022 0 4.44444 0H27.5556C30.0107 0 32 1.98933 32 4.44444V27.5556Z" fill="#365799"/>
<path d="M26.6094 10.7032C26.6503 10.5689 26.6698 10.4445 26.6645 10.3334C26.6511 10.0116 26.4298 9.77783 25.9089 9.77783H23.5818C22.9943 9.77783 22.7231 10.1334 22.5649 10.4898C22.5649 10.4898 21.1143 13.4756 19.4423 15.4445C18.9 16.0143 18.6245 16.0001 18.3311 16.0001C18.1738 16.0001 17.7765 15.8098 17.7765 15.2881V10.6792C17.7765 10.0623 17.6227 9.77783 17.1258 9.77783H12.9934C12.6316 9.77783 12.4431 10.0623 12.4431 10.3476C12.4431 10.9405 13.2414 11.0827 13.332 12.7441V15.9645C13.332 16.7467 13.196 16.8889 12.9027 16.8889C12.1116 16.8889 10.5543 14.2223 9.51159 10.7272C9.28581 10.0392 9.06003 9.77783 8.47248 9.77783H6.12314C5.44492 9.77783 5.33203 10.1103 5.33203 10.4658C5.33203 11.1067 5.86536 14.5716 8.77648 18.5556C10.8876 21.4445 13.6689 23.1112 16.1311 23.1112C17.6227 23.1112 17.7756 22.7316 17.7756 22.1387V19.4969C17.7765 18.7849 17.9391 18.6667 18.4138 18.6667C18.7525 18.6667 19.4431 18.8889 20.7765 20.4445C22.3143 22.2383 22.5934 23.1112 23.4751 23.1112H25.8023C26.3427 23.1112 26.6529 22.8845 26.6654 22.4445C26.668 22.3325 26.652 22.2072 26.6156 22.0676C26.4431 21.5556 25.652 20.3041 24.6654 19.1112C24.1187 18.4507 23.5791 17.7965 23.3311 17.4409C23.1649 17.2089 23.1018 17.0454 23.1098 16.8889C23.1178 16.7245 23.2031 16.5681 23.3311 16.3494C23.308 16.3494 26.316 12.1263 26.6094 10.7032Z" fill="white"/>
</svg>
