<?xml version="1.0" standalone="no"?>
<!DOCTYPE svg PUBLIC "-//W3C//DTD SVG 20010904//EN"
 "http://www.w3.org/TR/2001/REC-SVG-20010904/DTD/svg10.dtd">
<svg version="1.0" xmlns="http://www.w3.org/2000/svg"
 width="300.000000pt" height="300.000000pt" viewBox="0 0 300.000000 300.000000"
 preserveAspectRatio="xMidYMid meet">
<metadata>
Created by potrace 1.11, written by Peter Selinger 2001-2013
</metadata>
<g transform="translate(0.000000,300.000000) scale(0.100000,-0.100000)"
fill="#000000" stroke="none">
<path d="M1360 2964 c-14 -2 -59 -9 -100 -15 -623 -89 -1144 -629 -1218 -1264
-12 -106 -5 -364 13 -450 9 -44 18 -90 21 -102 10 -50 69 -204 109 -284 71
-144 153 -257 275 -380 279 -281 651 -434 1055 -432 472 2 936 254 1202 653
128 192 214 428 239 660 8 71 8 252 0 303 -3 18 -8 55 -11 82 -8 60 -35 166
-65 255 -82 241 -255 489 -450 644 -36 28 -66 54 -68 58 -2 5 -10 8 -17 8 -7
0 -15 4 -17 8 -4 11 -117 78 -198 117 -119 59 -251 100 -415 130 -40 8 -323
15 -355 9z m335 -87 c11 -3 27 -6 37 -6 11 -1 18 -14 23 -43 4 -24 9 -52 11
-63 6 -29 5 -184 -1 -220 -14 -80 -53 -176 -100 -244 -27 -41 -55 -76 -61 -78
-5 -2 -16 19 -23 45 -24 96 -112 201 -223 267 -55 33 -134 63 -142 54 -2 -2
-6 -21 -10 -41 -6 -31 -4 -38 10 -38 30 0 150 -70 194 -113 52 -52 99 -143
107 -207 5 -44 3 -52 -31 -96 -46 -60 -90 -154 -113 -239 l-17 -63 -50 20
c-73 28 -174 98 -233 161 -83 87 -163 222 -193 325 -11 35 -17 42 -39 42 -52
0 -58 -13 -37 -72 89 -254 268 -452 484 -534 l55 -21 3 -109 c2 -93 22 -231
40 -278 4 -11 -7 -11 -58 1 -44 10 -95 13 -168 10 l-105 -5 -70 41 c-94 54
-217 180 -276 282 -112 193 -170 420 -185 716 l-5 116 55 50 c191 175 448 295
721 338 76 12 355 13 400 2z m347 -99 c52 -23 78 -39 82 -53 2 -11 16 -58 30
-105 41 -132 59 -253 62 -405 3 -189 -23 -321 -91 -454 -46 -92 -59 -104 -155
-141 -198 -75 -382 -205 -452 -318 l-22 -36 -13 33 c-71 173 -77 418 -14 589
34 95 88 177 166 252 180 174 246 396 204 688 -1 4 -1 10 0 14 2 9 114 -26
203 -64z m293 -172 c96 -73 199 -176 270 -271 78 -104 78 -103 54 -174 -38
-112 -129 -231 -243 -319 -58 -45 -203 -132 -219 -132 -4 0 0 14 9 32 33 65
67 179 82 278 9 60 8 311 -2 380 -9 66 -41 205 -55 242 -10 28 -5 41 13 31 6
-4 47 -34 91 -67z m-1891 -281 c6 -78 17 -170 22 -200 2 -11 7 -33 9 -50 20
-115 103 -368 134 -409 4 -6 20 -33 36 -60 l28 -49 -68 7 c-86 9 -174 38 -245
81 -58 35 -151 120 -187 169 -20 29 -20 31 -3 90 46 158 126 311 245 468 11
14 21 25 22 24 1 -1 4 -33 7 -71z m2370 -395 c50 -155 70 -280 68 -440 -1
-159 -8 -195 -45 -222 -143 -107 -317 -142 -478 -97 -82 23 -209 71 -209 79 0
3 20 12 45 19 51 15 147 79 187 125 15 17 39 52 52 77 l25 45 -36 14 c-33 11
-38 11 -48 -5 -57 -96 -126 -153 -225 -185 -82 -26 -137 -29 -214 -13 -69 14
-190 16 -253 4 -24 -5 -43 -7 -43 -5 0 2 34 31 76 64 84 67 211 132 349 181
199 69 369 168 483 281 70 69 141 169 168 237 l17 44 24 -49 c13 -27 39 -96
57 -154z m-2509 -345 c90 -59 210 -97 328 -103 l99 -5 56 -55 c31 -30 81 -71
110 -90 l52 -35 -107 -49 c-95 -43 -160 -67 -234 -84 -57 -14 -188 -12 -245 2
-59 16 -168 68 -213 103 -33 25 -41 84 -36 271 5 211 3 208 73 140 31 -30 84
-73 117 -95z m1070 -351 c73 -26 78 -36 44 -105 -16 -31 -41 -97 -55 -145 -25
-81 -28 -104 -28 -259 -1 -155 2 -179 26 -266 15 -52 40 -124 56 -160 33 -72
34 -69 -35 -144 -32 -35 -40 -35 -162 -10 -358 73 -673 285 -880 593 -60 89
-124 221 -160 330 -17 51 -31 95 -31 97 0 2 27 -10 61 -26 101 -50 200 -71
304 -65 82 5 238 41 286 66 29 16 30 12 6 -27 -33 -53 -56 -137 -61 -212 -5
-93 -1 -103 42 -99 l35 4 2 71 c5 137 68 259 178 343 56 42 268 51 372 14z
m605 -2 c30 -12 117 -48 194 -81 113 -50 150 -72 207 -122 115 -101 187 -228
202 -352 5 -36 1 -41 -92 -136 -202 -207 -432 -336 -696 -391 -142 -30 -158
-29 -190 8 -69 82 -66 68 -33 141 29 65 60 170 73 243 8 49 79 122 150 155 33
14 82 26 125 30 l70 6 0 40 0 40 -72 -6 c-79 -5 -159 -32 -219 -72 -21 -14
-40 -25 -41 -25 -2 0 -5 30 -6 68 -5 119 -33 222 -109 409 -6 15 42 40 114 58
82 21 251 14 323 -13z m830 -174 c-31 -93 -100 -239 -126 -269 -8 -8 -14 -21
-14 -27 0 -30 -18 -7 -33 42 -20 62 -79 157 -138 221 l-42 45 54 1 c30 0 68 3
84 5 52 8 158 45 200 70 22 13 41 20 43 15 2 -5 -11 -51 -28 -103z m-1281 -61
c64 -199 58 -466 -13 -622 l-23 -50 -17 40 c-54 127 -80 348 -57 494 13 82 59
231 72 231 4 0 22 -42 38 -93z m-9 -877 c-9 -5 -35 -6 -59 -1 -2 1 4 10 14 21
17 19 19 19 37 3 12 -10 15 -19 8 -23z"/>
<path d="M1493 2753 c-25 -66 -23 -165 5 -219 23 -45 97 -117 114 -112 19 7
40 80 40 143 1 76 -24 135 -83 193 -23 23 -46 42 -50 42 -4 0 -16 -21 -26 -47z"/>
<path d="M1104 2760 c-23 -12 -52 -32 -64 -45 l-23 -25 55 -25 c96 -44 178
-32 257 35 28 24 26 27 -44 60 -53 26 -129 25 -181 0z"/>
<path d="M945 2555 c-5 -2 -22 -6 -37 -9 l-27 -6 25 -48 c52 -100 145 -162
238 -157 22 2 51 3 64 4 73 4 -52 170 -151 200 -38 11 -98 19 -112 16z"/>
<path d="M645 2368 c-40 -47 -58 -95 -57 -154 0 -49 28 -124 51 -139 12 -7 55
49 76 98 26 62 15 154 -24 206 l-18 23 -28 -34z"/>
<path d="M1107 2236 c-3 -8 -5 -45 -3 -83 3 -101 44 -167 136 -222 52 -31 70
-28 71 14 1 19 2 43 2 53 4 86 -50 179 -134 230 -42 25 -65 28 -72 8z"/>
<path d="M708 1965 c-6 -7 4 -55 21 -98 18 -46 61 -96 105 -122 61 -35 176
-51 176 -25 0 5 -9 33 -20 62 -26 70 -71 123 -131 153 -47 24 -138 42 -151 30z"/>
<path d="M1035 1622 c-45 -5 -125 -32 -125 -43 0 -5 18 -29 40 -53 74 -80 168
-106 274 -76 69 19 76 34 35 76 -63 65 -153 104 -224 96z"/>
<path d="M2014 2612 c-83 -55 -124 -126 -124 -214 0 -52 16 -128 26 -128 3 0
20 10 37 22 88 61 131 132 134 220 1 55 -14 128 -26 128 -3 0 -25 -12 -47 -28z"/>
<path d="M1895 2159 c-52 -6 -94 -25 -130 -56 -24 -21 -75 -87 -75 -97 0 -11
49 -26 101 -32 81 -9 152 18 215 81 61 60 67 82 27 91 -16 3 -41 9 -58 13 -16
4 -53 4 -80 0z"/>
<path d="M1953 1904 c-86 -38 -137 -106 -152 -202 -10 -65 -7 -71 34 -62 130
29 214 123 230 258 3 31 2 32 -30 30 -18 -1 -55 -12 -82 -24z"/>
<path d="M1594 1808 c-83 -77 -110 -167 -80 -271 9 -31 21 -59 26 -62 6 -4 35
18 64 49 66 67 91 132 83 215 -5 58 -24 111 -39 111 -5 0 -29 -19 -54 -42z"/>
<path d="M2441 2335 c-83 -95 -100 -202 -47 -308 l28 -59 28 27 c15 15 41 50
56 78 38 69 41 178 6 244 -12 23 -26 44 -31 47 -5 3 -23 -10 -40 -29z"/>
<path d="M295 2023 c-14 -36 -17 -123 -5 -172 14 -59 67 -125 128 -159 49 -27
54 -23 57 67 5 117 -41 207 -133 259 -37 20 -40 21 -47 5z"/>
<path d="M2672 1858 c-90 -33 -154 -118 -168 -221 -7 -49 -6 -49 66 -32 92 20
169 90 194 176 9 29 16 63 16 76 0 20 -5 23 -30 21 -17 -1 -52 -10 -78 -20z"/>
<path d="M2138 1549 c-64 -10 -114 -43 -149 -98 -35 -55 -28 -62 60 -62 64 -1
108 16 154 60 31 28 62 80 54 88 -13 12 -76 18 -119 12z"/>
<path d="M2580 1435 c-56 -18 -117 -69 -148 -123 l-23 -41 38 -10 c50 -14 116
-14 165 1 49 14 123 78 148 128 18 34 18 39 3 44 -36 14 -140 15 -183 1z"/>
<path d="M275 1467 c-32 -11 -79 -41 -107 -69 -17 -17 -17 -18 6 -33 51 -34
139 -45 193 -24 38 14 100 57 107 74 6 18 -69 53 -126 58 -23 2 -56 0 -73 -6z"/>
<path d="M590 1368 c-32 -9 -109 -57 -110 -68 0 -10 69 -49 106 -59 77 -21
148 -5 207 47 17 15 17 17 -5 34 -56 44 -134 62 -198 46z"/>
<path d="M1118 1165 c-65 -16 -119 -59 -163 -127 -17 -28 -17 -28 11 -39 91
-35 206 -14 271 49 40 38 73 84 73 101 0 22 -128 33 -192 16z"/>
<path d="M560 992 c-58 -20 -123 -86 -143 -146 -9 -27 -15 -52 -12 -56 6 -10
67 -4 125 11 60 17 140 98 156 157 6 23 8 45 3 48 -14 8 -83 1 -129 -14z"/>
<path d="M1199 920 c-55 -29 -116 -96 -133 -147 -17 -50 -21 -149 -7 -172 13
-20 75 13 132 69 61 61 87 158 66 243 -9 32 -11 32 -58 7z"/>
<path d="M1665 1134 c19 -102 91 -183 187 -208 84 -23 114 -19 110 14 -6 41
-37 104 -71 142 -41 47 -109 79 -178 85 l-56 5 8 -38z"/>
<path d="M2066 1092 c-10 -31 4 -133 22 -175 10 -23 36 -57 57 -76 43 -38 120
-75 135 -66 15 9 3 140 -16 177 -39 78 -94 128 -163 148 -24 7 -31 5 -35 -8z"/>
</g>
</svg>
